<?xml version="1.0" standalone="no"?>
<!DOCTYPE svg PUBLIC "-//W3C//DTD SVG 1.1//EN" "http://www.w3.org/Graphics/SVG/1.1/DTD/svg11.dtd" >
<svg xmlns="http://www.w3.org/2000/svg" xmlns:xlink="http://www.w3.org/1999/xlink" version="1.1">
<metadata>
Created by FontForge 20170731 at Wed Oct 10 23:31:27 2012
 By ,,,
(c) 1990, 1991, 1992, 1994, 1997, 1998, 2000, 2002, 2004 Adobe Systems Incorporated. All rights reserved.
</metadata>
<defs>
<font id="MinionPro-BoldIt" horiz-adv-x="400" >
  <font-face 
    font-family="Minion Pro"
    font-weight="700"
    font-style="italic"
    font-stretch="normal"
    units-per-em="1000"
    panose-1="2 4 7 3 6 3 6 9 2 3"
    ascent="727"
    descent="-273"
    x-height="454"
    cap-height="649"
    bbox="-230 -360 1684 1032"
    underline-thickness="50"
    underline-position="-200"
    slope="-12"
    unicode-range="U+0020-FB06"
  />
<missing-glyph horiz-adv-x="500" 
d="M0 0v700h500v-700h-500zM250 395l170 255h-340zM280 350l170 -255v510zM80 50h340l-170 255zM50 605v-510l170 255z" />
    <glyph glyph-name="T_h" unicode="Th" horiz-adv-x="1071" 
d="M1031 122l15 -30q-47 -49 -95.5 -76.5t-77.5 -27.5q-53 0 -29 107l51 219q12 49 -8 49q-24 0 -72 -49t-84 -107q-19 -78 -39 -197q-47 -5 -118 -22l-6 9q69 314 119 602q-108 8 -175 8h-38l-96 -478q-12 -60 -0.5 -74.5t76.5 -20.5l-7 -34h-312l8 34q58 5 74 20t29 75
l105 478h-52q-57 0 -82 -6.5t-41 -23.5q-29 -32 -57 -92h-38q33 102 51 189h28q6 -16 15 -20.5t31 -4.5h424q40 0 53.5 4t16.5 16l2 9q101 32 111 32t12 -7.5t-3 -27.5q-57 -287 -79 -391h2q71 92 149 141q46 29 83 29q65 0 38 -129l-45 -200q-7 -38 3 -41q6 0 24.5 12
t33.5 26z" />
    <glyph glyph-name="Tcaron_h" unicode="&#x164;h" horiz-adv-x="1071" 
d="M1031 122l15 -30q-47 -49 -95.5 -76.5t-77.5 -27.5q-53 0 -29 107l51 219q12 49 -8 49q-24 0 -72 -49t-84 -107q-19 -78 -39 -197q-47 -5 -118 -22l-6 9q69 314 119 602q-108 8 -175 8h-38l-96 -478q-12 -60 -0.5 -74.5t76.5 -20.5l-7 -34h-312l8 34q58 5 74 20t29 75
l105 478h-52q-57 0 -82 -6.5t-41 -23.5q-29 -32 -57 -92h-38q33 102 51 189h28q6 -16 15 -20.5t31 -4.5h424q40 0 53.5 4t16.5 16l2 9q101 32 111 32t12 -7.5t-3 -27.5q-57 -287 -79 -391h2q71 92 149 141q46 29 83 29q65 0 38 -129l-45 -200q-7 -38 3 -41q6 0 24.5 12
t33.5 26zM568 826l18 -27q-72 -51 -147 -116h-34q-64 73 -110 115l21 28q81 -34 118 -55q66 31 134 55z" />
    <glyph glyph-name="uni021A_h" unicode="&#x21a;h" horiz-adv-x="1071" 
d="M1031 122l15 -30q-47 -49 -95.5 -76.5t-77.5 -27.5q-53 0 -29 107l51 219q12 49 -8 49q-24 0 -72 -49t-84 -107q-19 -78 -39 -197q-47 -5 -118 -22l-6 9q69 314 119 602q-108 8 -175 8h-38l-96 -478q-12 -60 -0.5 -74.5t76.5 -20.5l-7 -34h-312l8 34q58 5 74 20t29 75
l105 478h-52q-57 0 -82 -6.5t-41 -23.5q-29 -32 -57 -92h-38q33 102 51 189h28q6 -16 15 -20.5t31 -4.5h424q40 0 53.5 4t16.5 16l2 9q101 32 111 32t12 -7.5t-3 -27.5q-57 -287 -79 -391h2q71 92 149 141q46 29 83 29q65 0 38 -129l-45 -200q-7 -38 3 -41q6 0 24.5 12
t33.5 26zM317 -32q30 0 52.5 -22t22.5 -58q0 -48 -40 -82.5t-104 -49.5l-10 31q39 17 58 32.5t19 36.5q0 32 -41 44q-12 2 -12 23q0 18 15 31.5t40 13.5z" />
    <glyph glyph-name="f_b" unicode="fb" horiz-adv-x="795" 
d="M361 438l-21 -40l-96 -9q-41 -232 -54 -290q-27 -118 -61 -181.5t-89 -109.5q-61 -52 -111 -52q-25 0 -45 14t-19 33q0 32 35 57q12 10 20 2q41 -35 74 -35q22 0 31 23q18 39 45 206q8 49 24.5 163.5t26.5 169.5h-80l-5 10l33 39h62q14 65 35.5 108t63.5 81
q34 31 80 53.5t83 22.5q50 0 81 -25q67 25 90 25q16 0 8 -37q-16 -69 -41 -186.5t-32 -151.5h2q51 61 103.5 93.5t92.5 32.5t62 -33t22 -91q0 -81 -40.5 -158.5t-108.5 -125.5q-83 -58 -168 -58q-71 0 -102 48q-26 38 -7 133q28 145 87 437q-41 48 -88 48q-23 0 -37 -11.5
t-31.5 -61t-32.5 -143.5h108zM622 375q-47 0 -133 -118q-10 -34 -18 -84q-11 -55 -2.5 -84.5t21 -39.5t29.5 -10q23 0 42 15q32 23 61.5 100t29.5 158q0 27 -9 45t-21 18z" />
    <glyph glyph-name="f_f_b" unicode="ffb" horiz-adv-x="1068" 
d="M635 438l-21 -40l-96 -8q-19 -132 -43 -252q-23 -120 -62.5 -191t-103.5 -117q-69 -50 -132 -50q-70 0 -114 49q-26 -26 -63 -49.5t-70 -23.5q-24 0 -42.5 12t-18.5 29q2 31 26 53q19 17 29 10q44 -31 68 -31q22 0 34 22q23 53 48 220q8 53 23 158.5t24 160.5h-83l-5 10
l33 38h64q13 53 33.5 91t60.5 74q36 33 86.5 56.5t97.5 23.5q73 0 107 -45q33 29 75 47t77 18q49 0 80 -25q67 25 91 25q16 0 8 -37q-16 -68 -40.5 -182t-34.5 -158h2q112 128 198 128q38 0 60.5 -33t22.5 -90q0 -81 -40.5 -160t-108.5 -126q-84 -57 -168 -57q-71 0 -102 48
q-26 38 -7 133q31 159 87 433q-40 55 -86 55q-18 -1 -29.5 -7.5t-25 -28t-25.5 -66.5t-23 -117h109zM897 372q-51 0 -135 -118q-8 -25 -17 -81q-12 -55 -3.5 -84.5t20.5 -39.5t29 -11q20 0 42 15q32 24 62 101t30 157q0 61 -28 61zM252 438h151q19 88 57 139q-35 57 -100 57
q-26 0 -43.5 -14t-34.5 -58t-30 -124zM395 390h-151q-23 -152 -49 -280q-28 -136 -83 -221q47 -53 111 -53q33 0 53 17t33 55q20 51 40 174q11 70 25.5 170.5t20.5 137.5z" />
    <glyph glyph-name="f_f_h" unicode="ffh" horiz-adv-x="1096" 
d="M1058 122l15 -30q-47 -49 -95.5 -76.5t-77.5 -27.5q-53 0 -29 107l51 218q12 49 -8 49q-25 0 -71 -47.5t-85 -109.5q-20 -78 -39 -195q-47 -5 -118 -22l-6 9q52 240 121 606q-42 55 -88 55q-23 -1 -38 -13.5t-32 -62.5t-32 -144h109l-21 -39l-95 -8q-33 -195 -45 -253
q-23 -119 -61.5 -190.5t-100.5 -117.5q-66 -50 -133 -50q-73 0 -117 50q-25 -25 -64 -49.5t-71 -24.5q-24 0 -43 12t-19 29q1 13 10 29.5t18 23.5q18 18 29 11q41 -31 70 -31q23 0 34 22q19 41 47 224q45 297 48 315h-83l-4 10l32 37h64q12 51 33 89t61 75q36 33 86 57
t101 24q69 0 108 -41q31 27 71.5 44t75.5 17q50 0 83 -25q64 25 90 25q15 0 9 -34l-80 -387h2q77 97 152 143q46 29 83 29q64 0 37 -129l-45 -200q-7 -35 -3 -39q1 -2 4 -3q4 -2 24 11t36 28zM252 438h151q17 86 60 143q-41 54 -99 54q-42 0 -68 -40.5t-44 -156.5zM395 391
h-151q-24 -148 -51 -281q-29 -139 -81 -220q18 -22 50 -38t66 -16q59 0 83 72q18 51 37 174q14 87 28 183.5t19 125.5z" />
    <glyph glyph-name="f_f_j" unicode="ffj" horiz-adv-x="815" 
d="M68 438h64q22 97 91 160q34 32 85 56.5t100 24.5q69 0 108 -41q31 28 74 46.5t84 18.5q62 -1 90 -26.5t28 -52.5q0 -41 -55 -58q-41 -17 -47 10q-18 83 -57 83q-73 0 -103 -221h56q115 0 179 16q35 0 20 -76q-30 -164 -60 -307q-32 -158 -141 -237q-74 -54 -116 -54
q-19 0 -33.5 9.5t-14.5 27.5q1 15 12.5 33.5t24.5 28.5q9 8 20 1q35 -28 62 -28q13 0 21.5 13.5t17.5 53.5q7 31 77 402q9 45 0.5 57t-48.5 12h-86q-33 -194 -47 -264q-24 -117 -60.5 -182t-98.5 -112q-70 -52 -136 -52q-69 0 -117 49q-25 -26 -61.5 -49.5t-69.5 -23.5
q-25 0 -43 11.5t-18 29.5q2 31 26 53q18 18 29 10q45 -32 71 -32q17 0 30 22q17 37 48 227q45 286 50 313h-83l-5 10zM255 438h150q14 77 56 137q-41 56 -100 56q-41 0 -64.5 -40t-41.5 -153zM397 390h-151q-37 -219 -50 -280q-29 -148 -83 -221q20 -22 51.5 -37.5
t64.5 -15.5q57 0 79 66q16 38 39 170q31 184 50 318z" />
    <glyph glyph-name="f_f_k" unicode="ffk" horiz-adv-x="1052" 
d="M758 254h2q40 51 78 88q37 37 58 56.5t51 37.5t55 18q22 0 37 -11.5t15 -27.5q0 -28 -24 -54q-11 -11 -20 -8q-18 11 -50 11q-54 0 -94 -50q19 -67 44 -125q28 -65 41.5 -89.5t25.5 -24.5q20 0 53 36l19 -26q-69 -97 -135 -97q-46 0 -76 71q-25 60 -61 170
q-24 -27 -32 -42q-22 -113 -32 -178q-59 -6 -114 -21l-8 6q56 260 124 607q-36 57 -86 57q-24 -1 -39 -13.5t-32 -62.5t-32 -144h109l-22 -40l-95 -8q-29 -176 -45 -252q-23 -120 -62 -190.5t-102 -117.5q-68 -50 -133 -50q-70 0 -114 49q-23 -24 -62.5 -48.5t-72.5 -24.5
q-24 0 -43 12t-19 29q2 28 29 53q19 17 29 10q45 -32 69 -32q23 0 34 21q18 36 46 227q35 230 49 314h-83l-5 10l32 38h65q22 97 94 165q36 34 87 57t101 23q66 0 107 -41q28 26 70.5 43.5t76.5 17.5q49 0 82 -25q64 25 91 25q15 0 8 -30q-12 -58 -42 -199t-47 -220z
M252 438h150q19 90 60 145q-36 53 -96 53q-45 0 -70 -40t-44 -158zM394 390h-151q-27 -168 -50 -280q-31 -145 -80 -221q18 -21 48 -37t63 -16q63 0 85 67q21 60 39 179q13 84 27 181.5t19 126.5z" />
    <glyph glyph-name="f_f_t" unicode="fft" horiz-adv-x="867" 
d="M911 438l-28 -44l-96 -4l-49 -252q-12 -59 5 -59q10 0 36.5 17t45.5 36l16 -28q-31 -41 -88.5 -78.5t-96.5 -37.5q-65 0 -36 142l53 260h-154q-25 -150 -46 -260q-23 -118 -61 -186t-101 -114q-69 -50 -132 -50q-72 0 -115 49q-26 -26 -63.5 -49.5t-69.5 -23.5
q-24 0 -43 12t-19 29q2 29 26 53q18 18 29 10q44 -31 69 -31q22 0 34 22q21 48 47 225q34 235 47 314h-83l-5 10l33 38h64q12 49 33.5 86.5t62.5 75.5q34 32 83.5 55.5t98.5 23.5q70 0 107 -41q70 65 147 65q36 0 57 -17t20 -39q-1 -18 -13 -34t-24 -24q-14 -9 -27 3
q-49 58 -72 58q-44 2 -75 -212h155l17 75l116 73l13 -12l-31 -136h113zM254 438h149q19 88 57 140q-39 53 -95 53q-44 0 -68 -38.5t-43 -154.5zM394 390h-150q-32 -194 -49 -280q-28 -137 -82 -221q18 -22 49.5 -37.5t65.5 -15.5q30 0 49 15.5t32 55.5q18 46 39 175
q27 182 46 308z" />
    <glyph glyph-name="f_h" unicode="fh" horiz-adv-x="822" 
d="M784 122l15 -30q-48 -49 -96 -76.5t-77 -27.5q-54 0 -29 107l50 218q12 49 -7 49q-25 0 -71 -49t-86 -111q-19 -76 -38 -192q-45 -5 -119 -22l-6 9q50 227 122 607q-35 50 -89 50q-23 0 -37.5 -11.5t-31.5 -61t-32 -143.5h108l-21 -41l-95 -8q-32 -191 -55 -293
q-27 -116 -61.5 -179t-89.5 -109q-61 -52 -110 -52q-25 0 -45 14t-20 33q0 31 36 59q12 9 21 2q16 -15 37.5 -26.5t36.5 -11.5q21 0 31 23q16 35 44 211q11 66 27 173t24 156h-80l-4 10l33 39h60q15 66 36.5 108.5t62.5 80.5q34 30 81 53t84 23q49 0 82 -25q64 25 91 25
q13 0 7 -35l-79 -385h2q74 95 151 143q47 28 82 28q67 0 38 -129l-44 -200q-9 -42 1 -42q5 0 25 12.5t35 26.5z" />
    <glyph glyph-name="f_j" unicode="fj" horiz-adv-x="540" 
d="M71 438h58q23 123 109 196q81 69 165 69q60 0 87.5 -24.5t27.5 -51.5q0 -42 -50 -58q-46 -17 -52 12q-17 79 -57 79q-68 0 -105 -222h56q106 0 178 15q21 1 25.5 -19t-4.5 -61q-13 -75 -60 -301q-33 -158 -142 -237q-74 -54 -112 -54q-19 0 -35 11t-16 29q0 30 38 61
q9 8 19 0q41 -29 63 -29q13 0 21 14t18 54q14 59 77 403q8 43 -0.5 54.5t-48.5 11.5h-87q-34 -193 -56 -290q-28 -120 -63 -181t-93 -110q-64 -53 -112 -53q-27 0 -47 13.5t-19 32.5q0 30 35 58q12 9 21 2q40 -36 75 -36q22 0 34 25q17 28 49 217q23 145 52 322h-77l-4 10z
" />
    <glyph glyph-name="f_k" unicode="fk" horiz-adv-x="776" 
d="M484 254h2q46 57 79 89q39 39 57.5 55.5t50 36t56.5 19.5q22 0 37 -11t15 -27q0 -28 -25 -55q-10 -12 -19 -8q-20 11 -50 11q-24 0 -50 -14.5t-44 -36.5q18 -64 44 -124q26 -62 40.5 -87.5t26.5 -25.5q20 0 53 36l18 -27q-36 -52 -72 -74.5t-62 -22.5q-46 0 -76 71
q-31 73 -61 169q-22 -22 -32 -41q-14 -67 -33 -178q-60 -6 -113 -21l-8 6q64 300 123 605q-34 56 -85 56q-24 0 -39 -12t-32 -61t-32 -144h108l-21 -41l-95 -8q-36 -204 -55 -290q-25 -117 -60.5 -180.5t-91.5 -110.5q-61 -52 -112 -52q-25 0 -44.5 14t-19.5 33q0 34 37 59
q12 9 21 2q37 -35 72 -35q23 0 33 23q17 37 44 208q11 68 27 174t24 155h-79l-5 10l33 39h61q14 65 36 108t64 80q35 32 81 54.5t87 22.5q44 0 77 -25q64 25 89 25q16 0 10 -31q-15 -71 -44.5 -209t-45.5 -209z" />
    <glyph glyph-name="f_t" unicode="ft" horiz-adv-x="596" 
d="M639 438l-28 -43l-95 -5l-49 -252q-12 -59 5 -59q9 0 36 17t46 35l15 -27q-31 -41 -88 -78.5t-96 -37.5q-65 0 -37 142l53 260h-156q-41 -223 -56 -289q-27 -118 -62.5 -182t-91.5 -111q-62 -52 -111 -52q-28 0 -48 13.5t-19 32.5q0 31 35 59q12 9 21 1q38 -34 75 -34
q21 0 34 25q19 35 48 215q8 49 24.5 156t26.5 166h-78l-4 10l33 38h58q26 121 100 187q87 78 160 78q35 0 56.5 -17.5t20.5 -39.5q-1 -18 -13 -34.5t-25 -23.5q-15 -8 -26 4q-49 56 -72 57q-43 0 -77 -211h158l17 75l116 73l13 -12l-31 -136h112z" />
    <glyph glyph-name="longs_b" unicode="&#x17f;b" horiz-adv-x="774" 
d="M477 326h2q113 128 198 128q39 0 60.5 -32t21.5 -89q0 -82 -40.5 -161t-108.5 -126q-84 -58 -167 -58q-70 0 -102 47q-26 38 -9 127q4 21 88 441q-13 21 -36 34.5t-45 14.5q-24 0 -38.5 -14t-34 -77.5t-39.5 -188.5q-27 -170 -52 -279q-25 -114 -61.5 -176.5
t-94.5 -109.5q-62 -51 -109 -51q-25 0 -45 14t-20 34q0 32 36 59q12 9 21 2q41 -37 74 -37q22 0 32 21q17 37 44 209q8 51 17.5 113.5t16 103.5t13.5 76q19 103 46.5 162.5t75.5 107.5q32 34 76.5 58t80.5 24q46 0 77 -23q87 23 88 23q17 0 9 -31q-15 -66 -39.5 -180.5
t-35.5 -165.5zM601 374q-53 0 -132 -117q-8 -21 -19 -86q-22 -132 46 -132q22 0 42 15q31 24 61.5 99t30.5 155q0 31 -8.5 48.5t-20.5 17.5z" />
    <glyph glyph-name="longs_h" unicode="&#x17f;h" horiz-adv-x="800" 
d="M762 122l15 -30q-48 -49 -96 -76.5t-77 -27.5q-54 0 -29 107l51 218q11 50 -8 50q-25 0 -71 -47t-84 -107q-21 -87 -40 -199q-45 -5 -119 -22l-6 9q62 280 122 606q-32 50 -81 50q-17 0 -28.5 -8t-25.5 -34.5t-28.5 -85.5t-29.5 -154q-27 -172 -51 -278
q-25 -114 -61 -175.5t-94 -108.5q-63 -53 -112 -53q-25 0 -45 14t-20 34q0 32 38 59q11 9 20 2q43 -37 75 -37q21 0 31 21q16 32 45 209q38 245 46 290q19 103 46.5 163.5t75.5 108.5q30 32 77.5 57.5t83.5 25.5q44 0 74 -23q80 23 87 23q15 0 10 -30l-81 -389h2
q72 93 152 142q47 28 82 28q65 0 38 -129l-45 -200q-9 -39 3 -41q6 0 24.5 12t33.5 26z" />
    <glyph glyph-name="longs_i" unicode="&#x17f;i" horiz-adv-x="541" 
d="M375 703q57 0 81 -24t24 -51q0 -18 -13.5 -34.5t-36.5 -24.5q-45 -16 -52 15q-8 35 -21 52.5t-33 16.5q-19 0 -32.5 -15t-31.5 -77.5t-36 -178.5q-34 -214 -49 -281q-28 -120 -64 -182.5t-94 -110.5q-63 -52 -111 -52q-25 0 -45 14t-20 34q0 27 37 55q12 9 21 2
q36 -33 75 -33q21 0 31 22q20 39 45 208q43 276 44 280q34 190 120 281q36 39 79 61.5t82 22.5zM503 123l17 -25q-48 -53 -99 -81.5t-78 -28.5q-56 0 -30 108l52 224q8 35 0 35q-15 0 -60 -34l-15 27q53 48 103.5 77t78.5 29q20 0 26 -25.5t-5 -73.5l-57 -232q-10 -40 2 -40
q17 0 65 40z" />
    <glyph glyph-name="longs_k" unicode="&#x17f;k" horiz-adv-x="756" 
d="M462 255h2q36 45 79 88q70 70 100 89q34 22 64 22q22 0 37 -11t15 -27q0 -27 -24 -55q-11 -11 -20 -8q-18 11 -50 11q-25 0 -51 -13t-43 -35q21 -73 44 -127q27 -64 41.5 -89.5t26.5 -25.5q18 0 52 37l19 -26q-37 -52 -73 -74.5t-62 -22.5q-46 0 -76 71q-31 72 -61 171
q-20 -23 -33 -42q-11 -56 -32 -179q-61 -6 -113 -21l-8 6q95 453 126 610q-34 49 -83 49q-23 0 -38 -16t-34.5 -81.5t-39.5 -191.5q-22 -151 -50 -271q-27 -113 -62 -174.5t-94 -110.5q-61 -52 -111 -52q-25 0 -45 14t-20 34q0 31 37 59q12 9 21 2q41 -37 74 -37q23 0 31 22
q16 29 44 208q8 52 17 111.5t15 97.5t13 73q20 105 48.5 169t75.5 111q35 36 79 59.5t77 23.5q45 0 78 -23q87 23 88 23q16 0 10 -27q-48 -218 -91 -421z" />
    <glyph glyph-name="longs_l" unicode="&#x17f;l" horiz-adv-x="538" 
d="M506 121l17 -29q-46 -49 -95.5 -76.5t-78.5 -27.5q-16 0 -24 9.5t-11 38.5t9 83q16 80 48 240.5t48 240.5q-28 53 -78 53q-22 0 -36.5 -14t-32.5 -74t-37 -177q-27 -176 -54 -295q-27 -114 -63 -175.5t-94 -109.5q-61 -52 -110 -52q-25 0 -45 14t-20 34q0 30 38 59
q11 10 21 3q42 -40 74 -40q22 0 31 22q18 35 44 210q8 52 17.5 113.5t15.5 100t12 70.5q20 108 47.5 169t75.5 109q36 36 79.5 59.5t79.5 23.5q38 0 71 -23q85 23 87 23q16 0 9 -32q-5 -26 -46.5 -232.5t-64.5 -314.5q-9 -43 3 -43q20 0 63 40z" />
    <glyph glyph-name="longs_longs" unicode="&#x17f;&#x17f;" horiz-adv-x="527" 
d="M638 704q32 0 52.5 -17t19.5 -35q-2 -31 -31 -52q-21 -15 -36 1q-47 45 -73 45q-11 0 -19.5 -11.5t-22 -66t-28.5 -156.5q-32 -216 -47 -289q-22 -111 -61.5 -179t-102.5 -114q-67 -50 -133 -50q-71 0 -117 46q-22 -25 -58 -47.5t-68 -22.5q-24 0 -42.5 12t-18.5 31
q0 11 9 28t17 24q17 17 29 11q41 -32 65 -32t34 21q20 34 48 226q22 157 38 246q19 108 51 174.5t89 115.5q29 25 72.5 46t82.5 21q73 0 104 -41q79 65 147 65zM204 -163q32 0 51 14t31 53q20 37 43 199q26 180 36 239q28 162 77 231q-37 58 -99 58q-41 0 -68 -56t-54 -222
q-26 -169 -43 -244q-31 -137 -85 -217q12 -18 46.5 -36.5t64.5 -18.5z" />
    <glyph glyph-name="longs_longs_i" unicode="&#x17f;&#x17f;i" horiz-adv-x="809" 
d="M640 703q57 0 84 -24.5t27 -50.5q0 -42 -51 -58q-46 -18 -52 14q-16 72 -54 72q-18 0 -31.5 -16t-31 -78.5t-35.5 -179.5q-26 -176 -43 -259q-21 -110 -61.5 -178.5t-103.5 -114.5q-69 -50 -129 -50q-73 0 -119 46q-22 -25 -57.5 -47.5t-67.5 -22.5q-24 0 -42.5 12
t-18.5 30q0 12 8.5 29t16.5 24q18 18 29 10q41 -30 64 -30q24 0 35 21q20 34 48 225q30 205 38 247q19 108 51 174.5t88 116.5q28 24 70 44t78 20q77 0 111 -44q77 68 149 68zM199 -164q32 0 51.5 14t32.5 53q24 43 50 216q29 202 33 222q29 164 76 229q-39 61 -94 61
q-29 0 -48 -19t-39.5 -82.5t-39.5 -180.5q-22 -146 -44 -247q-28 -133 -82 -210q15 -22 45.5 -39t58.5 -17zM775 124l17 -26q-49 -53 -99.5 -81.5t-77.5 -28.5q-57 0 -31 108l53 224q8 35 0 35q-13 0 -61 -36l-14 29q53 49 103 77.5t77 28.5q46 0 24 -91l-59 -240
q-8 -40 2 -40q17 0 66 41z" />
    <glyph glyph-name="longs_longs_l" unicode="&#x17f;&#x17f;l" horiz-adv-x="801" 
d="M767 119l17 -27q-45 -49 -94.5 -76.5t-78.5 -27.5q-16 0 -24 9.5t-11 38.5t9 83q16 80 48 239.5t48 239.5q-31 58 -84 58q-20 -1 -34 -15.5t-30.5 -69.5t-32.5 -157q-33 -217 -47 -291q-22 -112 -62 -181t-103 -114q-67 -48 -129 -48q-73 0 -119 46q-22 -25 -57.5 -47.5
t-67.5 -22.5q-24 0 -42.5 11.5t-18.5 30.5q0 12 8.5 28.5t16.5 23.5q18 18 29 10q41 -30 64 -30q24 0 35 21q20 34 48 226q23 163 39 253q20 110 50.5 174t88.5 113q27 24 69.5 43t79.5 19q75 0 109 -44q33 30 72.5 49t72.5 19q45 0 78 -25q72 25 90 25q15 0 9 -30
q-82 -404 -112 -550q-10 -44 1 -44q6 0 26.5 12t38.5 28zM348 632q-29 0 -48 -18t-39.5 -82t-39.5 -185q-28 -168 -39 -222q-34 -155 -87 -234q15 -22 45.5 -39t59.5 -17q61 0 85 72q23 43 46 200q5 32 15.5 108.5t18.5 124.5q30 164 77 231q-39 61 -94 61z" />
    <glyph glyph-name="f_f" unicode="ff" horiz-adv-x="571" 
d="M65 438h65q24 103 87 161q35 32 87 56t100 24q75 0 107 -41q84 65 145 65q32 0 52 -16.5t19 -34.5q0 -30 -30 -53q-20 -14 -36 1q-42 44 -70 45q-12 0 -19.5 -8.5t-20 -56.5t-26.5 -142h119l-21 -39l-105 -9q-3 -16 -17.5 -107t-27.5 -158q-23 -116 -59 -179.5
t-103 -113.5q-71 -52 -135 -52q-72 0 -118 46q-21 -22 -60 -46t-72 -24q-24 0 -43 12t-18 31q1 11 10 27.5t18 24.5q19 17 29 10q47 -33 70 -33q20 0 32 22q17 33 48 227q9 60 25 160.5t24 152.5h-83l-5 10zM251 438h151q15 84 56 139q-40 55 -101 55q-42 0 -64.5 -38
t-41.5 -156zM394 390h-150q-35 -208 -50 -278q-27 -139 -83 -222q16 -20 49 -35.5t66 -15.5q62 0 82 58q18 38 42 195z" />
    <glyph glyph-name="f_f_i" unicode="ffi" horiz-adv-x="824" 
d="M792 127l15 -29q-46 -52 -97.5 -81t-77.5 -29q-27 0 -35.5 21.5t3.5 90.5l51 219q10 48 2 59.5t-49 11.5h-86q-36 -211 -46 -264q-22 -115 -59.5 -181.5t-99.5 -112.5q-70 -52 -136 -52q-71 0 -116 49q-73 -73 -132 -73q-25 0 -43.5 11.5t-18.5 29.5q1 13 9 28.5t17 24.5
q19 17 29 10q45 -32 67 -32q23 0 34 22q19 41 47 227q12 84 52 313h-84l-5 10l32 38h65q22 97 91 160q33 32 84.5 56.5t99.5 24.5q69 0 108 -41q30 28 73.5 46.5t84.5 18.5q62 0 89.5 -25.5t27.5 -53.5q0 -38 -54 -58q-41 -17 -47 10q-18 84 -59 84q-38 0 -61.5 -56.5
t-39.5 -165.5h57q114 0 179 16q38 0 18 -82q-7 -30 -27 -114t-32 -135q-8 -38 4 -38q20 0 66 42zM252 438h151q18 85 54 137q-41 57 -100 57q-39 0 -62.5 -40t-42.5 -154zM395 390h-152q-28 -162 -51 -280q-30 -143 -80 -221q19 -22 51 -37.5t65 -15.5q60 0 82 66
q17 41 37 172q15 94 29.5 191.5t18.5 124.5z" />
    <glyph glyph-name="f_f_l" unicode="ffl" horiz-adv-x="833" 
d="M636 438l-22 -40l-96 -9q-3 -17 -10 -64t-15.5 -99t-19.5 -105q-22 -112 -59 -177t-100 -112q-70 -52 -133 -52q-71 0 -118 51q-22 -25 -63.5 -50t-74.5 -25q-24 0 -43 12t-19 29q2 29 26 49q17 19 29 11q44 -33 71 -33q24 0 35 24q17 31 48 229q9 64 50 313h-84l-5 10
l32 38h65q22 101 92 164q32 31 83 54t103 23q63 0 104 -41q32 26 77 45t87 19q49 0 77 -24q68 24 84 24q18 0 7 -46q-40 -183 -105 -535q-7 -40 4 -40q17 0 61 38l16 -25q-44 -50 -93.5 -78t-78.5 -28q-53 0 -31 118q45 233 100 502q-12 19 -34.5 34.5t-48.5 15.5
q-25 0 -44 -17.5t-32 -59t-17 -61t-13 -72.5q-1 -7 -2 -10h110zM251 438h155q17 86 53 135q-19 28 -47.5 44t-55.5 16q-37 0 -62 -40.5t-43 -154.5zM397 390h-154q-44 -254 -50 -283q-28 -137 -79 -214q19 -22 53 -39t66 -17q55 0 77 63q19 41 39 176q14 93 29 189.5
t19 124.5z" />
    <glyph glyph-name="longs_t" unicode="&#x17f;t" horiz-adv-x="569" 
d="M373 703q33 0 54.5 -18.5t20.5 -39.5q-1 -17 -13 -33t-25 -23q-17 -8 -29 5q-16 17 -24.5 24.5t-23 15.5t-28.5 8q-13 0 -22.5 -13.5t-24 -70.5t-31.5 -168q-33 -211 -51 -292q-27 -119 -62.5 -181t-93.5 -110q-62 -51 -107 -51q-26 0 -46.5 13t-20.5 32q0 34 37 59
q12 9 20 2q15 -14 37.5 -24t37.5 -10q21 0 31 22q20 43 45 210q9 61 42 266q31 190 119 291q29 33 71.5 59.5t86.5 26.5zM613 436l-28 -43l-96 -5l-49 -250q-11 -59 5 -59q10 0 36 17t46 35l16 -27q-31 -42 -88 -79t-97 -37q-65 0 -36 142l53 258h-70l-5 10l29 38h56l15 63
l115 67l13 -10l-27 -120h112z" />
    <glyph glyph-name="f_i" unicode="fi" horiz-adv-x="554" 
d="M521 128l16 -27q-44 -56 -95.5 -84.5t-81.5 -28.5q-58 0 -32 112q9 36 26.5 109t25.5 110q11 48 2.5 60t-48.5 12h-89q-44 -237 -57 -290q-28 -118 -64 -181t-92 -110q-62 -54 -111 -54q-27 0 -47 13.5t-19 32.5q0 15 11 32t24 27t24 2q37 -35 73 -35q19 0 33 24
q18 27 49 216q8 51 24.5 158t26.5 165h-77l-4 10l33 37h58q22 123 108 196q83 69 168 69q59 0 85.5 -24t26.5 -52q0 -17 -13.5 -34t-36.5 -24q-46 -17 -52 12q-17 79 -57 79q-69 0 -104 -222h58q106 0 179 15q21 1 25 -19.5t-6 -62.5q-10 -43 -29.5 -121.5t-28.5 -115.5
q-11 -50 4 -50t64 44z" />
    <glyph glyph-name="f_l" unicode="fl" horiz-adv-x="561" 
d="M362 438l-22 -40l-96 -9q-5 -25 -14.5 -84t-19.5 -110.5t-22 -101.5q-27 -116 -62 -175.5t-93 -107.5q-63 -54 -112 -54q-27 0 -47.5 13.5t-19.5 32.5q0 34 35 59q13 9 21 1q16 -14 38.5 -25.5t38.5 -11.5q21 0 34 25q22 49 49 218q12 73 27.5 174.5t22.5 146.5h-79
l-4 10l33 39h59q20 112 97 182q36 34 88 58.5t92 24.5q50 0 77 -23q63 23 83 23q17 0 6 -46q-79 -380 -104 -518q-10 -58 1 -58q7 0 27.5 12.5t36.5 26.5l16 -28q-40 -49 -90.5 -76.5t-82.5 -27.5q-53 0 -28 129q48 248 97 491q-10 17 -34.5 32t-50.5 15q-24 0 -42 -17.5
t-31 -52.5t-20.5 -67.5t-15.5 -79.5h111z" />
    <glyph glyph-name=".notdef" horiz-adv-x="500" 
d="M0 0v700h500v-700h-500zM250 395l170 255h-340zM280 350l170 -255v510zM80 50h340l-170 255zM50 605v-510l170 255z" />
    <glyph glyph-name=".null" horiz-adv-x="0" 
 />
    <glyph glyph-name="nonmarkingreturn" horiz-adv-x="333" 
 />
    <glyph glyph-name="space" unicode=" " horiz-adv-x="219" 
 />
    <glyph glyph-name="exclam" unicode="!" horiz-adv-x="273" 
d="M230 664q44 0 60 -12.5t13 -31.5q-2 -8 -23 -74q-19 -54 -56 -163.5t-56 -163.5q-4 -9 -23.5 -9t-20.5 9q2 54 6.5 163t6.5 164q3 63 5 79q6 39 88 39zM111 -12q-31 0 -50.5 21t-19.5 53q0 38 23.5 62.5t58.5 24.5q31 0 50.5 -21t19.5 -55q0 -38 -24.5 -61.5t-57.5 -23.5
z" />
    <glyph glyph-name="quotedbl" unicode="&#x22;" horiz-adv-x="390" 
d="M259 708l14 -12q-6 -30 -40.5 -113.5t-62.5 -131.5l-41 -18q9 65 15.5 147t5.5 95zM444 708l14 -12q-6 -28 -41 -112t-62 -133l-42 -18q25 200 22 242z" />
    <glyph glyph-name="numbersign" unicode="#" horiz-adv-x="495" 
d="M501 468l-17 -81h-91l-36 -120h79l-15 -80h-90l-49 -168h-51l50 168h-99l-50 -168h-52l50 168h-91l16 80h99l37 120h-87l16 81h95l44 144h53l-45 -144h99l45 144h50l-45 -144h85zM342 387h-99l-36 -120h99z" />
    <glyph glyph-name="dollar" unicode="$" horiz-adv-x="495" 
d="M470 447l-31 -5q-16 117 -96 133l-39 -200l20 -11q67 -37 101.5 -74t34.5 -97q0 -83 -68 -131.5t-158 -52.5l-16 -81h-41l16 81q-99 9 -157 56q-1 7 -1.5 30t-1 58.5t-1.5 58.5l30 3q6 -33 19 -64.5t45 -64t75 -39.5l41 220l-14 8q-63 32 -97.5 70t-34.5 92
q0 81 60.5 128.5t153.5 49.5l15 72h41l-14 -72q53 -6 120 -36q1 -40 -2 -132zM266 395l37 183q-45 -1 -73 -29.5t-28 -67.5q0 -49 64 -86zM280 248l-38 -202q49 4 75.5 33.5t26.5 76.5q0 55 -64 92z" />
    <glyph glyph-name="percent" unicode="%" horiz-adv-x="809" 
d="M697 619l-518 -658l-32 29l516 658zM411 494q0 -86 -54.5 -152t-136.5 -66q-62 0 -95 40.5t-33 97.5q0 87 54.5 154t135.5 67q64 0 96.5 -40.5t32.5 -100.5zM318 525q0 75 -39 75q-28 0 -50.5 -38.5t-32.5 -84.5t-10 -82q0 -83 40 -83q43 0 67.5 77t24.5 136zM764 206
q0 -86 -55 -152t-136 -66q-63 0 -95.5 40.5t-32.5 97.5q0 87 54.5 154t135.5 67q63 0 96 -41t33 -100zM671 236q0 76 -40 76t-66 -71.5t-26 -134.5q0 -83 40 -83q30 0 52.5 44t31 90.5t8.5 78.5z" />
    <glyph glyph-name="ampersand" unicode="&#x26;" horiz-adv-x="770" 
d="M723 429h36q4 -54 4 -69q-1 -127 -59 -127q-19 0 -46 19q-6 4 -24 16.5t-27 18.5q-33 -117 -106 -198q-92 -101 -220 -101q-93 0 -154 61.5t-61 165.5q0 115 83 203q29 31 67 52t67 21q36 0 54 -21t19 -57q0 -10 -1 -15l2 -3q100 102 100 184q0 22 -8 46q-5 16 11.5 34
t39.5 18q22 0 35 -17t13 -48q0 -87 -123 -206q-101 -101 -243 -193q13 -57 56 -89.5t95 -32.5q163 0 241 219q-54 40 -84 40q-12 0 -19.5 -8t-7.5 -19q0 -18 11 -37q15 -20 15 -26q0 -12 -16.5 -22t-30.5 -10q-17 0 -30.5 17t-13.5 39q0 50 61 100q48 39 82 39q8 0 18 -2
t18 -5t19.5 -8.5t18 -9t18 -11.5t16 -10.5t15.5 -10.5t12 -9q21 -15 29 -15q15 0 18 87zM237 439q-21 0 -43 -46t-22 -113q0 -19 1 -29q53 37 91 70q9 20 9 45q1 31 -11 52t-25 21z" />
    <glyph glyph-name="quotesingle" unicode="'" horiz-adv-x="206" 
d="M259 708l14 -12q-6 -29 -40 -111t-62 -134l-42 -18q8 54 15 141t6 101z" />
    <glyph glyph-name="parenleft" unicode="(" horiz-adv-x="368" 
d="M396 710l20 -28q-111 -81 -173 -224t-62 -299q0 -199 75 -305l-30 -22q-69 60 -105.5 154t-36.5 195q0 178 88.5 322t223.5 207z" />
    <glyph glyph-name="parenright" unicode=")" horiz-adv-x="347" 
d="M151 688l29 22q69 -59 105.5 -154.5t35.5 -198.5q-1 -176 -89 -320t-222 -205l-20 28q111 81 172.5 223t62.5 296q2 199 -74 309z" />
    <glyph glyph-name="asterisk" unicode="*" horiz-adv-x="426" 
d="M464 503l1 -29l-137 -27l32 -142l-28 -12l-72 134l-129 -74l-17 28l105 96l-105 111l19 25l126 -83l65 134l29 -8l-28 -144z" />
    <glyph glyph-name="plus" unicode="+" horiz-adv-x="607" 
d="M560 221h-204v-221h-75v221h-205v65h205v200h75v-200h204v-65z" />
    <glyph glyph-name="comma" unicode="," horiz-adv-x="263" 
d="M4 -123l-13 34q48 19 75.5 46t28.5 58q0 44 -49 58q-13 4 -13 20q0 29 19 46.5t44 17.5q41 0 64.5 -31.5t23.5 -73.5q0 -68 -52 -113t-128 -62z" />
    <glyph glyph-name="hyphen" unicode="-" horiz-adv-x="340" 
d="M306 265l-17 -71h-248l17 71h248z" />
    <glyph glyph-name="period" unicode="." horiz-adv-x="263" 
d="M108 -12q-29 0 -48 20.5t-19 50.5q0 36 22 59.5t56 23.5q30 0 48 -20.5t18 -52.5q0 -36 -23 -58.5t-54 -22.5z" />
    <glyph glyph-name="slash" unicode="/" horiz-adv-x="319" 
d="M379 664l-308 -709h-67l307 709h68z" />
    <glyph glyph-name="zero" unicode="0" horiz-adv-x="495" 
d="M333 635q67 0 107.5 -41.5t52 -101.5t4.5 -135q-5 -64 -24.5 -127t-52 -118.5t-85 -89.5t-115.5 -34q-69 0 -111 42.5t-54 104.5t-4 141q5 59 24.5 119.5t53 115.5t87 89.5t117.5 34.5zM325 596q-29 0 -54.5 -36t-42.5 -92.5t-28.5 -113.5t-17.5 -111q-13 -83 -2.5 -149
t46.5 -66q27 0 51.5 37t41.5 95t28.5 116.5t17.5 111.5q12 76 3 142t-43 66z" />
    <glyph glyph-name="one" unicode="1" horiz-adv-x="495" 
d="M401 635l-97 -504q-12 -60 -0.5 -76t77.5 -22l-9 -33h-306l7 33q60 6 76 21.5t28 76.5l68 343q9 49 0.5 61.5t-48.5 14.5l-31 1l9 32q116 15 226 52z" />
    <glyph glyph-name="two" unicode="2" horiz-adv-x="495" 
d="M99 489l68 88q61 58 147 58q75 0 122.5 -44t47.5 -119q0 -39 -12 -72t-51 -74t-59.5 -58.5t-90.5 -73.5l-33 -27l-73 -60h158q45 0 61.5 9.5t44.5 50.5l31 -13q-23 -54 -56 -154h-402l6 26q109 88 184 161q161 159 161 256q0 103 -94 103q-67 0 -135 -83z" />
    <glyph glyph-name="three" unicode="3" horiz-adv-x="495" 
d="M117 506l55 70q59 59 146 59q60 0 104.5 -32.5t44.5 -93.5q0 -51 -43 -84q-38 -29 -87 -51l-1 -3q52 -13 87.5 -49.5t35.5 -92.5q0 -103 -114 -178q-96 -63 -184 -63q-69 0 -109 33q-26 24 -26 48q2 29 36 51q16 11 27 -2q71 -74 139 -74q45 0 71 37.5t26 102.5
q0 58 -31.5 92t-78.5 34q-31 0 -47 -6l-6 34q26 7 44.5 13.5t46 19.5t44.5 27t30 35t13 46q0 36 -21 55.5t-56 19.5q-59 0 -121 -72z" />
    <glyph glyph-name="four" unicode="4" horiz-adv-x="495" 
d="M488 229l-11 -55h-86l-10 -56q-9 -50 1.5 -65t64.5 -19l-9 -34h-289l9 34q57 4 72.5 18t26.5 66l12 56h-251l7 39q241 281 381 416h73l-77 -400h86zM338 499h-4q-82 -87 -229 -270h174z" />
    <glyph glyph-name="five" unicode="5" horiz-adv-x="495" 
d="M490 623l-43 -106h-244l-49 -152q86 26 114 26q75 0 128.5 -43t53.5 -117q0 -114 -132 -193q-83 -50 -162 -50q-70 0 -112 36q-27 21 -26 46q0 12 11.5 28t24.5 23q14 8 26 -2l10 -10t14 -13.5t16 -13.5t21 -14t22.5 -11t27 -9t29.5 -3q51 0 75.5 35t24.5 93
q0 75 -39 112.5t-104 37.5q-44 0 -78 -12l-7 10l85 302h313z" />
    <glyph glyph-name="six" unicode="6" horiz-adv-x="495" 
d="M517 641l7 -37q-50 -9 -112 -34q-147 -68 -208 -206l2 -2l50 23q35 15 58 16q73 0 118.5 -46.5t45.5 -128.5q0 -95 -70.5 -166.5t-174.5 -71.5q-90 0 -142.5 59.5t-52.5 154.5q0 132 85 245t245 163q64 19 149 31zM248 335q-27 0 -57 -15q-24 -61 -24 -142q0 -59 23 -105
t63 -46q47 0 71.5 55t24.5 115q0 66 -26 102t-75 36z" />
    <glyph glyph-name="seven" unicode="7" horiz-adv-x="495" 
d="M553 623l7 -12q-67 -112 -202 -328t-176 -283l-112 -12l-6 14q244 285 385 514h-213q-46 0 -64 -11t-42 -54l-33 13q26 68 51 159h405z" />
    <glyph glyph-name="eight" unicode="8" horiz-adv-x="495" 
d="M319 635q71 0 120.5 -39t49.5 -108q0 -50 -49 -92q-39 -27 -81 -52q54 -39 82 -76t28 -88q0 -82 -73.5 -137t-167.5 -55q-86 0 -142.5 42.5t-56.5 117.5q0 61 57 102q42 30 104 64q-81 63 -82 139q0 77 62.5 129.5t148.5 52.5zM304 595q-34 0 -57.5 -27t-23.5 -65
q0 -25 8.5 -46t26.5 -38.5t30 -26.5t35 -24q60 44 60 126q0 42 -21.5 71.5t-57.5 29.5zM247 29q42 0 69 31t27 79q0 45 -28 78t-91 74q-75 -53 -75 -144q0 -48 25.5 -83t72.5 -35z" />
    <glyph glyph-name="nine" unicode="9" horiz-adv-x="495" 
d="M314 635q91 0 141.5 -60t50.5 -162q0 -130 -78.5 -239t-214.5 -159q-86 -29 -163 -31l-6 34q102 23 185 92t119 170l-54 -26q-31 -15 -53 -15q-70 0 -118 44t-48 122q0 92 70.5 161t168.5 69zM302 595q-42 0 -69 -50.5t-27 -108.5q0 -59 26.5 -95t75.5 -36q28 0 50 15
q20 47 20 136q0 33 -5.5 61.5t-24 53t-46.5 24.5z" />
    <glyph glyph-name="colon" unicode=":" horiz-adv-x="261" 
d="M147 271q-29 0 -47.5 20.5t-18.5 50.5q0 35 21.5 58.5t55.5 23.5q29 0 48 -20.5t19 -51.5q0 -36 -23.5 -58.5t-54.5 -22.5zM105 -12q-29 0 -47.5 20t-18.5 50q0 36 21.5 59.5t55.5 23.5q29 0 47.5 -20t18.5 -52q0 -36 -23 -58.5t-54 -22.5z" />
    <glyph glyph-name="semicolon" unicode=";" horiz-adv-x="263" 
d="M141 271q-29 0 -47.5 20.5t-18.5 50.5q0 35 21.5 58.5t55.5 23.5q30 0 48.5 -20t18.5 -52q0 -36 -23.5 -58.5t-54.5 -22.5zM4 -123l-13 32q48 19 76 46t28 58q0 46 -49 60q-13 4 -13 20q0 29 19 46.5t44 17.5q40 0 64 -30.5t24 -73.5q0 -68 -52 -113.5t-128 -62.5z" />
    <glyph glyph-name="less" unicode="&#x3c;" horiz-adv-x="597" 
d="M525 0l-454 219v68l454 219v-71l-381 -181v-2l381 -182v-70z" />
    <glyph glyph-name="equal" unicode="=" horiz-adv-x="607" 
d="M560 313h-484v65h484v-65zM560 130h-484v65h484v-65z" />
    <glyph glyph-name="greater" unicode="&#x3e;" horiz-adv-x="597" 
d="M558 219l-454 -219v70l381 182v2l-381 181v71l454 -219v-68z" />
    <glyph glyph-name="question" unicode="?" horiz-adv-x="375" 
d="M215 218l-27 -19q-36 16 -66.5 50.5t-30.5 74.5q0 23 9.5 42.5t28.5 36t37 28t44 25.5q10 6 27 14.5t27 14t23.5 13.5t21.5 13.5t16 12t11.5 12.5t3.5 11q0 11 -10 19.5t-27 8.5q-34 0 -64.5 -13.5t-49.5 -27t-26 -13.5q-14 0 -30.5 21.5t-16.5 45.5q0 21 29 41
q50 35 101 35q59 0 106 -49t47 -109q0 -83 -77 -126q-8 -5 -22.5 -13t-22 -12.5t-19.5 -11.5t-18 -11.5t-14.5 -11t-13 -11.5t-9 -10.5t-6.5 -11t-2 -11.5q0 -28 20 -58zM143 -12q-31 0 -50.5 21t-19.5 53q0 38 23 62.5t58 24.5q32 0 51.5 -21t19.5 -55q0 -38 -24.5 -61.5
t-57.5 -23.5z" />
    <glyph glyph-name="at" unicode="@" horiz-adv-x="756" 
d="M542 -25l12 -33q-85 -49 -195 -49q-130 0 -218 80t-88 222q0 87 34 160t90 120.5t126 74t144 26.5q132 0 207 -75t75 -181q-1 -108 -72.5 -180t-181.5 -72q-39 0 -48.5 17.5t-2.5 53.5l9 38l-2 1q-32 -40 -78 -75t-80 -35q-24 0 -39 25t-14 65q2 109 83 185
q32 30 79.5 51t95.5 21q15 0 55 -8q13 -4 37 -4q-22 -73 -54 -218q-14 -69 10 -69q54 1 101 53t48 147q0 100 -66 157.5t-168 57.5q-137 0 -223 -90.5t-86 -230.5q0 -50 13.5 -95t42.5 -84.5t82 -63t124 -23.5q84 0 148 31zM431 373q-29 0 -58 -29q-21 -24 -37 -68t-17 -92
q0 -45 20 -45q13 0 44 29.5t61 80.5q24 59 35 114q-17 10 -48 10z" />
    <glyph glyph-name="A" unicode="A" horiz-adv-x="672" 
d="M630 34l-9 -34h-272l10 34q45 5 54.5 17.5t4.5 50.5l-16 112h-190q-19 -37 -55 -113q-18 -33 -8.5 -46.5t65.5 -20.5l-9 -34h-225l9 34q46 8 66.5 25.5t61.5 87.5l288 503l53 13l17 -114q10 -61 33.5 -198t34.5 -210q10 -67 23.5 -84t63.5 -23zM395 264l-32 225h-3
q-10 -19 -54.5 -99t-67.5 -126h157z" />
    <glyph glyph-name="B" unicode="B" horiz-adv-x="622" 
d="M124 649h261q212 0 212 -139q0 -125 -172 -153v-2q70 -13 112.5 -51t42.5 -102q0 -107 -114 -165q-75 -37 -225 -37h-239l8 34q54 4 70 20t27 75l76 388q12 61 0 77t-68 21zM280 369h26q76 0 115.5 37.5t39.5 99.5q0 51 -26 76.5t-66 25.5q-29 0 -39 -10t-17 -48z
M272 328l-38 -197q-10 -52 6 -71t50 -19q58 0 102.5 44.5t44.5 119.5q0 63 -40 93t-99 30h-26z" />
    <glyph glyph-name="C" unicode="C" horiz-adv-x="651" 
d="M591 191l34 -15q-34 -88 -82 -165q-92 -26 -176 -26q-136 0 -220 75t-84 210q0 178 125 286.5t307 108.5q74 0 174 -28q-3 -69 -11 -168l-34 -4q-14 87 -50.5 122t-98.5 35q-107 0 -185.5 -102.5t-78.5 -245.5q0 -114 45.5 -180t120.5 -66q56 0 105.5 39.5t108.5 123.5z
" />
    <glyph glyph-name="D" unicode="D" horiz-adv-x="732" 
d="M123 649h257q166 0 254.5 -69t88.5 -208q0 -95 -41.5 -173.5t-123.5 -127.5q-117 -71 -318 -71h-239l9 34q54 4 70.5 20.5t26.5 71.5l75 393q12 59 0.5 75.5t-68.5 20.5zM316 544l-75 -402q-7 -39 -5 -56.5t15 -28.5q18 -13 52 -13q120 0 197.5 98.5t77.5 240.5
q0 96 -48.5 160.5t-142.5 64.5q-41 0 -53 -12q-10 -9 -18 -52z" />
    <glyph glyph-name="E" unicode="E" horiz-adv-x="570" 
d="M123 649h457q0 -1 -6.5 -64t-10.5 -93l-36 -3q-5 73 -21 93q-15 25 -87 25h-49q-28 0 -36.5 -7t-13.5 -35l-39 -201h67q45 0 63.5 5.5t27 17.5t25.5 51h37l-41 -206h-36q1 59 -10 71t-73 12h-69l-32 -169q-12 -65 2 -83q14 -21 84 -21q83 0 117 33q38 34 72 96l34 -13
q-30 -91 -61 -158h-487l7 34q57 4 72 18.5t26 74.5l77 395q11 58 -0.5 73.5t-68.5 19.5z" />
    <glyph glyph-name="F" unicode="F" horiz-adv-x="547" 
d="M124 649h465q-15 -138 -18 -157l-35 -3q-7 73 -20 93q-10 14 -30 19.5t-66 5.5h-52q-26 0 -34.5 -8t-13.5 -34l-41 -214h85q62 0 79 11.5t40 62.5h35l-40 -205h-36q-1 58 -14 70.5t-75 12.5h-84l-33 -176q-11 -58 2 -73t79 -20l-8 -34h-303l8 34q51 4 66.5 19.5
t26.5 73.5l76 393q11 61 1 76t-68 19z" />
    <glyph glyph-name="G" unicode="G" horiz-adv-x="698" 
d="M668 471l-35 -4q-16 154 -155 154q-106 0 -186 -101t-80 -247q0 -113 48.5 -179.5t131.5 -66.5q30 0 48.5 13.5t25.5 52.5l16 86q10 55 -4.5 68t-87.5 21l9 34h297l-9 -34q-41 -5 -53 -19t-22 -70l-14 -79q-8 -40 -6 -75q-134 -40 -215 -40q-145 0 -229.5 75t-84.5 211
q0 176 123.5 285t314.5 109q98 0 179 -28q-7 -77 -12 -166z" />
    <glyph glyph-name="H" unicode="H" horiz-adv-x="763" 
d="M813 649l-7 -34q-56 -4 -70.5 -19t-26.5 -74l-76 -394q-12 -58 -0.5 -74t71.5 -20l-8 -34h-302l8 34q58 4 73.5 19.5t26.5 74.5l36 191h-265l-36 -191q-11 -58 1 -74t70 -20l-8 -34h-297l8 34q54 4 69 19t27 75l77 394q11 58 -2 73t-74 20l8 34h298l-9 -34
q-52 -4 -66.5 -19t-25.5 -74l-29 -152h264l30 152q11 58 0 73.5t-68 19.5l8 34h295z" />
    <glyph glyph-name="I" unicode="I" horiz-adv-x="366" 
d="M416 649l-8 -34q-54 -4 -68.5 -19t-26.5 -76l-75 -391q-12 -59 -0.5 -75t70.5 -20l-7 -34h-296l7 34q53 4 68 19.5t27 75.5l77 391q11 60 0 75.5t-72 19.5l8 34h296z" />
    <glyph glyph-name="J" unicode="J" horiz-adv-x="357" 
d="M416 649l-7 -34q-54 -6 -67.5 -20t-23.5 -75l-71 -384q-17 -92 -48 -148.5t-92 -91.5q-29 -19 -66 -30t-58 -11l-6 37q82 17 111 116q15 50 32 139l69 373q11 59 -1 74t-71 21l8 34h291z" />
    <glyph glyph-name="K" unicode="K" horiz-adv-x="677" 
d="M749 649l-7 -31q-46 -6 -73.5 -17.5t-74.5 -50.5q-84 -67 -192 -166q86 -171 151 -273q28 -45 47 -58.5t58 -18.5l-9 -34h-188q-54 92 -153 289q-19 36 -40 26l-34 -186q-12 -59 -1 -75t69 -20l-8 -34h-286l8 34q51 4 65.5 19.5t25.5 74.5l76 393q11 58 -0.5 73.5
t-69.5 20.5l7 34h288l-7 -34q-53 -4 -67.5 -19t-25.5 -75l-33 -168q43 12 76 40q98 81 179 171q21 24 19 35t-32 14l-21 2l9 34h244z" />
    <glyph glyph-name="L" unicode="L" horiz-adv-x="547" 
d="M497 179l36 -12q-52 -140 -64 -167h-472l7 33q59 5 75 20t28 75l77 399q11 54 -0.5 69t-69.5 19l7 34h299l-8 -34q-57 -4 -72.5 -18.5t-26.5 -69.5l-75 -393q-9 -55 3 -72q16 -20 78 -20q71 0 105 33q37 36 73 104z" />
    <glyph glyph-name="M" unicode="M" horiz-adv-x="885" 
d="M909 649l-9 -34q-57 -5 -70 -17t-21 -66q-27 -179 -51 -392q-8 -69 2 -85t68 -21l-8 -34h-283l8 34q47 5 60 21.5t24 84.5q10 70 30.5 198t30.5 193h-4l-299 -524h-31q-16 98 -46.5 279t-40.5 241h-4l-70 -247q-33 -116 -43 -180q-5 -35 10 -48.5t61 -17.5l-8 -34h-230
l8 34q39 3 58.5 17t33.5 50q20 45 58 169l73 234q21 66 9.5 86t-76.5 25l11 34h201q13 -61 43.5 -203t46.5 -225l261 428h197z" />
    <glyph glyph-name="N" unicode="N" horiz-adv-x="704" 
d="M773 649l-8 -34q-43 -1 -60 -15t-27 -47q-18 -55 -40 -172l-75 -391h-52l-285 509h-2l-45 -235q-19 -98 -23 -163q-2 -36 16 -50t71 -17l-8 -34h-241l9 34q38 2 56 15.5t29 47.5q20 61 42 167l43 202q18 84 -1 118q-8 16 -26.5 22t-52.5 9l8 34h183l266 -461h2l36 191
q20 114 24 169q2 37 -16.5 51t-71.5 16l8 34h241z" />
    <glyph glyph-name="O" unicode="O" horiz-adv-x="723" 
d="M436 665q125 0 200.5 -79.5t75.5 -207.5q0 -167 -104.5 -280t-267.5 -113q-125 0 -201 76.5t-76 205.5q0 106 47 196.5t133 146t193 55.5zM430 622q-58 0 -109.5 -55t-81 -142.5t-29.5 -182.5q0 -99 33 -157t103 -58q63 0 115 59t78.5 144.5t26.5 173.5q0 101 -33 159.5
t-103 58.5z" />
    <glyph glyph-name="P" unicode="P" horiz-adv-x="594" 
d="M126 649h249q235 0 235 -173q0 -95 -68.5 -153t-176.5 -67q-20 0 -30 1l-73 18l-28 -146q-12 -60 1 -74.5t80 -20.5l-8 -34h-303l8 34q54 4 68.5 19t26.5 76l75 386q12 64 1.5 79.5t-65.5 20.5zM315 547l-43 -234q26 -11 56 -11q64 0 105 56.5t41 130.5q0 59 -27.5 89.5
t-73.5 30.5q-24 0 -38 -9q-11 -6 -20 -53z" />
    <glyph glyph-name="Q" unicode="Q" horiz-adv-x="723" 
d="M685 -134l-7 -25q-38 -6 -80 -3.5t-65 10.5q-86 24 -224 131l-11 9q-107 11 -171 86.5t-64 193.5q0 162 106.5 279.5t268.5 117.5q123 0 198.5 -79.5t75.5 -209.5q0 -132 -69.5 -233t-190.5 -139l11 -8q135 -92 222 -130zM305 31l83 22q4 -3 13 -9t13 -9q60 28 105.5 139
t45.5 227q0 222 -138 222q-59 0 -110 -56.5t-79.5 -142.5t-28.5 -175q0 -84 25 -142.5t71 -75.5z" />
    <glyph glyph-name="R" unicode="R" horiz-adv-x="633" 
d="M619 23l-9 -31h-17q-94 1 -131 22t-63 74q-32 65 -59 147q-10 26 -21 36.5t-32 10.5h-24l-28 -153q-11 -59 0.5 -74.5t65.5 -20.5l-8 -34h-290l8 34q53 5 69 20.5t27 73.5l77 396q11 60 0.5 73.5t-68.5 17.5l9 34h252q105 0 157 -31q67 -41 67 -127q0 -68 -44 -115
t-112 -68q2 -5 12 -30.5t21.5 -53.5t21.5 -49q46 -91 61 -112q22 -29 58 -40zM271 322h25q61 0 97 23q71 45 71 142q0 59 -26.5 90.5t-66.5 31.5q-27 0 -39 -12q-10 -9 -16 -41z" />
    <glyph glyph-name="S" unicode="S" horiz-adv-x="489" 
d="M36 206l33 4q5 -28 15.5 -57t29 -59t48.5 -49t67 -19q51 0 79.5 32t28.5 78q0 66 -79 128l-30 22q-56 44 -87.5 87.5t-31.5 100.5q0 87 62 139t156 52q58 0 113 -20q6 -2 41 -16q-4 -33 -6 -153l-35 -3q-22 152 -121 152q-45 0 -70.5 -31.5t-25.5 -71.5q0 -35 19.5 -62
t61.5 -57l30 -21q61 -44 93.5 -88.5t32.5 -106.5q0 -92 -69 -147t-173 -55q-57 0 -107 19t-75 43q2 36 0 159z" />
    <glyph glyph-name="T" unicode="T" horiz-adv-x="623" 
d="M648 674h28q-6 -29 -27 -187l-37 -2q0 72 -15 97q-19 25 -91 25h-50l-91 -479q-11 -58 1.5 -74t80.5 -20l-8 -34h-320l8 34q61 4 78 20.5t28 73.5l93 479h-42q-52 0 -74 -7t-38 -24q-20 -22 -52 -91h-36q33 108 50 189h26q7 -16 16 -20.5t30 -4.5h392q18 0 26 4.5
t24 20.5z" />
    <glyph glyph-name="U" unicode="U" horiz-adv-x="707" 
d="M786 649l-8 -34q-42 -1 -61 -15t-31 -49q-18 -55 -38 -160l-19 -98q-32 -163 -111 -239q-72 -69 -181 -69q-107 0 -167 55q-79 70 -46 241l45 235q12 61 0.5 78t-68.5 21l8 34h292l-9 -34q-50 -5 -65 -20.5t-27 -78.5l-45 -240q-22 -114 11.5 -168.5t107.5 -54.5
q160 0 207 253l15 85q20 105 23 162q2 33 -19 46.5t-72 15.5l9 34h249z" />
    <glyph glyph-name="V" unicode="V" horiz-adv-x="679" 
d="M756 649l-8 -34q-45 -5 -65 -21.5t-59 -79.5q-102 -163 -302 -524h-46q-48 282 -97 533q-10 56 -25 71.5t-60 20.5l8 34h271l-9 -34l-20 -2q-29 -5 -36 -14t-3 -40q3 -26 13.5 -88t27 -155.5t25.5 -148.5h2q149 261 200 369q21 44 15 59t-44 19l-19 1l9 34h222z" />
    <glyph glyph-name="W" unicode="W" horiz-adv-x="952" 
d="M1015 649l-9 -34q-47 -7 -63.5 -21.5t-47.5 -78.5q-107 -212 -251 -526h-49l-77 447h-2l-218 -447h-48l-64 531q-6 58 -19.5 74t-61.5 21l8 34h266l-7 -34l-23 -4q-27 -5 -34 -16.5t-3 -52.5l35 -354h2l215 455h45l78 -458h2q62 131 150 339q23 54 17 69.5t-51 20.5
l-17 1l8 34h219z" />
    <glyph glyph-name="X" unicode="X" horiz-adv-x="642" 
d="M685 649l-8 -34q-48 -5 -68.5 -15.5t-52.5 -43.5q-44 -45 -157 -181l107 -249q24 -57 42 -71.5t71 -20.5l-8 -34h-293l8 34l23 4q28 4 33.5 14t-3.5 35q-18 54 -73 184q-89 -115 -130 -178q-18 -27 -14.5 -37.5t32.5 -17.5l19 -4l-9 -34h-232l9 34q42 4 65 15t49 38
q56 56 192 226l-95 228q-18 44 -35 56.5t-65 17.5l9 34h267l-8 -34l-24 -5q-18 -4 -22.5 -11t0.5 -20q20 -56 67 -162q67 82 113 150q13 22 8.5 31t-28.5 13l-24 4l8 34h227z" />
    <glyph glyph-name="Y" unicode="Y" horiz-adv-x="634" 
d="M709 649l-10 -34q-47 -5 -68 -19t-63 -65q-41 -53 -146 -209q-20 -29 -27 -61l-26 -127q-13 -61 0.5 -78t78.5 -22l-9 -34h-316l9 34q59 5 76.5 21t30.5 79l25 116q7 35 -4 69q-9 25 -31.5 93.5t-39.5 117.5q-19 53 -34 66.5t-60 18.5l10 34h262l-8 -34l-27 -6
q-21 -4 -25 -14t4 -35q25 -85 73 -219q100 150 137 215q16 27 11 38t-36 17l-22 3l11 35h224z" />
    <glyph glyph-name="Z" unicode="Z" horiz-adv-x="607" 
d="M627 649l9 -16q-52 -68 -142.5 -184.5t-166 -214.5t-142.5 -186q36 -6 125 -6q129 0 169 34q40 33 80 111l36 -15q-40 -126 -62 -172h-524l-8 20q217 276 456 587h-116q-69 0 -95.5 -8t-43.5 -25q-30 -31 -54 -95l-37 4q18 69 42 191h26q8 -16 17 -20.5t31 -4.5h400z" />
    <glyph glyph-name="bracketleft" unicode="[" horiz-adv-x="368" 
d="M401 704l-8 -36q-72 -8 -87.5 -20.5t-27.5 -76.5l-114 -600q-5 -25 -7 -36.5t0.5 -24t5.5 -16t17.5 -9t26.5 -7t42 -4.5l-9 -36h-189l166 866h184z" />
    <glyph glyph-name="backslash" unicode="\" horiz-adv-x="377" 
d="M335 -45h-65l-151 709h65z" />
    <glyph glyph-name="bracketright" unicode="]" horiz-adv-x="368" 
d="M352 704l-165 -866h-186l8 36q42 4 56.5 6.5t29.5 13.5t19 26t11 51l114 600q5 25 7 37t-1 24.5t-5.5 16.5t-18 9t-26.5 6t-42 4l10 36h189z" />
    <glyph glyph-name="asciicircum" unicode="^" horiz-adv-x="568" 
d="M519 213h-78l-150 335l-150 -335h-74l193 410h66z" />
    <glyph glyph-name="underscore" unicode="_" horiz-adv-x="500" 
d="M500 -125h-500v50h500v-50z" />
    <glyph glyph-name="grave" unicode="`" 
d="M327 500l-37 -11q-37 62 -103 167l4 15q12 4 49.5 9.5t54.5 4.5q20 -114 32 -185z" />
    <glyph glyph-name="a" unicode="a" horiz-adv-x="519" 
d="M490 133l17 -26q-47 -57 -97.5 -88t-79.5 -31q-50 0 -29 105l11 53h-2q-43 -59 -99 -107q-61 -51 -107 -51q-31 0 -50.5 32.5t-19.5 89.5q0 71 30 140.5t80 114.5q40 35 99 62t116 27q24 0 64 -7q32 -7 58 -7l6 -4q-40 -165 -66 -312q-7 -39 3 -39q7 0 28.5 15.5
t37.5 32.5zM185 78q24 0 74 57.5t66 90.5q28 118 36 164q-25 14 -58 14q-24 0 -44 -13q-44 -32 -69.5 -108.5t-25.5 -148.5q0 -56 21 -56z" />
    <glyph glyph-name="b" unicode="b" horiz-adv-x="506" 
d="M93 636l5 31q43 5 84.5 14t66 15.5t31.5 6.5q16 0 8 -33q-13 -56 -39.5 -171t-40.5 -176h2q54 63 106.5 97t92.5 34q37 0 59.5 -34t22.5 -89q0 -82 -41 -160t-109 -126q-83 -57 -169 -57q-69 0 -100 48q-26 37 -9 128q15 73 43.5 211t42.5 206q8 33 2.5 43t-32.5 11z
M228 38q20 0 40 15q32 24 63 101.5t31 157.5q0 62 -28 62q-21 0 -59.5 -31.5t-75.5 -86.5q-7 -19 -18 -83q-11 -55 -2.5 -85t20.5 -40t29 -10z" />
    <glyph glyph-name="c" unicode="c" horiz-adv-x="399" 
d="M353 131l19 -28q-103 -115 -211 -115q-59 0 -91 38.5t-32 111.5q0 66 28 131t81 111q35 31 83 52.5t89 21.5q37 0 63 -16t27 -42q0 -37 -44 -62q-18 -11 -29 4q-42 63 -80 63q-28 0 -50 -46q-38 -74 -38 -186q0 -102 63 -102q29 0 64 21t58 43z" />
    <glyph glyph-name="d" unicode="d" horiz-adv-x="535" 
d="M501 128l16 -28q-45 -54 -94.5 -83t-78.5 -29q-48 0 -29 96l13 66h-2q-50 -66 -115 -119q-55 -43 -98 -43q-35 0 -57 33t-22 94q0 72 31.5 143.5t83.5 115.5q36 31 92 55.5t89 24.5q32 0 55 -7l27 137q7 32 -1 40.5t-44 9.5h-17l6 33q44 4 86 13t67 16t32 7q15 0 6 -35
q-56 -243 -111 -543q-9 -41 2 -41q19 0 63 44zM193 78q27 0 74 53t74 103l30 144q-30 29 -72 29q-25 0 -41 -13q-42 -31 -67.5 -111.5t-25.5 -145.5q0 -59 28 -59z" />
    <glyph glyph-name="e" unicode="e" horiz-adv-x="418" 
d="M375 141l20 -28q-120 -125 -236 -125q-52 0 -87.5 34.5t-35.5 115.5q0 72 31 140.5t85 111.5q33 26 79 45t84 19q51 0 78 -24.5t27 -62.5q0 -110 -257 -179q-1 -11 -1 -26q0 -42 17 -68t53 -26q29 0 68.5 20t74.5 53zM272 408q-15 0 -30 -10q-22 -15 -44.5 -59.5
t-30.5 -112.5q77 24 110 55.5t33 73.5q0 26 -12.5 39.5t-25.5 13.5z" />
    <glyph glyph-name="f" unicode="f" horiz-adv-x="295" 
d="M70 438h60q30 122 92 183q40 39 85 60.5t77 21.5q34 0 53.5 -16.5t18.5 -36.5q-1 -17 -12.5 -33.5t-24.5 -23.5q-15 -8 -27 3q-43 53 -68 53q-12 1 -20.5 -9.5t-21.5 -59.5t-28 -142h116l-21 -40l-104 -8q-4 -21 -15 -84t-20.5 -110.5t-21.5 -98.5q-28 -118 -63 -180
t-91 -109q-62 -52 -110 -52q-25 0 -46 14.5t-21 33.5q1 30 36 57q12 9 21 2q15 -14 39 -24.5t39 -10.5q23 0 33 25q15 41 42 207q11 67 28 173t26 157h-80l-5 10z" />
    <glyph glyph-name="g" unicode="g" horiz-adv-x="449" 
d="M506 450l11 -22q-47 -50 -86 -57q-2 -1 -7.5 -1.5t-8.5 -0.5q6 -23 6 -47q0 -83 -69 -138q-47 -39 -150 -64q-9 -6 -11 -18q0 -17 67 -49q80 -38 114 -70t34 -69q0 -63 -86 -110.5t-176 -47.5q-80 0 -134 32t-54 79q0 34 41 65t120 67q-37 23 -35 51q0 16 17.5 32.5
t58.5 38.5q-102 20 -102 120t87 163q72 50 146 50q53 0 95 -28q86 1 122 24zM216 163q34 0 62 50t28 125q0 78 -41 78q-38 0 -64 -64q-25 -58 -25 -122q0 -67 40 -67zM195 -195q47 0 74.5 17.5t27.5 44.5q0 32 -58 66q-32 20 -91 47q-29 -17 -49 -42t-20 -50q0 -35 35 -59
t81 -24z" />
    <glyph glyph-name="h" unicode="h" horiz-adv-x="534" 
d="M493 121l16 -29q-103 -104 -172 -104q-54 0 -29 113l49 210q11 53 -9 53q-24 0 -71.5 -46t-84.5 -104q-22 -94 -40 -204q-46 -5 -117 -22l-7 9q68 315 117 584q6 33 -2 42t-41 11l-20 1l7 32q45 3 87 12.5t66.5 16.5t29.5 7q10 0 12 -7.5t-2 -28.5l-79 -380h2
q76 94 148 139q48 28 82 28q71 0 37 -149l-40 -180q-9 -41 3 -41q6 0 24.5 11.5t33.5 25.5z" />
    <glyph glyph-name="i" unicode="i" horiz-adv-x="295" 
d="M231 652q27 0 41.5 -17t14.5 -42q0 -31 -22 -54.5t-54 -23.5q-54 0 -56 62q0 27 20.5 51t55.5 24zM257 124l17 -26q-48 -53 -98.5 -81.5t-77.5 -28.5q-56 0 -30 108l52 224q7 35 0 35q-14 0 -61 -35l-14 28q52 48 103 77t79 29q43 0 20 -99l-57 -232q-9 -39 3 -39
q19 0 64 40z" />
    <glyph glyph-name="j" unicode="j" horiz-adv-x="288" 
d="M228 656q26 0 41 -17t15 -42q0 -31 -21 -54.5t-52 -23.5q-27 0 -43 16.5t-16 45.5q0 27 20.5 51t55.5 24zM58 320l-14 27q46 44 100 75.5t85 31.5q23 0 27 -28t-8 -89q-11 -64 -58 -290q-33 -159 -140 -238q-73 -53 -114 -53q-19 0 -34 10.5t-15 28.5q0 15 11 32.5
t24 27.5q9 9 19 1q41 -31 64 -31q12 0 20.5 13t16.5 52q26 111 82 421q9 46 -1 46q-8 0 -30 -13t-35 -24z" />
    <glyph glyph-name="k" unicode="k" horiz-adv-x="488" 
d="M465 112l19 -27q-37 -52 -74 -74.5t-64 -22.5q-43 0 -73 71q-38 93 -61 168q-17 -19 -31 -41q-28 -143 -34 -177q-59 -6 -114 -21l-8 6q70 311 126 587q7 31 1 40.5t-36 11.5l-26 1l7 33q41 4 83 13t68 16t32 7q15 0 8 -31q-12 -54 -43.5 -195.5t-49.5 -221.5h2
q41 49 79 85q75 74 105 93q33 21 60 21q22 0 37 -11t15 -27q0 -29 -26 -55q-11 -13 -20 -8q-22 11 -50 11q-24 0 -50.5 -15t-45.5 -37q14 -49 45 -124q26 -63 40 -88t26 -25q20 0 53 37z" />
    <glyph glyph-name="l" unicode="l" horiz-adv-x="274" 
d="M239 120l16 -28q-46 -49 -95.5 -76.5t-78.5 -27.5q-16 0 -24 9.5t-11 38.5t10 83q15 75 45.5 225.5t45.5 225.5q8 40 2.5 50.5t-35.5 12.5l-29 3l6 30q42 3 84 12.5t67.5 17t31.5 7.5q17 0 9 -38l-111 -546q-8 -39 2 -39q6 0 26.5 12t38.5 28z" />
    <glyph glyph-name="m" unicode="m" horiz-adv-x="802" 
d="M758 123l16 -28q-46 -51 -94.5 -79t-76.5 -28q-55 0 -31 101l53 221q12 55 -5 55q-22 0 -75 -56.5t-80 -105.5q-24 -102 -41 -193q-61 -6 -117 -22l-8 10q58 238 69 287q17 81 -3 81q-24 0 -78 -59t-77 -105q-19 -61 -45 -192q-58 -6 -115 -22l-7 11q29 105 78 326
q7 34 -3 34q-7 0 -27 -13t-35 -27l-13 29q49 49 95 77.5t76 28.5q25 0 29.5 -28.5t-10.5 -88.5l-14 -60h2q81 106 156 153q41 24 71 24q67 0 36 -147l-5 -25h2q83 109 156 150q38 22 67 22q68 0 34 -151l-44 -190q-7 -31 4 -31q7 0 25.5 13t34.5 28z" />
    <glyph glyph-name="n" unicode="n" horiz-adv-x="549" 
d="M508 125l16 -30q-103 -107 -172 -107q-55 0 -29 107q16 70 48 208q15 62 -5 62q-23 0 -77 -58.5t-81 -107.5q-24 -91 -42 -189q-55 -4 -114 -22l-8 10q41 164 75 325q9 38 0 38q-7 0 -29 -13t-35 -27l-14 30q105 103 170 103q49 0 20 -126l-11 -50h2q66 90 145 144
q45 32 83 32q20 0 31 -10t16 -44t-12 -100q-13 -58 -41 -180q-9 -36 3 -36q16 0 61 41z" />
    <glyph glyph-name="o" unicode="o" horiz-adv-x="492" 
d="M190 -12q-81 0 -115.5 48t-34.5 117q0 92 43.5 161.5t105.5 102.5q69 37 131 37q72 0 110 -43t38 -117q0 -69 -26.5 -133t-79.5 -108q-34 -29 -80 -47t-92 -18zM230 33q10 0 25 5q31 12 57.5 87t26.5 175q0 55 -16 82.5t-42 27.5q-14 0 -25 -5q-27 -12 -56.5 -82.5
t-29.5 -178.5q0 -54 17.5 -82.5t42.5 -28.5z" />
    <glyph glyph-name="p" unicode="p" horiz-adv-x="513" 
d="M274 522l-19 -79q44 11 90 11q149 0 149 -150q0 -48 -21.5 -102t-61.5 -98q-37 -41 -89.5 -72.5t-105.5 -43.5q-25 0 -51 9l-24 -124q-7 -37 1.5 -49t46.5 -17l22 -2l-6 -33l-273 -12l7 33q45 8 60 23.5t24 60.5q70 334 101 489q-42 -14 -77 -33l-10 31q41 27 97 49
l11 43q18 17 54 39.5t64 33.5zM244 394l-63 -328q23 -33 49 -32q27 0 59 39.5t54 103t22 123.5q0 101 -79 101q-19 0 -42 -7z" />
    <glyph glyph-name="q" unicode="q" horiz-adv-x="510" 
d="M451 -195l-4 -33l-265 -12l7 33l16 4q31 8 43.5 22t21.5 59l52 261h-2q-44 -55 -92 -96q-64 -55 -116 -55q-36 0 -57 34.5t-21 89.5q0 72 31.5 141.5t85.5 115.5q27 24 72.5 46t80.5 30q38 9 65 9q39 0 107 -15l17 -3q-20 -74 -45 -220l-58 -331q-7 -47 -0.5 -60
t33.5 -16zM309 404q-35 0 -58 -22q-40 -36 -63.5 -105.5t-23.5 -134.5t30 -65q25 0 68.5 45t65.5 85q24 100 37 181q-21 16 -56 16z" />
    <glyph glyph-name="r" unicode="r" horiz-adv-x="390" 
d="M55 322l-16 28q45 45 91 74.5t74 29.5q46 0 22 -116l-9 -45h4q85 161 142 161q30 0 48 -26q19 -27 -4 -63q-20 -29 -35 -41q-14 -11 -25 -2q-22 19 -41 19q-18 0 -40 -30q-44 -62 -56 -110q-18 -74 -38 -191q-56 -5 -114 -22l-8 10q37 152 67 313q9 47 -2 47
q-6 0 -27 -12t-33 -24z" />
    <glyph glyph-name="s" unicode="s" horiz-adv-x="354" 
d="M121 -12q-44 0 -80 23.5t-37 57.5q-1 16 9 32.5t24 24.5q24 13 36 -2q61 -74 115 -74q19 0 31.5 10t12.5 26t-13.5 32t-49.5 43q-61 43 -79 67q-22 30 -22 64q0 62 63 111q65 51 123 51q40 0 66 -19.5t26 -46.5q2 -31 -34 -55q-19 -11 -29 2q-42 58 -90 58
q-18 0 -28.5 -10t-9.5 -25q0 -32 70 -78q48 -32 72.5 -61t24.5 -67q0 -65 -66.5 -114.5t-134.5 -49.5z" />
    <glyph glyph-name="t" unicode="t" horiz-adv-x="320" 
d="M364 438l-28 -44l-93 -4l-52 -253q-12 -59 5 -59q10 0 36.5 17t45.5 35l16 -26q-31 -42 -88 -79t-97 -37q-67 0 -36 142l56 260h-72l-5 10l28 38h59l22 92l116 73l13 -10l-35 -155h109z" />
    <glyph glyph-name="u" unicode="u" horiz-adv-x="545" 
d="M508 129l17 -30q-103 -111 -173 -111q-51 0 -28 102q6 24 14 62h-2q-77 -101 -151 -144q-34 -20 -69 -20q-73 0 -40 145q24 103 43 183q6 27 6.5 35t-5.5 10q-8 0 -61 -40l-13 30q48 46 96 74.5t77 28.5q45 0 21 -103q-28 -130 -48 -209q-14 -63 8 -63q30 0 79 55.5
t71 95.5q25 108 43 197l111 27h13q-45 -183 -73 -324q-8 -45 1 -45q7 0 27 13.5t36 30.5z" />
    <glyph glyph-name="v" unicode="v" horiz-adv-x="467" 
d="M263 120h2q114 142 114 215q0 27 -13 49q-4 13 0 23q6 20 22 33.5t39 13.5q22 0 37.5 -18t15.5 -47q0 -48 -65 -135q-143 -190 -214 -266h-40q-16 220 -30 317q-9 56 -18 56q-14 0 -55 -44l-19 27q36 49 77 79.5t71 30.5q26 0 40 -29.5t20 -92.5q14 -167 16 -212z" />
    <glyph glyph-name="w" unicode="w" horiz-adv-x="680" 
d="M491 124h2q103 140 103 209q0 30 -12 52q-7 15 1 31q17 38 53 38q23 0 39 -18.5t16 -47.5q0 -39 -39 -102q-24 -37 -100.5 -141.5t-117.5 -156.5h-41q-11 84 -39 270h-2q-11 -18 -72 -119.5t-93 -150.5h-39q-11 244 -21 321q-6 49 -15 49q-16 0 -53 -41l-18 25
q34 48 77 80t73 32q25 0 36.5 -27.5t14.5 -91.5q5 -91 3 -181h2q158 281 160 285h36q10 -60 24.5 -164.5t21.5 -150.5z" />
    <glyph glyph-name="x" unicode="x" horiz-adv-x="487" 
d="M82 307l-22 25q39 57 78 89.5t68 32.5q22 0 37 -22.5t32 -74.5l15 -47q57 82 90.5 113t66.5 31q24 0 37 -16t12 -39q-1 -24 -17.5 -40.5t-34.5 -16.5q-8 0 -19 11q-10 12 -24 12q-15 0 -40 -25q-18 -17 -57 -70l40 -128q18 -62 37 -62q20 0 68 58l21 -25q-41 -65 -81 -95
t-72 -30q-25 0 -43 22.5t-34 74.5l-23 76q-61 -100 -95 -136.5t-71 -36.5q-23 0 -38.5 16.5t-14.5 40.5q1 26 17 43t33 17q7 0 19 -10q11 -11 24 -11q33 0 112 121l-26 89q-20 66 -37 66t-58 -53z" />
    <glyph glyph-name="y" unicode="y" horiz-adv-x="469" 
d="M276 96h2q33 51 52 82.5t36.5 76t17.5 77.5q0 15 -14 54q-7 18 4 35q18 33 53 33q21 0 36.5 -17.5t16.5 -49.5q2 -48 -39 -112q-44 -74 -161 -242q-119 -167 -188 -246l-132 -31l-9 27q82 53 132 94.5t90 93.5q1 60 -10.5 165.5t-25.5 173.5q-9 45 -21 45q-14 0 -54 -51
l-21 27q33 54 72.5 88.5t71.5 34.5q28 0 44.5 -31t25.5 -104q13 -100 21 -223z" />
    <glyph glyph-name="z" unicode="z" horiz-adv-x="414" 
d="M437 467l22 -23q-69 -79 -74 -85q-61 -64 -245 -237q36 2 81 -16q48 -17 77 -17q42 0 101 81l27 -21q-43 -95 -80.5 -133t-75.5 -38q-12 0 -30 5.5t-29 10t-36.5 16.5t-31.5 15q-32 15 -49.5 15.5t-28.5 -9.5q-13 -10 -29 -34q-7 -10 -14 -9q-11 2 -15.5 15t7.5 40.5
t45 60.5q28 28 124.5 116.5t141.5 132.5q-34 -8 -69 -5q-60 5 -73 5q-38 0 -59.5 -16.5t-46.5 -56.5l-30 19q27 59 50 94q41 60 81 60q28 0 89 -11q69 -13 100 -13q29 0 70 38z" />
    <glyph glyph-name="braceleft" unicode="{" horiz-adv-x="368" 
d="M403 710l-6 -35q-43 -6 -62 -28.5t-27 -59.5q-3 -13 -11 -90q-3 -74 -10 -113q-19 -94 -110 -111v-4q72 -17 70 -86q0 -21 -4.5 -42t-16.5 -54.5t-14 -41.5q-25 -83 -25 -114q0 -55 61 -64l-10 -35q-137 0 -138 97q-1 39 30 150q25 89 25 114q1 25 -14.5 41t-56.5 19
l8 36q30 2 50 10.5t30 23.5t13.5 24.5t7.5 26.5q3 17 10 89q5 64 17 123q10 50 40 78.5t63.5 37t79.5 8.5z" />
    <glyph glyph-name="bar" unicode="|" horiz-adv-x="273" 
d="M204 -250h-84v1000h84v-1000z" />
    <glyph glyph-name="braceright" unicode="}" horiz-adv-x="368" 
d="M320 288l-8 -35q-30 -2 -50 -10.5t-30 -24t-13.5 -24.5t-7.5 -26q-3 -18 -10 -89q-9 -87 -17 -123q-10 -50 -39.5 -78.5t-63 -37t-80.5 -8.5l4 35q73 10 90 86q5 21 12 92q3 78 10 111q8 43 37 73t74 40v4q-37 8 -55 36.5t-13 67.5q1 25 32 120q22 76 24 102q7 68 -60 77
l9 34q61 0 101.5 -26t36.5 -88q-1 -34 -29 -133q-24 -89 -24 -100q-9 -68 70 -75z" />
    <glyph glyph-name="asciitilde" unicode="~" horiz-adv-x="577" 
d="M496 329l48 -30q-40 -116 -134 -116q-54 0 -121 45q-53 35 -89 35q-56 0 -90 -85l-45 35q50 113 141 113q50 0 111 -39q62 -40 98 -40q50 0 81 82z" />
    <glyph glyph-name="uni00A0" unicode="&#xa0;" horiz-adv-x="219" 
 />
    <glyph glyph-name="exclamdown" unicode="&#xa1;" horiz-adv-x="269" 
d="M246 383q0 -38 -23 -62.5t-59 -24.5q-31 0 -51 21.5t-20 54.5q0 39 25 62.5t58 23.5q31 0 50.5 -21.5t19.5 -53.5zM56 -220q-44 0 -59.5 12t-12.5 31q4 18 23 75q19 54 56.5 162.5t56.5 162.5q4 9 21.5 8t20.5 -7q-1 -48 -3 -102.5t-5 -120.5t-4 -103q-3 -63 -6 -79
q-3 -20 -21.5 -29.5t-66.5 -9.5z" />
    <glyph glyph-name="cent" unicode="&#xa2;" horiz-adv-x="495" 
d="M396 615l-14 -77q58 -1 92 -26q20 -13 20 -30q0 -22 -15.5 -37.5t-27.5 -15.5q-8 0 -21 14q-1 1 -3 4q-33 38 -55 44l-60 -317h11q65 2 121 48l18 -28q-69 -82 -164 -96l-19 -96h-42l19 96q-81 5 -132 53.5t-51 132.5q0 100 76 170.5t190 80.5l15 80h42zM272 182l59 314
q-62 -3 -98.5 -56.5t-36.5 -132.5q0 -50 20 -82.5t56 -42.5z" />
    <glyph glyph-name="sterling" unicode="&#xa3;" horiz-adv-x="495" 
d="M405 291h-145q-15 -104 -138 -168q53 1 111 -23q96 -39 126 -39q40 0 44 26q2 12 -4 40q-3 11 7 24q24 27 44 27q27 0 19 -49q-4 -30 -31.5 -63.5t-60.5 -55.5q-53 -37 -108 -37q-15 0 -29.5 3t-32.5 11.5t-26 12.5t-29.5 17t-24.5 15q-39 21 -58 21q-23 0 -42 -39
q-6 -16 -16 -16q-14 0 -21 12.5t1 32.5q5 12 18 27t33 35t27 28q60 65 61 158h-94l8 43h86q0 43 4 76q15 111 111 179q61 46 121 46t91 -38q16 -23 -2 -45q-11 -16 -29 -28q-19 -9 -33 3q-6 5 -19 17.5t-20.5 18.5t-19 11.5t-23.5 5.5q-40 0 -48 -60q-5 -38 -1 -186h151z
" />
    <glyph glyph-name="currency" unicode="&#xa4;" horiz-adv-x="495" 
d="M491 135l-48 -48l-67 75q-46 -37 -110 -37q-67 0 -111 37l-67 -75l-47 48l71 68q-43 46 -43 122t43 122l-71 68l47 48l67 -75q46 37 112 37q63 0 109 -37l67 75l48 -48l-72 -68q44 -47 44 -122t-44 -122zM266 456q-49 0 -81 -37.5t-32 -93.5q0 -58 31.5 -94.5t81.5 -36.5
t81.5 36.5t31.5 94.5q0 56 -31.5 93.5t-81.5 37.5z" />
    <glyph glyph-name="yen" unicode="&#xa5;" horiz-adv-x="495" 
d="M572 623l-6 -33q-39 -4 -56.5 -16t-47.5 -53q-48 -66 -124 -182h109l-9 -40h-114l-14 -68h116l-8 -40h-116l-11 -63q-11 -65 -0.5 -78t69.5 -17l-7 -33h-288l8 33q53 3 67 17t27 77l12 64h-112l9 40h110l12 68h-111l10 40h98q-11 61 -44 183q-11 39 -24.5 51.5
t-51.5 16.5l5 33h240l-6 -33l-24 -5q-15 -3 -19.5 -9t-2.5 -21q7 -35 19 -96.5t19 -97.5q105 171 106 172q16 29 12.5 40t-27.5 15l-20 2l5 33h190z" />
    <glyph glyph-name="brokenbar" unicode="&#xa6;" horiz-adv-x="273" 
d="M204 325h-84v350h84v-350zM204 -175h-84v350h84v-350z" />
    <glyph glyph-name="section" unicode="&#xa7;" horiz-adv-x="501" 
d="M463 225q0 -124 -142 -244q-84 -69 -167 -84q-54 0 -84 29q-16 16 -14 33q1 10 12 24.5t23 21.5q13 8 24 -2q48 -40 95 -40q29 0 47 14t18 34q1 37 -50 90q-64 64 -95 102q-57 64 -57 143q0 56 33.5 111t87.5 100q83 71 173 89q57 0 83 -30q12 -13 9 -29
q-1 -12 -11.5 -25.5t-21.5 -18.5q-10 -3 -16 2q-48 43 -94 43q-26 0 -41.5 -15.5t-15.5 -34.5q0 -24 26 -55q44 -44 84 -82q51 -48 72.5 -88.5t21.5 -87.5zM195 512l-2 1q-46 -52 -46 -118q0 -63 57 -123l49 -51q48 -49 70 -89q20 -33 14 -87h3q48 49 48 122q0 61 -60 127
q-52 55 -98 107q-47 49 -35 111z" />
    <glyph glyph-name="dieresis" unicode="&#xa8;" 
d="M185 644q26 0 40 -16t14 -40q0 -30 -19 -52t-50 -22q-25 0 -40.5 15.5t-15.5 42.5q0 26 19.5 49t51.5 23zM380 644q26 0 40 -16t14 -40q0 -30 -19 -52t-50 -22q-25 0 -40.5 15.5t-15.5 42.5q0 26 19.5 49t51.5 23z" />
    <glyph glyph-name="copyright" unicode="&#xa9;" horiz-adv-x="700" 
d="M378 631q132 0 220.5 -89.5t88.5 -217.5q0 -127 -88.5 -216t-220.5 -89q-134 0 -221.5 89t-87.5 216q0 128 88 217.5t221 89.5zM380 592q-112 0 -185 -77t-73 -190t73.5 -190t184.5 -77t183.5 77t72.5 190t-72.5 190t-183.5 77zM506 261l26 -6q-4 -12 -12.5 -44
t-12.5 -42q-60 -20 -109 -20q-94 0 -143.5 51.5t-49.5 120.5q0 82 58 130.5t140 48.5q62 0 106 -18q3 -45 11 -89l-24 -6q-16 40 -37 60.5t-59 20.5q-48 0 -76.5 -39t-28.5 -100q0 -64 32 -105t77 -41q65 0 102 78z" />
    <glyph glyph-name="ordfeminine" unicode="&#xaa;" horiz-adv-x="367" 
d="M374 355l11 -21q-28 -27 -62.5 -44.5t-55.5 -17.5q-33 0 -21 54l10 45h-1q-30 -38 -62 -64q-44 -35 -77 -35q-22 0 -36 19t-14 57q0 40 18.5 83.5t50.5 71.5q25 23 65.5 39t83.5 16q14 0 37 -5q8 -2 52 -4q-29 -126 -38 -185q-4 -29 1 -29q13 0 38 20zM244 521
q-13 0 -27 -10q-21 -14 -37 -48q-23 -48 -23 -99q0 -30 14 -30q15 0 39 24q30 28 51 74q9 19 24 80q-15 9 -41 9z" />
    <glyph glyph-name="guillemotleft" unicode="&#xab;" horiz-adv-x="467" 
d="M256 393l-99 -167l59 -167l-34 -16q-77 116 -130 183q84 82 175 185zM433 393l-99 -167l58 -167l-33 -16q-94 137 -131 183q78 77 176 185z" />
    <glyph glyph-name="logicalnot" unicode="&#xac;" horiz-adv-x="607" 
d="M553 101h-75v209h-410v65h485v-274z" />
    <glyph glyph-name="uni00AD" unicode="&#xad;" horiz-adv-x="340" 
d="M306 265l-17 -71h-248l17 71h248z" />
    <glyph glyph-name="registered" unicode="&#xae;" horiz-adv-x="312" 
d="M204 661q56 0 94.5 -39t38.5 -93q0 -53 -38.5 -92t-94.5 -39t-94 37.5t-38 93.5q0 54 38 93t94 39zM204 637q-45 0 -74 -31t-29 -77t29.5 -77t73.5 -31q45 0 74.5 30.5t29.5 77.5q0 45 -29.5 76.5t-74.5 31.5zM279 471l-4 -13q-33 0 -49 22q-10 13 -20 31q-4 7 -12 7h-5
v-24q0 -7 0.5 -10.5t3 -5.5t5.5 -2.5t11 -1.5v-15h-69v15q10 1 13.5 2t5 5t1.5 13v71q0 14 -3 16.5t-16 3.5v15h69q50 0 50 -37q0 -24 -28 -36q15 -27 33 -46q7 -8 14 -10zM189 572v-38h10q10 0 17 5q12 6 12 21q0 25 -25 25q-14 0 -14 -13z" />
    <glyph glyph-name="macron" unicode="&#xaf;" 
d="M386 604l-17 -70h-237l17 70h237z" />
    <glyph glyph-name="degree" unicode="&#xb0;" horiz-adv-x="363" 
d="M246 664q57 0 94 -33.5t37 -92.5q0 -61 -43 -100t-103 -39q-58 0 -94.5 34t-36.5 91q0 61 42.5 100.5t103.5 39.5zM244 619q-34 0 -57 -27t-23 -69q0 -34 20 -56.5t51 -22.5q35 0 57.5 27t22.5 65q0 37 -19.5 60t-51.5 23z" />
    <glyph glyph-name="plusminus" unicode="&#xb1;" horiz-adv-x="607" 
d="M544 304h-204v-193h-74v193h-205v65h205v181h74v-181h204v-65zM544 0h-483v65h483v-65z" />
    <glyph glyph-name="twosuperior" unicode="&#xb2;" horiz-adv-x="341" 
d="M318 502l25 -10q-18 -41 -40 -96h-256l6 26q9 7 48.5 36.5t63.5 50.5q83 72 85 129q0 22 -15 36t-40 14q-37 0 -80 -47l-20 21l45 52q39 40 103 40q44 0 75 -26.5t31 -72.5q0 -18 -7 -35t-15 -29t-27 -28t-28.5 -23t-34.5 -24t-31 -21l-39 -27v-2h85q25 0 36.5 6t29.5 30
z" />
    <glyph glyph-name="threesuperior" unicode="&#xb3;" horiz-adv-x="341" 
d="M129 657l-20 19l39 44q40 34 92 34q40 0 69.5 -19t29.5 -53q0 -45 -74 -75v-2q32 -7 53.5 -26t21.5 -49q0 -69 -89 -113q-55 -27 -104 -27q-22 0 -44 7.5t-31 16.5q-15 13 -9 30q7 21 26 32q12 8 23 -3l6 -6t7.5 -7t8 -6.5t9 -7t9.5 -6t11 -5t11.5 -3t12.5 -1.5
q23 0 38 19t15 48q0 35 -18.5 51.5t-46.5 16.5q-18 0 -33 -5l-4 27q45 10 72.5 30t27.5 46q0 36 -39 36q-33 0 -70 -43z" />
    <glyph glyph-name="acute" unicode="&#xb4;" 
d="M412 660l-173 -171l-31 21q48 86 86 167q14 4 55 5t58 -2z" />
    <glyph glyph-name="mu" unicode="&#xb5;" horiz-adv-x="532" 
d="M491 128l16 -29q-103 -111 -173 -111q-51 0 -28 100q5 25 13 63h-2q-69 -99 -113 -133q-38 -30 -69 -30q-35 0 -46 52h-2q-21 -62 -11 -150q7 -56 34 -98l1 -8q-7 -11 -28.5 -22.5t-44.5 -11.5q-19 0 -30.5 19t-9.5 55q2 40 36 192q83 373 92 413l117 24l7 -5
q-49 -197 -67 -286q-19 -83 12 -83q26 0 71 56t66 96q22 94 44 196l110 27h14q-42 -159 -73 -325q-9 -45 1 -45q6 0 26 13.5t37 30.5z" />
    <glyph glyph-name="paragraph" unicode="&#xb6;" horiz-adv-x="496" 
d="M535 543l-34 -29l-80 -9l-90 -472q-12 -62 -34.5 -104.5t-62.5 -78.5q-30 -27 -62.5 -42t-50.5 -15q-39 0 -66 25q-19 18 -8 39q10 20 28 32q10 7 21 -1q35 -27 74 -27q32 0 55.5 30t41.5 126l26 130l-66 -27q-10 -5 -21 -5q-55 0 -98.5 54t-43.5 129q0 109 83.5 184
t195.5 75h188z" />
    <glyph glyph-name="periodcentered" unicode="&#xb7;" horiz-adv-x="263" 
d="M137 152q-30 0 -49.5 20.5t-19.5 51.5q0 37 22.5 61t57.5 24q30 0 49 -20.5t19 -53.5q0 -37 -23.5 -60t-55.5 -23z" />
    <glyph glyph-name="cedilla" unicode="&#xb8;" 
d="M221 3l-24 -28q-15 -17 6 -44q29 -41 27 -67q-1 -32 -39 -59.5t-97 -44.5l-13 31q68 30 68 56q1 17 -18 40q-15 19 -15.5 33.5t16.5 35.5l39 47h50z" />
    <glyph glyph-name="onesuperior" unicode="&#xb9;" horiz-adv-x="341" 
d="M305 424l-7 -28h-214l7 28q37 4 48 14t18 45l31 156q7 38 2 46.5t-31 10.5l-18 2l6 26q64 7 161 30l-53 -271q-7 -36 2 -45.5t48 -13.5z" />
    <glyph glyph-name="ordmasculine" unicode="&#xba;" horiz-adv-x="343" 
d="M247 556q53 0 83.5 -29t30.5 -82q0 -87 -69 -138q-47 -35 -107 -35q-54 0 -83.5 30t-29.5 77q-1 52 25 93.5t68 62.5q39 21 82 21zM234 523q-11 0 -22 -7q-18 -10 -34.5 -45.5t-16.5 -94.5q0 -35 12 -52.5t29 -17.5q9 0 24 7q16 9 32 53t16 96q-2 61 -40 61z" />
    <glyph glyph-name="guillemotright" unicode="&#xbb;" horiz-adv-x="468" 
d="M86 393l34 16q87 -130 130 -183q-83 -82 -176 -186l-29 19l100 167zM262 393l34 16q77 -116 130 -183q-88 -86 -175 -186l-30 19l100 167z" />
    <glyph glyph-name="onequarter" unicode="&#xbc;" horiz-adv-x="839" 
d="M686 619l-531 -659l-30 29l529 659zM294 305l-6 -27h-214l6 27q37 5 48 14.5t18 44.5l31 157q7 37 2 45.5t-31 11.5l-19 2l6 26q66 7 161 30l-52 -272q-7 -35 1.5 -44.5t48.5 -14.5zM700 135l-8 -41h-54l-5 -23q-4 -23 4 -31.5t39 -13.5l-5 -26h-196l7 26q35 6 45 12.5
t14 30.5l5 25h-155l5 27q110 125 230 237h62l-42 -223h54zM584 274h-2q-9 -11 -54.5 -60.5t-68.5 -78.5h95z" />
    <glyph glyph-name="onehalf" unicode="&#xbd;" horiz-adv-x="780" 
d="M676 619l-531 -659l-31 29l530 659zM287 306l-7 -28h-215l8 27q37 5 48 14.5t18 44.5l31 157q7 37 2 45.5t-31 11.5l-19 2l6 26q66 7 161 30l-52 -272q-7 -35 1.5 -44.5t48.5 -13.5zM691 106l25 -10q-24 -56 -40 -96h-256l6 26q8 7 47.5 36.5t64.5 50.5q84 72 84 128
q0 23 -14.5 37t-39.5 14q-38 0 -80 -48l-20 21l43 51q44 42 105 42q44 0 75 -27t31 -72q0 -18 -7 -35t-15.5 -29t-26.5 -28t-28 -23.5t-34 -23.5t-31 -21l-39 -28v-2h83q25 0 37 6.5t30 30.5z" />
    <glyph glyph-name="threequarters" unicode="&#xbe;" horiz-adv-x="780" 
d="M701 619l-531 -659l-30 29l529 659zM148 539l-20 18l39 44q39 35 92 35q41 0 70 -19t29 -53q0 -45 -74 -75v-2q32 -7 53.5 -26t21.5 -50q0 -68 -89 -112q-53 -27 -104 -27q-22 0 -44 7.5t-31 15.5q-14 14 -9 30q8 23 26 32q12 8 23 -3q44 -41 75 -41q23 0 38 18t15 47
q0 36 -18.5 52.5t-47.5 16.5q-17 0 -32 -5l-4 28q100 23 100 76q0 35 -39 35q-34 0 -70 -42zM705 135l-9 -41h-54l-4 -23q-4 -24 3.5 -32t39.5 -13l-5 -26h-196l7 26q34 5 44.5 12t14.5 31l5 25h-156l5 27q122 136 231 237h62l-43 -223h55zM589 274h-2q-107 -120 -123 -139
h95z" />
    <glyph glyph-name="questiondown" unicode="&#xbf;" horiz-adv-x="375" 
d="M249 458q31 0 50.5 -21t19.5 -54q0 -38 -23 -62.5t-58 -24.5q-31 0 -51 21.5t-20 54.5q0 39 24.5 62.5t57.5 23.5zM176 224l26 21q36 -17 68 -51.5t32 -73.5q-1 -44 -32 -73t-88 -59q-10 -5 -27.5 -14t-27 -14.5t-23 -13t-21 -13t-15 -12t-11 -12.5t-3.5 -12
q0 -11 10 -19.5t29 -8.5q33 0 62 13.5t48 27t27 13.5q14 0 30 -21.5t16 -46.5q0 -22 -29 -40q-50 -35 -101 -35q-59 0 -106 48.5t-47 108.5q0 83 76 126q9 5 28.5 16.5t28 16.5t23 14t20.5 14.5t14 13.5t11 15t3 15q0 26 -21 56z" />
    <glyph glyph-name="Agrave" unicode="&#xc0;" horiz-adv-x="672" 
d="M630 34l-9 -34h-272l10 34q45 5 54.5 17.5t4.5 50.5l-16 112h-190q-19 -37 -55 -113q-18 -33 -8.5 -46.5t65.5 -20.5l-9 -34h-225l9 34q46 8 66.5 25.5t61.5 87.5l288 503l53 13l17 -114q10 -61 33.5 -198t34.5 -210q10 -67 23.5 -84t63.5 -23zM395 264l-32 225h-3
q-10 -19 -54.5 -99t-67.5 -126h157zM499 713l-16 -30l-213 58l-2 12q4 18 21.5 45t31.5 33q158 -104 178 -118z" />
    <glyph glyph-name="Aacute" unicode="&#xc1;" horiz-adv-x="672" 
d="M630 34l-9 -34h-272l10 34q45 5 54.5 17.5t4.5 50.5l-16 112h-190q-19 -37 -55 -113q-18 -33 -8.5 -46.5t65.5 -20.5l-9 -34h-225l9 34q46 8 66.5 25.5t61.5 87.5l288 503l53 13l17 -114q10 -61 33.5 -198t34.5 -210q10 -67 23.5 -84t63.5 -23zM395 264l-32 225h-3
q-10 -19 -54.5 -99t-67.5 -126h157zM601 752l-6 -12l-210 -58l-16 31q30 19 89.5 58.5t88.5 58.5q14 -3 32 -30t22 -48z" />
    <glyph glyph-name="Acircumflex" unicode="&#xc2;" horiz-adv-x="672" 
d="M630 34l-9 -34h-272l10 34q45 5 54.5 17.5t4.5 50.5l-16 112h-190q-19 -37 -55 -113q-18 -33 -8.5 -46.5t65.5 -20.5l-9 -34h-225l9 34q46 8 66.5 25.5t61.5 87.5l288 503l53 13l17 -114q10 -61 33.5 -198t34.5 -210q10 -67 23.5 -84t63.5 -23zM395 264l-32 225h-3
q-10 -19 -54.5 -99t-67.5 -126h157zM582 712l-21 -28q-77 30 -120 55q-73 -34 -136 -55l-17 29q52 33 148 114h33q59 -67 113 -115z" />
    <glyph glyph-name="Atilde" unicode="&#xc3;" horiz-adv-x="672" 
d="M630 34l-9 -34h-272l10 34q45 5 54.5 17.5t4.5 50.5l-16 112h-190q-19 -37 -55 -113q-18 -33 -8.5 -46.5t65.5 -20.5l-9 -34h-225l9 34q46 8 66.5 25.5t61.5 87.5l288 503l53 13l17 -114q10 -61 33.5 -198t34.5 -210q10 -67 23.5 -84t63.5 -23zM395 264l-32 225h-3
q-10 -19 -54.5 -99t-67.5 -126h157zM555 803l30 -19q-32 -95 -87 -95q-23 0 -75 23q-29 13 -49 13q-28 0 -51 -44l-31 23q33 92 90 92q24 0 67 -20q43 -16 56 -16q26 0 50 43z" />
    <glyph glyph-name="Adieresis" unicode="&#xc4;" horiz-adv-x="672" 
d="M630 34l-9 -34h-272l10 34q45 5 54.5 17.5t4.5 50.5l-16 112h-190q-19 -37 -55 -113q-18 -33 -8.5 -46.5t65.5 -20.5l-9 -34h-225l9 34q46 8 66.5 25.5t61.5 87.5l288 503l53 13l17 -114q10 -61 33.5 -198t34.5 -210q10 -67 23.5 -84t63.5 -23zM395 264l-32 225h-3
q-10 -19 -54.5 -99t-67.5 -126h157zM344 822q26 0 40.5 -16.5t14.5 -40.5q0 -30 -19.5 -51.5t-49.5 -21.5q-25 0 -40.5 15t-15.5 42t19.5 50t50.5 23zM555 822q26 0 40 -16.5t14 -40.5q0 -30 -19.5 -51.5t-49.5 -21.5q-25 0 -40 15t-16 42q0 27 19.5 50t51.5 23z" />
    <glyph glyph-name="Aring" unicode="&#xc5;" horiz-adv-x="672" 
d="M630 34l-9 -34h-272l10 34q45 5 54.5 17.5t4.5 50.5l-16 112h-190q-19 -37 -55 -113q-18 -33 -8.5 -46.5t65.5 -20.5l-9 -34h-225l9 34q46 8 66.5 25.5t61.5 87.5l288 503l53 13l17 -114q10 -61 33.5 -198t34.5 -210q10 -67 23.5 -84t63.5 -23zM395 264l-32 225h-3
q-10 -19 -54.5 -99t-67.5 -126h157zM537 780q-1 -42 -32 -68t-71 -26q-38 0 -63 24t-24 63q1 43 32 69t72 26q37 0 62 -24.5t24 -63.5zM485 780q1 21 -9 35t-28 14q-21 0 -34.5 -15.5t-14.5 -39.5q-1 -21 9.5 -34t29.5 -13t32.5 15t14.5 38z" />
    <glyph glyph-name="AE" unicode="&#xc6;" horiz-adv-x="859" 
d="M848 493l-36 -3q-7 67 -23 90q-10 16 -29.5 21.5t-63.5 5.5h-46q-25 0 -32.5 -7t-12.5 -31l-43 -231h69q63 0 80.5 12t39.5 66h36l-39 -207h-37q1 58 -11.5 69.5t-76.5 11.5h-71l-27 -150q-10 -58 6 -78t85 -20q81 0 116 32q25 23 67 99l34 -14q-38 -118 -58 -159h-486
l6 35q53 5 70.5 19.5t28.5 71.5l31 164h-171q-103 -159 -117 -185q-19 -35 -15 -48t37 -17l28 -5l-8 -35h-238l8 35q49 5 68.5 17.5t53.5 58.5q116 162 307 444q22 33 17.5 41.5t-44.5 13.5l-54 6l11 33h557q-1 -8 -4 -38.5t-6.5 -63t-6.5 -54.5zM285 338h149l53 266
q-15 0 -36 -16q-114 -169 -166 -250z" />
    <glyph glyph-name="Ccedilla" unicode="&#xc7;" horiz-adv-x="651" 
d="M309 -48l29 35q-124 7 -199 80.5t-75 200.5q0 180 125 288.5t308 108.5q72 0 172 -28q-2 -46 -10 -168l-35 -4q-14 87 -50.5 122t-98.5 35q-106 0 -184.5 -102.5t-78.5 -245.5q0 -116 43.5 -181t120.5 -65q58 0 106.5 39t109.5 124l33 -15q-35 -93 -81 -165
q-90 -24 -161 -25l-12 -14q-9 -12 -7.5 -20.5t13.5 -24.5q30 -41 29 -69q-1 -33 -38.5 -61t-98.5 -45l-12 30q69 32 70 58q1 15 -18 41q-17 20 -17.5 35t17.5 36z" />
    <glyph glyph-name="Egrave" unicode="&#xc8;" horiz-adv-x="570" 
d="M123 649h457q0 -1 -6.5 -64t-10.5 -93l-36 -3q-5 73 -21 93q-15 25 -87 25h-49q-28 0 -36.5 -7t-13.5 -35l-39 -201h67q45 0 63.5 5.5t27 17.5t25.5 51h37l-41 -206h-36q1 59 -10 71t-73 12h-69l-32 -169q-12 -65 2 -83q14 -21 84 -21q83 0 117 33q38 34 72 96l34 -13
q-30 -91 -61 -158h-487l7 34q57 4 72 18.5t26 74.5l77 395q11 58 -0.5 73.5t-68.5 19.5zM455 717l-16 -30l-212 58l-3 12q4 18 21.5 45t31.5 33q96 -62 178 -118z" />
    <glyph glyph-name="Eacute" unicode="&#xc9;" horiz-adv-x="570" 
d="M123 649h457q0 -1 -6.5 -64t-10.5 -93l-36 -3q-5 73 -21 93q-15 25 -87 25h-49q-28 0 -36.5 -7t-13.5 -35l-39 -201h67q45 0 63.5 5.5t27 17.5t25.5 51h37l-41 -206h-36q1 59 -10 71t-73 12h-69l-32 -169q-12 -65 2 -83q14 -21 84 -21q83 0 117 33q38 34 72 96l34 -13
q-30 -91 -61 -158h-487l7 34q57 4 72 18.5t26 74.5l77 395q11 58 -0.5 73.5t-68.5 19.5zM549 755l-5 -12l-210 -57l-17 30q83 55 178 117q14 -3 32 -30t22 -48z" />
    <glyph glyph-name="Ecircumflex" unicode="&#xca;" horiz-adv-x="570" 
d="M123 649h457q0 -1 -6.5 -64t-10.5 -93l-36 -3q-5 73 -21 93q-15 25 -87 25h-49q-28 0 -36.5 -7t-13.5 -35l-39 -201h67q45 0 63.5 5.5t27 17.5t25.5 51h37l-41 -206h-36q1 59 -10 71t-73 12h-69l-32 -169q-12 -65 2 -83q14 -21 84 -21q83 0 117 33q38 34 72 96l34 -13
q-30 -91 -61 -158h-487l7 34q57 4 72 18.5t26 74.5l77 395q11 58 -0.5 73.5t-68.5 19.5zM532 713l-21 -28q-77 30 -120 55q-72 -34 -136 -55l-17 29q46 30 148 113h33q62 -69 113 -114z" />
    <glyph glyph-name="Edieresis" unicode="&#xcb;" horiz-adv-x="570" 
d="M123 649h457q0 -1 -6.5 -64t-10.5 -93l-36 -3q-5 73 -21 93q-15 25 -87 25h-49q-28 0 -36.5 -7t-13.5 -35l-39 -201h67q45 0 63.5 5.5t27 17.5t25.5 51h37l-41 -206h-36q1 59 -10 71t-73 12h-69l-32 -169q-12 -65 2 -83q14 -21 84 -21q83 0 117 33q38 34 72 96l34 -13
q-30 -91 -61 -158h-487l7 34q57 4 72 18.5t26 74.5l77 395q11 58 -0.5 73.5t-68.5 19.5zM297 822q26 0 40.5 -16.5t14.5 -40.5q0 -30 -19.5 -51.5t-50.5 -21.5q-25 0 -40 15t-16 42q0 27 19.5 50t51.5 23zM507 822q26 0 40.5 -16.5t14.5 -40.5q0 -30 -19.5 -51.5
t-49.5 -21.5q-25 0 -40.5 15t-15.5 42t19.5 50t50.5 23z" />
    <glyph glyph-name="Igrave" unicode="&#xcc;" horiz-adv-x="366" 
d="M416 649l-8 -34q-54 -4 -68.5 -19t-26.5 -76l-75 -391q-12 -59 -0.5 -75t70.5 -20l-7 -34h-296l7 34q53 4 68 19.5t27 75.5l77 391q11 60 0 75.5t-72 19.5l8 34h296zM355 713l-16 -30l-212 58l-3 12q4 18 21.5 45t31.5 33q96 -62 178 -118z" />
    <glyph glyph-name="Iacute" unicode="&#xcd;" horiz-adv-x="366" 
d="M416 649l-8 -34q-54 -4 -68.5 -19t-26.5 -76l-75 -391q-12 -59 -0.5 -75t70.5 -20l-7 -34h-296l7 34q53 4 68 19.5t27 75.5l77 391q11 60 0 75.5t-72 19.5l8 34h296zM437 752l-5 -12l-210 -58l-16 31l177 117q15 -3 33 -30t21 -48z" />
    <glyph glyph-name="Icircumflex" unicode="&#xce;" horiz-adv-x="366" 
d="M416 649l-8 -34q-54 -4 -68.5 -19t-26.5 -76l-75 -391q-12 -59 -0.5 -75t70.5 -20l-7 -34h-296l7 34q53 4 68 19.5t27 75.5l77 391q11 60 0 75.5t-72 19.5l8 34h296zM423 713l-21 -28q-77 30 -120 55q-72 -34 -136 -55l-16 29q54 36 147 113h33q55 -61 113 -114z" />
    <glyph glyph-name="Idieresis" unicode="&#xcf;" horiz-adv-x="366" 
d="M416 649l-8 -34q-54 -4 -68.5 -19t-26.5 -76l-75 -391q-12 -59 -0.5 -75t70.5 -20l-7 -34h-296l7 34q53 4 68 19.5t27 75.5l77 391q11 60 0 75.5t-72 19.5l8 34h296zM192 822q26 0 40 -16.5t14 -40.5q0 -30 -19.5 -51.5t-49.5 -21.5q-25 0 -40 15t-16 42q0 27 19.5 50
t51.5 23zM402 822q26 0 40.5 -16.5t14.5 -40.5q0 -30 -19.5 -51.5t-50.5 -21.5q-25 0 -40 15t-15 42t19 50t51 23z" />
    <glyph glyph-name="Eth" unicode="&#xd0;" horiz-adv-x="738" 
d="M127 649h265q158 0 246 -68.5t88 -204.5q0 -97 -42 -176.5t-124 -129.5q-117 -70 -321 -70h-235l10 34q55 4 71 20t27 70l37 192h-99l11 49h97l31 161q10 57 -1 70.5t-70 18.5zM276 316l-33 -187q-12 -58 13 -75q18 -12 54 -12q115 0 193 100.5t78 241.5q0 115 -51 169.5
t-135 54.5q-37 0 -52 -10q-14 -8 -22 -53l-35 -180h141l-12 -49h-139z" />
    <glyph glyph-name="Ntilde" unicode="&#xd1;" horiz-adv-x="704" 
d="M773 649l-8 -34q-43 -1 -60 -15t-27 -47q-18 -55 -40 -172l-75 -391h-52l-285 509h-2l-45 -235q-19 -98 -23 -163q-2 -36 16 -50t71 -17l-8 -34h-241l9 34q38 2 56 15.5t29 47.5q20 61 42 167l43 202q18 84 -1 118q-8 16 -26.5 22t-52.5 9l8 34h183l266 -461h2l36 191
q20 114 24 169q2 37 -16.5 51t-71.5 16l8 34h241zM569 798l30 -19q-32 -95 -87 -95q-23 0 -75 23q-29 13 -50 13q-27 0 -50 -44l-31 23q32 92 89 92q25 0 68 -20q43 -16 56 -16q26 0 50 43z" />
    <glyph glyph-name="Ograve" unicode="&#xd2;" horiz-adv-x="723" 
d="M436 665q125 0 200.5 -79.5t75.5 -207.5q0 -167 -104.5 -280t-267.5 -113q-125 0 -201 76.5t-76 205.5q0 106 47 196.5t133 146t193 55.5zM430 622q-58 0 -109.5 -55t-81 -142.5t-29.5 -182.5q0 -99 33 -157t103 -58q63 0 115 59t78.5 144.5t26.5 173.5q0 101 -33 159.5
t-103 58.5zM533 722l-15 -30l-213 58l-3 12q4 18 21.5 44.5t31.5 33.5q120 -78 178 -118z" />
    <glyph glyph-name="Oacute" unicode="&#xd3;" horiz-adv-x="723" 
d="M436 665q125 0 200.5 -79.5t75.5 -207.5q0 -167 -104.5 -280t-267.5 -113q-125 0 -201 76.5t-76 205.5q0 106 47 196.5t133 146t193 55.5zM430 622q-58 0 -109.5 -55t-81 -142.5t-29.5 -182.5q0 -99 33 -157t103 -58q63 0 115 59t78.5 144.5t26.5 173.5q0 101 -33 159.5
t-103 58.5zM597 761l-5 -12l-210 -58l-17 31q30 19 89.5 58.5t88.5 58.5q15 -3 33 -30t21 -48z" />
    <glyph glyph-name="Ocircumflex" unicode="&#xd4;" horiz-adv-x="723" 
d="M436 665q125 0 200.5 -79.5t75.5 -207.5q0 -167 -104.5 -280t-267.5 -113q-125 0 -201 76.5t-76 205.5q0 106 47 196.5t133 146t193 55.5zM430 622q-58 0 -109.5 -55t-81 -142.5t-29.5 -182.5q0 -99 33 -157t103 -58q63 0 115 59t78.5 144.5t26.5 173.5q0 101 -33 159.5
t-103 58.5zM594 718l-21 -28q-77 30 -120 55q-73 -34 -136 -55l-16 29q54 36 147 113h33q55 -61 113 -114z" />
    <glyph glyph-name="Otilde" unicode="&#xd5;" horiz-adv-x="723" 
d="M436 665q125 0 200.5 -79.5t75.5 -207.5q0 -167 -104.5 -280t-267.5 -113q-125 0 -201 76.5t-76 205.5q0 106 47 196.5t133 146t193 55.5zM430 622q-58 0 -109.5 -55t-81 -142.5t-29.5 -182.5q0 -99 33 -157t103 -58q63 0 115 59t78.5 144.5t26.5 173.5q0 101 -33 159.5
t-103 58.5zM562 813l31 -19q-33 -95 -88 -95q-23 0 -75 23q-28 13 -49 13q-29 0 -51 -45l-31 24q33 92 90 92q25 0 68 -20q41 -16 55 -16q26 0 50 43z" />
    <glyph glyph-name="Odieresis" unicode="&#xd6;" horiz-adv-x="723" 
d="M436 665q125 0 200.5 -79.5t75.5 -207.5q0 -167 -104.5 -280t-267.5 -113q-125 0 -201 76.5t-76 205.5q0 106 47 196.5t133 146t193 55.5zM430 622q-58 0 -109.5 -55t-81 -142.5t-29.5 -182.5q0 -99 33 -157t103 -58q63 0 115 59t78.5 144.5t26.5 173.5q0 101 -33 159.5
t-103 58.5zM362 831q26 0 40.5 -16.5t14.5 -40.5q0 -30 -19.5 -51.5t-50.5 -21.5q-25 0 -40 15.5t-16 42.5q0 26 19.5 49t51.5 23zM572 831q26 0 40.5 -16.5t14.5 -40.5q0 -30 -19.5 -51.5t-49.5 -21.5q-25 0 -40.5 15.5t-15.5 42.5q0 26 19.5 49t50.5 23z" />
    <glyph glyph-name="multiply" unicode="&#xd7;" horiz-adv-x="607" 
d="M537 60l-49 -50l-182 186l-182 -186l-48 50l181 186l-181 184l48 51l182 -185l182 187l49 -50l-182 -187z" />
    <glyph glyph-name="Oslash" unicode="&#xd8;" horiz-adv-x="721" 
d="M645 696l35 -27l-56 -73q88 -81 88 -219q0 -167 -104.5 -279.5t-266.5 -112.5q-93 0 -159 43l-57 -74l-32 30l54 70q-40 36 -62.5 94t-21.5 123q0 104 47 194t134 145t193 55q87 0 152 -43zM221 143l314 411q-30 69 -106 69q-61 0 -113 -54t-81 -139.5t-29 -177.5
q0 -66 15 -109zM555 509l-313 -410q28 -72 107 -72q63 0 114.5 56.5t78.5 140.5t27 173q0 67 -14 112z" />
    <glyph glyph-name="Ugrave" unicode="&#xd9;" horiz-adv-x="707" 
d="M786 649l-8 -34q-42 -1 -61 -15t-31 -49q-18 -55 -38 -160l-19 -98q-32 -163 -111 -239q-72 -69 -181 -69q-107 0 -167 55q-79 70 -46 241l45 235q12 61 0.5 78t-68.5 21l8 34h292l-9 -34q-50 -5 -65 -20.5t-27 -78.5l-45 -240q-22 -114 11.5 -168.5t107.5 -54.5
q160 0 207 253l15 85q20 105 23 162q2 33 -19 46.5t-72 15.5l9 34h249zM536 713l-16 -30l-212 58l-3 12q4 18 21.5 45t31.5 33q96 -62 178 -118z" />
    <glyph glyph-name="Uacute" unicode="&#xda;" horiz-adv-x="707" 
d="M786 649l-8 -34q-42 -1 -61 -15t-31 -49q-18 -55 -38 -160l-19 -98q-32 -163 -111 -239q-72 -69 -181 -69q-107 0 -167 55q-79 70 -46 241l45 235q12 61 0.5 78t-68.5 21l8 34h292l-9 -34q-50 -5 -65 -20.5t-27 -78.5l-45 -240q-22 -114 11.5 -168.5t107.5 -54.5
q160 0 207 253l15 85q20 105 23 162q2 33 -19 46.5t-72 15.5l9 34h249zM616 752l-5 -12l-210 -58l-16 31q20 13 56.5 37.5t66 44t54.5 35.5q15 -3 33 -30t21 -48z" />
    <glyph glyph-name="Ucircumflex" unicode="&#xdb;" horiz-adv-x="707" 
d="M786 649l-8 -34q-42 -1 -61 -15t-31 -49q-18 -55 -38 -160l-19 -98q-32 -163 -111 -239q-72 -69 -181 -69q-107 0 -167 55q-79 70 -46 241l45 235q12 61 0.5 78t-68.5 21l8 34h292l-9 -34q-50 -5 -65 -20.5t-27 -78.5l-45 -240q-22 -114 11.5 -168.5t107.5 -54.5
q160 0 207 253l15 85q20 105 23 162q2 33 -19 46.5t-72 15.5l9 34h249zM607 713l-22 -28q-78 31 -120 55q-69 -33 -135 -55l-17 29q46 30 148 113h33q62 -69 113 -114z" />
    <glyph glyph-name="Udieresis" unicode="&#xdc;" horiz-adv-x="707" 
d="M786 649l-8 -34q-42 -1 -61 -15t-31 -49q-18 -55 -38 -160l-19 -98q-32 -163 -111 -239q-72 -69 -181 -69q-107 0 -167 55q-79 70 -46 241l45 235q12 61 0.5 78t-68.5 21l8 34h292l-9 -34q-50 -5 -65 -20.5t-27 -78.5l-45 -240q-22 -114 11.5 -168.5t107.5 -54.5
q160 0 207 253l15 85q20 105 23 162q2 33 -19 46.5t-72 15.5l9 34h249zM369 822q26 0 40 -16.5t14 -40.5q0 -30 -19.5 -51.5t-49.5 -21.5q-25 0 -40.5 15t-15.5 42t19.5 50t51.5 23zM579 822q26 0 40.5 -16.5t14.5 -40.5q0 -30 -19.5 -51.5t-50.5 -21.5q-25 0 -40 15t-16 42
q0 27 19.5 50t51.5 23z" />
    <glyph glyph-name="Yacute" unicode="&#xdd;" horiz-adv-x="634" 
d="M709 649l-10 -34q-47 -5 -68 -19t-63 -65q-41 -53 -146 -209q-20 -29 -27 -61l-26 -127q-13 -61 0.5 -78t78.5 -22l-9 -34h-316l9 34q59 5 76.5 21t30.5 79l25 116q7 35 -4 69q-9 25 -31.5 93.5t-39.5 117.5q-19 53 -34 66.5t-60 18.5l10 34h262l-8 -34l-27 -6
q-21 -4 -25 -14t4 -35q25 -85 73 -219q100 150 137 215q16 27 11 38t-36 17l-22 3l11 35h224zM580 752l-6 -12l-210 -58l-16 31q30 19 89.5 58.5t88.5 58.5q14 -3 32 -30t22 -48z" />
    <glyph glyph-name="Thorn" unicode="&#xde;" horiz-adv-x="585" 
d="M308 0h-304l7 34q54 4 69 17.5t25 66.5l80 412q10 52 -0.5 66.5t-65.5 18.5l9 34h284l-8 -34q-55 -4 -69 -20.5t-28 -89.5h67q209 0 209 -163q0 -85 -68 -139.5t-169 -58.5q-18 -1 -36 2l-68 16l-10 -44q-11 -52 3 -66t81 -18zM290 414l-40 -213q24 -10 60 -10
q58 0 95.5 47t37.5 114q0 56 -27 84t-76 28q-24 0 -35 -9q-8 -5 -15 -41z" />
    <glyph glyph-name="germandbls" unicode="&#xdf;" horiz-adv-x="544" 
d="M72 438h57q24 128 120 205q78 60 158 60q70 0 107 -34t37 -91q0 -39 -16 -55q-66 -46 -85 -75t-18 -60q0 -31 35 -91q43 -71 43 -121q0 -76 -73 -132t-133 -56q-34 0 -60.5 16t-26.5 39q0 25 27 47q14 11 27 0q55 -41 93 -41q20 0 34.5 12.5t14.5 33.5q0 32 -42 107
q-3 5 -12 19.5t-12.5 20.5t-10 19t-9.5 22t-5.5 21t-2.5 24q0 61 117 158q12 24 12 63q0 52 -20 81.5t-51 29.5q-21 0 -38 -9.5t-29.5 -31t-21.5 -41.5t-17.5 -56.5t-12.5 -59t-11 -64.5q-6 -33 -20 -117l-22 -132q-42 -235 -155 -336q-65 -57 -115 -57q-24 0 -42.5 13
t-18.5 32q0 23 28 51q17 14 28 6q35 -28 68 -28q23 0 34 24q14 35 39 201q14 91 31 206.5t19 128.5h-77l-5 11z" />
    <glyph glyph-name="agrave" unicode="&#xe0;" horiz-adv-x="519" 
d="M490 133l17 -26q-47 -57 -97.5 -88t-79.5 -31q-50 0 -29 105l11 53h-2q-43 -59 -99 -107q-61 -51 -107 -51q-31 0 -50.5 32.5t-19.5 89.5q0 71 30 140.5t80 114.5q40 35 99 62t116 27q24 0 64 -7q32 -7 58 -7l6 -4q-40 -165 -66 -312q-7 -39 3 -39q7 0 28.5 15.5
t37.5 32.5zM185 78q24 0 74 57.5t66 90.5q28 118 36 164q-25 14 -58 14q-24 0 -44 -13q-44 -32 -69.5 -108.5t-25.5 -148.5q0 -56 21 -56zM381 500l-37 -11q-37 62 -103 167l4 15q12 4 49.5 9.5t54.5 4.5q20 -114 32 -185z" />
    <glyph glyph-name="aacute" unicode="&#xe1;" horiz-adv-x="519" 
d="M490 133l17 -26q-47 -57 -97.5 -88t-79.5 -31q-50 0 -29 105l11 53h-2q-43 -59 -99 -107q-61 -51 -107 -51q-31 0 -50.5 32.5t-19.5 89.5q0 71 30 140.5t80 114.5q40 35 99 62t116 27q24 0 64 -7q32 -7 58 -7l6 -4q-40 -165 -66 -312q-7 -39 3 -39q7 0 28.5 15.5
t37.5 32.5zM185 78q24 0 74 57.5t66 90.5q28 118 36 164q-25 14 -58 14q-24 0 -44 -13q-44 -32 -69.5 -108.5t-25.5 -148.5q0 -56 21 -56zM489 660l-173 -171l-31 21q48 86 86 167q14 4 55 5t58 -2z" />
    <glyph glyph-name="acircumflex" unicode="&#xe2;" horiz-adv-x="519" 
d="M490 133l17 -26q-47 -57 -97.5 -88t-79.5 -31q-50 0 -29 105l11 53h-2q-43 -59 -99 -107q-61 -51 -107 -51q-31 0 -50.5 32.5t-19.5 89.5q0 71 30 140.5t80 114.5q40 35 99 62t116 27q24 0 64 -7q32 -7 58 -7l6 -4q-40 -165 -66 -312q-7 -39 3 -39q7 0 28.5 15.5
t37.5 32.5zM185 78q24 0 74 57.5t66 90.5q28 118 36 164q-25 14 -58 14q-24 0 -44 -13q-44 -32 -69.5 -108.5t-25.5 -148.5q0 -56 21 -56zM445 512l-30 -24q-27 25 -77 86q-64 -54 -110 -86l-26 27q97 109 135 162h34q22 -62 74 -165z" />
    <glyph glyph-name="atilde" unicode="&#xe3;" horiz-adv-x="519" 
d="M490 133l17 -26q-47 -57 -97.5 -88t-79.5 -31q-50 0 -29 105l11 53h-2q-43 -59 -99 -107q-61 -51 -107 -51q-31 0 -50.5 32.5t-19.5 89.5q0 71 30 140.5t80 114.5q40 35 99 62t116 27q24 0 64 -7q32 -7 58 -7l6 -4q-40 -165 -66 -312q-7 -39 3 -39q7 0 28.5 15.5
t37.5 32.5zM185 78q24 0 74 57.5t66 90.5q28 118 36 164q-25 14 -58 14q-24 0 -44 -13q-44 -32 -69.5 -108.5t-25.5 -148.5q0 -56 21 -56zM438 632l33 -15q-32 -104 -90 -104q-16 0 -69 22q-28 14 -48 14q-26 0 -48 -45l-32 22q16 47 40.5 72.5t49.5 25.5q23 0 63 -20
q42 -18 55 -18q22 0 46 46z" />
    <glyph glyph-name="adieresis" unicode="&#xe4;" horiz-adv-x="519" 
d="M490 133l17 -26q-47 -57 -97.5 -88t-79.5 -31q-50 0 -29 105l11 53h-2q-43 -59 -99 -107q-61 -51 -107 -51q-31 0 -50.5 32.5t-19.5 89.5q0 71 30 140.5t80 114.5q40 35 99 62t116 27q24 0 64 -7q32 -7 58 -7l6 -4q-40 -165 -66 -312q-7 -39 3 -39q7 0 28.5 15.5
t37.5 32.5zM185 78q24 0 74 57.5t66 90.5q28 118 36 164q-25 14 -58 14q-24 0 -44 -13q-44 -32 -69.5 -108.5t-25.5 -148.5q0 -56 21 -56zM252 644q26 0 40 -16t14 -40q0 -30 -19 -52t-50 -22q-25 0 -40.5 15.5t-15.5 42.5q0 26 19.5 49t51.5 23zM447 644q26 0 40 -16
t14 -40q0 -30 -19 -52t-50 -22q-25 0 -40.5 15.5t-15.5 42.5q0 26 19.5 49t51.5 23z" />
    <glyph glyph-name="aring" unicode="&#xe5;" horiz-adv-x="519" 
d="M490 133l17 -26q-47 -57 -97.5 -88t-79.5 -31q-50 0 -29 105l11 53h-2q-43 -59 -99 -107q-61 -51 -107 -51q-31 0 -50.5 32.5t-19.5 89.5q0 71 30 140.5t80 114.5q40 35 99 62t116 27q24 0 64 -7q32 -7 58 -7l6 -4q-40 -165 -66 -312q-7 -39 3 -39q7 0 28.5 15.5
t37.5 32.5zM185 78q24 0 74 57.5t66 90.5q28 118 36 164q-25 14 -58 14q-24 0 -44 -13q-44 -32 -69.5 -108.5t-25.5 -148.5q0 -56 21 -56zM347 673q38 0 64.5 -25t25.5 -66q-1 -42 -33 -68.5t-74 -26.5q-39 0 -64.5 24.5t-24.5 64.5q1 43 33 70t73 27zM345 632
q-20 0 -35 -16t-16 -39q0 -22 11 -35.5t29 -13.5q21 0 35 16t15 39q1 21 -10 35t-29 14z" />
    <glyph glyph-name="ae" unicode="&#xe6;" horiz-adv-x="687" 
d="M646 141l19 -30q-112 -123 -239 -123q-48 0 -83 31t-36 101q0 12 1 24h-2q-42 -58 -91 -100q-66 -56 -115 -56q-30 0 -49.5 29t-19.5 87q0 75 30.5 147t78.5 115q36 34 95 61t109 27q22 0 59 -10q26 2 44 6l5 -5l-13 -51l2 -1q69 61 151 61q47 0 72.5 -24t25.5 -61
q0 -30 -18.5 -56.5t-43.5 -44t-64.5 -34.5t-68.5 -26t-68 -20v-8.5v-9v-7.5q0 -96 76 -96q69 0 143 74zM301 407q-27 0 -45 -14q-34 -23 -62 -97q-33 -88 -33 -170q0 -48 21 -48q25 0 63 43q49 56 73 113q8 16 21.5 75.5t15.5 79.5q-25 18 -54 18zM542 405q-20 0 -40 -17
q-55 -44 -71 -160q79 25 113 57t34 75q0 21 -10 33t-26 12z" />
    <glyph glyph-name="ccedilla" unicode="&#xe7;" horiz-adv-x="396" 
d="M350 130l18 -27q-70 -82 -156 -106l-21 -25q-10 -11 -8.5 -20t13.5 -25q30 -41 29 -69q-1 -33 -38.5 -61t-98.5 -45l-12 30q69 32 70 58q1 15 -18 41q-17 20 -17 35t17 35l31 37v1q-59 -2 -91 36.5t-32 110.5q0 66 28.5 132.5t81.5 112.5q35 31 84 52t90 21q36 0 63 -16
t27 -41q0 -30 -37 -57q-24 -19 -37 1q-43 61 -77 61q-32 0 -53 -44q-40 -82 -40 -190q-1 -103 63 -103q53 0 121 65z" />
    <glyph glyph-name="egrave" unicode="&#xe8;" horiz-adv-x="418" 
d="M375 141l20 -28q-120 -125 -236 -125q-52 0 -87.5 34.5t-35.5 115.5q0 72 31 140.5t85 111.5q33 26 79 45t84 19q51 0 78 -24.5t27 -62.5q0 -110 -257 -179q-1 -11 -1 -26q0 -42 17 -68t53 -26q29 0 68.5 20t74.5 53zM272 408q-15 0 -30 -10q-22 -15 -44.5 -59.5
t-30.5 -112.5q77 24 110 55.5t33 73.5q0 26 -12.5 39.5t-25.5 13.5zM328 500l-38 -11q-36 62 -102 167l4 15q12 4 49.5 9.5t54.5 4.5q20 -114 32 -185z" />
    <glyph glyph-name="eacute" unicode="&#xe9;" horiz-adv-x="418" 
d="M375 141l20 -28q-120 -125 -236 -125q-52 0 -87.5 34.5t-35.5 115.5q0 72 31 140.5t85 111.5q33 26 79 45t84 19q51 0 78 -24.5t27 -62.5q0 -110 -257 -179q-1 -11 -1 -26q0 -42 17 -68t53 -26q29 0 68.5 20t74.5 53zM272 408q-15 0 -30 -10q-22 -15 -44.5 -59.5
t-30.5 -112.5q77 24 110 55.5t33 73.5q0 26 -12.5 39.5t-25.5 13.5zM440 660l-173 -171l-31 21q48 86 86 167q14 4 55 5t58 -2z" />
    <glyph glyph-name="ecircumflex" unicode="&#xea;" horiz-adv-x="418" 
d="M375 141l20 -28q-120 -125 -236 -125q-52 0 -87.5 34.5t-35.5 115.5q0 72 31 140.5t85 111.5q33 26 79 45t84 19q51 0 78 -24.5t27 -62.5q0 -110 -257 -179q-1 -11 -1 -26q0 -42 17 -68t53 -26q29 0 68.5 20t74.5 53zM272 408q-15 0 -30 -10q-22 -15 -44.5 -59.5
t-30.5 -112.5q77 24 110 55.5t33 73.5q0 26 -12.5 39.5t-25.5 13.5zM398 512l-30 -24q-19 18 -77 86q-68 -58 -109 -86l-27 27q97 109 135 162h34q17 -46 74 -165z" />
    <glyph glyph-name="edieresis" unicode="&#xeb;" horiz-adv-x="418" 
d="M375 141l20 -28q-120 -125 -236 -125q-52 0 -87.5 34.5t-35.5 115.5q0 72 31 140.5t85 111.5q33 26 79 45t84 19q51 0 78 -24.5t27 -62.5q0 -110 -257 -179q-1 -11 -1 -26q0 -42 17 -68t53 -26q29 0 68.5 20t74.5 53zM272 408q-15 0 -30 -10q-22 -15 -44.5 -59.5
t-30.5 -112.5q77 24 110 55.5t33 73.5q0 26 -12.5 39.5t-25.5 13.5zM205 644q26 0 40 -16t14 -40q0 -30 -19 -52t-50 -22q-25 0 -40.5 15.5t-15.5 42.5q0 26 19.5 49t51.5 23zM400 644q26 0 40 -16t14 -40q0 -30 -19 -52t-50 -22q-25 0 -40.5 15.5t-15.5 42.5q0 26 19.5 49
t51.5 23z" />
    <glyph glyph-name="igrave" unicode="&#xec;" horiz-adv-x="297" 
d="M259 124l17 -26q-48 -53 -98.5 -81.5t-77.5 -28.5q-57 0 -31 108l52 224q7 35 0 35q-14 0 -61 -35l-14 28q53 49 103.5 77.5t78.5 28.5q44 0 21 -99l-57 -232q-9 -39 2 -39q19 0 65 40zM249 500l-38 -11q-37 62 -103 167l5 15q11 4 49 9.5t55 4.5q10 -61 32 -185z" />
    <glyph glyph-name="iacute" unicode="&#xed;" horiz-adv-x="297" 
d="M259 124l17 -26q-48 -53 -98.5 -81.5t-77.5 -28.5q-57 0 -31 108l52 224q7 35 0 35q-14 0 -61 -35l-14 28q53 49 103.5 77.5t78.5 28.5q44 0 21 -99l-57 -232q-9 -39 2 -39q19 0 65 40zM369 660l-173 -171l-31 21q48 86 86 167q14 4 55 5t58 -2z" />
    <glyph glyph-name="icircumflex" unicode="&#xee;" horiz-adv-x="297" 
d="M259 124l17 -26q-48 -53 -98.5 -81.5t-77.5 -28.5q-57 0 -31 108l52 224q7 35 0 35q-14 0 -61 -35l-14 28q53 49 103.5 77.5t78.5 28.5q44 0 21 -99l-57 -232q-9 -39 2 -39q19 0 65 40zM317 512l-30 -24q-16 15 -77 86q-64 -54 -110 -86l-26 27q97 109 135 162h34
q17 -46 74 -165z" />
    <glyph glyph-name="idieresis" unicode="&#xef;" horiz-adv-x="297" 
d="M259 124l17 -26q-48 -53 -98.5 -81.5t-77.5 -28.5q-57 0 -31 108l52 224q7 35 0 35q-14 0 -61 -35l-14 28q53 49 103.5 77.5t78.5 28.5q44 0 21 -99l-57 -232q-9 -39 2 -39q19 0 65 40zM134 644q26 0 40 -16t14 -40q0 -30 -19 -52t-50 -22q-25 0 -40.5 15.5t-15.5 42.5
q0 26 19.5 49t51.5 23zM329 644q26 0 40 -16t14 -40q0 -30 -19 -52t-50 -22q-25 0 -40.5 15.5t-15.5 42.5q0 26 19.5 49t51.5 23z" />
    <glyph glyph-name="eth" unicode="&#xf0;" horiz-adv-x="489" 
d="M492 637l-109 -56q40 -47 63 -114t23 -128q0 -188 -107 -282q-76 -69 -170 -69q-79 0 -114 49t-35 118q0 91 42.5 160t103.5 102q64 35 118 35q19 0 37 -6q-4 45 -33 97l-138 -68l-14 37l126 63q-23 32 -59 59t-61 37q6 17 18 32q36 -6 85 -32.5t84 -59.5l123 62zM227 33
q16 0 28 5q33 14 62 95t28 202q0 40 -15 56q-17 20 -41 20q-16 0 -34 -10q-28 -15 -55.5 -81.5t-27.5 -170.5q0 -54 16 -85t39 -31z" />
    <glyph glyph-name="ntilde" unicode="&#xf1;" horiz-adv-x="549" 
d="M508 125l16 -30q-103 -107 -172 -107q-55 0 -29 107q16 70 48 208q15 62 -5 62q-23 0 -77 -58.5t-81 -107.5q-24 -91 -42 -189q-55 -4 -114 -22l-8 10q41 164 75 325q9 38 0 38q-7 0 -29 -13t-35 -27l-14 30q105 103 170 103q49 0 20 -126l-11 -50h2q66 90 145 144
q45 32 83 32q20 0 31 -10t16 -44t-12 -100q-13 -58 -41 -180q-9 -36 3 -36q16 0 61 41zM438 632l34 -15q-33 -104 -91 -104q-15 0 -68 22q-28 14 -49 14q-25 0 -48 -45l-31 22q16 47 40 72.5t50 25.5q22 0 63 -20q42 -18 54 -18q24 0 46 46z" />
    <glyph glyph-name="ograve" unicode="&#xf2;" horiz-adv-x="492" 
d="M190 -12q-81 0 -115.5 48t-34.5 117q0 92 43.5 161.5t105.5 102.5q69 37 131 37q72 0 110 -43t38 -117q0 -69 -26.5 -133t-79.5 -108q-34 -29 -80 -47t-92 -18zM230 33q10 0 25 5q31 12 57.5 87t26.5 175q0 55 -16 82.5t-42 27.5q-14 0 -25 -5q-27 -12 -56.5 -82.5
t-29.5 -178.5q0 -54 17.5 -82.5t42.5 -28.5zM354 500l-38 -11q-37 62 -103 167l5 15q11 4 49 9.5t55 4.5q10 -61 32 -185z" />
    <glyph glyph-name="oacute" unicode="&#xf3;" horiz-adv-x="492" 
d="M190 -12q-81 0 -115.5 48t-34.5 117q0 92 43.5 161.5t105.5 102.5q69 37 131 37q72 0 110 -43t38 -117q0 -69 -26.5 -133t-79.5 -108q-34 -29 -80 -47t-92 -18zM230 33q10 0 25 5q31 12 57.5 87t26.5 175q0 55 -16 82.5t-42 27.5q-14 0 -25 -5q-27 -12 -56.5 -82.5
t-29.5 -178.5q0 -54 17.5 -82.5t42.5 -28.5zM455 660l-173 -171l-31 21q48 86 86 167q14 4 55 5t58 -2z" />
    <glyph glyph-name="ocircumflex" unicode="&#xf4;" horiz-adv-x="492" 
d="M190 -12q-81 0 -115.5 48t-34.5 117q0 92 43.5 161.5t105.5 102.5q69 37 131 37q72 0 110 -43t38 -117q0 -69 -26.5 -133t-79.5 -108q-34 -29 -80 -47t-92 -18zM230 33q10 0 25 5q31 12 57.5 87t26.5 175q0 55 -16 82.5t-42 27.5q-14 0 -25 -5q-27 -12 -56.5 -82.5
t-29.5 -178.5q0 -54 17.5 -82.5t42.5 -28.5zM427 512l-31 -24q-26 25 -76 86q-74 -62 -110 -86l-26 27q97 109 134 162h34q20 -54 75 -165z" />
    <glyph glyph-name="otilde" unicode="&#xf5;" horiz-adv-x="492" 
d="M190 -12q-81 0 -115.5 48t-34.5 117q0 92 43.5 161.5t105.5 102.5q69 37 131 37q72 0 110 -43t38 -117q0 -69 -26.5 -133t-79.5 -108q-34 -29 -80 -47t-92 -18zM230 33q10 0 25 5q31 12 57.5 87t26.5 175q0 55 -16 82.5t-42 27.5q-14 0 -25 -5q-27 -12 -56.5 -82.5
t-29.5 -178.5q0 -54 17.5 -82.5t42.5 -28.5zM421 632l34 -15q-33 -104 -91 -104q-15 0 -68 22q-28 14 -49 14q-25 0 -48 -45l-31 22q16 47 40 72.5t50 25.5q22 0 63 -20q42 -18 54 -18q24 0 46 46z" />
    <glyph glyph-name="odieresis" unicode="&#xf6;" horiz-adv-x="492" 
d="M190 -12q-81 0 -115.5 48t-34.5 117q0 92 43.5 161.5t105.5 102.5q69 37 131 37q72 0 110 -43t38 -117q0 -69 -26.5 -133t-79.5 -108q-34 -29 -80 -47t-92 -18zM230 33q10 0 25 5q31 12 57.5 87t26.5 175q0 55 -16 82.5t-42 27.5q-14 0 -25 -5q-27 -12 -56.5 -82.5
t-29.5 -178.5q0 -54 17.5 -82.5t42.5 -28.5zM228 644q26 0 40 -16t14 -40q0 -30 -19 -52t-50 -22q-25 0 -40.5 15.5t-15.5 42.5q0 26 19.5 49t51.5 23zM423 644q26 0 40 -16t14 -40q0 -30 -19 -52t-50 -22q-25 0 -40.5 15.5t-15.5 42.5q0 26 19.5 49t51.5 23z" />
    <glyph glyph-name="divide" unicode="&#xf7;" horiz-adv-x="607" 
d="M317 349q-23 0 -41 18t-18 41q0 25 18 43.5t41 18.5q25 0 43 -18.5t18 -43.5q0 -24 -18 -41.5t-43 -17.5zM558 221h-484v65h484v-65zM316 159q23 0 41.5 -18t18.5 -42t-18.5 -42.5t-41.5 -18.5q-25 0 -42.5 18.5t-17.5 42.5q0 25 17.5 42.5t42.5 17.5z" />
    <glyph glyph-name="oslash" unicode="&#xf8;" horiz-adv-x="493" 
d="M434 485l26 -21l-36 -48q45 -42 45 -131q0 -65 -27 -126.5t-76 -103.5q-32 -28 -80 -47.5t-93 -19.5q-51 0 -81 19l-40 -51l-24 23l36 47q-44 45 -44 131q0 89 42 157t103 102q68 38 135 38q43 0 76 -18zM164 129l173 231q-15 50 -51 50q-14 0 -28 -6
q-32 -14 -64.5 -75.5t-32.5 -163.5q0 -26 3 -36zM348 315l-174 -230q18 -51 54 -51q14 0 25 4q32 13 64 84t31 169v24z" />
    <glyph glyph-name="ugrave" unicode="&#xf9;" horiz-adv-x="545" 
d="M508 129l17 -30q-103 -111 -173 -111q-51 0 -28 102q6 24 14 62h-2q-77 -101 -151 -144q-34 -20 -69 -20q-73 0 -40 145q24 103 43 183q6 27 6.5 35t-5.5 10q-8 0 -61 -40l-13 30q48 46 96 74.5t77 28.5q45 0 21 -103q-28 -130 -48 -209q-14 -63 8 -63q30 0 79 55.5
t71 95.5q25 108 43 197l111 27h13q-45 -183 -73 -324q-8 -45 1 -45q7 0 27 13.5t36 30.5zM367 500l-38 -11q-21 37 -59.5 98.5t-42.5 68.5l4 15q11 4 49 9.5t55 4.5q6 -33 16.5 -95t15.5 -90z" />
    <glyph glyph-name="uacute" unicode="&#xfa;" horiz-adv-x="545" 
d="M508 129l17 -30q-103 -111 -173 -111q-51 0 -28 102q6 24 14 62h-2q-77 -101 -151 -144q-34 -20 -69 -20q-73 0 -40 145q24 103 43 183q6 27 6.5 35t-5.5 10q-8 0 -61 -40l-13 30q48 46 96 74.5t77 28.5q45 0 21 -103q-28 -130 -48 -209q-14 -63 8 -63q30 0 79 55.5
t71 95.5q25 108 43 197l111 27h13q-45 -183 -73 -324q-8 -45 1 -45q7 0 27 13.5t36 30.5zM491 660l-173 -171l-31 21q48 86 86 167q14 4 55 5t58 -2z" />
    <glyph glyph-name="ucircumflex" unicode="&#xfb;" horiz-adv-x="545" 
d="M508 129l17 -30q-103 -111 -173 -111q-51 0 -28 102q6 24 14 62h-2q-77 -101 -151 -144q-34 -20 -69 -20q-73 0 -40 145q24 103 43 183q6 27 6.5 35t-5.5 10q-8 0 -61 -40l-13 30q48 46 96 74.5t77 28.5q45 0 21 -103q-28 -130 -48 -209q-14 -63 8 -63q30 0 79 55.5
t71 95.5q25 108 43 197l111 27h13q-45 -183 -73 -324q-8 -45 1 -45q7 0 27 13.5t36 30.5zM453 512l-30 -24q-27 25 -77 86q-64 -54 -110 -86l-26 27q97 109 135 162h34q22 -62 74 -165z" />
    <glyph glyph-name="udieresis" unicode="&#xfc;" horiz-adv-x="545" 
d="M508 129l17 -30q-103 -111 -173 -111q-51 0 -28 102q6 24 14 62h-2q-77 -101 -151 -144q-34 -20 -69 -20q-73 0 -40 145q24 103 43 183q6 27 6.5 35t-5.5 10q-8 0 -61 -40l-13 30q48 46 96 74.5t77 28.5q45 0 21 -103q-28 -130 -48 -209q-14 -63 8 -63q30 0 79 55.5
t71 95.5q25 108 43 197l111 27h13q-45 -183 -73 -324q-8 -45 1 -45q7 0 27 13.5t36 30.5zM254 644q26 0 40 -16t14 -40q0 -30 -19 -52t-50 -22q-25 0 -40.5 15.5t-15.5 42.5q0 26 19.5 49t51.5 23zM449 644q26 0 40 -16t14 -40q0 -30 -19 -52t-50 -22q-25 0 -40.5 15.5
t-15.5 42.5q0 26 19.5 49t51.5 23z" />
    <glyph glyph-name="yacute" unicode="&#xfd;" horiz-adv-x="469" 
d="M276 96h2q33 51 52 82.5t36.5 76t17.5 77.5q0 15 -14 54q-7 18 4 35q18 33 53 33q21 0 36.5 -17.5t16.5 -49.5q2 -48 -39 -112q-44 -74 -161 -242q-119 -167 -188 -246l-132 -31l-9 27q82 53 132 94.5t90 93.5q1 60 -10.5 165.5t-25.5 173.5q-9 45 -21 45q-14 0 -54 -51
l-21 27q33 54 72.5 88.5t71.5 34.5q28 0 44.5 -31t25.5 -104q13 -100 21 -223zM463 660l-173 -171l-31 21q48 86 86 167q14 4 55 5t58 -2z" />
    <glyph glyph-name="thorn" unicode="&#xfe;" horiz-adv-x="508" 
d="M211 322h2q56 66 109 99t92 33q34 0 56.5 -32t22.5 -91q0 -83 -40 -162.5t-108 -126.5q-37 -26 -80.5 -40t-60.5 -14q-26 0 -54 9q-2 -12 -20 -110q-8 -44 2 -60t51 -19l21 -2l-2 -34l-282 -12l3 34q48 7 63.5 23t27.5 76q21 112 64 329.5t64 329.5q9 51 1.5 63.5
t-46.5 14.5h-17l6 33q39 4 83 14t72.5 18t35.5 8q14 0 7 -33zM335 371q-21 0 -55.5 -28.5t-77.5 -90.5q-11 -52 -37 -189q28 -26 61 -26q27 0 44 12q36 24 64.5 102.5t28.5 159.5q0 28 -8.5 44t-19.5 16z" />
    <glyph glyph-name="ydieresis" unicode="&#xff;" horiz-adv-x="469" 
d="M276 96h2q33 51 52 82.5t36.5 76t17.5 77.5q0 15 -14 54q-7 18 4 35q18 33 53 33q21 0 36.5 -17.5t16.5 -49.5q2 -48 -39 -112q-44 -74 -161 -242q-119 -167 -188 -246l-132 -31l-9 27q82 53 132 94.5t90 93.5q1 60 -10.5 165.5t-25.5 173.5q-9 45 -21 45q-14 0 -54 -51
l-21 27q33 54 72.5 88.5t71.5 34.5q28 0 44.5 -31t25.5 -104q13 -100 21 -223zM221 644q26 0 40.5 -16.5t14.5 -39.5q0 -30 -19 -52t-50 -22q-25 0 -40.5 15.5t-15.5 42.5q0 26 19.5 49t50.5 23zM416 644q26 0 40.5 -16.5t14.5 -39.5q0 -30 -19 -52t-50 -22
q-25 0 -40.5 15.5t-15.5 42.5q0 26 19.5 49t50.5 23z" />
    <glyph glyph-name="Amacron" unicode="&#x100;" horiz-adv-x="672" 
d="M630 34l-9 -34h-272l10 34q45 5 54.5 17.5t4.5 50.5l-16 112h-190q-19 -37 -55 -113q-18 -33 -8.5 -46.5t65.5 -20.5l-9 -34h-225l9 34q46 8 66.5 25.5t61.5 87.5l288 503l53 13l17 -114q10 -61 33.5 -198t34.5 -210q10 -67 23.5 -84t63.5 -23zM395 264l-32 225h-3
q-10 -19 -54.5 -99t-67.5 -126h157zM568 780l-17 -68h-237l19 68h235z" />
    <glyph glyph-name="amacron" unicode="&#x101;" horiz-adv-x="519" 
d="M490 133l17 -26q-47 -57 -97.5 -88t-79.5 -31q-50 0 -29 105l11 53h-2q-43 -59 -99 -107q-61 -51 -107 -51q-31 0 -50.5 32.5t-19.5 89.5q0 71 30 140.5t80 114.5q40 35 99 62t116 27q24 0 64 -7q32 -7 58 -7l6 -4q-40 -165 -66 -312q-7 -39 3 -39q7 0 28.5 15.5
t37.5 32.5zM185 78q24 0 74 57.5t66 90.5q28 118 36 164q-25 14 -58 14q-24 0 -44 -13q-44 -32 -69.5 -108.5t-25.5 -148.5q0 -56 21 -56zM462 604l-17 -70h-237l18 70h236z" />
    <glyph glyph-name="Abreve" unicode="&#x102;" horiz-adv-x="672" 
d="M630 34l-9 -34h-272l10 34q45 5 54.5 17.5t4.5 50.5l-16 112h-190q-19 -37 -55 -113q-18 -33 -8.5 -46.5t65.5 -20.5l-9 -34h-225l9 34q46 8 66.5 25.5t61.5 87.5l288 503l53 13l17 -114q10 -61 33.5 -198t34.5 -210q10 -67 23.5 -84t63.5 -23zM395 264l-32 225h-3
q-10 -19 -54.5 -99t-67.5 -126h157zM538 822h37q-25 -135 -142 -135q-115 0 -102 135h36q9 -58 75 -58q65 0 96 58z" />
    <glyph glyph-name="abreve" unicode="&#x103;" horiz-adv-x="519" 
d="M490 133l17 -26q-47 -57 -97.5 -88t-79.5 -31q-50 0 -29 105l11 53h-2q-43 -59 -99 -107q-61 -51 -107 -51q-31 0 -50.5 32.5t-19.5 89.5q0 71 30 140.5t80 114.5q40 35 99 62t116 27q24 0 64 -7q32 -7 58 -7l6 -4q-40 -165 -66 -312q-7 -39 3 -39q7 0 28.5 15.5
t37.5 32.5zM185 78q24 0 74 57.5t66 90.5q28 118 36 164q-25 14 -58 14q-24 0 -44 -13q-44 -32 -69.5 -108.5t-25.5 -148.5q0 -56 21 -56zM426 645h37q-23 -144 -140 -144q-52 0 -79.5 33.5t-14.5 110.5h37q0 -67 68 -67q67 0 92 67z" />
    <glyph glyph-name="Aogonek" unicode="&#x104;" horiz-adv-x="672" 
d="M630 34l-9 -34h-189q-80 -68 -80 -140q0 -17 13 -28t30 -11q18 0 43 9l7 -32l-60 -32q-22 -11 -44 -11q-34 0 -55.5 19.5t-21.5 55.5q0 83 146 203q15 12 12 39q-2 26 -19 140h-191q-31 -61 -55 -111q-18 -33 -8.5 -46.5t65.5 -20.5l-9 -34h-225l9 34q46 8 66.5 25.5
t61.5 87.5l288 503l53 13l17 -114q10 -61 33.5 -198t34.5 -210q10 -67 23.5 -84t63.5 -23zM238 264h157l-32 225h-3q-10 -19 -54.5 -99t-67.5 -126z" />
    <glyph glyph-name="aogonek" unicode="&#x105;" horiz-adv-x="519" 
d="M312 146h-2q-44 -62 -99 -107q-59 -51 -107 -51q-31 0 -50.5 32t-19.5 90q0 71 30 140.5t80 114.5q40 35 99 62t116 27q27 0 64 -8q40 -7 58 -7l6 -4q-39 -161 -66 -311q-7 -39 3 -39q7 0 28 15.5t38 32.5l17 -27q-32 -38 -63.5 -62.5t-45.5 -31t-41 -17.5
q-38 -31 -61.5 -70t-23.5 -67q0 -17 12 -26.5t29 -9.5t39 8l7 -33l-57 -29q-24 -11 -43 -11q-34 0 -55 18.5t-21 50.5q0 75 125 169q-24 10 -7 97zM305 403q-26 0 -44 -14q-44 -32 -70.5 -108t-26.5 -147q0 -55 22 -55q24 0 73.5 56.5t65.5 90.5q31 131 36 163
q-25 14 -56 14z" />
    <glyph glyph-name="Cacute" unicode="&#x106;" horiz-adv-x="651" 
d="M591 191l34 -15q-34 -88 -82 -165q-92 -26 -176 -26q-136 0 -220 75t-84 210q0 178 125 286.5t307 108.5q74 0 174 -28q-3 -69 -11 -168l-34 -4q-14 87 -50.5 122t-98.5 35q-107 0 -185.5 -102.5t-78.5 -245.5q0 -114 45.5 -180t120.5 -66q56 0 105.5 39.5t108.5 123.5z
M621 767l-5 -12l-210 -58l-16 31q149 99 178 117q14 -3 32 -30t21 -48z" />
    <glyph glyph-name="cacute" unicode="&#x107;" horiz-adv-x="399" 
d="M353 131l19 -28q-103 -115 -211 -115q-59 0 -91 38.5t-32 111.5q0 66 28 131t81 111q35 31 83 52.5t89 21.5q37 0 63 -16t27 -42q0 -37 -44 -62q-18 -11 -29 4q-42 63 -80 63q-28 0 -50 -46q-38 -74 -38 -186q0 -102 63 -102q29 0 64 21t58 43zM451 660l-173 -171l-31 21
q48 86 86 167q14 4 55 5t58 -2z" />
    <glyph glyph-name="Ccircumflex" unicode="&#x108;" horiz-adv-x="651" 
d="M591 191l34 -15q-34 -88 -82 -165q-92 -26 -176 -26q-136 0 -220 75t-84 210q0 178 125 286.5t307 108.5q74 0 174 -28q-3 -69 -11 -168l-34 -4q-14 87 -50.5 122t-98.5 35q-107 0 -185.5 -102.5t-78.5 -245.5q0 -114 45.5 -180t120.5 -66q56 0 105.5 39.5t108.5 123.5z
M612 723l-21 -28q-77 30 -120 55q-73 -34 -136 -55l-17 29q46 30 148 113h33q62 -69 113 -114z" />
    <glyph glyph-name="ccircumflex" unicode="&#x109;" horiz-adv-x="399" 
d="M353 131l19 -28q-103 -115 -211 -115q-59 0 -91 38.5t-32 111.5q0 66 28 131t81 111q35 31 83 52.5t89 21.5q37 0 63 -16t27 -42q0 -37 -44 -62q-18 -11 -29 4q-42 63 -80 63q-28 0 -50 -46q-38 -74 -38 -186q0 -102 63 -102q29 0 64 21t58 43zM407 512l-30 -24
q-16 15 -77 86q-64 -54 -110 -86l-26 27q97 109 135 162h34q17 -46 74 -165z" />
    <glyph glyph-name="Cdotaccent" unicode="&#x10a;" horiz-adv-x="651" 
d="M591 191l34 -15q-34 -88 -82 -165q-92 -26 -176 -26q-136 0 -220 75t-84 210q0 178 125 286.5t307 108.5q74 0 174 -28q-3 -69 -11 -168l-34 -4q-14 87 -50.5 122t-98.5 35q-107 0 -185.5 -102.5t-78.5 -245.5q0 -114 45.5 -180t120.5 -66q56 0 105.5 39.5t108.5 123.5z
M485 846q28 0 43 -17t15 -42q0 -31 -20.5 -54.5t-52.5 -23.5q-27 0 -43 16.5t-16 45.5q0 27 20.5 51t53.5 24z" />
    <glyph glyph-name="cdotaccent" unicode="&#x10b;" horiz-adv-x="399" 
d="M353 131l19 -28q-103 -115 -211 -115q-59 0 -91 38.5t-32 111.5q0 66 28 131t81 111q35 31 83 52.5t89 21.5q37 0 63 -16t27 -42q0 -37 -44 -62q-18 -11 -29 4q-42 63 -80 63q-28 0 -50 -46q-38 -74 -38 -186q0 -102 63 -102q29 0 64 21t58 43zM311 650q28 0 42.5 -17.5
t14.5 -42.5q0 -31 -20.5 -54t-51.5 -23q-27 0 -43.5 16t-16.5 45q0 27 20.5 51.5t54.5 24.5z" />
    <glyph glyph-name="Ccaron" unicode="&#x10c;" horiz-adv-x="651" 
d="M591 191l34 -15q-34 -88 -82 -165q-92 -26 -176 -26q-136 0 -220 75t-84 210q0 178 125 286.5t307 108.5q74 0 174 -28q-3 -69 -11 -168l-34 -4q-14 87 -50.5 122t-98.5 35q-107 0 -185.5 -102.5t-78.5 -245.5q0 -114 45.5 -180t120.5 -66q56 0 105.5 39.5t108.5 123.5z
M603 845l18 -27q-72 -51 -147 -116h-34q-63 71 -110 116l20 27q75 -31 119 -55q66 31 134 55z" />
    <glyph glyph-name="ccaron" unicode="&#x10d;" horiz-adv-x="399" 
d="M353 131l19 -28q-103 -115 -211 -115q-59 0 -91 38.5t-32 111.5q0 66 28 131t81 111q35 31 83 52.5t89 21.5q37 0 63 -16t27 -42q0 -37 -44 -62q-18 -11 -29 4q-42 63 -80 63q-28 0 -50 -46q-38 -74 -38 -186q0 -102 63 -102q29 0 64 21t58 43zM409 680l26 -26
q-93 -105 -134 -162h-35q-20 57 -74 165l31 23q26 -25 76 -86q74 62 110 86z" />
    <glyph glyph-name="Dcaron" unicode="&#x10e;" horiz-adv-x="732" 
d="M123 649h257q166 0 254.5 -69t88.5 -208q0 -95 -41.5 -173.5t-123.5 -127.5q-117 -71 -318 -71h-239l9 34q54 4 70.5 20.5t26.5 71.5l75 393q12 59 0.5 75.5t-68.5 20.5zM316 544l-75 -402q-7 -39 -5 -56.5t15 -28.5q18 -13 52 -13q120 0 197.5 98.5t77.5 240.5
q0 96 -48.5 160.5t-142.5 64.5q-41 0 -53 -12q-10 -9 -18 -52zM565 831l18 -28q-57 -39 -147 -115h-34q-65 74 -111 115l21 28q75 -31 119 -56q69 33 134 56z" />
    <glyph glyph-name="dcaron" unicode="&#x10f;" horiz-adv-x="535" 
d="M501 128l16 -28q-45 -54 -94.5 -83t-78.5 -29q-48 0 -29 96l13 66h-2q-50 -66 -115 -119q-55 -43 -98 -43q-35 0 -57 33t-22 94q0 72 31.5 143.5t83.5 115.5q36 31 92 55.5t89 24.5q32 0 55 -7l27 137q7 32 -1 40.5t-44 9.5h-17l6 33q44 4 86 13t67 16t32 7q15 0 6 -35
q-56 -243 -111 -543q-9 -41 2 -41q19 0 63 44zM193 78q27 0 74 53t74 103l30 144q-30 29 -72 29q-25 0 -41 -13q-42 -31 -67.5 -111.5t-25.5 -145.5q0 -59 28 -59zM642 710q29 0 45.5 -21.5t16.5 -52.5q0 -53 -35 -88.5t-90 -49.5l-13 30q68 34 68 72q0 30 -31 42
q-12 4 -12 23q0 18 15 31.5t36 13.5z" />
    <glyph glyph-name="Dcroat" unicode="&#x110;" horiz-adv-x="738" 
d="M127 649h265q158 0 246 -68.5t88 -204.5q0 -97 -42 -176.5t-124 -129.5q-117 -70 -321 -70h-235l10 34q55 4 71 20t27 70l37 192h-99l11 49h97l31 161q10 57 -1 70.5t-70 18.5zM276 316l-33 -187q-12 -58 13 -75q18 -12 54 -12q115 0 193 100.5t78 241.5q0 115 -51 169.5
t-135 54.5q-37 0 -52 -10q-14 -8 -22 -53l-35 -180h141l-12 -49h-139z" />
    <glyph glyph-name="dcroat" unicode="&#x111;" horiz-adv-x="534" 
d="M609 563l-8 -42h-85q-12 -58 -79 -396q-8 -41 4 -41q6 0 26 13.5t36 30.5l15 -28q-44 -54 -92 -83t-78 -29q-52 0 -32 96l14 66h-2q-53 -70 -113 -117q-56 -45 -102 -45q-34 0 -56.5 33.5t-22.5 92.5q0 73 31 144.5t83 115.5q36 32 92.5 56t91.5 24q31 0 54 -7l15 74
h-137l9 42h136l3 15q7 37 -0.5 47t-44.5 11h-15l5 31q44 4 86 13t67 16t32 7q15 0 7 -35q-4 -18 -12 -52.5t-12 -52.5h84zM300 406q-28 0 -44 -13q-42 -31 -66.5 -110.5t-24.5 -145.5q0 -61 25 -61q29 0 78 53t74 102l30 146q-29 29 -72 29z" />
    <glyph glyph-name="Emacron" unicode="&#x112;" horiz-adv-x="570" 
d="M123 649h457q0 -1 -6.5 -64t-10.5 -93l-36 -3q-5 73 -21 93q-15 25 -87 25h-49q-28 0 -36.5 -7t-13.5 -35l-39 -201h67q45 0 63.5 5.5t27 17.5t25.5 51h37l-41 -206h-36q1 59 -10 71t-73 12h-69l-32 -169q-12 -65 2 -83q14 -21 84 -21q83 0 117 33q38 34 72 96l34 -13
q-30 -91 -61 -158h-487l7 34q57 4 72 18.5t26 74.5l77 395q11 58 -0.5 73.5t-68.5 19.5zM518 782l-17 -68h-237l18 68h236z" />
    <glyph glyph-name="emacron" unicode="&#x113;" horiz-adv-x="418" 
d="M375 141l20 -28q-120 -125 -236 -125q-52 0 -87.5 34.5t-35.5 115.5q0 72 31 140.5t85 111.5q33 26 79 45t84 19q51 0 78 -24.5t27 -62.5q0 -110 -257 -179q-1 -11 -1 -26q0 -42 17 -68t53 -26q29 0 68.5 20t74.5 53zM272 408q-15 0 -30 -10q-22 -15 -44.5 -59.5
t-30.5 -112.5q77 24 110 55.5t33 73.5q0 26 -12.5 39.5t-25.5 13.5zM415 604l-17 -70h-237l17 70h237z" />
    <glyph glyph-name="Ebreve" unicode="&#x114;" horiz-adv-x="570" 
d="M123 649h457q0 -1 -6.5 -64t-10.5 -93l-36 -3q-5 73 -21 93q-15 25 -87 25h-49q-28 0 -36.5 -7t-13.5 -35l-39 -201h67q45 0 63.5 5.5t27 17.5t25.5 51h37l-41 -206h-36q1 59 -10 71t-73 12h-69l-32 -169q-12 -65 2 -83q14 -21 84 -21q83 0 117 33q38 34 72 96l34 -13
q-30 -91 -61 -158h-487l7 34q57 4 72 18.5t26 74.5l77 395q11 58 -0.5 73.5t-68.5 19.5zM486 825h37q-25 -135 -142 -135q-115 0 -102 135h36q9 -58 76 -58q63 0 95 58z" />
    <glyph glyph-name="ebreve" unicode="&#x115;" horiz-adv-x="418" 
d="M375 141l20 -28q-120 -125 -236 -125q-52 0 -87.5 34.5t-35.5 115.5q0 72 31 140.5t85 111.5q33 26 79 45t84 19q51 0 78 -24.5t27 -62.5q0 -110 -257 -179q-1 -11 -1 -26q0 -42 17 -68t53 -26q29 0 68.5 20t74.5 53zM272 408q-15 0 -30 -10q-22 -15 -44.5 -59.5
t-30.5 -112.5q77 24 110 55.5t33 73.5q0 26 -12.5 39.5t-25.5 13.5zM380 645h37q-23 -144 -140 -144q-52 0 -79.5 33.5t-14.5 110.5h37q0 -67 68 -67q67 0 92 67z" />
    <glyph glyph-name="Edotaccent" unicode="&#x116;" horiz-adv-x="570" 
d="M123 649h457q0 -1 -6.5 -64t-10.5 -93l-36 -3q-5 73 -21 93q-15 25 -87 25h-49q-28 0 -36.5 -7t-13.5 -35l-39 -201h67q45 0 63.5 5.5t27 17.5t25.5 51h37l-41 -206h-36q1 59 -10 71t-73 12h-69l-32 -169q-12 -65 2 -83q14 -21 84 -21q83 0 117 33q38 34 72 96l34 -13
q-30 -91 -61 -158h-487l7 34q57 4 72 18.5t26 74.5l77 395q11 58 -0.5 73.5t-68.5 19.5zM401 834q28 0 43 -17t15 -42q0 -31 -21 -54.5t-52 -23.5q-27 0 -43 16.5t-16 45.5q0 27 20.5 51t53.5 24z" />
    <glyph glyph-name="edotaccent" unicode="&#x117;" horiz-adv-x="418" 
d="M375 141l20 -28q-120 -125 -236 -125q-52 0 -87.5 34.5t-35.5 115.5q0 72 31 140.5t85 111.5q33 26 79 45t84 19q51 0 78 -24.5t27 -62.5q0 -110 -257 -179q-1 -11 -1 -26q0 -42 17 -68t53 -26q29 0 68.5 20t74.5 53zM272 408q-15 0 -30 -10q-22 -15 -44.5 -59.5
t-30.5 -112.5q77 24 110 55.5t33 73.5q0 26 -12.5 39.5t-25.5 13.5zM320 650q28 0 43 -17.5t15 -42.5q0 -31 -20.5 -54t-52.5 -23q-27 0 -43 16t-16 45q0 27 20.5 51.5t53.5 24.5z" />
    <glyph glyph-name="Eogonek" unicode="&#x118;" horiz-adv-x="570" 
d="M123 649h457q0 -1 -6.5 -64t-10.5 -93l-36 -3q-5 71 -22 93q-17 25 -87 25h-48q-28 0 -36.5 -7t-13.5 -35l-39 -201h67q45 0 63.5 5.5t27 17.5t25.5 51h37l-41 -206h-36q1 59 -10 71t-73 12h-69l-32 -169q-12 -65 2 -83q14 -21 84 -21q79 0 116 34q43 41 73 95l34 -13
q-30 -91 -61 -158h-54q-45 -34 -77 -77.5t-32 -69.5q0 -33 40 -33q22 0 43 8l7 -32l-60 -31q-23 -10 -43 -10q-33 0 -56 19.5t-23 50.5q0 43 43.5 92.5t100.5 82.5h-376l7 34q57 4 72 18.5t26 74.5l77 395q11 58 -0.5 73.5t-69.5 19.5z" />
    <glyph glyph-name="eogonek" unicode="&#x119;" horiz-adv-x="419" 
d="M375 143l20 -29q-66 -68 -115 -93q-105 -92 -105 -161q0 -38 43 -38q20 0 41 10l7 -33l-61 -31q-22 -11 -42 -11q-33 0 -55 19.5t-22 51.5q0 41 34 85t84 80v1q-168 -20 -168 144q0 71 31 140.5t85 111.5q33 26 79 45t85 19q51 0 77.5 -24.5t26.5 -62.5q0 -110 -257 -179
q-1 -12 -1 -26q0 -93 69 -93q30 0 69.5 20.5t74.5 53.5zM273 408q-16 0 -30 -11q-22 -14 -45 -58t-31 -112q77 24 110 55t33 73q0 26 -12.5 39.5t-24.5 13.5z" />
    <glyph glyph-name="Ecaron" unicode="&#x11a;" horiz-adv-x="570" 
d="M123 649h457q0 -1 -6.5 -64t-10.5 -93l-36 -3q-5 73 -21 93q-15 25 -87 25h-49q-28 0 -36.5 -7t-13.5 -35l-39 -201h67q45 0 63.5 5.5t27 17.5t25.5 51h37l-41 -206h-36q1 59 -10 71t-73 12h-69l-32 -169q-12 -65 2 -83q14 -21 84 -21q83 0 117 33q38 34 72 96l34 -13
q-30 -91 -61 -158h-487l7 34q57 4 72 18.5t26 74.5l77 395q11 58 -0.5 73.5t-68.5 19.5zM524 826l18 -27q-68 -49 -148 -116h-33q-75 83 -111 115l21 28q75 -31 119 -55q60 29 134 55z" />
    <glyph glyph-name="ecaron" unicode="&#x11b;" horiz-adv-x="418" 
d="M375 141l20 -28q-120 -125 -236 -125q-52 0 -87.5 34.5t-35.5 115.5q0 72 31 140.5t85 111.5q33 26 79 45t84 19q51 0 78 -24.5t27 -62.5q0 -110 -257 -179q-1 -11 -1 -26q0 -42 17 -68t53 -26q29 0 68.5 20t74.5 53zM272 408q-15 0 -30 -10q-22 -15 -44.5 -59.5
t-30.5 -112.5q77 24 110 55.5t33 73.5q0 26 -12.5 39.5t-25.5 13.5zM409 680l26 -26q-93 -105 -135 -162h-34q-18 49 -74 165l30 23q16 -15 77 -86q64 54 110 86z" />
    <glyph glyph-name="Gcircumflex" unicode="&#x11c;" horiz-adv-x="698" 
d="M668 471l-35 -4q-16 154 -155 154q-106 0 -186 -101t-80 -247q0 -113 48.5 -179.5t131.5 -66.5q30 0 48.5 13.5t25.5 52.5l16 86q10 55 -4.5 68t-87.5 21l9 34h297l-9 -34q-41 -5 -53 -19t-22 -70l-14 -79q-8 -40 -6 -75q-134 -40 -215 -40q-145 0 -229.5 75t-84.5 211
q0 176 123.5 285t314.5 109q98 0 179 -28q-7 -77 -12 -166zM622 721l-22 -28q-74 28 -120 55q-69 -33 -135 -55l-17 29q51 33 147 113h34q54 -62 113 -114z" />
    <glyph glyph-name="gcircumflex" unicode="&#x11d;" horiz-adv-x="449" 
d="M506 450l11 -22q-47 -50 -86 -57q-2 -1 -7.5 -1.5t-8.5 -0.5q6 -23 6 -47q0 -83 -69 -138q-47 -39 -150 -64q-9 -6 -11 -18q0 -17 67 -49q80 -38 114 -70t34 -69q0 -63 -86 -110.5t-176 -47.5q-80 0 -134 32t-54 79q0 34 41 65t120 67q-37 23 -35 51q0 16 17.5 32.5
t58.5 38.5q-102 20 -102 120t87 163q72 50 146 50q53 0 95 -28q86 1 122 24zM216 163q34 0 62 50t28 125q0 78 -41 78q-38 0 -64 -64q-25 -58 -25 -122q0 -67 40 -67zM195 -195q47 0 74.5 17.5t27.5 44.5q0 32 -58 66q-32 20 -91 47q-29 -17 -49 -42t-20 -50q0 -35 35 -59
t81 -24zM396 512l-30 -24q-19 18 -77 86q-63 -53 -109 -86l-27 27q97 109 135 162h34q17 -46 74 -165z" />
    <glyph glyph-name="Gbreve" unicode="&#x11e;" horiz-adv-x="698" 
d="M668 471l-35 -4q-16 154 -155 154q-106 0 -186 -101t-80 -247q0 -113 48.5 -179.5t131.5 -66.5q30 0 48.5 13.5t25.5 52.5l16 86q10 55 -4.5 68t-87.5 21l9 34h297l-9 -34q-41 -5 -53 -19t-22 -70l-14 -79q-8 -40 -6 -75q-134 -40 -215 -40q-145 0 -229.5 75t-84.5 211
q0 176 123.5 285t314.5 109q98 0 179 -28q-7 -77 -12 -166zM579 832h36q-25 -135 -142 -135q-56 0 -82 35t-20 100h36q9 -58 76 -58q63 0 96 58z" />
    <glyph glyph-name="gbreve" unicode="&#x11f;" horiz-adv-x="449" 
d="M506 450l11 -22q-47 -50 -86 -57q-2 -1 -7.5 -1.5t-8.5 -0.5q6 -23 6 -47q0 -83 -69 -138q-47 -39 -150 -64q-9 -6 -11 -18q0 -17 67 -49q80 -38 114 -70t34 -69q0 -63 -86 -110.5t-176 -47.5q-80 0 -134 32t-54 79q0 34 41 65t120 67q-37 23 -35 51q0 16 17.5 32.5
t58.5 38.5q-102 20 -102 120t87 163q72 50 146 50q53 0 95 -28q86 1 122 24zM216 163q34 0 62 50t28 125q0 78 -41 78q-38 0 -64 -64q-25 -58 -25 -122q0 -67 40 -67zM195 -195q47 0 74.5 17.5t27.5 44.5q0 32 -58 66q-32 20 -91 47q-29 -17 -49 -42t-20 -50q0 -35 35 -59
t81 -24zM381 645h37q-23 -144 -140 -144q-52 0 -79.5 33.5t-14.5 110.5h37q0 -67 68 -67q67 0 92 67z" />
    <glyph glyph-name="Gdotaccent" unicode="&#x120;" horiz-adv-x="698" 
d="M668 471l-35 -4q-16 154 -155 154q-106 0 -186 -101t-80 -247q0 -113 48.5 -179.5t131.5 -66.5q30 0 48.5 13.5t25.5 52.5l16 86q10 55 -4.5 68t-87.5 21l9 34h297l-9 -34q-41 -5 -53 -19t-22 -70l-14 -79q-8 -40 -6 -75q-134 -40 -215 -40q-145 0 -229.5 75t-84.5 211
q0 176 123.5 285t314.5 109q98 0 179 -28q-7 -77 -12 -166zM485 845q28 0 43 -17t15 -42q0 -31 -20.5 -54.5t-52.5 -23.5q-27 0 -43 16.5t-16 45.5q0 27 20.5 51t53.5 24z" />
    <glyph glyph-name="gdotaccent" unicode="&#x121;" horiz-adv-x="449" 
d="M506 450l11 -22q-47 -50 -86 -57q-2 -1 -7.5 -1.5t-8.5 -0.5q6 -23 6 -47q0 -83 -69 -138q-47 -39 -150 -64q-9 -6 -11 -18q0 -17 67 -49q80 -38 114 -70t34 -69q0 -63 -86 -110.5t-176 -47.5q-80 0 -134 32t-54 79q0 34 41 65t120 67q-37 23 -35 51q0 16 17.5 32.5
t58.5 38.5q-102 20 -102 120t87 163q72 50 146 50q53 0 95 -28q86 1 122 24zM216 163q34 0 62 50t28 125q0 78 -41 78q-38 0 -64 -64q-25 -58 -25 -122q0 -67 40 -67zM195 -195q47 0 74.5 17.5t27.5 44.5q0 32 -58 66q-32 20 -91 47q-29 -17 -49 -42t-20 -50q0 -35 35 -59
t81 -24zM301 650q28 0 43 -17.5t15 -42.5q0 -31 -21 -54t-52 -23q-27 0 -43 16t-16 45q0 27 20 51.5t54 24.5z" />
    <glyph glyph-name="uni0122" unicode="&#x122;" horiz-adv-x="698" 
d="M668 471l-35 -4q-16 154 -155 154q-106 0 -186 -101t-80 -247q0 -113 48.5 -179.5t131.5 -66.5q30 0 48.5 13.5t25.5 52.5l16 86q10 55 -4.5 68t-87.5 21l9 34h297l-9 -34q-41 -5 -53 -19t-22 -70l-14 -79q-8 -40 -6 -75q-134 -40 -215 -40q-145 0 -229.5 75t-84.5 211
q0 176 123.5 285t314.5 109q98 0 179 -28q-7 -77 -12 -166zM370 -42q30 0 52 -22t22 -58q0 -48 -40 -82.5t-104 -49.5l-10 31q39 17 58 32.5t19 36.5q0 33 -41 43q-12 3 -12 23q0 19 15.5 32.5t40.5 13.5z" />
    <glyph glyph-name="uni0123" unicode="&#x123;" horiz-adv-x="449" 
d="M506 450l11 -22q-47 -50 -86 -57q-2 -1 -7.5 -1.5t-8.5 -0.5q6 -23 6 -47q0 -83 -69 -138q-47 -39 -150 -64q-9 -6 -11 -18q0 -17 67 -49q80 -38 114 -70t34 -69q0 -63 -86 -110.5t-176 -47.5q-80 0 -134 32t-54 79q0 34 41 65t120 67q-37 23 -35 51q0 16 17.5 32.5
t58.5 38.5q-102 20 -102 120t87 163q72 50 146 50q53 0 95 -28q86 1 122 24zM216 163q34 0 62 50t28 125q0 78 -41 78q-38 0 -64 -64q-25 -58 -25 -122q0 -67 40 -67zM195 -195q47 0 74.5 17.5t27.5 44.5q0 32 -58 66q-32 20 -91 47q-29 -17 -49 -42t-20 -50q0 -35 35 -59
t81 -24zM294 515q-31 0 -51.5 21t-20.5 57q0 51 41 85t100 49l10 -30q-75 -32 -75 -69q0 -33 40 -44q12 -4 12 -22q0 -19 -15.5 -33t-40.5 -14z" />
    <glyph glyph-name="Hcircumflex" unicode="&#x124;" horiz-adv-x="763" 
d="M813 649l-7 -34q-56 -4 -70.5 -19t-26.5 -74l-76 -394q-12 -58 -0.5 -74t71.5 -20l-8 -34h-302l8 34q58 4 73.5 19.5t26.5 74.5l36 191h-265l-36 -191q-11 -58 1 -74t70 -20l-8 -34h-297l8 34q54 4 69 19t27 75l77 394q11 58 -2 73t-74 20l8 34h298l-9 -34
q-52 -4 -66.5 -19t-25.5 -74l-29 -152h264l30 152q11 58 0 73.5t-68 19.5l8 34h295zM623 713l-21 -28q-77 30 -120 55q-72 -34 -136 -55l-17 29q46 30 148 113h33q62 -69 113 -114z" />
    <glyph glyph-name="hcircumflex" unicode="&#x125;" horiz-adv-x="534" 
d="M493 121l16 -29q-103 -104 -172 -104q-54 0 -29 113l49 210q11 53 -9 53q-24 0 -71.5 -46t-84.5 -104q-22 -94 -40 -204q-46 -5 -117 -22l-7 9q68 315 117 584q6 33 -2 42t-41 11l-20 1l7 32q45 3 87 12.5t66.5 16.5t29.5 7q10 0 12 -7.5t-2 -28.5l-79 -380h2
q76 94 148 139q48 28 82 28q71 0 37 -149l-40 -180q-9 -41 3 -41q6 0 24.5 11.5t33.5 25.5zM374 752l-21 -29q-82 34 -120 56q-69 -32 -136 -56l-16 29q55 37 147 114h33q55 -61 113 -114z" />
    <glyph glyph-name="Hbar" unicode="&#x126;" horiz-adv-x="762" 
d="M793 508l-13 -41h-81l-66 -338q-12 -58 0 -74.5t71 -20.5l-8 -34h-302l8 34q58 4 74 19.5t27 75.5l34 183h-265l-35 -183q-11 -59 1 -75t70 -20l-8 -34h-297l8 34q54 4 69 19.5t27 75.5l66 338h-91l12 41h87l3 17q11 56 -2.5 71t-73.5 19l8 34h298l-9 -34
q-51 -5 -66.5 -19.5t-25.5 -70.5l-2 -17h264l3 17q11 56 -0.5 71t-67.5 19l8 34h295l-7 -34q-55 -5 -70.5 -19t-25.5 -71l-3 -17h86zM567 467h-265l-20 -104h265z" />
    <glyph glyph-name="hbar" unicode="&#x127;" horiz-adv-x="535" 
d="M491 121l16 -29q-45 -47 -92.5 -75.5t-80.5 -28.5q-54 0 -29 107q34 146 50 219q12 49 -9 49q-25 0 -70.5 -45.5t-82.5 -105.5q-19 -76 -40 -202q-47 -5 -118 -22l-7 9q66 314 107 520h-83l11 39h80q11 57 8.5 69t-22.5 14l-33 4l7 28q35 3 74 11t64 14.5t31 6.5
q16 0 8 -40q-20 -92 -22 -107h134l-11 -39h-132q-9 -43 -24.5 -123.5t-21.5 -108.5h2q73 93 149 140q46 29 83 29q67 0 38 -129q-8 -40 -44 -201q-9 -41 0 -41q6 0 25.5 12t34.5 26z" />
    <glyph glyph-name="Itilde" unicode="&#x128;" horiz-adv-x="366" 
d="M416 649l-8 -34q-54 -4 -68.5 -19t-26.5 -76l-75 -391q-12 -59 -0.5 -75t70.5 -20l-7 -34h-296l7 34q53 4 68 19.5t27 75.5l77 391q11 60 0 75.5t-72 19.5l8 34h296zM398 804l31 -19q-31 -95 -87 -95q-24 0 -76 23q-28 13 -49 13q-29 0 -50 -45l-32 24q33 92 90 92
q25 0 68 -20q41 -16 55 -16q28 0 50 43z" />
    <glyph glyph-name="itilde" unicode="&#x129;" horiz-adv-x="297" 
d="M259 124l17 -26q-48 -53 -98.5 -81.5t-77.5 -28.5q-57 0 -31 108l52 224q7 35 0 35q-14 0 -61 -35l-14 28q53 49 103.5 77.5t78.5 28.5q44 0 21 -99l-57 -232q-9 -39 2 -39q19 0 65 40zM321 632l34 -15q-33 -104 -91 -104q-15 0 -68 22q-28 14 -49 14q-25 0 -48 -45
l-31 22q16 47 40 72.5t50 25.5q22 0 63 -20q42 -18 54 -18q24 0 46 46z" />
    <glyph glyph-name="Imacron" unicode="&#x12a;" horiz-adv-x="366" 
d="M416 649l-8 -34q-54 -4 -68.5 -19t-26.5 -76l-75 -391q-12 -59 -0.5 -75t70.5 -20l-7 -34h-296l7 34q53 4 68 19.5t27 75.5l77 391q11 60 0 75.5t-72 19.5l8 34h296zM415 782l-17 -68h-237l19 68h235z" />
    <glyph glyph-name="imacron" unicode="&#x12b;" horiz-adv-x="297" 
d="M259 124l17 -26q-48 -53 -98.5 -81.5t-77.5 -28.5q-57 0 -31 108l52 224q7 35 0 35q-14 0 -61 -35l-14 28q53 49 103.5 77.5t78.5 28.5q44 0 21 -99l-57 -232q-9 -39 2 -39q19 0 65 40zM341 604l-17 -70h-237l17 70h237z" />
    <glyph glyph-name="Ibreve" unicode="&#x12c;" horiz-adv-x="366" 
d="M416 649l-8 -34q-54 -4 -68.5 -19t-26.5 -76l-75 -391q-12 -59 -0.5 -75t70.5 -20l-7 -34h-296l7 34q53 4 68 19.5t27 75.5l77 391q11 60 0 75.5t-72 19.5l8 34h296zM382 822h37q-25 -135 -142 -135q-115 0 -102 135h36q9 -58 75 -58q65 0 96 58z" />
    <glyph glyph-name="ibreve" unicode="&#x12d;" horiz-adv-x="297" 
d="M259 124l17 -26q-48 -53 -98.5 -81.5t-77.5 -28.5q-57 0 -31 108l52 224q7 35 0 35q-14 0 -61 -35l-14 28q53 49 103.5 77.5t78.5 28.5q44 0 21 -99l-57 -232q-9 -39 2 -39q19 0 65 40zM303 645h37q-23 -144 -140 -144q-52 0 -79.5 33.5t-14.5 110.5h37q0 -67 68 -67
q67 0 92 67z" />
    <glyph glyph-name="Iogonek" unicode="&#x12e;" horiz-adv-x="366" 
d="M416 649l-8 -34q-54 -4 -68.5 -19t-26.5 -76l-75 -391q-12 -60 -0.5 -75.5t70.5 -19.5l-7 -34h-126q-49 -81 -49 -135q0 -20 13.5 -31t31.5 -11q22 0 42 7l8 -33l-61 -31q-20 -10 -44 -10q-34 0 -55 20.5t-21 53.5q0 40 31 89t62 81h-128l7 34q53 4 68 19t27 76l77 391
q11 61 -0.5 75.5t-71.5 19.5l8 34h296z" />
    <glyph glyph-name="iogonek" unicode="&#x12f;" horiz-adv-x="295" 
d="M232 669q28 0 43 -17.5t15 -42.5q0 -31 -21 -54t-52 -23q-27 0 -43 16.5t-17 44.5q0 27 20.5 51.5t54.5 24.5zM257 124l18 -26q-39 -43 -88 -73q-39 -39 -62 -81t-23 -75q0 -20 11.5 -32t28.5 -12q11 0 45 9l7 -32l-61 -32q-24 -12 -42 -12q-35 0 -55 19.5t-20 51.5
q0 43 31.5 89.5t65.5 75.5v2q-36 -11 -47.5 12.5t2.5 87.5l52 224q8 35 0 35q-14 0 -61 -35l-14 28q53 49 103 77.5t77 28.5q47 0 23 -99l-57 -232q-9 -39 2 -39q19 0 64 40z" />
    <glyph glyph-name="Idotaccent" unicode="&#x130;" horiz-adv-x="366" 
d="M416 649l-8 -34q-54 -4 -68.5 -19t-26.5 -76l-75 -391q-12 -59 -0.5 -75t70.5 -20l-7 -34h-296l7 34q53 4 68 19.5t27 75.5l77 391q11 60 0 75.5t-72 19.5l8 34h296zM300 834q28 0 43 -17t15 -42q0 -31 -20.5 -54.5t-52.5 -23.5q-27 0 -43 16.5t-16 45.5q0 27 20.5 51
t53.5 24z" />
    <glyph glyph-name="dotlessi" unicode="&#x131;" horiz-adv-x="297" 
d="M259 124l17 -26q-48 -53 -98.5 -81.5t-77.5 -28.5q-57 0 -31 108l52 224q7 35 0 35q-14 0 -61 -35l-14 28q53 49 103.5 77.5t78.5 28.5q44 0 21 -99l-57 -232q-9 -39 2 -39q19 0 65 40z" />
    <glyph glyph-name="IJ" unicode="&#x132;" horiz-adv-x="724" 
d="M416 649l-8 -34q-54 -4 -68.5 -19t-26.5 -76l-75 -391q-12 -59 -0.5 -75t70.5 -20l-7 -34h-296l7 34q53 4 68 19.5t27 75.5l77 391q11 60 0 75.5t-72 19.5l8 34h296zM782 649l-7 -34q-53 -6 -66.5 -20t-24.5 -75l-71 -384q-17 -92 -48 -148.5t-92 -91.5q-29 -19 -66 -30
t-58 -11l-6 37q82 17 111 116q15 50 32 139l69 373q11 59 -0.5 74t-70.5 21l7 34h291z" />
    <glyph glyph-name="ij" unicode="&#x133;" horiz-adv-x="581" 
d="M231 652q27 0 41.5 -17t14.5 -42q0 -31 -22 -54.5t-54 -23.5q-54 0 -56 62q0 27 20.5 51t55.5 24zM257 124l17 -26q-48 -53 -98.5 -81.5t-77.5 -28.5q-56 0 -30 108l52 224q7 35 0 35q-14 0 -61 -35l-14 28q52 48 103 77t79 29q43 0 20 -99l-57 -232q-9 -39 3 -39
q19 0 64 40zM516 656q27 0 41.5 -17t14.5 -42q0 -31 -20.5 -54.5t-51.5 -23.5q-28 0 -44 16.5t-16 45.5q0 27 20.5 51t55.5 24zM346 320l-14 27q46 44 100.5 75.5t84.5 31.5q23 0 27 -28t-8 -89q-15 -87 -57 -290q-33 -160 -141 -238q-73 -53 -114 -53q-19 0 -34 10.5
t-15 28.5q0 15 11 32.5t24 27.5q9 8 20 1q39 -31 63 -31q13 0 20.5 12.5t16.5 52.5q26 111 82 421q9 46 0 46q-8 0 -30 -13t-36 -24z" />
    <glyph glyph-name="Jcircumflex" unicode="&#x134;" horiz-adv-x="357" 
d="M416 649l-7 -34q-54 -6 -67.5 -20t-23.5 -75l-71 -384q-17 -92 -48 -148.5t-92 -91.5q-29 -19 -66 -30t-58 -11l-6 37q82 17 111 116q15 50 32 139l69 373q11 59 -1 74t-71 21l8 34h291zM423 713l-21 -28q-77 30 -120 55q-72 -34 -136 -55l-16 29q54 36 147 113h33
q55 -61 113 -114z" />
    <glyph glyph-name="jcircumflex" unicode="&#x135;" horiz-adv-x="290" 
d="M326 532l-28 -25q-26 24 -76 85q-84 -69 -108 -85l-25 27q91 101 131 157h34q22 -62 72 -159zM59 320l-14 27q47 44 101 75.5t85 31.5q22 0 26 -28t-8 -89q-14 -85 -56 -286q-33 -160 -141 -238q-72 -53 -114 -53q-19 0 -34 11t-15 29q0 30 35 60q10 7 20 0
q36 -27 64 -27q12 0 20 12.5t17 52.5q23 100 80 413q9 46 0 46q-8 0 -30 -13t-36 -24z" />
    <glyph glyph-name="uni0136" unicode="&#x136;" horiz-adv-x="677" 
d="M749 649l-7 -31q-46 -6 -73.5 -17.5t-74.5 -50.5q-84 -67 -192 -166q86 -171 151 -273q28 -45 47 -58.5t58 -18.5l-9 -34h-188q-54 92 -153 289q-19 36 -40 26l-34 -186q-12 -59 -1 -75t69 -20l-8 -34h-286l8 34q51 4 65.5 19.5t25.5 74.5l76 393q11 58 -0.5 73.5
t-69.5 20.5l7 34h288l-7 -34q-53 -4 -67.5 -19t-25.5 -75l-33 -168q43 12 76 40q98 81 179 171q21 24 19 35t-32 14l-21 2l9 34h244zM358 -22q30 0 52 -22t22 -58q0 -48 -40 -82.5t-104 -49.5l-10 31q39 17 58 32.5t19 36.5q0 33 -41 43q-12 3 -12 23q0 19 15.5 32.5
t40.5 13.5z" />
    <glyph glyph-name="uni0137" unicode="&#x137;" horiz-adv-x="488" 
d="M465 112l19 -27q-37 -52 -74 -74.5t-64 -22.5q-43 0 -73 71q-38 93 -61 168q-17 -19 -31 -41q-28 -143 -34 -177q-59 -6 -114 -21l-8 6q70 311 126 587q7 31 1 40.5t-36 11.5l-26 1l7 33q41 4 83 13t68 16t32 7q15 0 8 -31q-12 -54 -43.5 -195.5t-49.5 -221.5h2
q41 49 79 85q75 74 105 93q33 21 60 21q22 0 37 -11t15 -27q0 -29 -26 -55q-11 -13 -20 -8q-22 11 -50 11q-24 0 -50.5 -15t-45.5 -37q14 -49 45 -124q26 -63 40 -88t26 -25q20 0 53 37zM216 -30q30 0 52 -22t22 -59q0 -48 -40 -82.5t-104 -48.5l-10 31q39 17 58 32.5
t19 36.5q0 33 -41 43q-12 3 -12 23q0 19 15.5 32.5t40.5 13.5z" />
    <glyph glyph-name="kgreenlandic" unicode="&#x138;" horiz-adv-x="532" 
d="M505 111l18 -26q-73 -97 -142 -97q-42 0 -75 64q-13 25 -66 158q-12 -10 -37 -40q-17 -62 -35 -160q-56 -4 -115 -22l-7 10q53 224 75 325q8 40 -1 40q-7 0 -28.5 -14t-35.5 -28l-14 30q48 47 96 75t77 28q25 0 30 -26.5t-7 -82.5l-26 -117l2 -1q97 102 117 123
q52 54 86 79t63 25q22 0 37 -11.5t15 -27.5q0 -28 -26 -56q-10 -12 -19 -8q-20 11 -48 11q-48 0 -113 -71q42 -105 68 -157q18 -36 29.5 -47.5t23.5 -11.5q22 0 58 36z" />
    <glyph glyph-name="Lacute" unicode="&#x139;" horiz-adv-x="547" 
d="M497 179l36 -12q-52 -140 -64 -167h-472l7 33q59 5 75 20t28 75l77 399q11 54 -0.5 69t-69.5 19l7 34h299l-8 -34q-57 -4 -72.5 -18.5t-26.5 -69.5l-75 -393q-9 -55 3 -72q16 -20 78 -20q71 0 105 33q37 36 73 104zM456 752l-5 -12l-210 -58l-16 31q122 81 178 117
q14 -3 32 -30t21 -48z" />
    <glyph glyph-name="lacute" unicode="&#x13a;" horiz-adv-x="274" 
d="M239 120l16 -28q-46 -49 -95.5 -76.5t-78.5 -27.5q-16 0 -24 9.5t-11 38.5t10 83q15 75 45.5 225.5t45.5 225.5q8 40 2.5 50.5t-35.5 12.5l-29 3l6 30q42 3 84 12.5t67.5 17t31.5 7.5q17 0 9 -38l-111 -546q-8 -39 2 -39q6 0 26.5 12t38.5 28zM389 802l-5 -12l-210 -58
l-16 31q149 99 178 117q14 -3 32 -30t21 -48z" />
    <glyph glyph-name="uni013B" unicode="&#x13b;" horiz-adv-x="547" 
d="M497 179l36 -12q-52 -140 -64 -167h-472l7 33q59 5 75 20t28 75l77 399q11 54 -0.5 69t-69.5 19l7 34h299l-8 -34q-57 -4 -72.5 -18.5t-26.5 -69.5l-75 -393q-9 -55 3 -72q16 -20 78 -20q71 0 105 33q37 36 73 104zM275 -36q30 0 52 -21.5t22 -58.5q0 -48 -39.5 -82.5
t-103.5 -48.5l-10 31q39 17 58 32.5t19 36.5q0 33 -41 43q-13 4 -13 23q0 18 15.5 31.5t40.5 13.5z" />
    <glyph glyph-name="uni013C" unicode="&#x13c;" horiz-adv-x="274" 
d="M239 120l16 -28q-46 -49 -95.5 -76.5t-78.5 -27.5q-16 0 -24 9.5t-11 38.5t10 83q15 75 45.5 225.5t45.5 225.5q8 40 2.5 50.5t-35.5 12.5l-29 3l6 30q42 3 84 12.5t67.5 17t31.5 7.5q17 0 9 -38l-111 -546q-8 -39 2 -39q6 0 26.5 12t38.5 28zM97 -37q30 0 52 -22t22 -58
q0 -48 -40 -82.5t-104 -49.5l-10 31q40 18 58.5 33.5t18.5 36.5q0 31 -41 43q-12 3 -12 23q0 18 15.5 31.5t40.5 13.5z" />
    <glyph glyph-name="Lcaron" unicode="&#x13d;" horiz-adv-x="547" 
d="M497 179l36 -12q-52 -140 -64 -167h-472l7 33q59 5 75 20t28 75l77 399q11 54 -0.5 69t-69.5 19l7 34h299l-8 -34q-57 -4 -72.5 -18.5t-26.5 -69.5l-75 -393q-9 -55 3 -72q16 -20 78 -20q71 0 105 33q37 36 73 104zM511 654q28 0 44.5 -22t16.5 -53q0 -53 -35 -88.5
t-90 -48.5l-13 30q68 33 68 71q0 31 -31 42q-11 5 -11 23q0 19 14.5 32.5t36.5 13.5z" />
    <glyph glyph-name="lcaron" unicode="&#x13e;" horiz-adv-x="274" 
d="M239 120l16 -28q-46 -49 -95.5 -76.5t-78.5 -27.5q-16 0 -24 9.5t-11 38.5t10 83q15 75 45.5 225.5t45.5 225.5q8 40 2.5 50.5t-35.5 12.5l-29 3l6 30q42 3 84 12.5t67.5 17t31.5 7.5q17 0 9 -38l-111 -546q-8 -39 2 -39q6 0 26.5 12t38.5 28zM377 708q28 0 45 -21.5
t17 -52.5q0 -53 -35.5 -88.5t-90.5 -49.5l-12 30q67 34 67 72q0 31 -31 42q-11 4 -11 23q0 18 15 31.5t36 13.5z" />
    <glyph glyph-name="Ldot" unicode="&#x13f;" horiz-adv-x="547" 
d="M497 179l36 -12q-52 -140 -64 -167h-472l7 33q59 5 75 20t28 75l77 399q11 54 -0.5 69t-69.5 19l7 34h299l-8 -34q-57 -4 -72.5 -18.5t-26.5 -69.5l-75 -393q-9 -55 3 -72q16 -20 78 -20q71 0 105 33q37 36 73 104zM428 416q28 0 43 -17t15 -43q0 -31 -20.5 -54
t-52.5 -23q-27 0 -43 16.5t-16 44.5q0 27 20.5 51.5t53.5 24.5z" />
    <glyph glyph-name="ldot" unicode="&#x140;" horiz-adv-x="329" 
d="M239 120l16 -28q-46 -49 -95.5 -76.5t-78.5 -27.5q-16 0 -24 9.5t-11 38.5t10 83q15 75 45.5 225.5t45.5 225.5q8 41 2.5 51t-35.5 13l-29 2l6 31q42 3 84 12t67.5 16.5t31.5 7.5q17 0 9 -38q-12 -61 -35 -172t-41.5 -202t-34.5 -172q-8 -39 2 -39q6 0 26.5 12t38.5 28z
M338 431q28 0 43 -17.5t15 -42.5q0 -31 -20.5 -54t-52.5 -23q-27 0 -43 16.5t-16 44.5q0 27 20.5 51.5t53.5 24.5z" />
    <glyph glyph-name="Lslash" unicode="&#x141;" horiz-adv-x="560" 
d="M511 182l35 -14q-46 -134 -63 -168h-472l8 34q58 4 74 19.5t27 75.5l25 126l-106 -66l12 56l105 67l42 213q10 56 -1.5 70.5t-69.5 19.5l7 34h298l-8 -34q-57 -4 -71.5 -18.5t-25.5 -71.5l-25 -128l141 89l-13 -58l-140 -88l-38 -203q-11 -58 2 -75q16 -21 77 -21
q75 0 108 33q31 31 72 108z" />
    <glyph glyph-name="lslash" unicode="&#x142;" horiz-adv-x="292" 
d="M344 494l-11 -56l-92 -64l-49 -246q-10 -47 3 -47q6 0 26 12.5t37 28.5l16 -29q-48 -50 -95 -77.5t-75 -27.5q-54 0 -27 132l38 180l-79 -58l14 57l75 56l43 218q8 34 0.5 46t-43.5 15l-19 1l7 32q50 3 112.5 19.5t67.5 16.5q17 0 10 -33l-50 -240z" />
    <glyph glyph-name="Nacute" unicode="&#x143;" horiz-adv-x="704" 
d="M773 649l-8 -34q-43 -1 -60 -15t-27 -47q-18 -55 -40 -172l-75 -391h-52l-285 509h-2l-45 -235q-19 -98 -23 -163q-2 -36 16 -50t71 -17l-8 -34h-241l9 34q38 2 56 15.5t29 47.5q20 61 42 167l43 202q18 84 -1 118q-8 16 -26.5 22t-52.5 9l8 34h183l266 -461h2l36 191
q20 114 24 169q2 37 -16.5 51t-71.5 16l8 34h241zM610 752l-5 -12l-210 -58l-17 31q30 19 89.5 58.5t88.5 58.5q14 -3 32 -30t22 -48z" />
    <glyph glyph-name="nacute" unicode="&#x144;" horiz-adv-x="549" 
d="M508 125l16 -30q-103 -107 -172 -107q-55 0 -29 107q16 70 48 208q15 62 -5 62q-23 0 -77 -58.5t-81 -107.5q-24 -91 -42 -189q-55 -4 -114 -22l-8 10q41 164 75 325q9 38 0 38q-7 0 -29 -13t-35 -27l-14 30q105 103 170 103q49 0 20 -126l-11 -50h2q66 90 145 144
q45 32 83 32q20 0 31 -10t16 -44t-12 -100q-13 -58 -41 -180q-9 -36 3 -36q16 0 61 41zM493 660l-173 -171l-31 21q48 86 86 167q14 4 55 5t58 -2z" />
    <glyph glyph-name="uni0145" unicode="&#x145;" horiz-adv-x="704" 
d="M773 649l-8 -34q-43 -1 -60 -15t-27 -47q-18 -55 -40 -172l-75 -391h-52l-285 509h-2l-45 -235q-19 -98 -23 -163q-2 -36 16 -50t71 -17l-8 -34h-241l9 34q38 2 56 15.5t29 47.5q20 61 42 167l43 202q18 84 -1 118q-8 16 -26.5 22t-52.5 9l8 34h183l266 -461h2l36 191
q20 114 24 169q2 37 -16.5 51t-71.5 16l8 34h241zM346 -17q30 0 52 -22t22 -58q0 -48 -40 -82.5t-104 -49.5l-10 31q39 17 58 32.5t19 36.5q0 33 -41 43q-12 3 -12 23q0 19 15.5 32.5t40.5 13.5z" />
    <glyph glyph-name="uni0146" unicode="&#x146;" horiz-adv-x="549" 
d="M508 125l16 -30q-103 -107 -172 -107q-55 0 -29 107q16 70 48 208q15 62 -5 62q-23 0 -77 -58.5t-81 -107.5q-24 -91 -42 -189q-55 -4 -114 -22l-8 10q41 164 75 325q9 38 0 38q-7 0 -29 -13t-35 -27l-14 30q105 103 170 103q49 0 20 -126l-11 -50h2q66 90 145 144
q45 32 83 32q20 0 31 -10t16 -44t-12 -100q-13 -58 -41 -180q-9 -36 3 -36q16 0 61 41zM247 -45q30 0 52.5 -22t22.5 -59q0 -48 -40 -82.5t-104 -48.5l-10 31q39 17 58 32.5t19 36.5q0 33 -41 43q-12 3 -12 23q0 19 15 32.5t40 13.5z" />
    <glyph glyph-name="Ncaron" unicode="&#x147;" horiz-adv-x="704" 
d="M773 649l-8 -34q-43 -1 -60 -15t-27 -47q-18 -55 -40 -172l-75 -391h-52l-285 509h-2l-45 -235q-19 -98 -23 -163q-2 -36 16 -50t71 -17l-8 -34h-241l9 34q38 2 56 15.5t29 47.5q20 61 42 167l43 202q18 84 -1 118q-8 16 -26.5 22t-52.5 9l8 34h183l266 -461h2l36 191
q20 114 24 169q2 37 -16.5 51t-71.5 16l8 34h241zM582 811l18 -27q-68 -49 -148 -116h-33q-75 83 -111 115l21 28q75 -31 118 -55q63 29 135 55z" />
    <glyph glyph-name="ncaron" unicode="&#x148;" horiz-adv-x="549" 
d="M508 125l16 -30q-103 -107 -172 -107q-55 0 -29 107q16 70 48 208q15 62 -5 62q-23 0 -77 -58.5t-81 -107.5q-24 -91 -42 -189q-55 -4 -114 -22l-8 10q41 164 75 325q9 38 0 38q-7 0 -29 -13t-35 -27l-14 30q105 103 170 103q49 0 20 -126l-11 -50h2q66 90 145 144
q45 32 83 32q20 0 31 -10t16 -44t-12 -100q-13 -58 -41 -180q-9 -36 3 -36q16 0 61 41zM448 680l26 -26q-93 -105 -135 -162h-34q-18 49 -74 165l30 23q16 -15 77 -86q64 54 110 86z" />
    <glyph glyph-name="napostrophe" unicode="&#x149;" horiz-adv-x="555" 
d="M73 480l-11 32q86 33 87 88q1 34 -46 47q-13 3 -13 19q0 24 18.5 38.5t43.5 14.5q41 0 64.5 -28t23.5 -67q0 -59 -50 -95t-117 -49zM506 125l17 -30q-104 -107 -173 -107q-54 0 -30 100q22 92 52 224q13 53 -5 53q-23 0 -77 -61t-82 -112q-17 -66 -41 -182
q-55 -4 -114 -22l-8 10q40 162 75 324q9 39 -1 39q-7 0 -28.5 -13t-34.5 -27l-14 30q105 103 171 103q48 0 20 -126l-12 -52h2q68 94 146 147q47 31 87 31q18 0 27.5 -9.5t14 -41t-11.5 -90.5q-25 -109 -44 -193q-9 -36 4 -36q6 0 25 13t35 28z" />
    <glyph glyph-name="Eng" unicode="&#x14a;" horiz-adv-x="704" 
d="M773 649l-8 -34q-43 -1 -60 -15t-27 -47q-18 -55 -40 -172l-66 -342q-24 -125 -68 -185q-44 -61 -100 -61q-23 0 -38.5 11.5t-15.5 27.5q0 19 14 40t24 21q7 0 21 -8t26 -8q23 0 43.5 33t30.5 83l-281 503h-3l-43 -233q-18 -94 -22 -162q-2 -37 16 -50.5t71 -16.5l-9 -34
h-242l9 34q37 2 56 15.5t29 46.5q18 57 41 166l42 204q18 88 0 118q-14 27 -79 32l7 33h183l265 -459h3l34 189q19 104 24 169q2 36 -16.5 50.5t-70.5 16.5l8 34h242z" />
    <glyph glyph-name="eng" unicode="&#x14b;" horiz-adv-x="531" 
d="M56 321l-14 30q47 47 95 75t77 28q50 0 19 -129l-12 -51h2q71 94 152 150q45 30 84 30q55 0 34 -110q-13 -70 -44 -226q-23 -113 -55.5 -173t-91.5 -104q-70 -52 -118 -52q-19 0 -32.5 8.5t-13.5 26.5q0 15 11 33t24 29q9 9 20 1q32 -25 60 -25q11 0 17 4.5t16.5 31.5
t20.5 80l67 341q10 45 -5 45q-23 0 -78 -59t-82 -108q-21 -83 -41 -187q-56 -4 -115 -22l-8 10q49 197 75 325q9 39 0 39q-7 0 -29 -13.5t-35 -27.5z" />
    <glyph glyph-name="Omacron" unicode="&#x14c;" horiz-adv-x="723" 
d="M436 665q125 0 200.5 -79.5t75.5 -207.5q0 -167 -104.5 -280t-267.5 -113q-125 0 -201 76.5t-76 205.5q0 106 47 196.5t133 146t193 55.5zM430 622q-58 0 -109.5 -55t-81 -142.5t-29.5 -182.5q0 -99 33 -157t103 -58q63 0 115 59t78.5 144.5t26.5 173.5q0 101 -33 159.5
t-103 58.5zM580 782l-17 -68h-237l18 68h236z" />
    <glyph glyph-name="omacron" unicode="&#x14d;" horiz-adv-x="492" 
d="M190 -12q-81 0 -115.5 48t-34.5 117q0 92 43.5 161.5t105.5 102.5q69 37 131 37q72 0 110 -43t38 -117q0 -69 -26.5 -133t-79.5 -108q-34 -29 -80 -47t-92 -18zM230 33q10 0 25 5q31 12 57.5 87t26.5 175q0 55 -16 82.5t-42 27.5q-14 0 -25 -5q-27 -12 -56.5 -82.5
t-29.5 -178.5q0 -54 17.5 -82.5t42.5 -28.5zM424 604l-17 -70h-237l17 70h237z" />
    <glyph glyph-name="Obreve" unicode="&#x14e;" horiz-adv-x="723" 
d="M436 665q125 0 200.5 -79.5t75.5 -207.5q0 -167 -104.5 -280t-267.5 -113q-125 0 -201 76.5t-76 205.5q0 106 47 196.5t133 146t193 55.5zM430 622q-58 0 -109.5 -55t-81 -142.5t-29.5 -182.5q0 -99 33 -157t103 -58q63 0 115 59t78.5 144.5t26.5 173.5q0 101 -33 159.5
t-103 58.5zM548 835h36q-25 -135 -142 -135q-56 0 -82 35t-20 100h36q9 -58 76 -58q62 0 96 58z" />
    <glyph glyph-name="obreve" unicode="&#x14f;" horiz-adv-x="492" 
d="M190 -12q-81 0 -115.5 48t-34.5 117q0 92 43.5 161.5t105.5 102.5q69 37 131 37q72 0 110 -43t38 -117q0 -69 -26.5 -133t-79.5 -108q-34 -29 -80 -47t-92 -18zM230 33q10 0 25 5q31 12 57.5 87t26.5 175q0 55 -16 82.5t-42 27.5q-14 0 -25 -5q-27 -12 -56.5 -82.5
t-29.5 -178.5q0 -54 17.5 -82.5t42.5 -28.5zM396 645h37q-23 -144 -140 -144q-52 0 -79.5 33.5t-14.5 110.5h37q0 -67 68 -67q67 0 92 67z" />
    <glyph glyph-name="Ohungarumlaut" unicode="&#x150;" horiz-adv-x="723" 
d="M436 665q125 0 200.5 -79.5t75.5 -207.5q0 -167 -104.5 -280t-267.5 -113q-125 0 -201 76.5t-76 205.5q0 106 47 196.5t133 146t193 55.5zM430 622q-58 0 -109.5 -55t-81 -142.5t-29.5 -182.5q0 -99 33 -157t103 -58q63 0 115 59t78.5 144.5t26.5 173.5q0 101 -33 159.5
t-103 58.5zM489 815l1 -18l-111 -103l-30 15q16 38 46 125q14 5 50 -2t44 -17zM639 815v-18l-110 -103l-30 15q3 7 46 125q13 5 49 -2t45 -17z" />
    <glyph glyph-name="ohungarumlaut" unicode="&#x151;" horiz-adv-x="492" 
d="M190 -12q-81 0 -115.5 48t-34.5 117q0 92 43.5 161.5t105.5 102.5q69 37 131 37q72 0 110 -43t38 -117q0 -69 -26.5 -133t-79.5 -108q-34 -29 -80 -47t-92 -18zM230 33q10 0 25 5q31 12 57.5 87t26.5 175q0 55 -16 82.5t-42 27.5q-14 0 -25 -5q-27 -12 -56.5 -82.5
t-29.5 -178.5q0 -54 17.5 -82.5t42.5 -28.5zM358 661l-134 -172l-30 17q9 23 22.5 60.5t25 69t13.5 36.5q12 4 47.5 4.5t50.5 -1.5zM517 661l-134 -172l-29 17q12 31 60 166q13 4 48.5 4.5t49.5 -1.5z" />
    <glyph glyph-name="OE" unicode="&#x152;" horiz-adv-x="969" 
d="M882 0h-309q-29 0 -99 -5q-54 -6 -86 -6q-74 0 -132 18t-93.5 46.5t-58.5 67.5t-31.5 77t-8.5 79q0 170 121.5 276t316.5 107q39 0 101 -5.5t84 -5.5h288q-14 -125 -18 -155l-35 -2q-5 64 -22 89q-10 15 -29 20.5t-66 5.5h-41q-28 0 -36 -7.5t-14 -34.5l-39 -203h64
q61 0 79.5 12.5t40.5 64.5h36l-40 -204h-35q-1 40 -6 54.5t-21.5 20t-59.5 5.5h-68l-31 -167q-14 -68 2 -86q14 -20 80 -20q85 0 120 34q39 38 72 96l34 -12q-35 -106 -60 -160zM500 117l79 410q12 59 -16 76q-27 16 -79 16q-110 0 -193 -92.5t-83 -248.5q0 -65 19.5 -120
t66 -92.5t114.5 -35.5q29 2 56 14q25 12 36 73z" />
    <glyph glyph-name="oe" unicode="&#x153;" horiz-adv-x="700" 
d="M658 141l18 -30q-111 -123 -224 -123q-32 0 -61 17t-43 56h-1q-71 -73 -161 -73q-78 0 -112 49t-34 116q1 92 42.5 161.5t103.5 102.5q66 37 123 37q85 0 120 -75h1q89 75 173 75q47 0 74 -25t26 -64q0 -110 -261 -180q-2 -22 -2 -24q0 -94 75 -94q63 0 143 74zM590 355
q1 25 -11 38t-25 13t-28 -10q-25 -16 -48 -59t-32 -112q78 26 111 56.5t33 73.5zM340 310q-2 102 -56 102q-12 0 -25 -6q-31 -14 -59.5 -79t-29.5 -179q-1 -50 16 -81.5t42 -31.5q13 0 25 6q31 13 59 87.5t28 181.5z" />
    <glyph glyph-name="Racute" unicode="&#x154;" horiz-adv-x="633" 
d="M619 23l-9 -31h-17q-94 1 -131 22t-63 74q-32 65 -59 147q-10 26 -21 36.5t-32 10.5h-24l-28 -153q-11 -59 0.5 -74.5t65.5 -20.5l-8 -34h-290l8 34q53 5 69 20.5t27 73.5l77 396q11 60 0.5 73.5t-68.5 17.5l9 34h252q105 0 157 -31q67 -41 67 -127q0 -68 -44 -115
t-112 -68q2 -5 12 -30.5t21.5 -53.5t21.5 -49q46 -91 61 -112q22 -29 58 -40zM271 322h25q61 0 97 23q71 45 71 142q0 59 -26.5 90.5t-66.5 31.5q-27 0 -39 -12q-10 -9 -16 -41zM555 752l-5 -12l-210 -58l-17 31q30 19 89.5 58.5t88.5 58.5q15 -3 33 -30t21 -48z" />
    <glyph glyph-name="racute" unicode="&#x155;" horiz-adv-x="390" 
d="M55 322l-16 28q45 45 91 74.5t74 29.5q46 0 22 -116l-9 -45h4q85 161 142 161q30 0 48 -26q19 -27 -4 -63q-20 -29 -35 -41q-14 -11 -25 -2q-22 19 -41 19q-18 0 -40 -30q-44 -62 -56 -110q-18 -74 -38 -191q-56 -5 -114 -22l-8 10q37 152 67 313q9 47 -2 47
q-6 0 -27 -12t-33 -24zM431 660l-173 -171l-31 21q48 86 86 167q14 4 55 5t58 -2z" />
    <glyph glyph-name="uni0156" unicode="&#x156;" horiz-adv-x="633" 
d="M619 23l-9 -31h-17q-94 1 -131 22t-63 74q-32 65 -59 147q-10 26 -21 36.5t-32 10.5h-24l-28 -153q-11 -59 0.5 -74.5t65.5 -20.5l-8 -34h-290l8 34q53 5 69 20.5t27 73.5l77 396q11 60 0.5 73.5t-68.5 17.5l9 34h252q105 0 157 -31q67 -41 67 -127q0 -68 -44 -115
t-112 -68q2 -5 12 -30.5t21.5 -53.5t21.5 -49q46 -91 61 -112q22 -29 58 -40zM271 322h25q61 0 97 23q71 45 71 142q0 59 -26.5 90.5t-66.5 31.5q-27 0 -39 -12q-10 -9 -16 -41zM353 -21q30 0 52 -22t22 -58q0 -48 -40 -83t-103 -49l-11 31q39 17 58 32.5t19 36.5
q0 33 -41 43q-12 4 -12 23t15.5 32.5t40.5 13.5z" />
    <glyph glyph-name="uni0157" unicode="&#x157;" horiz-adv-x="390" 
d="M55 322l-16 28q45 45 91 74.5t74 29.5q46 0 22 -116l-9 -45h4q85 161 142 161q30 0 48 -26q19 -27 -4 -63q-20 -29 -35 -41q-14 -11 -25 -2q-22 19 -41 19q-18 0 -40 -30q-44 -62 -56 -110q-18 -74 -38 -191q-56 -5 -114 -22l-8 10q37 152 67 313q9 47 -2 47
q-6 0 -27 -12t-33 -24zM92 -36q30 0 52.5 -22t22.5 -58q0 -48 -40 -83t-104 -49l-10 31q39 17 58 32.5t19 36.5q0 33 -41 43q-12 3 -12 23q0 19 15 32.5t40 13.5z" />
    <glyph glyph-name="Rcaron" unicode="&#x158;" horiz-adv-x="633" 
d="M619 23l-9 -31h-17q-94 1 -131 22t-63 74q-32 65 -59 147q-10 26 -21 36.5t-32 10.5h-24l-28 -153q-11 -59 0.5 -74.5t65.5 -20.5l-8 -34h-290l8 34q53 5 69 20.5t27 73.5l77 396q11 60 0.5 73.5t-68.5 17.5l9 34h252q105 0 157 -31q67 -41 67 -127q0 -68 -44 -115
t-112 -68q2 -5 12 -30.5t21.5 -53.5t21.5 -49q46 -91 61 -112q22 -29 58 -40zM271 322h25q61 0 97 23q71 45 71 142q0 59 -26.5 90.5t-66.5 31.5q-27 0 -39 -12q-10 -9 -16 -41zM512 826l18 -27q-68 -49 -148 -116h-33q-65 74 -111 115l21 28q75 -31 119 -55q60 29 134 55z
" />
    <glyph glyph-name="rcaron" unicode="&#x159;" horiz-adv-x="390" 
d="M55 322l-16 28q45 45 91 74.5t74 29.5q46 0 22 -116l-9 -45h4q85 161 142 161q30 0 48 -26q19 -27 -4 -63q-20 -29 -35 -41q-14 -11 -25 -2q-22 19 -41 19q-18 0 -40 -30q-44 -62 -56 -110q-18 -74 -38 -191q-56 -5 -114 -22l-8 10q37 152 67 313q9 47 -2 47
q-6 0 -27 -12t-33 -24zM382 680l26 -26q-87 -98 -134 -162h-34q-18 49 -74 165l30 23q19 -18 77 -86q68 58 109 86z" />
    <glyph glyph-name="Sacute" unicode="&#x15a;" horiz-adv-x="489" 
d="M36 206l33 4q5 -28 15.5 -57t29 -59t48.5 -49t67 -19q51 0 79.5 32t28.5 78q0 66 -79 128l-30 22q-56 44 -87.5 87.5t-31.5 100.5q0 87 62 139t156 52q58 0 113 -20q6 -2 41 -16q-4 -33 -6 -153l-35 -3q-22 152 -121 152q-45 0 -70.5 -31.5t-25.5 -71.5q0 -35 19.5 -62
t61.5 -57l30 -21q61 -44 93.5 -88.5t32.5 -106.5q0 -92 -69 -147t-173 -55q-57 0 -107 19t-75 43q2 36 0 159zM498 768l-5 -12l-210 -58l-17 31q30 19 89.5 58.5t88.5 58.5q14 -3 32 -30t22 -48z" />
    <glyph glyph-name="sacute" unicode="&#x15b;" horiz-adv-x="354" 
d="M121 -12q-44 0 -80 23.5t-37 57.5q-1 16 9 32.5t24 24.5q24 13 36 -2q61 -74 115 -74q19 0 31.5 10t12.5 26t-13.5 32t-49.5 43q-61 43 -79 67q-22 30 -22 64q0 62 63 111q65 51 123 51q40 0 66 -19.5t26 -46.5q2 -31 -34 -55q-19 -11 -29 2q-42 58 -90 58
q-18 0 -28.5 -10t-9.5 -25q0 -32 70 -78q48 -32 72.5 -61t24.5 -67q0 -65 -66.5 -114.5t-134.5 -49.5zM410 660l-173 -171l-31 21q48 86 86 167q14 4 55 5t58 -2z" />
    <glyph glyph-name="Scircumflex" unicode="&#x15c;" horiz-adv-x="489" 
d="M36 206l33 4q5 -28 15.5 -57t29 -59t48.5 -49t67 -19q51 0 79.5 32t28.5 78q0 66 -79 128l-30 22q-56 44 -87.5 87.5t-31.5 100.5q0 87 62 139t156 52q58 0 113 -20q6 -2 41 -16q-4 -33 -6 -153l-35 -3q-22 152 -121 152q-45 0 -70.5 -31.5t-25.5 -71.5q0 -35 19.5 -62
t61.5 -57l30 -21q61 -44 93.5 -88.5t32.5 -106.5q0 -92 -69 -147t-173 -55q-57 0 -107 19t-75 43q2 36 0 159zM477 723l-22 -28q-78 31 -120 55q-69 -33 -135 -55l-17 29q46 30 148 113h33q62 -69 113 -114z" />
    <glyph glyph-name="scircumflex" unicode="&#x15d;" horiz-adv-x="354" 
d="M121 -12q-44 0 -80 23.5t-37 57.5q-1 16 9 32.5t24 24.5q24 13 36 -2q61 -74 115 -74q19 0 31.5 10t12.5 26t-13.5 32t-49.5 43q-61 43 -79 67q-22 30 -22 64q0 62 63 111q65 51 123 51q40 0 66 -19.5t26 -46.5q2 -31 -34 -55q-19 -11 -29 2q-42 58 -90 58
q-18 0 -28.5 -10t-9.5 -25q0 -32 70 -78q48 -32 72.5 -61t24.5 -67q0 -65 -66.5 -114.5t-134.5 -49.5zM358 512l-30 -24q-16 15 -77 86q-64 -54 -110 -86l-26 27q97 109 135 162h34q22 -62 74 -165z" />
    <glyph glyph-name="uni015E" unicode="&#x15e;" horiz-adv-x="489" 
d="M35 207l34 4q4 -28 15 -57.5t30 -59.5t49.5 -49t67.5 -19q51 0 78.5 32t27.5 78q0 67 -78 128l-30 22q-57 44 -89 88t-32 100q0 87 62 139t156 52q60 0 112 -19q11 -4 25 -10t16 -7q-3 -31 -5 -153l-35 -3q-22 151 -121 151q-45 0 -70 -31.5t-25 -70.5q0 -61 81 -119
l31 -21q61 -44 94 -88.5t33 -106.5q0 -83 -57.5 -136.5t-148.5 -63.5l-8 -9q-9 -11 -8 -20t13 -24q27 -36 27 -65q0 -31 -36.5 -58.5t-93.5 -43.5l-13 30q67 28 67 55q0 17 -18 39q-28 33 1 68l23 27q-50 2 -98 18.5t-76 42.5q0 119 -1 160z" />
    <glyph glyph-name="uni015F" unicode="&#x15f;" horiz-adv-x="353" 
d="M252 454q40 0 67 -19.5t28 -45.5q0 -33 -35 -56q-19 -13 -29 2q-44 58 -89 58q-18 0 -28.5 -10t-9.5 -25q0 -32 70 -78q47 -31 71.5 -60.5t24.5 -67.5q0 -53 -44 -96.5t-104 -60.5l-15 -17q-15 -16 5 -43q27 -36 27 -66q-1 -31 -37.5 -58.5t-93.5 -42.5l-12 30
q66 28 67 55q1 14 -17 39q-16 18 -16 33t17 34l24 29v1q-45 -1 -82 22t-38 58q-1 16 9.5 32.5t24.5 24.5q23 13 35 -2q62 -74 115 -74q20 0 32.5 10t12.5 26t-13.5 32t-49.5 43q-59 42 -76 64q-25 30 -25 65q0 65 62 113q65 51 122 51z" />
    <glyph glyph-name="Scaron" unicode="&#x160;" horiz-adv-x="489" 
d="M36 206l33 4q5 -28 15.5 -57t29 -59t48.5 -49t67 -19q51 0 79.5 32t28.5 78q0 66 -79 128l-30 22q-56 44 -87.5 87.5t-31.5 100.5q0 87 62 139t156 52q58 0 113 -20q6 -2 41 -16q-4 -33 -6 -153l-35 -3q-22 152 -121 152q-45 0 -70.5 -31.5t-25.5 -71.5q0 -35 19.5 -62
t61.5 -57l30 -21q61 -44 93.5 -88.5t32.5 -106.5q0 -92 -69 -147t-173 -55q-57 0 -107 19t-75 43q2 36 0 159zM471 844l18 -28q-65 -45 -148 -115h-33q-75 83 -111 115l21 28q75 -31 118 -55q63 29 135 55z" />
    <glyph glyph-name="scaron" unicode="&#x161;" horiz-adv-x="354" 
d="M121 -12q-44 0 -80 23.5t-37 57.5q-1 16 9 32.5t24 24.5q24 13 36 -2q61 -74 115 -74q19 0 31.5 10t12.5 26t-13.5 32t-49.5 43q-61 43 -79 67q-22 30 -22 64q0 62 63 111q65 51 123 51q40 0 66 -19.5t26 -46.5q2 -31 -34 -55q-19 -11 -29 2q-42 58 -90 58
q-18 0 -28.5 -10t-9.5 -25q0 -32 70 -78q48 -32 72.5 -61t24.5 -67q0 -65 -66.5 -114.5t-134.5 -49.5zM362 680l26 -26q-87 -98 -134 -162h-34q-18 49 -74 165l30 23q19 -18 77 -86q68 58 109 86z" />
    <glyph glyph-name="uni0162" unicode="&#x162;" horiz-adv-x="623" 
d="M648 674h28q-6 -29 -27 -187l-37 -2q0 72 -15 97q-19 25 -91 25h-50l-91 -479q-11 -58 1.5 -74t80.5 -20l-8 -34h-125l-25 -28q-9 -12 -8 -20.5t13 -25.5q30 -40 29 -68q-1 -34 -39 -62.5t-98 -45.5l-13 32q69 32 69 58q1 16 -17 41q-17 19 -17.5 34.5t17.5 36.5l40 48
h-146l8 34q61 4 78 20.5t28 73.5l93 479h-42q-52 0 -74 -7t-38 -24q-20 -22 -52 -91h-36q33 108 50 189h26q7 -16 16 -20.5t30 -4.5h392q18 0 26 4.5t24 20.5z" />
    <glyph glyph-name="uni0163" unicode="&#x163;" horiz-adv-x="320" 
d="M243 390l-52 -253q-12 -59 5 -59q10 0 36.5 17t45.5 35l16 -26q-31 -41 -88 -79l-41 -50q-9 -11 -7.5 -19.5t12.5 -24.5q29 -40 28 -67q-2 -33 -40 -60.5t-97 -43.5l-12 31q67 30 68 56q1 14 -18 40q-16 19 -16.5 33.5t17.5 35.5l28 34q-14 -2 -19 -2q-67 0 -36 142
l56 260h-72l-5 10l28 38h59l22 92l116 73l13 -10l-35 -155h109l-28 -44z" />
    <glyph glyph-name="Tcaron" unicode="&#x164;" horiz-adv-x="623" 
d="M648 674h28q-6 -29 -27 -187l-37 -2q0 72 -15 97q-19 25 -91 25h-50l-91 -479q-11 -58 1.5 -74t80.5 -20l-8 -34h-320l8 34q61 4 78 20.5t28 73.5l93 479h-42q-52 0 -74 -7t-38 -24q-20 -22 -52 -91h-36q33 108 50 189h26q7 -16 16 -20.5t30 -4.5h392q18 0 26 4.5
t24 20.5zM547 826l18 -27q-72 -51 -147 -116h-33q-70 77 -111 115l21 28q75 -31 118 -55q66 31 134 55z" />
    <glyph glyph-name="tcaron" unicode="&#x165;" horiz-adv-x="320" 
d="M364 438l-28 -44l-93 -4l-52 -253q-12 -59 5 -59q10 0 36.5 17t45.5 35l16 -26q-31 -42 -88 -79t-97 -37q-67 0 -36 142l56 260h-72l-5 10l28 38h59l22 92l116 73l13 -10l-35 -155h109zM399 705q28 0 44.5 -21.5t16.5 -52.5q0 -53 -35 -88.5t-90 -48.5l-13 29
q68 34 68 72q0 31 -31 42q-11 4 -11 23t14.5 32t36.5 13z" />
    <glyph glyph-name="Tbar" unicode="&#x166;" horiz-adv-x="611" 
d="M645 674h26q-5 -26 -27 -186l-36 -3q0 71 -19 99q-17 23 -94 23h-42l-49 -255h139l-12 -45h-135l-34 -180q-11 -57 2 -73t81 -20l-8 -34h-320l7 34q61 4 78.5 20.5t28.5 72.5l35 180h-126l12 45h122l50 255h-29q-53 0 -78.5 -7.5t-41.5 -24.5q-30 -34 -56 -89h-35
q33 105 50 188h24q7 -16 16 -20.5t30 -4.5h391q18 0 26.5 4.5t23.5 20.5z" />
    <glyph glyph-name="tbar" unicode="&#x167;" horiz-adv-x="337" 
d="M369 438l-28 -44l-94 -4l-23 -121h93l-15 -43h-88l-18 -89q-11 -58 6 -58q9 0 35 17t47 35l15 -27q-31 -42 -88 -79t-97 -37q-65 0 -36 142l19 96h-75l15 43h70l26 121h-71l-5 10l28 38h59l21 92l118 73l12 -11l-36 -154h110z" />
    <glyph glyph-name="Utilde" unicode="&#x168;" horiz-adv-x="707" 
d="M786 649l-8 -34q-42 -1 -61 -15t-31 -49q-18 -55 -38 -160l-19 -98q-32 -163 -111 -239q-72 -69 -181 -69q-107 0 -167 55q-79 70 -46 241l45 235q12 61 0.5 78t-68.5 21l8 34h292l-9 -34q-50 -5 -65 -20.5t-27 -78.5l-45 -240q-22 -114 11.5 -168.5t107.5 -54.5
q160 0 207 253l15 85q20 105 23 162q2 33 -19 46.5t-72 15.5l9 34h249zM599 803l31 -19q-33 -95 -88 -95q-23 0 -75 23q-28 13 -49 13q-28 0 -51 -44l-31 23q33 92 90 92q24 0 67 -20q43 -16 56 -16q26 0 50 43z" />
    <glyph glyph-name="utilde" unicode="&#x169;" horiz-adv-x="545" 
d="M508 129l17 -30q-103 -111 -173 -111q-51 0 -28 102q6 24 14 62h-2q-77 -101 -151 -144q-34 -20 -69 -20q-73 0 -40 145q24 103 43 183q6 27 6.5 35t-5.5 10q-8 0 -61 -40l-13 30q48 46 96 74.5t77 28.5q45 0 21 -103q-28 -130 -48 -209q-14 -63 8 -63q30 0 79 55.5
t71 95.5q25 108 43 197l111 27h13q-45 -183 -73 -324q-8 -45 1 -45q7 0 27 13.5t36 30.5zM451 632l34 -15q-33 -104 -91 -104q-15 0 -68 22q-28 14 -49 14q-25 0 -48 -45l-31 22q16 47 40 72.5t50 25.5q22 0 63 -20q42 -18 54 -18q24 0 46 46z" />
    <glyph glyph-name="Umacron" unicode="&#x16a;" horiz-adv-x="707" 
d="M786 649l-8 -34q-42 -1 -61 -15t-31 -49q-18 -55 -38 -160l-19 -98q-32 -163 -111 -239q-72 -69 -181 -69q-107 0 -167 55q-79 70 -46 241l45 235q12 61 0.5 78t-68.5 21l8 34h292l-9 -34q-50 -5 -65 -20.5t-27 -78.5l-45 -240q-22 -114 11.5 -168.5t107.5 -54.5
q160 0 207 253l15 85q20 105 23 162q2 33 -19 46.5t-72 15.5l9 34h249zM607 782l-17 -68h-237l19 68h235z" />
    <glyph glyph-name="umacron" unicode="&#x16b;" horiz-adv-x="545" 
d="M508 129l17 -30q-103 -111 -173 -111q-51 0 -28 102q6 24 14 62h-2q-77 -101 -151 -144q-34 -20 -69 -20q-73 0 -40 145q24 103 43 183q6 27 6.5 35t-5.5 10q-8 0 -61 -40l-13 30q48 46 96 74.5t77 28.5q45 0 21 -103q-28 -130 -48 -209q-14 -63 8 -63q30 0 79 55.5
t71 95.5q25 108 43 197l111 27h13q-45 -183 -73 -324q-8 -45 1 -45q7 0 27 13.5t36 30.5zM460 604l-17 -70h-237l17 70h237z" />
    <glyph glyph-name="Ubreve" unicode="&#x16c;" horiz-adv-x="707" 
d="M786 649l-8 -34q-42 -1 -61 -15t-31 -49q-18 -55 -38 -160l-19 -98q-32 -163 -111 -239q-72 -69 -181 -69q-107 0 -167 55q-79 70 -46 241l45 235q12 61 0.5 78t-68.5 21l8 34h292l-9 -34q-50 -5 -65 -20.5t-27 -78.5l-45 -240q-22 -114 11.5 -168.5t107.5 -54.5
q160 0 207 253l15 85q20 105 23 162q2 33 -19 46.5t-72 15.5l9 34h249zM564 812h37q-25 -135 -143 -135q-56 0 -82 35t-20 100h37q9 -58 75 -58q63 0 96 58z" />
    <glyph glyph-name="ubreve" unicode="&#x16d;" horiz-adv-x="545" 
d="M508 129l17 -30q-103 -111 -173 -111q-51 0 -28 102q6 24 14 62h-2q-77 -101 -151 -144q-34 -20 -69 -20q-73 0 -40 145q24 103 43 183q6 27 6.5 35t-5.5 10q-8 0 -61 -40l-13 30q48 46 96 74.5t77 28.5q45 0 21 -103q-28 -130 -48 -209q-14 -63 8 -63q30 0 79 55.5
t71 95.5q25 108 43 197l111 27h13q-45 -183 -73 -324q-8 -45 1 -45q7 0 27 13.5t36 30.5zM421 645h37q-23 -144 -140 -144q-52 0 -79.5 33.5t-14.5 110.5h37q0 -67 68 -67q67 0 92 67z" />
    <glyph glyph-name="Uring" unicode="&#x16e;" horiz-adv-x="707" 
d="M786 649l-8 -34q-42 -1 -61 -15t-31 -49q-18 -55 -38 -160l-19 -98q-32 -163 -111 -239q-72 -69 -181 -69q-107 0 -167 55q-79 70 -46 241l45 235q12 61 0.5 78t-68.5 21l8 34h292l-9 -34q-50 -5 -65 -20.5t-27 -78.5l-45 -240q-22 -114 11.5 -168.5t107.5 -54.5
q160 0 207 253l15 85q20 105 23 162q2 33 -19 46.5t-72 15.5l9 34h249zM572 765q-1 -41 -32.5 -67.5t-70.5 -26.5q-38 0 -63 24t-24 64q1 42 31.5 68.5t71.5 26.5q37 0 62.5 -24.5t24.5 -64.5zM520 766q1 20 -9.5 34t-28.5 14q-21 0 -34.5 -15.5t-14.5 -38.5
q0 -21 10.5 -34.5t29.5 -13.5t32.5 15.5t14.5 38.5z" />
    <glyph glyph-name="uring" unicode="&#x16f;" horiz-adv-x="545" 
d="M508 129l17 -30q-103 -111 -173 -111q-51 0 -28 102q6 24 14 62h-2q-77 -101 -151 -144q-34 -20 -69 -20q-73 0 -40 145q24 103 43 183q6 27 6.5 35t-5.5 10q-8 0 -61 -40l-13 30q48 46 96 74.5t77 28.5q45 0 21 -103q-28 -130 -48 -209q-14 -63 8 -63q30 0 79 55.5
t71 95.5q25 108 43 197l111 27h13q-45 -183 -73 -324q-8 -45 1 -45q7 0 27 13.5t36 30.5zM355 673q38 0 64.5 -25t25.5 -66q-1 -42 -33 -68.5t-74 -26.5q-39 0 -64.5 24.5t-24.5 64.5q1 43 33 70t73 27zM353 632q-20 0 -34.5 -16t-15.5 -39q-1 -22 10 -35.5t30 -13.5
q20 0 34 16t16 39q1 21 -10 35t-30 14z" />
    <glyph glyph-name="Uhungarumlaut" unicode="&#x170;" horiz-adv-x="707" 
d="M786 649l-8 -34q-42 -1 -61 -15t-31 -49q-18 -55 -38 -160l-19 -98q-32 -163 -111 -239q-72 -69 -181 -69q-107 0 -167 55q-79 70 -46 241l45 235q12 61 0.5 78t-68.5 21l8 34h292l-9 -34q-50 -5 -65 -20.5t-27 -78.5l-45 -240q-22 -114 11.5 -168.5t107.5 -54.5
q160 0 207 253l15 85q20 105 23 162q2 33 -19 46.5t-72 15.5l9 34h249zM499 805v-18l-111 -103l-29 15q15 37 45 125q14 5 50 -2t45 -17zM648 805l1 -18l-111 -103l-30 15q16 38 46 125q14 5 50 -2t44 -17z" />
    <glyph glyph-name="uhungarumlaut" unicode="&#x171;" horiz-adv-x="545" 
d="M508 129l17 -30q-103 -111 -173 -111q-51 0 -28 102q6 24 14 62h-2q-77 -101 -151 -144q-34 -20 -69 -20q-73 0 -40 145q24 103 43 183q6 27 6.5 35t-5.5 10q-8 0 -61 -40l-13 30q48 46 96 74.5t77 28.5q45 0 21 -103q-28 -130 -48 -209q-14 -63 8 -63q30 0 79 55.5
t71 95.5q25 108 43 197l111 27h13q-45 -183 -73 -324q-8 -45 1 -45q7 0 27 13.5t36 30.5zM388 661l-134 -172l-30 17q9 23 22.5 60.5t25 69t13.5 36.5q12 4 47.5 4.5t50.5 -1.5zM547 661l-133 -172l-30 17q12 31 60 166q13 4 48.5 4.5t49.5 -1.5z" />
    <glyph glyph-name="Uogonek" unicode="&#x172;" horiz-adv-x="707" 
d="M786 649l-8 -34q-42 -1 -61 -14.5t-31 -48.5q-19 -58 -38 -161l-19 -98q-32 -163 -111 -239q-47 -46 -116 -62q-38 -31 -62 -68.5t-24 -65.5q0 -16 12 -27t29 -11q18 0 47 11l7 -32l-61 -33q-26 -12 -51 -12q-33 0 -54.5 19.5t-21.5 51.5q0 78 116 160v1q-109 -2 -169 54
q-79 70 -46 241l45 235q12 61 0.5 78t-68.5 21l8 34h292l-9 -34q-50 -5 -65 -20.5t-27 -78.5l-45 -240q-22 -114 11.5 -169t107.5 -55q160 0 207 254l15 85q20 105 23 162q1 33 -19.5 46.5t-71.5 15.5l9 34h249z" />
    <glyph glyph-name="uogonek" unicode="&#x173;" horiz-adv-x="545" 
d="M508 129l17 -30q-74 -82 -133 -99q-45 -32 -68.5 -71.5t-23.5 -70.5q0 -17 11.5 -26t28.5 -9q19 0 38 8l6 -33l-54 -28q-22 -11 -43 -11q-33 0 -55 19.5t-22 50.5q0 44 33.5 84.5t91.5 85.5q-27 18 -11 89q2 9 7 31t7 31h-2q-76 -98 -151 -142q-31 -20 -69 -20
q-73 0 -40 145q24 103 43 183q9 43 -3 44q-5 0 -57 -39l-13 30q48 46 96 74.5t77 28.5q45 0 21 -103q-28 -130 -48 -209q-14 -63 8 -63q30 0 79.5 56.5t70.5 95.5q27 115 43 196l111 27h13q-45 -183 -73 -324q-8 -45 1 -45q7 0 27 13.5t36 30.5z" />
    <glyph glyph-name="Wcircumflex" unicode="&#x174;" horiz-adv-x="952" 
d="M1015 649l-9 -34q-47 -7 -63.5 -21.5t-47.5 -78.5q-107 -212 -251 -526h-49l-77 447h-2l-218 -447h-48l-64 531q-6 58 -19.5 74t-61.5 21l8 34h266l-7 -34l-23 -4q-27 -5 -34 -16.5t-3 -52.5l35 -354h2l215 455h45l78 -458h2q62 131 150 339q23 54 17 69.5t-51 20.5
l-17 1l8 34h219zM733 713l-21 -28q-77 30 -120 55q-73 -34 -136 -55l-17 29q46 30 148 113h33q55 -61 113 -114z" />
    <glyph glyph-name="wcircumflex" unicode="&#x175;" horiz-adv-x="680" 
d="M491 124h2q103 140 103 209q0 30 -12 52q-7 15 1 31q17 38 53 38q23 0 39 -18.5t16 -47.5q0 -39 -39 -102q-24 -37 -100.5 -141.5t-117.5 -156.5h-41q-11 84 -39 270h-2q-11 -18 -72 -119.5t-93 -150.5h-39q-11 244 -21 321q-6 49 -15 49q-16 0 -53 -41l-18 25
q34 48 77 80t73 32q25 0 36.5 -27.5t14.5 -91.5q5 -91 3 -181h2q158 281 160 285h36q10 -60 24.5 -164.5t21.5 -150.5zM543 512l-30 -24q-27 25 -77 86q-74 -62 -110 -86l-26 27q97 109 134 162h35q22 -62 74 -165z" />
    <glyph glyph-name="Ycircumflex" unicode="&#x176;" horiz-adv-x="634" 
d="M709 649l-10 -34q-47 -5 -68 -19t-63 -65q-41 -53 -146 -209q-20 -29 -27 -61l-26 -127q-13 -61 0.5 -78t78.5 -22l-9 -34h-316l9 34q59 5 76.5 21t30.5 79l25 116q7 35 -4 69q-9 25 -31.5 93.5t-39.5 117.5q-19 53 -34 66.5t-60 18.5l10 34h262l-8 -34l-27 -6
q-21 -4 -25 -14t4 -35q25 -85 73 -219q100 150 137 215q16 27 11 38t-36 17l-22 3l11 35h224zM565 713l-22 -28q-78 31 -119 55q-72 -34 -136 -55l-17 29q46 30 148 113h33q62 -69 113 -114z" />
    <glyph glyph-name="ycircumflex" unicode="&#x177;" horiz-adv-x="469" 
d="M276 96h2q33 51 52 82.5t36.5 76t17.5 77.5q0 15 -14 54q-7 18 4 35q18 33 53 33q21 0 36.5 -17.5t16.5 -49.5q2 -48 -39 -112q-44 -74 -161 -242q-119 -167 -188 -246l-132 -31l-9 27q82 53 132 94.5t90 93.5q1 60 -10.5 165.5t-25.5 173.5q-9 45 -21 45q-14 0 -54 -51
l-21 27q33 54 72.5 88.5t71.5 34.5q28 0 44.5 -31t25.5 -104q13 -100 21 -223zM420 512l-30 -24q-16 15 -77 86q-64 -54 -110 -86l-26 27q97 109 135 162h34q17 -46 74 -165z" />
    <glyph glyph-name="Ydieresis" unicode="&#x178;" horiz-adv-x="634" 
d="M709 649l-10 -34q-47 -5 -68 -19t-63 -65q-41 -53 -146 -209q-20 -29 -27 -61l-26 -127q-13 -61 0.5 -78t78.5 -22l-9 -34h-316l9 34q59 5 76.5 21t30.5 79l25 116q7 35 -4 69q-9 25 -31.5 93.5t-39.5 117.5q-19 53 -34 66.5t-60 18.5l10 34h262l-8 -34l-27 -6
q-21 -4 -25 -14t4 -35q25 -85 73 -219q100 150 137 215q16 27 11 38t-36 17l-22 3l11 35h224zM327 826q26 0 40.5 -16.5t14.5 -40.5q0 -30 -19.5 -51.5t-49.5 -21.5q-25 0 -40.5 15.5t-15.5 42.5q0 26 19.5 49t50.5 23zM538 826q26 0 40 -16.5t14 -40.5q0 -30 -19.5 -51.5
t-49.5 -21.5q-25 0 -40.5 15.5t-15.5 42.5q0 26 19.5 49t51.5 23z" />
    <glyph glyph-name="Zacute" unicode="&#x179;" horiz-adv-x="607" 
d="M627 649l9 -16q-52 -68 -142.5 -184.5t-166 -214.5t-142.5 -186q36 -6 125 -6q129 0 169 34q40 33 80 111l36 -15q-40 -126 -62 -172h-524l-8 20q217 276 456 587h-116q-69 0 -95.5 -8t-43.5 -25q-30 -31 -54 -95l-37 4q18 69 42 191h26q8 -16 17 -20.5t31 -4.5h400z
M572 752l-5 -12l-210 -58l-16 31q149 99 178 117q14 -3 32 -30t21 -48z" />
    <glyph glyph-name="zacute" unicode="&#x17a;" horiz-adv-x="414" 
d="M437 467l22 -23q-69 -79 -74 -85q-61 -64 -245 -237q36 2 81 -16q48 -17 77 -17q42 0 101 81l27 -21q-43 -95 -80.5 -133t-75.5 -38q-12 0 -30 5.5t-29 10t-36.5 16.5t-31.5 15q-32 15 -49.5 15.5t-28.5 -9.5q-13 -10 -29 -34q-7 -10 -14 -9q-11 2 -15.5 15t7.5 40.5
t45 60.5q28 28 124.5 116.5t141.5 132.5q-34 -8 -69 -5q-60 5 -73 5q-38 0 -59.5 -16.5t-46.5 -56.5l-30 19q27 59 50 94q41 60 81 60q28 0 89 -11q69 -13 100 -13q29 0 70 38zM428 660l-173 -171l-31 21q48 86 86 167q14 4 55 5t58 -2z" />
    <glyph glyph-name="Zdotaccent" unicode="&#x17b;" horiz-adv-x="607" 
d="M627 649l9 -16q-52 -68 -142.5 -184.5t-166 -214.5t-142.5 -186q36 -6 125 -6q129 0 169 34q40 33 80 111l36 -15q-40 -126 -62 -172h-524l-8 20q217 276 456 587h-116q-69 0 -95.5 -8t-43.5 -25q-30 -31 -54 -95l-37 4q18 69 42 191h26q8 -16 17 -20.5t31 -4.5h400z
M397 834q28 0 43 -17t15 -42q0 -31 -20.5 -54.5t-52.5 -23.5q-27 0 -43 16.5t-16 45.5q0 27 20.5 51t53.5 24z" />
    <glyph glyph-name="zdotaccent" unicode="&#x17c;" horiz-adv-x="414" 
d="M437 467l22 -23q-69 -79 -74 -85q-61 -64 -245 -237q36 2 81 -16q48 -17 77 -17q42 0 101 81l27 -21q-43 -95 -80.5 -133t-75.5 -38q-12 0 -30 5.5t-29 10t-36.5 16.5t-31.5 15q-32 15 -49.5 15.5t-28.5 -9.5q-13 -10 -29 -34q-7 -10 -14 -9q-11 2 -15.5 15t7.5 40.5
t45 60.5q28 28 124.5 116.5t141.5 132.5q-34 -8 -69 -5q-60 5 -73 5q-38 0 -59.5 -16.5t-46.5 -56.5l-30 19q27 59 50 94q41 60 81 60q28 0 89 -11q69 -13 100 -13q29 0 70 38zM298 650q28 0 43 -17.5t15 -42.5q0 -31 -20.5 -54t-52.5 -23q-27 0 -43 16t-16 45
q0 27 20.5 51.5t53.5 24.5z" />
    <glyph glyph-name="Zcaron" unicode="&#x17d;" horiz-adv-x="607" 
d="M627 649l9 -16q-52 -68 -142.5 -184.5t-166 -214.5t-142.5 -186q36 -6 125 -6q129 0 169 34q40 33 80 111l36 -15q-40 -126 -62 -172h-524l-8 20q217 276 456 587h-116q-69 0 -95.5 -8t-43.5 -25q-30 -31 -54 -95l-37 4q18 69 42 191h26q8 -16 17 -20.5t31 -4.5h400z
M535 832l18 -27q-68 -49 -148 -116h-33q-74 82 -111 116l21 27q75 -31 118 -55q63 29 135 55z" />
    <glyph glyph-name="zcaron" unicode="&#x17e;" horiz-adv-x="414" 
d="M437 467l22 -23q-69 -79 -74 -85q-61 -64 -245 -237q36 2 81 -16q48 -17 77 -17q42 0 101 81l27 -21q-43 -95 -80.5 -133t-75.5 -38q-12 0 -30 5.5t-29 10t-36.5 16.5t-31.5 15q-32 15 -49.5 15.5t-28.5 -9.5q-13 -10 -29 -34q-7 -10 -14 -9q-11 2 -15.5 15t7.5 40.5
t45 60.5q28 28 124.5 116.5t141.5 132.5q-34 -8 -69 -5q-60 5 -73 5q-38 0 -59.5 -16.5t-46.5 -56.5l-30 19q27 59 50 94q41 60 81 60q28 0 89 -11q69 -13 100 -13q29 0 70 38zM390 680l26 -26q-87 -98 -134 -162h-34q-18 49 -74 165l30 23q19 -18 77 -86q68 58 109 86z" />
    <glyph glyph-name="longs" unicode="&#x17f;" horiz-adv-x="255" 
d="M365 703q32 0 52 -17.5t19 -38.5q-1 -18 -12.5 -34t-23.5 -23q-14 -9 -27 2q-47 49 -75 49q-12 0 -20.5 -12.5t-22.5 -70.5t-31 -169q-33 -210 -50 -291q-27 -119 -63.5 -181.5t-93.5 -109.5q-62 -51 -108 -51q-26 0 -46.5 13t-19.5 32q0 34 36 59q12 9 21 2
q15 -14 37 -24t37 -10q23 0 31 21q20 42 45 211q27 174 41 260q34 202 120 296q31 35 74 61t80 26z" />
    <glyph glyph-name="florin" unicode="&#x192;" horiz-adv-x="495" 
d="M184 378l9 34q15 60 41.5 101t73.5 78q77 61 145 61q23 0 45.5 -15t22.5 -37q0 -29 -30 -49q-16 -11 -29 2q-42 44 -68 44q-18 0 -29 -23q-16 -41 -46 -196h113l-13 -44h-109l-32 -147q-16 -75 -37.5 -128.5t-48 -85.5t-44.5 -47t-48 -33q-52 -31 -90 -31q-24 0 -45 15
t-21 34q0 28 35 52q11 9 21 -1q47 -42 67 -42q15 0 24 25q16 43 34 143l48 246h-90l14 44h87z" />
    <glyph glyph-name="Ohorn" unicode="&#x1a0;" horiz-adv-x="723" 
d="M340 -15q-125 0 -201 76.5t-76 205.5q0 106 47 196.5t133 146t193 55.5q34 0 77 -9q56 -14 100 -14q34 0 54 11t20 23q0 18 -29 23q-23 3 -23 25q0 23 19 39t43 16q25 0 40 -14.5t15 -40.5q0 -50 -35 -81.5t-101 -38.5q43 -37 69.5 -95.5t26.5 -130.5q0 -167 -104.5 -280
t-267.5 -113zM346 27q63 0 115 59t78.5 144.5t26.5 173.5q0 101 -33 159.5t-103 58.5q-58 0 -109.5 -55t-81 -142.5t-29.5 -182.5q0 -99 33 -157t103 -58z" />
    <glyph glyph-name="ohorn" unicode="&#x1a1;" horiz-adv-x="492" 
d="M230 33q10 0 25 5q31 12 57.5 87t26.5 175q0 55 -16 82.5t-42 27.5q-14 0 -25 -5q-27 -12 -56.5 -82.5t-29.5 -178.5q0 -54 17.5 -82.5t42.5 -28.5zM190 -12q-81 0 -115.5 48t-34.5 117q0 92 43.5 161.5t105.5 102.5q69 37 131 37q31 0 55 -7q19 -7 44 -7q26 0 43 9.5
t17 22.5q0 9 -5.5 13.5t-22.5 7.5q-24 3 -24 27q0 23 17 37t40 14q24 0 38 -16t14 -43q0 -81 -101 -107q33 -41 33 -111q0 -69 -26.5 -133t-79.5 -108q-34 -29 -80 -47t-92 -18z" />
    <glyph glyph-name="Uhorn" unicode="&#x1af;" horiz-adv-x="707" 
d="M528 615l9 34h109q125 0 125 32q0 16 -29 21q-23 3 -23 25q0 23 19.5 39t43.5 16q52 0 52 -55q0 -40 -19.5 -65t-59.5 -41q-33 -13 -45 -25t-24 -45q-18 -55 -38 -160l-19 -98q-32 -163 -111 -239q-72 -69 -181 -69q-107 0 -167 55q-79 70 -46 241l45 235q12 61 0.5 78
t-68.5 21l8 34h292l-9 -34q-50 -5 -65 -20.5t-27 -78.5l-45 -240q-22 -114 11.5 -168.5t107.5 -54.5q160 0 207 253l15 85q20 105 23 162q2 33 -19 46.5t-72 15.5z" />
    <glyph glyph-name="uhorn" unicode="&#x1b0;" horiz-adv-x="545" 
d="M508 129l17 -30q-103 -111 -173 -111q-51 0 -28 102q6 24 14 62h-2q-77 -101 -151 -144q-34 -20 -69 -20q-73 0 -40 145q24 103 43 183q8 37 1 45q-8 0 -61 -40l-13 30q48 46 96 74.5t77 28.5q45 0 21 -103q-28 -130 -48 -209q-14 -63 8 -63q30 0 79 55.5t71 95.5
q26 115 44 201l41 6q118 18 118 49q0 9 -6 13.5t-22 7.5q-24 5 -24 27q0 23 16.5 37.5t39.5 14.5q24 0 38 -16.5t14 -43.5q0 -75 -102 -111q-37 -154 -63 -285q-8 -45 1 -45q7 0 27 13.5t36 30.5z" />
    <glyph glyph-name="Aringacute" unicode="&#x1fa;" horiz-adv-x="672" 
d="M630 34l-9 -34h-272l10 34q45 5 54.5 17.5t4.5 50.5l-16 112h-190q-19 -37 -55 -113q-18 -33 -8.5 -46.5t65.5 -20.5l-9 -34h-225l9 34q46 8 66.5 25.5t61.5 87.5l288 503l53 13l17 -114q10 -61 33.5 -198t34.5 -210q10 -67 23.5 -84t63.5 -23zM395 264l-32 225h-3
q-10 -19 -54.5 -99t-67.5 -126h157zM537 774q-1 -42 -32 -68t-71 -26q-39 0 -63.5 24t-23.5 63q1 43 31.5 69t71.5 26q37 0 62.5 -24.5t24.5 -63.5zM485 774q1 20 -9.5 34.5t-28.5 14.5q-21 0 -34.5 -15.5t-14.5 -39.5q0 -21 10.5 -34t29.5 -13t32.5 15t14.5 38zM616 954
l-5 -12l-210 -57l-16 30q73 49 177 117q15 -3 33 -30t21 -48z" />
    <glyph glyph-name="aringacute" unicode="&#x1fb;" horiz-adv-x="519" 
d="M490 133l17 -26q-47 -57 -97.5 -88t-79.5 -31q-50 0 -29 105l11 53h-2q-43 -59 -99 -107q-61 -51 -107 -51q-31 0 -50.5 32.5t-19.5 89.5q0 71 30 140.5t80 114.5q40 35 99 62t116 27q24 0 64 -7q32 -7 58 -7l6 -4q-40 -165 -66 -312q-7 -39 3 -39q7 0 28.5 15.5
t37.5 32.5zM185 78q24 0 74 57.5t66 90.5q28 118 36 164q-25 14 -58 14q-24 0 -44 -13q-44 -32 -69.5 -108.5t-25.5 -148.5q0 -56 21 -56zM360 673q38 0 64.5 -25t25.5 -66q-1 -42 -33 -68.5t-74 -26.5q-39 0 -64.5 24.5t-24.5 64.5q1 43 33 70t73 27zM358 632
q-20 0 -34.5 -16t-15.5 -39q-1 -22 10 -35.5t30 -13.5q20 0 34 16t16 39q1 21 -10 35t-30 14zM537 866l-173 -171l-30 21q30 55 86 167q14 4 55 5t58 -2z" />
    <glyph glyph-name="AEacute" unicode="&#x1fc;" horiz-adv-x="859" 
d="M848 493l-36 -3q-7 67 -23 90q-10 16 -29.5 21.5t-63.5 5.5h-46q-25 0 -32.5 -7t-12.5 -31l-43 -231h69q63 0 80.5 12t39.5 66h36l-39 -207h-37q1 58 -11.5 69.5t-76.5 11.5h-71l-27 -150q-10 -58 6 -78t85 -20q81 0 116 32q25 23 67 99l34 -14q-38 -118 -58 -159h-486
l6 35q53 5 70.5 19.5t28.5 71.5l31 164h-171q-103 -159 -117 -185q-19 -35 -15 -48t37 -17l28 -5l-8 -35h-238l8 35q49 5 68.5 17.5t53.5 58.5q116 162 307 444q22 33 17.5 41.5t-44.5 13.5l-54 6l11 33h557q-1 -8 -4 -38.5t-6.5 -63t-6.5 -54.5zM285 338h149l53 266
q-15 0 -36 -16q-114 -169 -166 -250zM765 752l-5 -12l-210 -58l-17 31q30 19 89.5 58.5t88.5 58.5q15 -3 33 -30t21 -48z" />
    <glyph glyph-name="aeacute" unicode="&#x1fd;" horiz-adv-x="687" 
d="M646 141l19 -30q-112 -123 -239 -123q-48 0 -83 31t-36 101q0 12 1 24h-2q-42 -58 -91 -100q-66 -56 -115 -56q-30 0 -49.5 29t-19.5 87q0 75 30.5 147t78.5 115q36 34 95 61t109 27q22 0 59 -10q26 2 44 6l5 -5l-13 -51l2 -1q69 61 151 61q47 0 72.5 -24t25.5 -61
q0 -30 -18.5 -56.5t-43.5 -44t-64.5 -34.5t-68.5 -26t-68 -20v-8.5v-9v-7.5q0 -96 76 -96q69 0 143 74zM301 407q-27 0 -45 -14q-34 -23 -62 -97q-33 -88 -33 -170q0 -48 21 -48q25 0 63 43q49 56 73 113q8 16 21.5 75.5t15.5 79.5q-25 18 -54 18zM542 405q-20 0 -40 -17
q-55 -44 -71 -160q79 25 113 57t34 75q0 21 -10 33t-26 12zM593 660l-173 -171l-30 21q25 45 86 167q14 4 55 5t58 -2z" />
    <glyph glyph-name="Oslashacute" unicode="&#x1fe;" horiz-adv-x="721" 
d="M645 696l35 -27l-56 -73q88 -81 88 -219q0 -167 -104.5 -279.5t-266.5 -112.5q-93 0 -159 43l-57 -74l-32 30l54 70q-40 36 -62.5 94t-21.5 123q0 104 47 194t134 145t193 55q87 0 152 -43zM221 143l314 411q-30 69 -106 69q-61 0 -113 -54t-81 -139.5t-29 -177.5
q0 -66 15 -109zM555 509l-313 -410q28 -72 107 -72q63 0 114.5 56.5t78.5 140.5t27 173q0 67 -14 112zM602 760l-5 -11l-210 -58l-16 31q149 99 178 117q14 -4 32 -31t21 -48z" />
    <glyph glyph-name="oslashacute" unicode="&#x1ff;" horiz-adv-x="493" 
d="M434 485l26 -21l-36 -48q45 -42 45 -131q0 -65 -27 -126.5t-76 -103.5q-32 -28 -80 -47.5t-93 -19.5q-51 0 -81 19l-40 -51l-24 23l36 47q-44 45 -44 131q0 89 42 157t103 102q68 38 135 38q43 0 76 -18zM164 129l173 231q-15 50 -51 50q-14 0 -28 -6
q-32 -14 -64.5 -75.5t-32.5 -163.5q0 -26 3 -36zM348 315l-174 -230q18 -51 54 -51q14 0 25 4q32 13 64 84t31 169v24zM452 660l-173 -171l-31 21q48 86 86 167q14 4 55 5t58 -2z" />
    <glyph glyph-name="uni0218" unicode="&#x218;" horiz-adv-x="489" 
d="M36 206l33 4q5 -28 15.5 -57t29 -59t48.5 -49t67 -19q51 0 79.5 32t28.5 78q0 66 -79 128l-30 22q-56 44 -87.5 87.5t-31.5 100.5q0 87 62 139t156 52q58 0 113 -20q6 -2 41 -16q-4 -33 -6 -153l-35 -3q-22 152 -121 152q-45 0 -70.5 -31.5t-25.5 -71.5q0 -35 19.5 -62
t61.5 -57l30 -21q61 -44 93.5 -88.5t32.5 -106.5q0 -92 -69 -147t-173 -55q-57 0 -107 19t-75 43q2 36 0 159zM219 -51q30 0 52.5 -22t22.5 -58q0 -48 -40 -82.5t-104 -49.5l-10 31q39 17 58 32.5t19 37.5q0 31 -41 43q-12 3 -12 23q0 18 15 31.5t40 13.5z" />
    <glyph glyph-name="uni0219" unicode="&#x219;" horiz-adv-x="354" 
d="M121 -12q-44 0 -80 23.5t-37 57.5q-1 16 9 32.5t24 24.5q24 13 36 -2q61 -74 115 -74q19 0 31.5 10t12.5 26t-13.5 32t-49.5 43q-61 43 -79 67q-22 30 -22 64q0 62 63 111q65 51 123 51q40 0 66 -19.5t26 -46.5q2 -31 -34 -55q-19 -11 -29 2q-42 58 -90 58
q-18 0 -28.5 -10t-9.5 -25q0 -32 70 -78q48 -32 72.5 -61t24.5 -67q0 -65 -66.5 -114.5t-134.5 -49.5zM131 -42q30 0 52 -22t22 -58q0 -48 -40 -82.5t-104 -49.5l-10 31q39 17 58 32.5t19 36.5q0 33 -41 43q-12 3 -12 23q0 19 15.5 32.5t40.5 13.5z" />
    <glyph glyph-name="uni021A" unicode="&#x21a;" horiz-adv-x="623" 
d="M648 674h28q-6 -29 -27 -187l-37 -2q0 72 -15 97q-19 25 -91 25h-50l-91 -479q-11 -58 1.5 -74t80.5 -20l-8 -34h-320l8 34q61 4 78 20.5t28 73.5l93 479h-42q-52 0 -74 -7t-38 -24q-20 -22 -52 -91h-36q33 108 50 189h26q7 -16 16 -20.5t30 -4.5h392q18 0 26 4.5
t24 20.5zM273 -41q30 0 52 -22t22 -58q0 -48 -40 -83t-104 -49l-10 31q39 17 58 32.5t19 36.5q0 33 -41 43q-12 3 -12 23q0 19 15.5 32.5t40.5 13.5z" />
    <glyph glyph-name="uni021B" unicode="&#x21b;" horiz-adv-x="320" 
d="M364 438l-28 -44l-93 -4l-52 -253q-12 -59 5 -59q10 0 36.5 17t45.5 35l16 -26q-31 -42 -88 -79t-97 -37q-67 0 -36 142l56 260h-72l-5 10l28 38h59l22 92l116 73l13 -10l-35 -155h109zM129 -38q30 0 52 -22t22 -58q0 -48 -39.5 -82.5t-103.5 -49.5l-10 31
q38 17 57.5 32.5t19.5 36.5q0 33 -41 43q-13 4 -13 23t15.5 32.5t40.5 13.5z" />
    <glyph glyph-name="uni021C" unicode="&#x21c;" horiz-adv-x="526" 
d="M136 257l-10 37q114 38 179 95t65 131q0 45 -24 72.5t-63 27.5q-45 0 -81 -38t-70 -115l-34 11q14 41 38 147q15 3 53.5 14.5t71 18t65.5 6.5q85 0 133 -35t48 -92q0 -107 -172 -187v-3q71 -14 116.5 -58.5t45.5 -110.5q0 -118 -124.5 -201t-321.5 -103l-62 53l15 25
q65 -20 116 -20q101 0 167.5 60t66.5 150q0 61 -37 97t-90 36q-39 0 -91 -18z" />
    <glyph glyph-name="uni021D" unicode="&#x21d;" horiz-adv-x="394" 
d="M57 106l-6 32q176 68 176 169q0 31 -15.5 48.5t-44.5 17.5q-41 0 -109 -52l-17 26q102 107 197 107q53 0 85.5 -29.5t32.5 -75.5q0 -81 -124 -151v-3q53 -11 84.5 -45t31.5 -83q0 -103 -107.5 -188.5t-253.5 -102.5l-49 42l13 23q38 -10 68 -10q83 0 140 50t57 137
q0 48 -23.5 75t-62.5 27q-31 0 -73 -14z" />
    <glyph glyph-name="uni0232" unicode="&#x232;" horiz-adv-x="634" 
d="M709 649l-10 -34q-47 -5 -68 -19t-63 -65q-41 -53 -146 -209q-20 -29 -27 -61l-26 -127q-13 -61 0.5 -78t78.5 -22l-9 -34h-316l9 34q59 5 76.5 21t30.5 79l25 116q7 35 -4 69q-9 25 -31.5 93.5t-39.5 117.5q-19 53 -34 66.5t-60 18.5l10 34h262l-8 -34l-27 -6
q-21 -4 -25 -14t4 -35q25 -85 73 -219q100 150 137 215q16 27 11 38t-36 17l-22 3l11 35h224zM570 782l-17 -68h-237l19 68h235z" />
    <glyph glyph-name="uni0233" unicode="&#x233;" horiz-adv-x="469" 
d="M276 96h2q33 51 52 82.5t36.5 76t17.5 77.5q0 15 -14 54q-7 18 4 35q18 33 53 33q21 0 36.5 -17.5t16.5 -49.5q2 -48 -39 -112q-44 -74 -161 -242q-119 -167 -188 -246l-132 -31l-9 27q82 53 132 94.5t90 93.5q1 60 -10.5 165.5t-25.5 173.5q-9 45 -21 45q-14 0 -54 -51
l-21 27q33 54 72.5 88.5t71.5 34.5q28 0 44.5 -31t25.5 -104q13 -100 21 -223zM420 604l-17 -70h-237l17 70h237z" />
    <glyph glyph-name="uni0237" unicode="&#x237;" horiz-adv-x="288" 
d="M58 320l-14 27q46 44 100 75.5t85 31.5q23 0 27 -28t-8 -89q-12 -72 -58 -293q-33 -160 -141 -237q-75 -54 -113 -54q-19 0 -34.5 11t-15.5 29q0 15 11 32.5t24 27.5q10 9 20 0q40 -30 64 -30q12 0 20 12.5t17 52.5q28 123 82 423q9 46 -1 46q-8 0 -30 -13t-35 -24z" />
    <glyph glyph-name="circumflex" unicode="&#x2c6;" 
d="M381 512l-30 -24q-16 15 -77 86q-64 -54 -110 -86l-26 27q97 109 135 162h34q17 -46 74 -165z" />
    <glyph glyph-name="caron" unicode="&#x2c7;" 
d="M381 680l26 -26q-87 -98 -134 -162h-34q-18 49 -74 165l30 23q19 -18 77 -86q68 58 109 86z" />
    <glyph glyph-name="uni02C9" unicode="&#x2c9;" 
d="M386 604l-17 -70h-237l17 70h237z" />
    <glyph glyph-name="breve" unicode="&#x2d8;" 
d="M353 645h37q-23 -144 -140 -144q-52 0 -79.5 33.5t-14.5 110.5h37q0 -67 68 -67q67 0 92 67z" />
    <glyph glyph-name="dotaccent" unicode="&#x2d9;" 
d="M285 650q28 0 43 -17.5t15 -42.5q0 -31 -20.5 -54t-52.5 -23q-27 0 -43 16t-16 45q0 27 20.5 51.5t53.5 24.5z" />
    <glyph glyph-name="ring" unicode="&#x2da;" 
d="M283 673q38 0 64.5 -25t25.5 -66q-1 -42 -33 -68.5t-74 -26.5q-39 0 -64.5 24.5t-24.5 64.5q1 43 33 70t73 27zM281 632q-20 0 -35 -16t-16 -39q0 -22 11 -35.5t29 -13.5q21 0 35 16t15 39q1 21 -10 35t-29 14z" />
    <glyph glyph-name="ogonek" unicode="&#x2db;" 
d="M271 -151l7 -33l-56 -28q-20 -10 -42 -10q-33 0 -54.5 19.5t-21.5 50.5q0 74 136 156h47q-94 -79 -94 -128q0 -34 40 -34q18 0 38 7z" />
    <glyph glyph-name="tilde" unicode="&#x2dc;" 
d="M372 632l34 -15q-33 -104 -91 -104q-15 0 -68 22q-28 14 -49 14q-25 0 -48 -45l-31 22q16 47 40 72.5t50 25.5q22 0 63 -20q42 -18 54 -18q24 0 46 46z" />
    <glyph glyph-name="hungarumlaut" unicode="&#x2dd;" 
d="M270 661l-134 -172l-30 17q49 127 61 166q12 4 47.5 4.5t50.5 -1.5zM429 661l-133 -172l-30 17q12 31 60 166q13 4 48.5 4.5t49.5 -1.5z" />
    <glyph glyph-name="uni0374" unicode="&#x374;" horiz-adv-x="263" 
d="M153 380l-29 14q38 121 74 262q13 4 53.5 -3t47.5 -15l1 -24q-47 -78 -147 -234z" />
    <glyph glyph-name="uni0375" unicode="&#x375;" horiz-adv-x="263" 
d="M29 -129l-31 15q41 133 75 269q13 5 53.5 -2.5t48.5 -15.5l1 -21q-12 -20 -64.5 -108.5t-82.5 -136.5z" />
    <glyph glyph-name="uni037E" unicode="&#x37e;" horiz-adv-x="263" 
d="M152 251q-32 0 -52.5 22.5t-20.5 55.5q0 40 24.5 66t61.5 26q32 0 53 -23t21 -58q0 -40 -26 -64.5t-61 -24.5zM24 -128l-26 15q52 176 73 268q13 4 53.5 -3.5t48.5 -14.5l1 -26q-88 -145 -150 -239z" />
    <glyph glyph-name="tonos" unicode="&#x384;" 
d="M347 654l-115 -171l-35 14q22 85 40 179q15 3 56.5 0.5t50.5 -6.5z" />
    <glyph glyph-name="dieresistonos" unicode="&#x385;" 
d="M395 505q-23 0 -37 14t-14 39q0 24 17.5 45t47.5 21q24 0 36.5 -15t12.5 -37q0 -28 -17.5 -47.5t-45.5 -19.5zM355 660l-104 -177l-31 9q5 32 12.5 95.5t10.5 82.5q17 3 54.5 4t53.5 -2zM136 505q-24 0 -38 14.5t-14 38.5t18 45t48 21q24 0 36.5 -15t12.5 -37
q0 -28 -18 -47.5t-45 -19.5z" />
    <glyph glyph-name="Alphatonos" unicode="&#x386;" horiz-adv-x="672" 
d="M630 34l-9 -34h-272l10 34q45 5 54.5 17.5t4.5 50.5l-16 112h-190q-19 -37 -55 -113q-18 -33 -8.5 -46.5t65.5 -20.5l-9 -34h-225l9 34q46 8 66.5 25.5t61.5 87.5l288 503l53 13l17 -114q10 -61 33.5 -198t34.5 -210q10 -67 23.5 -84t63.5 -23zM395 264l-32 225h-3
q-10 -19 -54.5 -99t-67.5 -126h157zM298 684l-115 -171l-36 14q26 98 41 179q15 3 56 0.5t50 -6.5z" />
    <glyph glyph-name="anoteleia" unicode="&#x387;" horiz-adv-x="263" 
d="M142 192q-33 0 -54 22.5t-21 56.5q0 41 25 67.5t63 26.5q33 0 54 -23t21 -59q0 -41 -26 -66t-62 -25z" />
    <glyph glyph-name="Epsilontonos" unicode="&#x388;" horiz-adv-x="570" 
d="M123 649h457q0 -1 -6.5 -64t-10.5 -93l-36 -3q-5 73 -21 93q-15 25 -87 25h-49q-28 0 -36.5 -7t-13.5 -35l-39 -201h67q45 0 63.5 5.5t27 17.5t25.5 51h37l-41 -206h-36q1 59 -10 71t-73 12h-69l-32 -169q-12 -65 2 -83q14 -21 84 -21q83 0 117 33q38 34 72 96l34 -13
q-30 -91 -61 -158h-487l7 34q57 4 72 18.5t26 74.5l77 395q11 58 -0.5 73.5t-68.5 19.5zM82 684l-115 -171l-36 14q26 98 41 179q15 3 56 0.5t50 -6.5z" />
    <glyph glyph-name="Etatonos" unicode="&#x389;" horiz-adv-x="763" 
d="M813 649l-7 -34q-56 -4 -70.5 -19t-26.5 -74l-76 -394q-12 -58 -0.5 -74t71.5 -20l-8 -34h-302l8 34q58 4 73.5 19.5t26.5 74.5l36 191h-265l-36 -191q-11 -58 1 -74t70 -20l-8 -34h-297l8 34q54 4 69 19t27 75l77 394q11 58 -2 73t-74 20l8 34h298l-9 -34
q-52 -4 -66.5 -19t-25.5 -74l-29 -152h264l30 152q11 58 0 73.5t-68 19.5l8 34h295zM85 684l-115 -171l-35 14q27 111 40 179q15 3 56 0.5t50 -6.5z" />
    <glyph glyph-name="Iotatonos" unicode="&#x38a;" horiz-adv-x="366" 
d="M416 649l-8 -34q-54 -4 -68.5 -19t-26.5 -76l-75 -391q-12 -59 -0.5 -75t70.5 -20l-7 -34h-296l7 34q53 4 68 19.5t27 75.5l77 391q11 60 0 75.5t-72 19.5l8 34h296zM88 684l-115 -171l-36 14q26 98 41 179q15 3 56 0.5t50 -6.5z" />
    <glyph glyph-name="Omicrontonos" unicode="&#x38c;" horiz-adv-x="723" 
d="M436 665q125 0 200.5 -79.5t75.5 -207.5q0 -167 -104.5 -280t-267.5 -113q-125 0 -201 76.5t-76 205.5q0 106 47 196.5t133 146t193 55.5zM430 622q-58 0 -109.5 -55t-81 -142.5t-29.5 -182.5q0 -99 33 -157t103 -58q63 0 115 59t78.5 144.5t26.5 173.5q0 101 -33 159.5
t-103 58.5zM159 674l-115 -171l-36 14q26 98 41 179q15 3 56 0.5t50 -6.5z" />
    <glyph glyph-name="Upsilontonos" unicode="&#x38e;" horiz-adv-x="684" 
d="M760 625l-10 -31q-9 1 -27 1q-80 0 -161 -96q-113 -135 -150 -321l-7 -40q-13 -67 -1.5 -83t75.5 -21l-7 -34h-312l7 34q59 5 77 22t31 82l8 41q32 160 12 262q-30 144 -140 144q-31 0 -59 -6l-5 31q82 55 156 55q87 0 129 -79q48 -92 23 -282h5q51 180 154 286
q74 75 138 75q39 0 64 -40zM86 684l-115 -171l-36 14q26 98 41 179q15 3 56 0.5t50 -6.5z" />
    <glyph glyph-name="Omegatonos" unicode="&#x38f;" horiz-adv-x="746" 
d="M680 154h32l-46 -154h-269l-8 20q73 80 106 127q96 140 97 271q0 100 -36 153t-104 53q-67 0 -117.5 -52.5t-74 -127t-23.5 -155.5t18 -159t34 -110l-12 -20h-244l2 154h30q10 -36 23 -45.5t49 -9.5h80q-32 35 -52 61t-41.5 78t-21.5 106q0 135 102 228t251 93
q123 0 197 -72t75 -192q0 -42 -13 -81.5t-29.5 -66t-45 -55t-45.5 -42t-47 -34t-34 -23.5h89q26 0 40 9.5t38 45.5zM148 674l-115 -171l-36 14q26 98 41 179q15 3 56 0.5t50 -6.5z" />
    <glyph glyph-name="iotadieresistonos" unicode="&#x390;" horiz-adv-x="277" 
d="M239 124l17 -26q-48 -53 -97.5 -81.5t-77.5 -28.5q-59 0 -32 112q10 43 21.5 96.5t26 122t23.5 108.5l119 27l4 -8q-42 -171 -72 -323q-8 -41 2 -41q18 0 66 42zM330 505q-23 0 -37 14.5t-14 39.5q0 24 17.5 44.5t47.5 20.5q24 0 36.5 -15t12.5 -37q0 -27 -18 -47
t-45 -20zM290 660l-100 -177l-36 10q6 35 13.5 100t9.5 77q16 4 55.5 4.5t53.5 -1.5zM71 505q-24 0 -38 14.5t-14 39.5q0 24 17.5 44.5t47.5 20.5q24 0 37 -15t13 -37q0 -27 -18 -47t-45 -20z" />
    <glyph glyph-name="Alpha" unicode="&#x391;" horiz-adv-x="672" 
d="M630 34l-9 -34h-272l10 34q45 5 54.5 17.5t4.5 50.5l-16 112h-190q-19 -37 -55 -113q-18 -33 -8.5 -46.5t65.5 -20.5l-9 -34h-225l9 34q46 8 66.5 25.5t61.5 87.5l288 503l53 13l17 -114q10 -61 33.5 -198t34.5 -210q10 -67 23.5 -84t63.5 -23zM395 264l-32 225h-3
q-10 -19 -54.5 -99t-67.5 -126h157z" />
    <glyph glyph-name="Beta" unicode="&#x392;" horiz-adv-x="622" 
d="M124 649h261q212 0 212 -139q0 -125 -172 -153v-2q70 -13 112.5 -51t42.5 -102q0 -107 -114 -165q-75 -37 -225 -37h-239l8 34q54 4 70 20t27 75l76 388q12 61 0 77t-68 21zM280 369h26q76 0 115.5 37.5t39.5 99.5q0 51 -26 76.5t-66 25.5q-29 0 -39 -10t-17 -48z
M272 328l-38 -197q-10 -52 6 -71t50 -19q58 0 102.5 44.5t44.5 119.5q0 63 -40 93t-99 30h-26z" />
    <glyph glyph-name="Gamma" unicode="&#x393;" horiz-adv-x="543" 
d="M128 649h457q-1 -7 -4 -39.5t-7 -66.5t-7 -58l-36 -2q-6 70 -24 97q-18 25 -82 25h-53q-26 0 -34 -7t-13 -33l-85 -437q-11 -58 2.5 -73.5t79.5 -20.5l-8 -34h-304l8 34q51 4 66 19.5t26 74.5l78 393q12 60 0.5 75t-69.5 20z" />
    <glyph glyph-name="uni0394" unicode="&#x394;" horiz-adv-x="651" 
d="M573 28l-6 -28h-555l8 28l378 627l39 10zM434 55l-82 446l-250 -446h332z" />
    <glyph glyph-name="Epsilon" unicode="&#x395;" horiz-adv-x="570" 
d="M123 649h457q0 -1 -6.5 -64t-10.5 -93l-36 -3q-5 73 -21 93q-15 25 -87 25h-49q-28 0 -36.5 -7t-13.5 -35l-39 -201h67q45 0 63.5 5.5t27 17.5t25.5 51h37l-41 -206h-36q1 59 -10 71t-73 12h-69l-32 -169q-12 -65 2 -83q14 -21 84 -21q83 0 117 33q38 34 72 96l34 -13
q-30 -91 -61 -158h-487l7 34q57 4 72 18.5t26 74.5l77 395q11 58 -0.5 73.5t-68.5 19.5z" />
    <glyph glyph-name="Zeta" unicode="&#x396;" horiz-adv-x="607" 
d="M627 649l9 -16q-52 -68 -142.5 -184.5t-166 -214.5t-142.5 -186q36 -6 125 -6q129 0 169 34q40 33 80 111l36 -15q-40 -126 -62 -172h-524l-8 20q217 276 456 587h-116q-69 0 -95.5 -8t-43.5 -25q-30 -31 -54 -95l-37 4q18 69 42 191h26q8 -16 17 -20.5t31 -4.5h400z" />
    <glyph glyph-name="Eta" unicode="&#x397;" horiz-adv-x="763" 
d="M813 649l-7 -34q-56 -4 -70.5 -19t-26.5 -74l-76 -394q-12 -58 -0.5 -74t71.5 -20l-8 -34h-302l8 34q58 4 73.5 19.5t26.5 74.5l36 191h-265l-36 -191q-11 -58 1 -74t70 -20l-8 -34h-297l8 34q54 4 69 19t27 75l77 394q11 58 -2 73t-74 20l8 34h298l-9 -34
q-52 -4 -66.5 -19t-25.5 -74l-29 -152h264l30 152q11 58 0 73.5t-68 19.5l8 34h295z" />
    <glyph glyph-name="Theta" unicode="&#x398;" horiz-adv-x="722" 
d="M436 665q125 0 201 -79.5t76 -207.5q0 -167 -105 -280t-268 -113q-124 0 -200 76.5t-76 205.5q0 163 106 280.5t266 117.5zM432 622q-60 0 -111.5 -55t-80.5 -142t-29 -182q0 -216 136 -216q62 0 114 58t79 144.5t27 176.5q0 100 -33 158t-102 58zM518 438l-38 -201h-32
q1 33 -6.5 42t-34.5 9h-53q-29 0 -39.5 -8.5t-24.5 -42.5h-30l40 201h31q1 -35 6 -43t31 -8h58q27 0 37.5 8.5t23.5 42.5h31z" />
    <glyph glyph-name="Iota" unicode="&#x399;" horiz-adv-x="366" 
d="M416 649l-8 -34q-54 -4 -68.5 -19t-26.5 -76l-75 -391q-12 -59 -0.5 -75t70.5 -20l-7 -34h-296l7 34q53 4 68 19.5t27 75.5l77 391q11 60 0 75.5t-72 19.5l8 34h296z" />
    <glyph glyph-name="Kappa" unicode="&#x39a;" horiz-adv-x="677" 
d="M749 649l-7 -31q-46 -6 -73.5 -17.5t-74.5 -50.5q-84 -67 -192 -166q86 -171 151 -273q28 -45 47 -58.5t58 -18.5l-9 -34h-188q-54 92 -153 289q-19 36 -40 26l-34 -186q-12 -59 -1 -75t69 -20l-8 -34h-286l8 34q51 4 65.5 19.5t25.5 74.5l76 393q11 58 -0.5 73.5
t-69.5 20.5l7 34h288l-7 -34q-53 -4 -67.5 -19t-25.5 -75l-33 -168q43 12 76 40q98 81 179 171q21 24 19 35t-32 14l-21 2l9 34h244z" />
    <glyph glyph-name="Lambda" unicode="&#x39b;" horiz-adv-x="671" 
d="M628 34l-8 -34h-274l9 34q47 5 57 16.5t4 50.5q-9 60 -57 383h-3q-8 -15 -81 -154.5t-116 -228.5q-18 -33 -8 -46.5t65 -20.5l-9 -34h-225l8 34q43 7 65.5 26t62.5 89l285 501l50 13q14 -84 43.5 -258t43.5 -263q12 -67 27 -84.5t61 -23.5z" />
    <glyph glyph-name="Mu" unicode="&#x39c;" horiz-adv-x="885" 
d="M909 649l-9 -34q-57 -5 -70 -17t-21 -66q-27 -179 -51 -392q-8 -69 2 -85t68 -21l-8 -34h-283l8 34q47 5 60 21.5t24 84.5q10 70 30.5 198t30.5 193h-4l-299 -524h-31q-16 98 -46.5 279t-40.5 241h-4l-70 -247q-33 -116 -43 -180q-5 -35 10 -48.5t61 -17.5l-8 -34h-230
l8 34q39 3 58.5 17t33.5 50q20 45 58 169l73 234q21 66 9.5 86t-76.5 25l11 34h201q13 -61 43.5 -203t46.5 -225l261 428h197z" />
    <glyph glyph-name="Nu" unicode="&#x39d;" horiz-adv-x="704" 
d="M773 649l-8 -34q-43 -1 -60 -15t-27 -47q-18 -55 -40 -172l-75 -391h-52l-285 509h-2l-45 -235q-19 -98 -23 -163q-2 -36 16 -50t71 -17l-8 -34h-241l9 34q38 2 56 15.5t29 47.5q20 61 42 167l43 202q18 84 -1 118q-8 16 -26.5 22t-52.5 9l8 34h183l266 -461h2l36 191
q20 114 24 169q2 37 -16.5 51t-71.5 16l8 34h241z" />
    <glyph glyph-name="Xi" unicode="&#x39e;" horiz-adv-x="606" 
d="M621 649l-25 -167h-32q-3 43 -14.5 58t-49.5 15h-245q-38 0 -53.5 -14.5t-37.5 -58.5h-33l40 167h450zM529 442l-43 -209h-32q-1 37 -10 46.5t-47 9.5h-145q-35 0 -47 -9.5t-29 -48.5h-33l44 211h32q-1 -36 7.5 -46t44.5 -10h146q38 0 51.5 10t29.5 46h31zM567 187
l-46 -187h-499l25 187h32q5 -30 8 -41.5t12 -25t25.5 -17.5t45.5 -4h240q23 0 40 4.5t26.5 7.5t22 19.5t16.5 22.5t20 34h32z" />
    <glyph glyph-name="Omicron" unicode="&#x39f;" horiz-adv-x="723" 
d="M436 665q125 0 200.5 -79.5t75.5 -207.5q0 -167 -104.5 -280t-267.5 -113q-125 0 -201 76.5t-76 205.5q0 106 47 196.5t133 146t193 55.5zM430 622q-58 0 -109.5 -55t-81 -142.5t-29.5 -182.5q0 -99 33 -157t103 -58q63 0 115 59t78.5 144.5t26.5 173.5q0 101 -33 159.5
t-103 58.5z" />
    <glyph glyph-name="Pi" unicode="&#x3a0;" horiz-adv-x="738" 
d="M781 649l-7 -34q-53 -4 -67.5 -20.5t-26.5 -81.5l-73 -377q-12 -63 0 -80t69 -22l-7 -34h-291l7 34q49 5 64 22t27 80l84 434q5 23 0.5 28.5t-25.5 5.5h-173q-21 0 -26.5 -6t-10.5 -31l-83 -431q-12 -64 -2.5 -80.5t61.5 -21.5l-6 -34h-285l8 34q51 5 66 22t28 80l73 377
q12 64 1 81t-71 21l6 34h660z" />
    <glyph glyph-name="Rho" unicode="&#x3a1;" horiz-adv-x="594" 
d="M126 649h249q235 0 235 -173q0 -95 -68.5 -153t-176.5 -67q-20 0 -30 1l-73 18l-28 -146q-12 -60 1 -74.5t80 -20.5l-8 -34h-303l8 34q54 4 68.5 19t26.5 76l75 386q12 64 1.5 79.5t-65.5 20.5zM315 547l-43 -234q26 -11 56 -11q64 0 105 56.5t41 130.5q0 59 -27.5 89.5
t-73.5 30.5q-24 0 -38 -9q-11 -6 -20 -53z" />
    <glyph glyph-name="Sigma" unicode="&#x3a3;" horiz-adv-x="595" 
d="M118 649h463q-1 -5 -19 -168l-33 -2q-5 36 -16 80q-6 27 -25.5 37t-66.5 10h-154l131 -248l-255 -258h255q50 0 70 16.5t63 81.5l33 -8l-72 -190h-498l6 25l279 280l-166 319z" />
    <glyph glyph-name="Tau" unicode="&#x3a4;" horiz-adv-x="623" 
d="M648 674h28q-6 -29 -27 -187l-37 -2q0 72 -15 97q-19 25 -91 25h-50l-91 -479q-11 -58 1.5 -74t80.5 -20l-8 -34h-320l8 34q61 4 78 20.5t28 73.5l93 479h-42q-52 0 -74 -7t-38 -24q-20 -22 -52 -91h-36q33 108 50 189h26q7 -16 16 -20.5t30 -4.5h392q18 0 26 4.5
t24 20.5z" />
    <glyph glyph-name="Upsilon" unicode="&#x3a5;" horiz-adv-x="684" 
d="M760 625l-10 -31q-9 1 -27 1q-80 0 -161 -96q-113 -135 -150 -321l-7 -40q-13 -67 -1.5 -83t75.5 -21l-7 -34h-312l7 34q59 5 77 22t31 82l8 41q32 160 12 262q-30 144 -140 144q-31 0 -59 -6l-5 31q82 55 156 55q87 0 129 -79q48 -92 23 -282h5q51 180 154 286
q74 75 138 75q39 0 64 -40z" />
    <glyph glyph-name="Phi" unicode="&#x3a6;" horiz-adv-x="763" 
d="M598 657l-6 -31q-43 -4 -56 -13.5t-18 -40.5q40 -6 76.5 -19t74.5 -37.5t60.5 -68.5t22.5 -102q0 -64 -28 -114t-75.5 -80t-104 -45.5t-119.5 -17.5q-7 -35 3 -43.5t57 -12.5l-6 -32h-265l6 32q47 4 59.5 13t19.5 48q-32 3 -62.5 11.5t-62.5 25.5t-55 40.5t-38 60
t-15 81.5q0 64 28 114.5t75.5 81.5t104.5 48t120 19q6 28 -4.5 37.5t-54.5 13.5l6 31h257zM307 128l80 413q-84 -8 -136.5 -75t-54.5 -164q0 -72 32.5 -117t78.5 -57zM511 536l-79 -414q84 6 136.5 73t52.5 174q0 78 -33 117t-77 50z" />
    <glyph glyph-name="Chi" unicode="&#x3a7;" horiz-adv-x="642" 
d="M685 649l-8 -34q-48 -5 -68.5 -15.5t-52.5 -43.5q-44 -45 -157 -181l107 -249q24 -57 42 -71.5t71 -20.5l-8 -34h-293l8 34l23 4q28 4 33.5 14t-3.5 35q-18 54 -73 184q-89 -115 -130 -178q-18 -27 -14.5 -37.5t32.5 -17.5l19 -4l-9 -34h-232l9 34q42 4 65 15t49 38
q56 56 192 226l-95 228q-18 44 -35 56.5t-65 17.5l9 34h267l-8 -34l-24 -5q-18 -4 -22.5 -11t0.5 -20q20 -56 67 -162q67 82 113 150q13 22 8.5 31t-28.5 13l-24 4l8 34h227z" />
    <glyph glyph-name="Psi" unicode="&#x3a8;" horiz-adv-x="761" 
d="M826 658l4 -32q-26 -10 -39 -32t-30 -71l-22 -65q-20 -57 -45 -88.5t-63 -57.5q-63 -42 -164 -48l-25 -128q-11 -62 -1 -79.5t62 -23.5l-6 -33h-291l7 33q53 6 69.5 23.5t29.5 79.5l25 128q-97 6 -143 48q-28 25 -40 58t-10 90l1 58q1 22 0.5 39.5t-4 30.5t-13 22.5
t-25.5 15.5l14 32q113 -6 141 -50q19 -30 14 -105l-2 -52q-4 -79 11 -109.5t64 -37.5l41 217q10 57 1 73t-54 22l6 33h270l-6 -33q-47 -6 -62 -22t-25 -73l-41 -217q55 6 81 37t55 115l24 67q21 60 50 86q48 43 141 49z" />
    <glyph glyph-name="uni03A9" unicode="&#x3a9;" horiz-adv-x="746" 
d="M680 154h32l-46 -154h-269l-8 20q73 80 106 127q96 140 97 271q0 100 -36 153t-104 53q-67 0 -117.5 -52.5t-74 -127t-23.5 -155.5t18 -159t34 -110l-12 -20h-244l2 154h30q10 -36 23 -45.5t49 -9.5h80q-32 35 -52 61t-41.5 78t-21.5 106q0 135 102 228t251 93
q123 0 197 -72t75 -192q0 -42 -13 -81.5t-29.5 -66t-45 -55t-45.5 -42t-47 -34t-34 -23.5h89q26 0 40 9.5t38 45.5z" />
    <glyph glyph-name="Iotadieresis" unicode="&#x3aa;" horiz-adv-x="366" 
d="M416 649l-8 -34q-54 -4 -68.5 -19t-26.5 -76l-75 -391q-12 -59 -0.5 -75t70.5 -20l-7 -34h-296l7 34q53 4 68 19.5t27 75.5l77 391q11 60 0 75.5t-72 19.5l8 34h296zM198 822q26 0 40.5 -16.5t14.5 -40.5q0 -30 -19.5 -51.5t-50.5 -21.5q-25 0 -40 15t-16 42
q0 27 19.5 50t51.5 23zM408 822q26 0 40.5 -16.5t14.5 -40.5q0 -30 -19.5 -51.5t-49.5 -21.5q-25 0 -40.5 15t-15.5 42t19.5 50t50.5 23z" />
    <glyph glyph-name="Upsilondieresis" unicode="&#x3ab;" horiz-adv-x="684" 
d="M760 625l-10 -31q-9 1 -27 1q-80 0 -161 -96q-113 -135 -150 -321l-7 -40q-13 -67 -1.5 -83t75.5 -21l-7 -34h-312l7 34q59 5 77 22t31 82l8 41q32 160 12 262q-30 144 -140 144q-31 0 -59 -6l-5 31q82 55 156 55q87 0 129 -79q48 -92 23 -282h5q51 180 154 286
q74 75 138 75q39 0 64 -40zM372 820q26 0 40.5 -16t14.5 -40q0 -30 -20 -52t-50 -22q-25 0 -40 15.5t-16 42.5q0 26 19.5 49t51.5 23zM582 820q26 0 40.5 -16t14.5 -40q0 -30 -19.5 -52t-49.5 -22q-25 0 -40.5 15.5t-15.5 42.5q0 26 19.5 49t50.5 23z" />
    <glyph glyph-name="alphatonos" unicode="&#x3ac;" horiz-adv-x="542" 
d="M509 134l25 -24q-63 -122 -144 -122q-30 0 -47.5 29t-23.5 103h-3q-87 -132 -175 -132q-45 0 -74.5 44.5t-29.5 121.5q0 117 78 208.5t171 91.5q49 0 76.5 -32t40.5 -107h2q33 52 62 124l68 15l10 -13q-33 -57 -129 -191q13 -98 21 -130t21 -32q16 0 51 46zM250 407
q-34 0 -61 -72t-27 -153q0 -53 12.5 -80.5t31.5 -27.5q21 0 50.5 29t54.5 75q-13 229 -61 229zM399 654l-115 -171l-36 14q26 98 41 179q15 3 56 0.5t50 -6.5z" />
    <glyph glyph-name="epsilontonos" unicode="&#x3ad;" horiz-adv-x="419" 
d="M161 235l1 2q-77 18 -77 87q0 61 58 95.5t134 34.5q63 0 98 -22.5t36 -53.5q0 -17 -20 -33t-36 -16q-9 0 -14 16q-20 71 -69 71q-31 0 -51 -23t-20 -54q0 -33 22.5 -51t58.5 -18q7 0 52 3l5 -8l-35 -52q-15 2 -49 2q-43 0 -68 -20.5t-25 -53.5t23 -55t57 -22q72 0 139 61
l20 -28q-84 -109 -213 -109q-76 0 -119.5 34.5t-43.5 90.5q0 91 136 122zM378 654l-115 -171l-36 14q26 98 41 179q15 3 56 0.5t50 -6.5z" />
    <glyph glyph-name="etatonos" unicode="&#x3ae;" horiz-adv-x="527" 
d="M220 276h2q70 91 150 147q44 31 86 31q59 0 28 -137q-52 -225 -90 -433q-16 -86 -10 -112l-8 -17q-31 0 -66.5 26.5t-41.5 47.5q-4 25 41 218q30 133 61 262q13 55 -5 55q-22 0 -77 -59.5t-82 -108.5q-18 -69 -42 -186q-55 -4 -114 -22l-8 10q47 191 75 325q9 40 0 40
q-8 0 -28.5 -13.5t-35.5 -28.5l-14 30q47 47 94.5 75t77.5 28q26 0 31 -28t-12 -100zM435 654l-115 -171l-36 14q26 98 41 179q15 3 56 0.5t50 -6.5z" />
    <glyph glyph-name="iotatonos" unicode="&#x3af;" horiz-adv-x="277" 
d="M239 124l17 -26q-48 -53 -97.5 -81.5t-77.5 -28.5q-59 0 -32 112q10 43 21.5 96.5t26 122t23.5 108.5l119 27l4 -8q-42 -171 -72 -323q-8 -41 2 -41q18 0 66 42zM302 654l-115 -171l-36 14q26 98 41 179q15 3 56 0.5t50 -6.5z" />
    <glyph glyph-name="upsilondieresistonos" unicode="&#x3b0;" horiz-adv-x="491" 
d="M59 316l-19 30q36 47 81 77.5t85 30.5q74 0 36 -141q-20 -73 -37 -146q-14 -57 0.5 -82.5t40.5 -25.5q66 0 100 77t36 185q0 64 -18 115l1 6q10 12 31 12q33 0 51.5 -33t17.5 -79q-1 -131 -87.5 -242.5t-190.5 -111.5q-55 0 -89 41.5t-14 127.5q6 27 21.5 85.5t21.5 81.5
q12 45 0 45q-19 0 -68 -53zM432 505q-23 0 -37 14.5t-14 39.5q0 24 17.5 44.5t47.5 20.5q24 0 36.5 -15t12.5 -37q0 -27 -18 -47t-45 -20zM392 660l-101 -177l-35 10q6 34 13.5 98t9.5 79q16 4 55.5 4.5t53.5 -1.5zM173 505q-24 0 -38 14.5t-14 39.5q0 24 17.5 44.5
t47.5 20.5q24 0 37 -15t13 -37q0 -27 -18 -47t-45 -20z" />
    <glyph glyph-name="alpha" unicode="&#x3b1;" horiz-adv-x="542" 
d="M509 134l25 -24q-63 -122 -144 -122q-30 0 -47.5 29t-23.5 103h-3q-87 -132 -175 -132q-45 0 -74.5 44.5t-29.5 121.5q0 117 78 208.5t171 91.5q49 0 76.5 -32t40.5 -107h2q33 52 62 124l68 15l10 -13q-33 -57 -129 -191q13 -98 21 -130t21 -32q16 0 51 46zM250 407
q-34 0 -61 -72t-27 -153q0 -53 12.5 -80.5t31.5 -27.5q21 0 50.5 29t54.5 75q-13 229 -61 229z" />
    <glyph glyph-name="beta" unicode="&#x3b2;" horiz-adv-x="532" 
d="M-20 -250l-4 17q19 18 41 136q14 77 40.5 220t38.5 207q22 124 50.5 189t78.5 112q75 72 160 72q60 0 95 -36t34 -91q0 -31 -10 -56t-33 -47.5t-40 -35.5t-53 -36q124 -51 125 -163q1 -63 -41 -116t-104 -89q-80 -48 -127 -48q-24 0 -42.5 21.5t-20.5 46.5l10 21
q50 -25 92 -25q61 0 86.5 35.5t25.5 101.5q1 65 -34.5 104t-94.5 49l31 64q49 8 66 22q49 42 54 121q0 54 -18.5 81t-49.5 27q-25 0 -42.5 -16t-31.5 -54.5t-23.5 -81.5t-22.5 -116q-14 -79 -42.5 -254t-31.5 -192q-21 -130 -27 -145q-44 -42 -135 -45z" />
    <glyph glyph-name="gamma" unicode="&#x3b3;" horiz-adv-x="490" 
d="M287 75h2q41 54 81 132t40 124q0 33 -18 56q-6 9 -6 23q0 17 16 30.5t34 13.5q22 0 38.5 -23t15.5 -61q0 -28 -9 -57.5t-32 -67.5t-35 -57t-47.5 -67t-40.5 -55q-60 -86 -63 -92q-22 -131 -36 -174q-21 -14 -62.5 -27.5t-74.5 -16.5l-15 20q27 69 116 204q12 67 2 173.5
t-37 173.5q-10 27 -21 27q-18 0 -64 -57l-27 25q85 132 158 132q61 0 81 -138q18 -113 4 -241z" />
    <glyph glyph-name="delta" unicode="&#x3b4;" horiz-adv-x="488" 
d="M495 512l-13 -21q-96 147 -201 147q-30 0 -30 -20q0 -16 85 -122q65 -81 94 -136t29 -114q0 -129 -101 -206q-67 -52 -141 -52q-88 0 -133 51t-45 129q0 72 34.5 126.5t84.5 87.5q45 28 81 48q-61 87 -61 140q0 59 46 96t100 37q75 0 122.5 -59.5t48.5 -131.5zM237 29
q46 0 74 57t28 125q0 37 -13.5 75.5t-27 60.5t-37.5 56q-15 -12 -46 -59q-47 -79 -47 -185q0 -57 19 -93.5t50 -36.5z" />
    <glyph glyph-name="epsilon" unicode="&#x3b5;" horiz-adv-x="419" 
d="M161 235l1 2q-77 18 -77 87q0 61 58 95.5t134 34.5q63 0 98 -22.5t36 -53.5q0 -17 -20 -33t-36 -16q-9 0 -14 16q-20 71 -69 71q-31 0 -51 -23t-20 -54q0 -33 22.5 -51t58.5 -18q7 0 52 3l5 -8l-35 -52q-15 2 -49 2q-43 0 -68 -20.5t-25 -53.5t23 -55t57 -22q72 0 139 61
l20 -28q-84 -109 -213 -109q-76 0 -119.5 34.5t-43.5 90.5q0 91 136 122z" />
    <glyph glyph-name="zeta" unicode="&#x3b6;" horiz-adv-x="395" 
d="M248 737l26 -12q-20 -23 -21 -49q-2 -21 12 -39.5t38 -22.5q85 75 137 75q24 0 22 -22q-4 -44 -45 -70t-97 -30q-60 -49 -109.5 -152t-49.5 -191q0 -48 17 -72.5t59 -41.5q6 -2 20 -7t23 -9q68 -26 68 -90q1 -47 -31.5 -94.5t-78.5 -82.5l-32 20q45 61 44 98
q-1 20 -14 32.5t-45 23.5l-25.5 8.5l-25.5 8.5q-49 19 -73 55t-24 104q0 109 64 214.5t155 178.5q-48 5 -74.5 31t-24.5 55q1 26 25 47t60 34z" />
    <glyph glyph-name="eta" unicode="&#x3b7;" horiz-adv-x="527" 
d="M220 276h2q70 91 150 147q44 31 86 31q59 0 28 -137q-52 -225 -90 -433q-16 -86 -10 -112l-8 -17q-31 0 -66.5 26.5t-41.5 47.5q-4 25 41 218q30 133 61 262q13 55 -5 55q-22 0 -77 -59.5t-82 -108.5q-18 -69 -42 -186q-55 -4 -114 -22l-8 10q47 191 75 325q9 40 0 40
q-8 0 -28.5 -13.5t-35.5 -28.5l-14 30q47 47 94.5 75t77.5 28q26 0 31 -28t-12 -100z" />
    <glyph glyph-name="theta" unicode="&#x3b8;" horiz-adv-x="496" 
d="M357 703q77 0 112.5 -60.5t35.5 -155.5q0 -80 -19 -165t-54.5 -161t-94.5 -124.5t-130 -48.5q-152 0 -152 224q0 78 20.5 162.5t57.5 158.5t96 122t128 48zM199 387h175q14 96 14 153q0 123 -48 123q-41 0 -80 -81t-61 -195zM365 333h-176q-14 -76 -14 -174
q0 -131 48 -131q43 0 83 90.5t59 214.5z" />
    <glyph glyph-name="iota" unicode="&#x3b9;" horiz-adv-x="277" 
d="M239 124l17 -26q-48 -53 -97.5 -81.5t-77.5 -28.5q-59 0 -32 112q10 43 21.5 96.5t26 122t23.5 108.5l119 27l4 -8q-42 -171 -72 -323q-8 -41 2 -41q18 0 66 42z" />
    <glyph glyph-name="kappa" unicode="&#x3ba;" horiz-adv-x="501" 
d="M60 319l-14 29q53 49 101.5 77.5t74.5 28.5q21 0 25.5 -22t-5.5 -67l-33 -151q55 70 110 133q38 43 55 60.5t40.5 32t45.5 14.5q19 0 33 -14.5t14 -34.5q0 -25 -29 -49q-12 -9 -21 -1q-15 9 -33 9q-47 0 -102 -73q35 -108 66 -175q18 -38 31 -38q14 0 52 44l22 -25
q-72 -109 -140 -109q-24 0 -42.5 17t-34.5 63q-9 26 -25 74.5t-17 52.5q-13 -12 -34 -39q-9 -32 -33 -153q-58 -4 -116 -15l-2 10q21 82 73 321q6 27 -1 36q-13 0 -61 -36z" />
    <glyph glyph-name="lambda" unicode="&#x3bb;" horiz-adv-x="489" 
d="M445 126l21 -25q-38 -58 -80 -85.5t-76 -27.5q-31 0 -44.5 33t-18.5 104q-5 69 -8.5 116t-5 68t-2.5 29q-53 -122 -159 -327q-47 -17 -85 -23l-8 19q147 194 245 415q-5 80 -10 118q-7 56 -21.5 76t-39.5 20q-18 0 -33 -7l-7 28q56 46 111 46q57 0 79.5 -51.5
t31.5 -187.5q10 -168 31 -343q6 -43 19 -43q19 0 60 48z" />
    <glyph glyph-name="uni03BC" unicode="&#x3bc;" horiz-adv-x="532" 
d="M491 128l16 -29q-103 -111 -173 -111q-51 0 -28 100q5 25 13 63h-2q-69 -99 -113 -133q-38 -30 -69 -30q-35 0 -46 52h-2q-21 -62 -11 -150q7 -56 34 -98l1 -8q-7 -11 -28.5 -22.5t-44.5 -11.5q-19 0 -30.5 19t-9.5 55q2 40 36 192q83 373 92 413l117 24l7 -5
q-49 -197 -67 -286q-19 -83 12 -83q26 0 71 56t66 96q22 94 44 196l110 27h14q-42 -159 -73 -325q-9 -45 1 -45q6 0 26 13.5t37 30.5z" />
    <glyph glyph-name="nu" unicode="&#x3bd;" horiz-adv-x="472" 
d="M276 129h3q107 128 109 201q1 32 -18 54q-4 5 -4 15q1 19 18 36t40 17q22 0 37 -18.5t15 -48.5q0 -35 -30.5 -90t-55 -87t-75.5 -94l-12 -15q-60 -74 -95 -111h-33q-20 235 -37 326q-5 37 -16 37q-15 0 -54 -48l-22 24q42 65 80.5 95t66.5 30q46 0 60 -111q9 -61 23 -212
z" />
    <glyph glyph-name="xi" unicode="&#x3be;" horiz-adv-x="435" 
d="M275 -177l-29 21q46 58 44 94q0 24 -17.5 38.5t-59.5 23.5q-39 9 -58 16q-62 19 -91 52.5t-29 89.5q0 113 153 194q-25 11 -41.5 35t-16.5 56q0 79 105 145q-37 6 -59.5 26t-22.5 45q-1 24 20.5 46t51.5 31l25 -9q-15 -26 -15 -49q1 -17 14 -30.5t36 -16.5q35 23 79.5 38
t75.5 15q17 0 23 -6t3 -18q-4 -16 -19 -34.5t-32 -28.5q-61 -20 -126 -15q-22 -13 -41 -41t-19 -64q0 -52 44 -68q52 13 91 13q16 0 22.5 -4.5t4.5 -15.5q-5 -27 -28 -54t-43 -27q-54 0 -93 16q-33 -21 -56 -56.5t-23 -74.5q0 -38 23.5 -60t69.5 -35q5 -1 21.5 -5.5
t24.5 -6.5q100 -29 101 -103q2 -84 -113 -173z" />
    <glyph glyph-name="omicron" unicode="&#x3bf;" horiz-adv-x="492" 
d="M190 -12q-81 0 -115.5 48t-34.5 117q0 92 43.5 161.5t105.5 102.5q69 37 131 37q72 0 110 -43t38 -117q0 -69 -26.5 -133t-79.5 -108q-34 -29 -80 -47t-92 -18zM230 33q10 0 25 5q31 12 57.5 87t26.5 175q0 55 -16 82.5t-42 27.5q-14 0 -25 -5q-27 -12 -56.5 -82.5
t-29.5 -178.5q0 -54 17.5 -82.5t42.5 -28.5z" />
    <glyph glyph-name="pi" unicode="&#x3c0;" horiz-adv-x="569" 
d="M569 467l33 -10q-17 -65 -44 -96q-18 -9 -73 -6q-12 -44 -45 -208q-13 -68 3 -68q10 0 31.5 13.5t39.5 32.5l19 -27q-30 -45 -77 -77.5t-91 -32.5q-71 0 -47 114q27 126 61 256q-98 3 -118 3q-63 -277 -110 -351q-15 -10 -42 -16t-43 -6l-7 22q39 43 84.5 151t63.5 201
q-86 2 -137 -63l-24 26q70 120 208 118q35 0 124.5 -2.5t134.5 -2.5q15 0 22.5 1.5t16.5 7.5t17 20z" />
    <glyph glyph-name="rho" unicode="&#x3c1;" horiz-adv-x="494" 
d="M-24 -244l-4 27q15 13 29 73.5t55 302.5q16 98 44.5 152.5t86.5 96.5q64 46 134 46t111 -49.5t40 -122.5q-1 -151 -158 -249q-65 -45 -107 -45q-26 0 -56 32q-3 -22 -7.5 -52.5t-6.5 -47.5q-10 -68 -20.5 -96.5t-26.5 -37.5q-37 -30 -114 -30zM234 48q59 0 87.5 56
t28.5 134t-24 119.5t-61 41.5q-32 0 -47.5 -31.5t-28.5 -106.5q-21 -112 -30 -187q34 -26 75 -26z" />
    <glyph glyph-name="uni03C2" unicode="&#x3c2;" horiz-adv-x="418" 
d="M257 -162l-26 22q39 46 38 81q0 38 -58 57q-23 8 -50 15q-60 16 -90.5 51.5t-30.5 106.5q0 70 35.5 131t96.5 100q81 52 147 52q42 0 66.5 -16.5t24.5 -47.5q0 -17 -14.5 -35t-34.5 -23q-17 -2 -29 15q-33 49 -79 49q-49 0 -78 -50.5t-28 -114.5q0 -83 67 -106
q14 -5 55 -18q95 -27 95 -100q1 -94 -107 -169z" />
    <glyph glyph-name="sigma" unicode="&#x3c3;" horiz-adv-x="507" 
d="M347 448q20 -1 67.5 -3.5t69.5 -2.5q34 0 51 21l21 -12q-14 -51 -33.5 -69.5t-44.5 -18.5q-26 0 -101 10l-1 -2q38 -31 53 -64t15 -79q1 -96 -70 -168t-173 -72q-78 0 -119.5 47.5t-41.5 128.5q0 126 87 207t220 77zM294 378q-40 0 -71 -40t-45.5 -95t-14.5 -111
q0 -103 56 -103q38 0 67 49.5t41 105t12 95.5q-2 59 -15 80q-14 19 -30 19z" />
    <glyph glyph-name="tau" unicode="&#x3c4;" horiz-adv-x="463" 
d="M471 468l31 -7q-29 -80 -43 -99q-14 -6 -59 -6q-34 2 -72 3q-28 -114 -48 -221q-11 -59 6 -59q10 0 32 14.5t39 33.5l19 -28q-27 -42 -76.5 -76.5t-97.5 -34.5q-68 0 -44 106q20 92 66 270q-59 3 -94.5 -10t-65.5 -54l-26 25q62 121 192 119q26 0 87 -2.5t98 -3.5
q21 -1 32 4t24 26z" />
    <glyph glyph-name="upsilon" unicode="&#x3c5;" horiz-adv-x="491" 
d="M59 316l-19 30q36 47 81 77.5t85 30.5q74 0 36 -141q-20 -73 -37 -146q-14 -57 0.5 -82.5t40.5 -25.5q66 0 100 77t36 185q0 64 -18 115l1 6q10 12 31 12q33 0 51.5 -33t17.5 -79q-1 -131 -87.5 -242.5t-190.5 -111.5q-55 0 -89 41.5t-14 127.5q6 27 21.5 85.5t21.5 81.5
q12 45 0 45q-19 0 -68 -53z" />
    <glyph glyph-name="phi" unicode="&#x3c6;" horiz-adv-x="612" 
d="M302 464l13 -34q-66 -34 -103.5 -96.5t-37.5 -146.5q0 -53 20 -88.5t49 -45.5q30 155 51 237q19 79 64.5 121.5t93.5 42.5q57 0 95.5 -48.5t38.5 -130.5q0 -112 -76.5 -188.5t-173.5 -90.5q-3 -17 -14.5 -82t-20.5 -114q-8 -18 -41 -30t-68 -14l-11 10q5 17 51 224
q-90 9 -138 63.5t-48 135.5q0 194 256 275zM433 409q-12 0 -19 -15.5t-17 -64.5q-36 -185 -53 -286q67 9 108.5 79.5t41.5 156.5q0 58 -20 94t-41 36z" />
    <glyph glyph-name="chi" unicode="&#x3c7;" horiz-adv-x="461" 
d="M492 454l9 -17q-31 -37 -102.5 -131t-111.5 -152q15 -119 41 -253q10 -54 22 -54q25 0 72 59l25 -25q-80 -125 -158 -125q-52 0 -71 102q-19 107 -28 180q-154 -229 -192 -301h-15q-38 44 5 108q14 21 90 126.5t100 139.5q-14 109 -32 210q-8 40 -18 40q-12 0 -59 -55
l-25 24q84 124 149 124q42 0 58 -87q7 -32 25 -148q13 21 43 67.5t54.5 84.5t35.5 56z" />
    <glyph glyph-name="psi" unicode="&#x3c8;" horiz-adv-x="614" 
d="M649 454l9 -31q-25 -18 -37 -38t-27 -58q-5 -13 -28.5 -73t-39.5 -97q-38 -95 -110 -138q-31 -19 -71 -28q-26 -119 -41 -206l-33 -30q-27 9 -22 68q27 149 30 164q-170 7 -163 186q0 8 11 138q4 55 -22 55q-21 0 -46 -24l-12 33q68 79 135 79q77 0 63 -127
q-3 -33 -11 -117q-7 -72 6 -109.5t48 -53.5l82 445l75 28l8 -4l-98 -476q40 5 64 34t41 82q7 22 15.5 51t18.5 64t15 52q19 61 38 78q39 35 102 53z" />
    <glyph glyph-name="omega" unicode="&#x3c9;" horiz-adv-x="652" 
d="M492 428l5 14q18 12 43 12q33 0 59 -42t25 -115q0 -76 -37 -149.5t-95 -115.5q-60 -44 -110 -44q-37 0 -60.5 24t-28.5 72q-65 -96 -144 -96q-48 0 -77 43t-29 116q-1 106 62 188t164 126l16 -30q-53 -45 -85 -116.5t-32 -156.5q0 -42 13.5 -64.5t33.5 -22.5q48 0 73 100
q19 69 31 167l117 12l8 -8q-30 -96 -43 -180q-8 -48 3.5 -74.5t34.5 -26.5q47 0 75.5 55.5t29.5 145.5q1 108 -52 166z" />
    <glyph glyph-name="iotadieresis" unicode="&#x3ca;" horiz-adv-x="277" 
d="M239 124l17 -26q-48 -53 -97.5 -81.5t-77.5 -28.5q-59 0 -32 112q10 43 21.5 96.5t26 122t23.5 108.5l119 27l4 -8q-42 -171 -72 -323q-8 -41 2 -41q18 0 66 42zM134 644q26 0 40.5 -16.5t14.5 -39.5q0 -30 -19 -52t-50 -22q-26 0 -41 15.5t-15 42.5q0 26 19.5 49
t50.5 23zM329 644q26 0 40.5 -16.5t14.5 -39.5q0 -30 -19 -52t-50 -22q-25 0 -40.5 15.5t-15.5 42.5q0 26 19.5 49t50.5 23z" />
    <glyph glyph-name="upsilondieresis" unicode="&#x3cb;" horiz-adv-x="491" 
d="M59 316l-19 30q36 47 81 77.5t85 30.5q74 0 36 -141q-20 -73 -37 -146q-14 -57 0.5 -82.5t40.5 -25.5q66 0 100 77t36 185q0 64 -18 115l1 6q10 12 31 12q33 0 51.5 -33t17.5 -79q-1 -131 -87.5 -242.5t-190.5 -111.5q-55 0 -89 41.5t-14 127.5q6 27 21.5 85.5t21.5 81.5
q12 45 0 45q-19 0 -68 -53zM224 644q26 0 40 -16t14 -40q0 -30 -19 -52t-50 -22q-25 0 -40.5 15.5t-15.5 42.5q0 26 19.5 49t51.5 23zM419 644q26 0 40 -16t14 -40q0 -30 -19 -52t-50 -22q-25 0 -40.5 15.5t-15.5 42.5q0 26 19.5 49t51.5 23z" />
    <glyph glyph-name="omicrontonos" unicode="&#x3cc;" horiz-adv-x="492" 
d="M190 -12q-81 0 -115.5 48t-34.5 117q0 92 43.5 161.5t105.5 102.5q69 37 131 37q72 0 110 -43t38 -117q0 -69 -26.5 -133t-79.5 -108q-34 -29 -80 -47t-92 -18zM230 33q10 0 25 5q31 12 57.5 87t26.5 175q0 55 -16 82.5t-42 27.5q-14 0 -25 -5q-27 -12 -56.5 -82.5
t-29.5 -178.5q0 -54 17.5 -82.5t42.5 -28.5zM405 654l-115 -171l-35 14q27 111 40 179q15 3 56 0.5t50 -6.5z" />
    <glyph glyph-name="upsilontonos" unicode="&#x3cd;" horiz-adv-x="491" 
d="M59 316l-19 30q36 47 81 77.5t85 30.5q74 0 36 -141q-20 -73 -37 -146q-14 -57 0.5 -82.5t40.5 -25.5q66 0 100 77t36 185q0 64 -18 115l1 6q10 12 31 12q33 0 51.5 -33t17.5 -79q-1 -131 -87.5 -242.5t-190.5 -111.5q-55 0 -89 41.5t-14 127.5q6 27 21.5 85.5t21.5 81.5
q12 45 0 45q-19 0 -68 -53zM419 654l-115 -171l-36 14q26 98 41 179q15 3 56 0.5t50 -6.5z" />
    <glyph glyph-name="omegatonos" unicode="&#x3ce;" horiz-adv-x="652" 
d="M492 428l5 14q18 12 43 12q33 0 59 -42t25 -115q0 -76 -37 -149.5t-95 -115.5q-60 -44 -110 -44q-37 0 -60.5 24t-28.5 72q-65 -96 -144 -96q-48 0 -77 43t-29 116q-1 106 62 188t164 126l16 -30q-53 -45 -85 -116.5t-32 -156.5q0 -42 13.5 -64.5t33.5 -22.5q48 0 73 100
q19 69 31 167l117 12l8 -8q-30 -96 -43 -180q-8 -48 3.5 -74.5t34.5 -26.5q47 0 75.5 55.5t29.5 145.5q1 108 -52 166zM503 654l-115 -171l-36 14q26 98 41 179q15 3 56 0.5t50 -6.5z" />
    <glyph glyph-name="uni03D0" unicode="&#x3d0;" horiz-adv-x="496" 
d="M517 603q0 -17 -4.5 -33.5t-10 -28t-18.5 -25.5t-20.5 -21.5t-27 -20t-27 -17t-31 -17.5t-29.5 -17q122 -21 122 -165q0 -110 -78.5 -190t-176.5 -80q-84 0 -125.5 58.5t-41.5 161.5q0 119 52 235.5t141 188.5q88 71 171 71q48 0 76 -26t28 -74zM415 594q0 63 -47 63
q-38 0 -72 -44.5t-56 -103t-39 -130.5q4 3 93 54q121 72 121 161zM343 255q0 121 -68 121q-16 0 -40.5 -13t-45.5 -37q-18 -74 -18 -143q0 -156 59 -156q48 0 80.5 78.5t32.5 149.5z" />
    <glyph glyph-name="uni03D1" unicode="&#x3d1;" horiz-adv-x="514" 
d="M31 219l-6 29q62 45 119 45q94 0 76 -146q-12 -98 46 -98q31 0 56 30t39.5 79t23 99.5t11.5 101.5q-53 -34 -111 -34q-83 0 -130.5 47.5t-47.5 118.5q0 92 67 152t144 60q82 0 137 -64.5t55 -201.5q0 -259 -160 -392q-67 -57 -139 -57q-56 0 -90 37.5t-22 126.5
q11 74 -25 74q-22 0 -43 -7zM272 653q-35 0 -51.5 -27t-16.5 -67q0 -70 37 -119t107 -49q30 0 48 7q1 6 1 29q1 103 -40.5 164.5t-84.5 61.5z" />
    <glyph glyph-name="uni03D5" unicode="&#x3d5;" horiz-adv-x="594" 
d="M445 661l-33 -152q-8 -38 0 -43q153 -66 153 -216q0 -110 -80 -180.5t-181 -78.5q-6 -26 -15 -67.5t-19.5 -92.5t-15.5 -75l-6 -2q-23 5 -36 36.5t-1 87.5q4 22 11.5 60.5t10.5 51.5q-86 14 -136 71.5t-50 140.5q0 179 231 258l14 -32q-121 -67 -121 -214
q0 -58 23.5 -100t53.5 -55q27 151 121 577l58 34zM479 237q0 59 -29 102.5t-60 55.5q-28 -109 -74 -350q71 -2 117 52t46 140z" />
    <glyph glyph-name="uni03D6" unicode="&#x3d6;" horiz-adv-x="655" 
d="M231 494l-11 32q94 60 186 60q120 0 182.5 -71t62.5 -183q1 -191 -139 -300q-56 -44 -111 -44q-39 0 -65.5 25.5t-31.5 74.5q-29 -43 -68 -71.5t-76 -28.5q-47 0 -77.5 43t-30.5 116q-1 106 61.5 188t163.5 126l16 -30q-53 -45 -84 -115.5t-31 -156.5q0 -41 14 -62.5
t32 -21.5q23 0 44 24t34 72q15 57 31 167l116 12l6 -5q-28 -89 -41 -183q-8 -48 4.5 -73t37.5 -25q50 0 81.5 63.5t31.5 156.5q0 110 -52.5 174.5t-158.5 64.5q-71 0 -127 -29z" />
    <glyph glyph-name="uni03D9" unicode="&#x3d9;" horiz-adv-x="496" 
d="M118 -218l-16 9q13 38 27 107l21 95q-109 23 -109 161q0 93 42 161t106 103q67 36 132 36q72 0 109.5 -43.5t37.5 -120.5q0 -67 -27 -131t-79 -107q-42 -36 -97 -51l-16 -69q-8 -47 -25 -73q-34 -50 -106 -77zM283 408q-16 0 -26 -5q-30 -14 -58.5 -80.5t-28.5 -176.5
q0 -54 17 -82.5t42 -28.5q15 0 27 4q32 14 57.5 86.5t25.5 172.5q-1 110 -56 110z" />
    <glyph glyph-name="uni03DB" unicode="&#x3db;" horiz-adv-x="426" 
d="M416 461l27 -12q-24 -84 -66 -91q-25 -6 -63 9q-41 17 -72 17q-45 -1 -71.5 -41.5t-26.5 -101.5q1 -90 75 -115q12 -5 55 -19q96 -28 96 -104q0 -66 -51.5 -116t-98.5 -50q-21 0 -33.5 12.5t-10.5 28.5q3 24 25 41q9 7 16 2q24 -11 49 -11q14 0 24 9t10 24q0 28 -66 49
q-26 8 -68 21q-60 16 -92.5 53t-32.5 106q0 71 36 132t99 101q76 49 139 49q35 0 64 -8q21 -4 37 15z" />
    <glyph glyph-name="uni03DD" unicode="&#x3dd;" horiz-adv-x="454" 
d="M482 451l-54 -78q-53 12 -166 12h-21l-51 -249q80 0 188 10l3 -13l-46 -53q-51 6 -155 8l-20 -96q-24 -114 -66 -167t-130 -75l-4 7q45 61 78 222l93 458h170q127 0 168 24z" />
    <glyph glyph-name="uni03E1" unicode="&#x3e1;" horiz-adv-x="750" 
d="M131 635l49 22q25 10 64 10q115 0 204 -37.5t141 -100.5t78.5 -138t26.5 -158q0 -229 -163 -400l-24 20q90 157 90 365q0 30 -3 50q-143 -76 -240 -178q-40 -43 -40 -93l-1 -8q-11 -3 -22 -3q-14 0 -25.5 8t-17 23.5t-4.5 34.5t14 44t37 49q23 24 49.5 46t63.5 46
t54.5 34.5t65.5 38.5t54 31q-15 52 -37.5 90t-39.5 52q-65 -51 -185 -115t-156 -77q-26 -8 -53 3t-36 27l2 13q249 82 392 186q-46 44 -118 69.5t-159 25.5q-22 0 -55 -5z" />
    <glyph glyph-name="uni03F0" unicode="&#x3f0;" horiz-adv-x="552" 
d="M507 116l20 -27q-27 -42 -67.5 -71.5t-76.5 -29.5q-40 0 -54.5 33.5t-4.5 84.5q4 18 12.5 41t13.5 34t20 42t16 33l-3 5q-193 -193 -293 -272l-21 -1q-31 9 -44.5 36t-5.5 54q52 29 80 47q49 59 60 117q10 64 1 94.5t-30 30.5q-23 0 -61 -34l-19 28q87 93 152 93
q33 0 49 -29t5 -78q-15 -73 -75 -168l3 -1q158 147 217 212q5 5 19 20t19.5 20.5t15 13t18.5 10.5q24 1 42 -13t22 -43q8 -17 -4 -31q-5 -4 -35 -25t-38 -28q-28 -36 -37 -79q-10 -51 -9 -86t9.5 -53t22.5 -18q26 0 61 38z" />
    <glyph glyph-name="uni0401" unicode="&#x401;" horiz-adv-x="570" 
d="M123 649h457q0 -1 -6.5 -64t-10.5 -93l-36 -3q-5 73 -21 93q-15 25 -87 25h-49q-28 0 -36.5 -7t-13.5 -35l-39 -201h67q45 0 63.5 5.5t27 17.5t25.5 51h37l-41 -206h-36q1 59 -10 71t-73 12h-69l-32 -169q-12 -65 2 -83q14 -21 84 -21q83 0 117 33q38 34 72 96l34 -13
q-30 -91 -61 -158h-487l7 34q57 4 72 18.5t26 74.5l77 395q11 58 -0.5 73.5t-68.5 19.5zM299 822q26 0 40.5 -16.5t14.5 -40.5q0 -30 -19.5 -51.5t-50.5 -21.5q-25 0 -40 15t-16 42q0 27 19.5 50t51.5 23zM509 822q26 0 40.5 -16.5t14.5 -40.5q0 -30 -19.5 -51.5
t-49.5 -21.5q-25 0 -40.5 15t-15.5 42t19.5 50t50.5 23z" />
    <glyph glyph-name="uni0402" unicode="&#x402;" horiz-adv-x="730" 
d="M651 674h21q-3 -18 -26 -186l-37 -2q0 68 -17 94q-8 15 -27.5 21t-63.5 6h-53l-47 -243q66 29 123 29q67 0 116 -51t49 -144q0 -75 -29 -138t-77.5 -105.5t-96.5 -70t-102 -46.5l-15 35q73 40 129 118.5t56 188.5q0 73 -29 113t-78 40q-32 0 -54 -8l-33 -180
q-13 -71 -1 -89t79 -22l-8 -34h-318l7 34q61 4 78.5 21.5t31.5 89.5l89 462h-34q-82 0 -110 -34q-25 -29 -53 -89h-36q28 96 48 190h20q8 -17 17.5 -21t33.5 -4h392q19 0 29 5t26 20z" />
    <glyph glyph-name="uni0403" unicode="&#x403;" horiz-adv-x="523" 
d="M123 649h453q-9 -57 -21 -161l-35 -3q-5 73 -16 94q-15 28 -80 28h-57q-27 0 -33 -5.5t-12 -32.5l-83 -432q-13 -67 -0.5 -82.5t78.5 -20.5l-7 -34h-300l6 34q51 5 65.5 21t27.5 82l72 376q12 68 2 83t-67 20zM527 752l-5 -12l-210 -58l-16 31q20 13 56.5 37.5t66 44
t54.5 35.5q15 -3 33 -30t21 -48z" />
    </font>
</defs>
</svg>
