<?xml version="1.0" standalone="no"?>
<!DOCTYPE svg PUBLIC "-//W3C//DTD SVG 1.1//EN" "http://www.w3.org/Graphics/SVG/1.1/DTD/svg11.dtd" >
<svg xmlns="http://www.w3.org/2000/svg" xmlns:xlink="http://www.w3.org/1999/xlink" version="1.1">
<metadata>
Created by FontForge 20170731 at Fri Oct  8 20:14:55 1999
 By ,,,
Copyright (c) 1991, 1996, 1998, 1999 Adobe Systems Incorporated.  All Rights Reserved.Formata is either a registered trademark or trademark of Berthold Types Limited in the United States and/or other countries.
</metadata>
<defs>
<font id="Formata-Italic" horiz-adv-x="583" >
  <font-face 
    font-family="Formata Regular"
    font-weight="400"
    font-style="italic"
    font-stretch="normal"
    units-per-em="1000"
    panose-1="2 11 5 0 0 0 0 0 0 0"
    ascent="747"
    descent="-253"
    x-height="520"
    cap-height="709"
    bbox="-194 -253 1259 952"
    underline-thickness="50"
    underline-position="-200"
    slope="-13"
    unicode-range="U+0020-FB02"
  />
<missing-glyph horiz-adv-x="292" 
 />
    <glyph glyph-name=".notdef" horiz-adv-x="292" 
 />
    <glyph glyph-name=".null" horiz-adv-x="0" 
 />
    <glyph glyph-name="nonmarkingreturn" horiz-adv-x="333" 
 />
    <glyph glyph-name="space" unicode=" " horiz-adv-x="292" 
 />
    <glyph glyph-name="space" unicode="&#xa0;" horiz-adv-x="292" 
 />
    <glyph glyph-name="exclam" unicode="!" horiz-adv-x="271" 
d="M183 110l-24 -103l-8 -7l-112 -3l-5 7q15 57 23 103l9 8l111 3zM280 577l-31 -118q-23 -84 -42 -168q-3 -11 -8.5 -36.5t-8.5 -39.5l-7 -7l-75 -3l-4 7l23 114l28 136q33 175 51 286l8 7l110 4l5 -7z" />
    <glyph glyph-name="quotedbl" unicode="&#x22;" horiz-adv-x="396" 
d="M391 691l-41 -257h-23l-39 245q0 3 -0.5 7t-1 6.5t-0.5 4.5q0 25 16.5 38.5t38.5 13.5q33 0 46 -27q4 -9 4 -31zM203 691l-41 -257h-23l-39 245q-1 9 -1 18q0 25 16.5 38.5t38.5 13.5q32 0 45 -27q6 -11 4 -31z" />
    <glyph glyph-name="numbersign" unicode="#" horiz-adv-x="667" 
d="M451 229l-33 -229h-79l33 229h-111l-33 -229h-81l35 229h-140v77h150l16 108h-141v77h151l31 214h80l-31 -214h110l32 214h78l-29 -214h137v-77h-148l-16 -108h139v-77h-150zM271 306h112l15 108h-110z" />
    <glyph glyph-name="dollar" unicode="$" horiz-adv-x="521" 
d="M413 605l-104 -220l15 -12q25 -19 39.5 -31.5t35 -35t30.5 -50t10 -60.5q0 -83 -67 -147.5t-184 -64.5q-29 0 -67 5l-35 -77l-8 -6h-56l-3 7l44 87q-49 19 -81 44l-2 9l30 80l9 2q23 -28 37.5 -39t42.5 -20l118 247l-13 9q-45 34 -54 43q-56 53 -56 124q0 51 24.5 91
t55.5 64q60 43 153 43q7 0 64 -5l28 65l9 6h56l4 -6l-40 -79q42 -17 76 -44l3 -8l-29 -74l-10 -1q-39 40 -75 54zM263 288l-106 -225q18 -3 35 -3q64 0 104 38.5t40 85.5q0 25 -14 47t-25.5 31.5t-33.5 25.5zM264 420l94 198q-3 0 -16 1.5t-20 1.5q-56 0 -90 -32.5
t-34 -72.5q0 -22 11.5 -42t22.5 -29.5t32 -24.5z" />
    <glyph glyph-name="percent" unicode="%" horiz-adv-x="917" 
d="M393 479q-3 -27 -10 -57t-28 -76.5t-51 -74.5q-49 -45 -119 -45q-55 0 -91 31q-42 39 -42 119q0 10 1 26t6 47t13 60.5t24.5 63t38.5 58t56 40.5t76 16q65 0 97.5 -41t32.5 -113q0 -30 -4 -54zM312 443q15 68 15 104q0 86 -66 86q-52 0 -84 -58q-21 -37 -37 -101
t-16 -109q0 -86 65 -86q37 0 68.5 33t54.5 131zM859 244q-16 -141 -89 -209q-49 -45 -119 -45q-57 0 -90 31q-42 39 -42 120q0 10 1 25.5t6 47t13 61t24.5 62.5t38.5 57.5t56 40.5t76 16q64 0 96.5 -41t32.5 -113q0 -29 -4 -53zM778 208q15 67 15 104q0 85 -65 85
q-53 0 -85 -57q-21 -37 -36.5 -101t-15.5 -109q0 -87 64 -87q37 0 68.5 33.5t54.5 131.5zM292 24l-10 -17l-10 -6q-12 -1 -32 -1t-32 -1l-4 8q4 6 24 35t38.5 57t24.5 37q22 32 64 98l134 206q85 130 146 231l11 7q38 0 62 1l4 -7q-8 -12 -72.5 -108.5t-89.5 -133.5
l-119 -185q-101 -160 -139 -221z" />
    <glyph glyph-name="ampersand" unicode="&#x26;" horiz-adv-x="646" 
d="M595 273v-8q-33 -44 -119 -132l78 -125l-4 -8l-116 -2l-8 5l-34 65q-98 -79 -204 -79q-92 0 -141 51.5t-49 121.5q0 28 8 53t18.5 44t31 38t34.5 30.5t41 26.5t38.5 21t38.5 19q-45 94 -45 154q0 71 52.5 122t144.5 51q83 0 126.5 -43t43.5 -101q0 -38 -15 -69t-47 -57
t-58 -41.5t-71 -38.5q73 -133 94 -166q66 62 109 142l8 1zM352 137l-103 183q-26 -12 -42 -21t-43.5 -29t-42.5 -45.5t-15 -54.5q0 -38 28.5 -66.5t76.5 -28.5q67 0 141 62zM303 438q31 16 47.5 25.5t41 27.5t36 38.5t11.5 44.5q0 29 -21.5 52.5t-56.5 23.5
q-45 0 -70.5 -28.5t-25.5 -65.5q0 -38 38 -118z" />
    <glyph glyph-name="quotesingle" unicode="'" horiz-adv-x="208" 
d="M203 691l-41 -257h-23l-39 245q-1 9 -1 18q0 25 16.5 38.5t38.5 13.5q32 0 45 -27q6 -11 4 -31z" />
    <glyph glyph-name="parenleft" unicode="(" horiz-adv-x="375" 
d="M187 -217l-7 4q-22 25 -41 54q-32 54 -60.5 140t-28.5 184q0 90 26 177.5t69 157t88.5 122t94.5 92.5q20 17 64 47l10 4h67l2 -9q-93 -81 -138 -132q-82 -92 -131.5 -224t-49.5 -263q0 -80 22 -167q24 -92 78 -178l-5 -9h-60z" />
    <glyph glyph-name="parenright" unicode=")" horiz-adv-x="375" 
d="M160 765l7 -4q42 -47 71 -112q59 -132 59 -266q0 -147 -69.5 -288.5t-203.5 -256.5q-57 -47 -68 -51l-11 -4h-66l-3 9q116 101 167 167q86 115 119 236t33 216q0 81 -23.5 173.5t-75.5 172.5l4 8h60z" />
    <glyph glyph-name="asterisk" unicode="*" horiz-adv-x="458" 
d="M489 633l-4 -8q-91 -36 -148 -63q52 -28 122 -62l2 -8l-41 -63l-9 -1q-63 51 -113 85l-17 -144l-7 -7l-72 -2l-5 6l45 148l-131 -83l-8 1l-29 63l3 8l149 61q-38 22 -120 66l-2 8l42 61h7q59 -50 110 -87q13 76 20 145l7 7l72 1l5 -6q-31 -89 -47 -146l134 84l8 -2z" />
    <glyph glyph-name="plus" unicode="+" horiz-adv-x="667" 
d="M369 251v-251h-80v251h-249v80h249v249h80v-249h251v-80h-251z" />
    <glyph glyph-name="comma" unicode="," horiz-adv-x="229" 
d="M146 120l4 -8q-49 -77 -63 -102q-2 -3 -22.5 -39t-40.5 -71l-20 -34l-9 -6l-70 -2l-4 6q45 100 102 245l8 7z" />
    <glyph glyph-name="hyphen" unicode="-" horiz-adv-x="333" 
d="M303 322l-25 -78l-8 -6q-94 2 -141 2q-40 0 -120 -2l-5 8l24 75l9 7q90 -2 135 -2q16 0 126 2z" />
    <glyph glyph-name="hyphen" unicode="&#xad;" horiz-adv-x="333" 
d="M303 322l-25 -78l-8 -6q-94 2 -141 2q-40 0 -120 -2l-5 8l24 75l9 7q90 -2 135 -2q16 0 126 2z" />
    <glyph glyph-name="period" unicode="." horiz-adv-x="229" 
d="M131 111l-23 -104l-9 -7l-111 -3l-5 7l23 104l8 7l111 3z" />
    <glyph glyph-name="slash" unicode="/" horiz-adv-x="458" 
d="M359 468l-178 -274q-111 -167 -187 -290q-20 -34 -22 -38l-10 -6l-80 -1l-4 9q97 135 209 312l153 236q115 176 216 343l10 7h80l4 -9q-32 -46 -191 -289z" />
    <glyph glyph-name="zero" unicode="0" 
d="M549 376q-25 -187 -107 -289t-214 -102q-51 0 -94.5 21t-69.5 60q-36 57 -36 150q0 27 5.5 69.5t19 104.5t44.5 125t74 104q76 73 185 73q48 0 85 -15.5t58 -39t34 -56.5t17.5 -62.5t4.5 -61.5q0 -41 -6 -81zM432 317q23 96 23 165q0 13 -0.5 23.5t-6.5 33.5t-16 38.5
t-32 28t-52 12.5q-87 0 -139 -101q-32 -63 -54.5 -158.5t-22.5 -163.5q0 -57 24 -97t82 -40q71 0 116.5 64t77.5 195z" />
    <glyph glyph-name="one" unicode="1" 
d="M350 295l-61 -288l-7 -6l-104 -2l-5 6l56 235l25 106l57 253l-101 -14l-6 6l18 67l8 7q121 13 206 26l6 -7q-37 -142 -59 -241z" />
    <glyph glyph-name="two" unicode="2" 
d="M465 85l-25 -80l-8 -5h-475l-4 12q13 12 47 41t47 40l103 88q111 97 167 153q96 93 96 159q0 31 -18 55.5t-40 37.5q-30 18 -78 18q-41 0 -77.5 -14t-55 -27.5t-47.5 -39.5l-9 4l27 106l6 8q9 6 27 16q66 35 155 35q79 0 133 -31q35 -20 61.5 -58t26.5 -93
q0 -78 -54.5 -144t-185.5 -175l-123 -105q125 0 299 6z" />
    <glyph glyph-name="three" unicode="3" 
d="M553 679l4 -11q-63 -65 -233 -261q60 0 102 -37q53 -47 53 -130q0 -105 -79 -180t-215 -75q-71 0 -131 23q-28 10 -64 35l-3 9l21 80l8 1q18 -18 30.5 -28.5t48 -24.5t77.5 -14q90 0 142.5 52t52.5 117q0 47 -34 80.5t-93 33.5q-28 0 -77 -17l-7 8q18 21 77 86t83 92
q23 26 67 78l-267 -4l-5 7l22 72l7 7q128 -2 186 -2q113 0 227 3z" />
    <glyph glyph-name="four" unicode="4" 
d="M502 175h-86q-17 -76 -35 -168l-9 -8l-94 -3l-6 7q24 92 42 172h-308l-5 7l16 61l7 11q85 97 203 240l150 177l11 7l137 1l6 -6l-97 -419l91 1l5 -7l-20 -66zM119 254h214l52 216l38 144l-16 -19l-35 -44z" />
    <glyph glyph-name="five" unicode="5" 
d="M259 594l-46 -157q52 16 91 16q85 0 138 -54t53 -137q0 -70 -33 -132t-103 -103.5t-164 -41.5q-65 0 -123 19q-33 10 -63 31l-4 8l22 81l8 2q63 -60 154 -60q88 0 140.5 53t52.5 126q0 66 -41.5 97.5t-95.5 31.5q-69 0 -148 -49l-8 6l45 155q28 92 51 184l9 7
q122 -2 183 -2q73 0 173 3l6 -6l-24 -74l-7 -6l-128 2h-138z" />
    <glyph glyph-name="six" unicode="6" 
d="M554 560l-9 -3q-19 25 -54.5 39t-73.5 14q-132 0 -204 -136q-16 -31 -42 -110q0 2 31 25q61 44 134 44q79 0 133 -51t54 -148q0 -103 -70.5 -176t-184.5 -73q-105 0 -163 63.5t-58 170.5q0 56 12 116.5t40 125t68 115t103.5 83t139.5 32.5q110 0 163 -46l4 -8zM304 348
q-76 0 -134 -62q-7 -7 -19 -21q-5 -25 -5 -57q0 -80 43 -119q32 -30 81 -30q66 0 107.5 50.5t41.5 116.5q0 51 -30.5 86.5t-84.5 35.5z" />
    <glyph glyph-name="seven" unicode="7" 
d="M596 680l4 -9q-11 -18 -102 -162q-147 -230 -251 -415q-10 -18 -27.5 -49t-23.5 -42l-9 -6l-122 -2l-4 7l132 201l251 392q-139 0 -355 -5l-4 6l26 77l8 5h169h164z" />
    <glyph glyph-name="eight" unicode="8" 
d="M413 365q33 -18 44 -28q52 -45 52 -126q0 -110 -94 -178q-66 -48 -169 -48q-107 0 -166 52.5t-59 134.5q0 74 43 130q43 54 124 71q-79 42 -79 127q0 81 64.5 136.5t170.5 55.5q99 0 154 -45.5t55 -115.5q0 -61 -37 -105q-36 -43 -103 -61zM446 521q3 47 -27 73t-78 26
q-62 0 -94 -37.5t-32 -85.5q0 -50 32.5 -72.5t72.5 -22.5q54 0 88.5 33.5t37.5 85.5zM398 206q2 36 -10 62t-33 38t-39 16.5t-35 4.5q-67 0 -108 -39q-45 -43 -45 -112q0 -17 5 -34t17.5 -36t39 -31t64.5 -12q54 0 96.5 33.5t47.5 109.5z" />
    <glyph glyph-name="nine" unicode="9" 
d="M35 117l9 2q16 -16 27 -24.5t40 -18.5t64 -10q131 0 202 139q15 29 41 107q-44 -34 -68 -45q-46 -23 -99 -23q-80 0 -132.5 52t-52.5 146q0 101 69 175t189 74q107 0 162.5 -63.5t55.5 -173.5q0 -49 -10.5 -107t-38 -123t-67 -117.5t-104.5 -87t-145 -34.5q-96 0 -162 46
l-4 8zM437 412q5 53 5 62q0 72 -36.5 107.5t-86.5 35.5q-68 0 -109 -51t-41 -116q0 -53 31.5 -87.5t83.5 -34.5q71 0 124 52q11 10 29 32z" />
    <glyph glyph-name="colon" unicode=":" horiz-adv-x="271" 
d="M174 112l-23 -105l-9 -7l-111 -2l-6 6q13 48 23 104l9 7l111 3zM267 511l-23 -103l-9 -8l-113 -2l-5 7l24 103l8 7l113 3z" />
    <glyph glyph-name="semicolon" unicode=";" horiz-adv-x="271" 
d="M180 119l4 -9q-37 -56 -57 -92q-5 -8 -27 -46t-42 -72l-20 -34l-9 -7l-69 -1l-5 6q81 187 102 245l9 6zM279 511l-24 -103l-9 -8l-112 -3l-5 7l23 103l9 8l112 3z" />
    <glyph glyph-name="less" unicode="&#x3c;" horiz-adv-x="667" 
d="M679 83v-86l-667 313v86l667 313v-87l-567 -269z" />
    <glyph glyph-name="equal" unicode="=" horiz-adv-x="667" 
d="M664 239v-78h-667v78h667zM664 420v-78h-667v78h667z" />
    <glyph glyph-name="greater" unicode="&#x3e;" horiz-adv-x="667" 
d="M679 310l-667 -313v86l567 270l-567 269v87l667 -313v-86z" />
    <glyph glyph-name="question" unicode="?" horiz-adv-x="417" 
d="M205 112l-24 -105l-9 -7l-110 -2l-6 7q12 45 23 103l9 7l112 3zM339 405l-30 -33q-69 -74 -86 -126q-1 -5 -4 -15t-4 -15l-9 -8l-86 -3l-6 8q11 48 31 87.5t73 95.5l20 21q28 32 45.5 54t35 57t17.5 65q0 43 -30 68t-73 25q-34 0 -63.5 -9.5t-42.5 -18t-36 -25.5l-9 5
l23 84l8 10q76 38 150 38q88 0 136 -47t48 -116q0 -38 -18.5 -77.5t-37.5 -63.5t-52 -61z" />
    <glyph glyph-name="at" unicode="@" horiz-adv-x="896" 
d="M784 77l33 -41q-49 -46 -88 -72q-131 -88 -279 -88q-53 0 -105.5 12t-103.5 39.5t-89.5 68t-62 102t-23.5 136.5q0 124 58.5 233.5t165.5 177t237 67.5q136 0 216.5 -79t80.5 -209q0 -89 -33 -171.5t-86.5 -132.5t-111.5 -50q-25 0 -42 10q-38 20 -41 75
q-64 -84 -143 -84q-54 0 -92.5 40.5t-38.5 121.5q0 111 63.5 197.5t147.5 86.5q79 0 115 -84l15 62h68l-32 -150q-29 -125 -29 -170t31 -45q46 0 98.5 90.5t52.5 200.5q0 118 -71 177t-174 59q-163 0 -280.5 -126.5t-117.5 -295.5q0 -64 19.5 -116.5t51.5 -86.5t75 -57.5
t88 -33.5t92 -10q185 0 335 146zM538 348q1 50 -24 77.5t-60 27.5q-60 0 -99.5 -69.5t-39.5 -146.5q0 -43 17 -69q23 -33 63 -33q56 0 98.5 65t44.5 148z" />
    <glyph glyph-name="A" unicode="A" horiz-adv-x="604" 
d="M453 710l6 -5q27 -306 69 -698l-6 -6l-107 -3l-6 7l-8 124l-7 87h-249l-39 -75q-30 -59 -67 -133l-7 -6l-105 -2l-4 10q67 117 131 234l120 218l131 241l8 5zM365 639l-179 -341q17 0 51 -0.5t51 -0.5t51.5 0.5t51.5 0.5l-16 184z" />
    <glyph glyph-name="B" unicode="B" horiz-adv-x="625" 
d="M34 146l60 265q37 165 59 290l8 6l132 2q25 1 74 1q111 0 156 -27q66 -39 66 -122q0 -58 -29.5 -103t-77.5 -67q-18 -8 -54 -18q31 -5 52 -15q35 -18 56 -55q17 -33 17 -74q0 -83 -54 -143q-54 -62 -167 -78q-52 -7 -208 -8h-48l-71 -1l-5 6zM153 199l-25 -121h45
q129 -2 182 21q38 17 58.5 51t20.5 76q0 68 -64 88q-39 12 -144 10l-44 -1zM230 535l-30 -132l30 -1q67 0 111 6.5t76 29.5q59 41 59 110q0 57 -53 78q-30 11 -123 9l-47 -1z" />
    <glyph glyph-name="C" unicode="C" horiz-adv-x="625" 
d="M557 136l-29 -103l-6 -8q-77 -40 -172 -40q-147 0 -225.5 88t-78.5 216q0 55 13.5 112t45.5 115t77.5 103t115.5 73.5t154 28.5q51 0 94.5 -10.5t62 -19.5t45.5 -25l3 -8l-27 -84l-9 -2q-20 18 -31 25q-53 35 -134 35q-84 0 -153 -50t-106 -127.5t-37 -163.5
q0 -102 59.5 -159.5t150.5 -57.5q95 0 180 66z" />
    <glyph glyph-name="D" unicode="D" horiz-adv-x="708" 
d="M5 -1l-5 5l43 180l44 195q3 16 10 50t11 50q29 133 45 222l7 5h68l69 1h92t94 -10t82 -30q108 -65 108 -224q0 -92 -38.5 -190.5t-110.5 -160.5q-50 -43 -115.5 -64.5t-118 -25t-147.5 -2.5h-62zM253 623l-47 -207q-45 -193 -73 -331h42q101 0 159.5 13.5t109.5 61.5
q59 55 87 135t28 150q0 44 -11.5 77t-31 51.5t-45.5 30.5t-55 15t-58.5 5t-57.5 0z" />
    <glyph glyph-name="E" unicode="E" horiz-adv-x="521" 
d="M438 84l-24 -78l-7 -6h-208l-194 -3l-5 7l49 202l35 157q41 181 72 338l7 5h245l147 3l6 -6l-21 -74l-8 -7q-18 0 -54 1t-54 1q-106 2 -171 1l-49 -217h140l133 2l4 -7l-20 -70l-9 -6l-118 1h-147l-21 -91l-33 -151h126l174 4z" />
    <glyph glyph-name="F" unicode="F" horiz-adv-x="479" 
d="M157 197l-40 -190l-6 -6l-106 -2l-5 5l40 165l45 197q44 198 71 336l7 5h243l153 2l4 -5l-21 -75l-7 -6q-162 4 -283 3l-50 -230q112 0 246 5l5 -6q-14 -37 -22 -74l-8 -5h-240z" />
    <glyph glyph-name="G" unicode="G" horiz-adv-x="688" 
d="M628 347l4 -7q-28 -112 -42 -169q-13 -56 -31 -137l-6 -8q-22 -10 -33 -14q-68 -27 -166 -27q-109 0 -184 43q-127 73 -127 253q0 71 25.5 145.5t74.5 141.5t132 110t185 43q47 0 91 -10q58 -12 117 -49l2 -9l-27 -85l-10 -3q-12 14 -19 20.5t-21 15t-32 15.5
q-47 17 -102 17q-42 0 -76 -11q-93 -28 -154 -115q-37 -51 -55 -114.5t-18 -113.5q0 -83 40 -134q54 -69 162 -69q52 0 105 19l13 50q22 101 37 194l6 6z" />
    <glyph glyph-name="H" unicode="H" horiz-adv-x="708" 
d="M678 552l-38 -163q-49 -214 -82 -382l-7 -6l-108 -2l-4 5q43 179 78 336q-25 0 -75 0.5t-75 0.5q-55 0 -177 -3q-31 -134 -71 -332l-7 -6l-107 -2l-5 7l29 121l49 212q43 186 78 363l7 6l107 2l5 -6l-45 -189l-20 -90q154 -1 326 2l23 105l35 170l7 6l108 2l4 -6z" />
    <glyph glyph-name="I" unicode="I" horiz-adv-x="271" 
d="M162 206l-40 -200l-8 -5l-109 -2l-5 5l32 134l49 211q45 198 75 352l6 6l111 2l4 -6q-47 -191 -91 -387z" />
    <glyph glyph-name="J" unicode="J" horiz-adv-x="354" 
d="M-62 11l-7 10l19 82l7 3q37 -23 72 -23q53 0 74 37t44 140l42 195l51 247l7 5l108 2l5 -5l-57 -239l-38 -176q-28 -131 -46 -180.5t-54 -77.5q-47 -39 -128 -39q-50 0 -99 19z" />
    <glyph glyph-name="K" unicode="K" horiz-adv-x="604" 
d="M543 609l-235 -226l114 -197l108 -175l-5 -9l-118 -3l-7 5q-16 31 -39 72q-17 28 -34 61l-134 234l-40 -186l-36 -178l-7 -6l-104 -2l-5 6l63 265l24 107q40 180 67 324l7 6l106 2l5 -6l-76 -319l192 193q24 24 121 126l9 3h119l4 -5q-50 -45 -99 -92z" />
    <glyph glyph-name="L" unicode="L" horiz-adv-x="500" 
d="M429 83l-23 -78l-7 -5h-257l-136 -1l-5 5l50 214l50 222l56 262l6 5l111 2l4 -6l-59 -242l-43 -186l-42 -190q107 -1 290 5z" />
    <glyph glyph-name="M" unicode="M" horiz-adv-x="854" 
d="M758 249l-42 -241l-8 -7l-100 -2l-8 7l40 181l39 187l57 260l-228 -424l-110 -204l-8 -5l-99 -2l-5 7l-10 145l-32 479l-41 -161l-66 -245l-56 -219l-6 -5l-90 -1l-5 7l58 197l71 252l67 247l7 5l147 1l6 -6l11 -179l14 -195q8 -114 12 -212l208 398l99 188l9 5l150 2
l5 -7l-48 -248z" />
    <glyph glyph-name="N" unicode="N" horiz-adv-x="708" 
d="M612 268l-55 -261l-7 -6l-103 -2l-8 5l-46 126l-168 465l-84 -401l-38 -188l-6 -6l-91 -2l-5 6l62 263l32 146q36 160 60 288l7 6l116 2l8 -5l52 -144l84 -234l72 -197l76 367l42 205l7 6l88 1l5 -5l-58 -249z" />
    <glyph glyph-name="O" unicode="O" horiz-adv-x="750" 
d="M694 301q-41 -158 -138 -237t-229 -79q-56 0 -105 15t-90.5 46.5t-66 87.5t-24.5 130q0 25 4 57.5t15 77.5t28.5 88t48.5 86.5t70.5 75.5t98 52.5t128.5 20.5q53 0 101 -15t89 -46t65.5 -86t24.5 -129q0 -73 -20 -145zM590 359q10 50 10 92q0 54 -17 93.5t-45 59t-55 28
t-55 8.5q-60 0 -108.5 -29.5t-78 -73t-49.5 -97t-27.5 -98.5t-7.5 -81q0 -92 46 -142q45 -50 130 -50q96 0 164 80.5t93 209.5z" />
    <glyph glyph-name="P" unicode="P" horiz-adv-x="562" 
d="M143 138l-26 -131l-7 -7l-104 -2l-6 7l47 194l26 112q51 220 83 389l8 6l69 1l75 1q80 1 123 -4t75 -25q77 -47 77 -155q0 -89 -53 -155q-27 -34 -60.5 -55t-78 -30.5t-78 -12t-91.5 -3.5h-50zM233 540l-42 -190h25q116 0 166 24q49 24 70 64.5t21 79.5q0 73 -59 99
q-31 14 -127 11l-34 -1z" />
    <glyph glyph-name="Q" unicode="Q" horiz-adv-x="750" 
d="M615 -142l-9 -2q-127 60 -296 130l-11 1q-64 7 -99 20q-67 25 -112.5 87.5t-45.5 164.5q0 51 10.5 108t38.5 121.5t69.5 115t111 84t155.5 33.5q129 0 206.5 -72.5t77.5 -206.5q0 -70 -24 -155.5t-71 -150.5q-22 -31 -45 -54t-47 -38t-35 -20.5t-32 -14.5q95 -30 223 -64
l2 -8zM590 359q10 48 10 90q0 52 -15.5 90.5t-42 59.5t-56.5 31t-63 10q-55 0 -110 -34t-94 -105q-62 -116 -62 -244q0 -95 48.5 -141.5t126.5 -46.5q95 0 162.5 77t95.5 213z" />
    <glyph glyph-name="R" unicode="R" horiz-adv-x="604" 
d="M160 707l163 2q125 0 171 -16q53 -19 77 -61.5t24 -93.5q0 -50 -23 -93t-55 -68q-28 -23 -61.5 -34.5t-88.5 -23.5l96 -191l59 -118l-4 -7l-112 -5l-7 5l-48 110l-93 192l-80 -2q-30 -127 -62 -296l-7 -7l-105 -1l-5 6l53 222l31 136q41 178 70 338zM233 545l-38 -163
l21 -1q56 0 87.5 2t75.5 16t70 42q35 38 35 92q0 65 -59 86q-20 8 -45.5 9.5t-91.5 0.5l-35 -1z" />
    <glyph glyph-name="S" unicode="S" horiz-adv-x="562" 
d="M9 46l-3 8l24 88l10 2q18 -26 41 -40q55 -37 128 -37q71 0 117.5 35t46.5 96q0 42 -35 77q-17 16 -78 49l-32 18q-54 29 -71 43q-59 49 -59 127q0 87 65.5 149.5t190.5 62.5q106 0 193 -55l3 -8l-27 -83l-10 -2q-29 37 -73.5 51.5t-81.5 14.5q-68 0 -107 -34.5t-39 -81.5
q0 -41 25 -64.5t87 -55.5l29 -14q22 -12 33.5 -19t34 -25t34.5 -35.5t22.5 -45t10.5 -58.5q0 -39 -15.5 -77.5t-46 -72.5t-84.5 -55t-123 -21q-84 0 -155 29q-26 10 -55 34z" />
    <glyph glyph-name="T" unicode="T" horiz-adv-x="521" 
d="M295 218l-44 -211l-8 -7l-106 -2l-5 6l39 160l46 195l60 264h-64l-141 -4l-5 7l22 78l8 5l179 -2h154l169 2l5 -6l-22 -77l-7 -6l-109 4l-78 1l-44 -188z" />
    <glyph glyph-name="U" unicode="U" horiz-adv-x="688" 
d="M689 709l5 -6l-39 -163l-38 -166q-37 -153 -54 -206t-49 -92q-76 -91 -227 -91q-121 0 -183 55q-55 52 -55 136q0 49 32 188l47 199l29 138l7 6l110 3l4 -6l-44 -177l-39 -164q-31 -135 -31 -175q0 -36 11 -58q31 -62 120 -62q81 0 129 51q31 34 48.5 87.5t48.5 184.5
l34 152l33 157l7 7z" />
    <glyph glyph-name="V" unicode="V" horiz-adv-x="562" 
d="M371 183l-91 -177l-8 -6l-123 -2l-6 6l-15 188l-26 308l-20 196l6 8l105 6l7 -7l35 -608q26 54 80 162l124 244l98 202l8 3h97l5 -5q-64 -117 -98 -183z" />
    <glyph glyph-name="W" unicode="W" horiz-adv-x="896" 
d="M888 504l-130 -279q-8 -18 -26 -56t-27 -58q-3 -7 -46 -104l-10 -7q-66 1 -134 -1l-5 7l1 169v429q-36 -92 -88 -204l-82 -182q-43 -95 -95 -212l-8 -6l-135 -1l-7 7v177l-7 345l-4 171l7 7l107 4l5 -5l-1 -180v-230l-4 -198l203 458l63 147l7 5q72 0 134 2l5 -6v-173
v-227l-4 -210l179 408l84 201l9 5h96l5 -5z" />
    <glyph glyph-name="X" unicode="X" horiz-adv-x="542" 
d="M333 365l48 -135q25 -68 83 -222l-5 -8l-113 -1l-6 6l-38 123l-48 145l-98 -125q-44 -54 -74 -95q-30 -40 -35 -48l-9 -5q-54 1 -110 0l-4 8l125 149l172 211l-56 156l-67 175l6 7q45 0 110 4l6 -5l81 -251q21 27 103 131q56 71 88 117l9 5h104l5 -8q-3 -3 -95 -113z" />
    <glyph glyph-name="Y" unicode="Y" horiz-adv-x="542" 
d="M288 154l-30 -148l-7 -6l-106 -2l-5 6q32 126 46 188q3 14 10.5 46.5t11.5 50.5l-67 220l-59 188l4 7l112 4l6 -5q37 -149 85 -325l115 163q99 144 110 161l7 4h102l4 -6q-40 -50 -110 -145l-200 -272z" />
    <glyph glyph-name="Z" unicode="Z" horiz-adv-x="521" 
d="M447 82l-23 -77l-7 -6l-166 1h-171l-150 -3l-5 10q76 97 114 147l361 472q-131 0 -306 -6l-6 7l24 76l7 6l147 -2h134l172 2l4 -10q-120 -156 -143 -185l-326 -430h186l148 4z" />
    <glyph glyph-name="bracketleft" unicode="[" horiz-adv-x="313" 
d="M195 364l-39 -169q-59 -265 -74 -344h103l6 -6l-13 -54l-7 -7h-81q-44 0 -120 -2l-5 8l69 292l81 352q43 189 69 321l8 8l198 2l5 -6l-16 -58l-8 -5h-97q-37 -143 -79 -332z" />
    <glyph glyph-name="backslash" unicode="\" horiz-adv-x="458" 
d="M245 467l50 -273q49 -263 66 -328l-5 -6q-40 0 -79 -1l-12 9q-10 97 -51 312l-44 236q-36 191 -72 343l6 6q44 0 79 1l12 -10q7 -52 50 -289z" />
    <glyph glyph-name="bracketright" unicode="]" horiz-adv-x="313" 
d="M88 184l39 169q60 268 73 343h-103l-6 6l14 54l7 7h81q45 0 119 2l6 -8l-69 -292l-81 -351q-41 -180 -69 -321l-8 -8l-198 -2l-5 6l15 58l8 5h98q38 144 79 332z" />
    <glyph glyph-name="asciicircum" unicode="^" horiz-adv-x="729" 
d="M437 706l180 -370h-97l-124 260l-128 -260h-96l188 370h77z" />
    <glyph glyph-name="underscore" unicode="_" horiz-adv-x="500" 
d="M511 -75v-50h-522v50h522z" />
    <glyph glyph-name="grave" unicode="`" horiz-adv-x="292" 
d="M191 746l6 -5q6 -61 21 -151l-5 -7l-64 -1l-8 6q-42 99 -67 149l5 9h112z" />
    <glyph glyph-name="a" unicode="a" 
d="M549 512l-45 -194q-37 -164 -62 -311l-7 -7l-94 -2l-5 7l7 40q-62 -51 -146 -51q-79 0 -132 53t-53 144q0 57 23 116t57 99q33 39 73.5 64t86 35t78 13t76.5 3l138 -1zM358 122l72 323q-8 0 -23 0.5t-22 0.5q-95 0 -157 -42q-29 -20 -51 -49t-32 -53t-16 -50.5t-7 -37
t-1 -16.5q0 -46 28 -85.5t89 -39.5q50 0 87 23q6 4 33 26z" />
    <glyph glyph-name="b" unicode="b" 
d="M-5 -1l-5 6l53 226l41 183q28 118 50 225q16 76 23 132l8 7l109 19l5 -7l-28 -111l-46 -192q28 15 43.5 22.5t44 15t58.5 7.5q78 0 130 -51t52 -142q0 -49 -19 -110.5t-64 -113.5q-32 -37 -69 -60.5t-83.5 -34t-81.5 -14.5t-96 -6h-55zM188 409l-76 -331l16 -1
q37 0 59.5 1.5t61 12t68.5 30.5q52 36 80.5 94t28.5 110q0 64 -33.5 95t-85.5 31t-119 -42z" />
    <glyph glyph-name="c" unicode="c" horiz-adv-x="458" 
d="M388 117l9 -4l-26 -90l-6 -7q-56 -28 -125 -28q-94 0 -158 61t-64 163q0 54 18.5 108.5t53 102.5t94 78t132.5 30q86 0 150 -40l2 -7l-25 -79l-10 -3q-8 11 -17 19q-34 31 -96 31q-59 0 -104.5 -38t-66.5 -89.5t-21 -101.5q0 -76 42 -115t98 -39q61 0 120 48z" />
    <glyph glyph-name="d" unicode="d" 
d="M573 598l-51 -218q-18 -81 -54 -245q-16 -75 -24 -127l-8 -6l-93 -2l-5 6l8 39q-68 -52 -146 -52q-83 0 -135 56t-52 145q0 58 27 129t86 122q92 80 254 80q29 0 71 -3l25 113q14 62 25 135l7 7l107 18l5 -6zM361 123l72 323q-36 2 -54 2q-54 0 -97 -14t-69.5 -37.5
t-45.5 -50t-28 -56t-12.5 -50t-3.5 -36.5q0 -60 33.5 -95t88.5 -35q26 0 50 8.5t35.5 16.5t30.5 24z" />
    <glyph glyph-name="e" unicode="e" horiz-adv-x="542" 
d="M447 125l-26 -91l-5 -6q-70 -40 -163 -40q-33 0 -66 6q-85 16 -125.5 73.5t-40.5 139.5q0 56 17 111.5t49.5 104t89 78.5t127.5 30q91 0 142 -42q57 -49 57 -145q0 -32 -11 -91l-7 -5q-16 0 -115 0.5t-118 0.5q-21 0 -125 -2q-3 -23 -3 -45q0 -66 39 -99t111 -33
q38 0 71 10.5t49.5 20t44.5 29.5zM140 319h263q5 37 5 47q0 40 -25.5 67.5t-80.5 27.5q-71 0 -120 -59q-25 -32 -42 -83z" />
    <glyph glyph-name="f" unicode="f" horiz-adv-x="292" 
d="M307 448l-8 -8q-30 2 -88 3q-40 -181 -48 -223q-24 -115 -40 -214l-7 -6q-48 0 -101 -4l-5 6q6 30 22 100.5t20 90.5l55 250q-5 0 -38 -0.5t-38 -0.5l-6 6q12 41 18 67l8 7q16 -1 36 -3h35l14 65q10 51 15.5 73.5t18 49t31.5 43.5q42 38 118 38q37 0 72 -8l5 -8
q-9 -34 -18 -69l-8 -6q-19 7 -41 7q-36 0 -54 -21q-17 -19 -38 -112l-11 -53q65 0 95 2l5 -8q-5 -15 -10 -33.5t-9 -30.5z" />
    <glyph glyph-name="g" unicode="g" 
d="M551 522l4 -8q-34 -133 -76 -326l-29 -134q-15 -68 -23.5 -100.5t-24 -69.5t-36.5 -61q-65 -76 -197 -76q-87 0 -149 31q-25 12 -59 44l-1 9l41 63h8q17 -18 29.5 -29.5t48.5 -26.5t78 -15q36 0 64 12t43.5 27t28.5 41.5t17.5 41t10.5 39.5l13 52q-28 -16 -42.5 -23.5
t-43 -15t-60.5 -7.5q-78 0 -129.5 50.5t-51.5 141.5q0 96 48 177q26 45 61 76.5t65.5 47t76 24.5t72 10.5t73.5 2.5zM432 442l-26 1q-49 -1 -77.5 -3.5t-72 -21t-72.5 -54.5q-24 -29 -42 -75.5t-18 -91.5q0 -34 9.5 -59.5t22.5 -38t30 -20.5t28.5 -9.5t21.5 -1.5q22 0 45 6
q38 10 77 42z" />
    <glyph glyph-name="h" unicode="h" 
d="M472 158l-30 -151l-7 -6l-102 -3l-5 7l24 97l23 99q5 22 14.5 66t13.5 66q5 35 5 42q0 36 -21 55.5t-57 19.5q-17 0 -37 -5q-50 -12 -103 -51l-40 -179l-42 -208l-7 -6l-101 -2l-6 6l84 358q56 253 57 260q16 77 25 148l8 7l109 17l5 -7q-48 -195 -76 -315q31 19 47.5 28
t52 20t71.5 11q23 0 44.5 -5t44.5 -17.5t37.5 -40t14.5 -65.5q0 -35 -19 -122z" />
    <glyph glyph-name="i" unicode="i" horiz-adv-x="250" 
d="M138 157l-29 -151l-7 -5l-106 -3l-5 6q34 136 63 266l13 62q18 82 32 172l7 7l109 16l5 -7q-25 -98 -61 -260zM276 760l-23 -92l-8 -8l-105 -14l-6 8l21 92l9 8l104 13z" />
    <glyph glyph-name="j" unicode="j" horiz-adv-x="250" 
d="M217 528l6 -6l-41 -171l-41 -183q-5 -25 -18 -84t-20 -91q-14 -64 -25 -96q-15 -42 -38.5 -69.5t-54 -40t-55 -17.5t-60.5 -7l-7 6l6 64l6 8q61 7 83 42.5t49 161.5l49 228q28 127 46 231l7 6q62 8 108 18zM277 760l-23 -93l-7 -7l-105 -14l-7 7l22 93l8 8l106 13z" />
    <glyph glyph-name="k" unicode="k" horiz-adv-x="500" 
d="M405 424l-130 -120l155 -295l-6 -8l-111 -3l-8 6q-25 61 -69 149l-70 142q-31 -135 -60 -289l-7 -6l-101 -2l-4 6l60 257l32 137q11 47 43 194q18 86 33 179l7 6l109 18l6 -7l-31 -122l-84 -357q30 26 71 66q60 59 136 139l11 6h115l3 -9q-5 -5 -55 -47q-3 -3 -45 -40z
" />
    <glyph glyph-name="l" unicode="l" horiz-adv-x="250" 
d="M220 529l-39 -185q-38 -176 -67 -338l-8 -6l-102 -3l-4 6l46 207l50 233q48 222 61 328l7 7l110 19l5 -6z" />
    <glyph glyph-name="m" unicode="m" horiz-adv-x="875" 
d="M777 223l-44 -216l-7 -6l-99 -3l-6 7l44 179l18 76q20 103 20 119q0 29 -18 48t-58 19q-65 0 -133 -55q-5 -60 -21 -130l-23 -106l-30 -148l-7 -6l-99 -2l-5 7l41 174l14 65q22 99 22 130q0 26 -16 48.5t-58 22.5q-15 0 -35 -5q-38 -9 -88 -48l-33 -149
q-29 -131 -48 -237l-7 -6l-101 -2l-5 6l42 177l21 95q23 105 43 228l7 7l105 17l6 -7l-13 -52q28 19 45.5 29.5t50.5 21.5t66 11q93 0 118 -74q29 23 52 35q69 38 139 38q16 0 32 -2.5t35 -11t33.5 -22t24 -38t9.5 -56.5q0 -31 -17 -103z" />
    <glyph glyph-name="n" unicode="n" 
d="M468 138l-25 -132l-8 -6l-102 -3l-4 7l42 179l25 113q10 46 10 71q0 80 -84 80q-61 0 -133 -53q-51 -232 -81 -388l-7 -6l-102 -3l-5 7l41 172l16 75q30 132 48 253l7 7q51 6 106 18l5 -7l-14 -51q29 19 45 28.5t52.5 21t74.5 11.5q18 0 37 -4t45 -15.5t42.5 -40
t16.5 -70.5q0 -54 -33 -196z" />
    <glyph glyph-name="o" unicode="o" horiz-adv-x="562" 
d="M494 223q-8 -31 -18.5 -58t-32.5 -61t-49.5 -58.5t-72 -41t-98.5 -16.5q-100 0 -153 52t-53 153q0 51 14.5 105t44.5 108.5t88.5 89.5t135.5 35q99 0 154 -53t55 -149q0 -48 -15 -106zM390 254q12 50 12 86t-10.5 61t-27.5 36.5t-32.5 16t-31.5 4.5q-44 0 -78.5 -26
t-52 -61.5t-29 -79t-14.5 -70.5t-3 -44q0 -57 29 -86t73 -29q123 0 165 192z" />
    <glyph glyph-name="p" unicode="p" 
d="M218 521l-10 -41q78 49 143 49q75 0 127.5 -54t52.5 -146q0 -114 -67 -201q-100 -129 -305 -129q-39 0 -58 1q-26 -111 -48 -234l-7 -5l-105 -1l-5 6l55 227l20 79q53 240 57 259q15 75 31 174l7 6l107 17zM191 396l-73 -320q5 0 13 -1t14.5 -1.5t13.5 -0.5
q121 0 192 74.5t71 169.5q0 66 -33.5 97.5t-80.5 31.5q-63 0 -117 -50z" />
    <glyph glyph-name="q" unicode="q" horiz-adv-x="562" 
d="M545 522l5 -6q-35 -127 -72 -293l-40 -184q-30 -132 -56 -272l-8 -6l-103 -2l-5 6q7 25 19 75q10 40 28 122q14 55 19 73q-62 -43 -140 -43q-80 0 -128.5 54.5t-48.5 140.5q0 61 27.5 131t77.5 117q39 37 90.5 56.5t87 23t106.5 6.5h50zM350 116l74 327h-15
q-44 0 -69 -1.5t-59.5 -11.5t-60.5 -30q-46 -35 -71 -95.5t-25 -108.5q0 -58 29.5 -91.5t80.5 -33.5q21 0 42 6q36 8 74 39z" />
    <glyph glyph-name="r" unicode="r" horiz-adv-x="354" 
d="M127 101l-18 -94l-8 -7l-104 -2l-5 6l37 146l22 95q30 129 50 259l7 7q64 8 108 17l5 -7l-22 -88q14 25 26 39q49 61 104 61q17 0 46 -12l3 -9l-39 -98l-10 -3q-25 14 -42 14q-37 0 -69 -34q-23 -24 -37 -65.5t-33 -125.5z" />
    <glyph glyph-name="s" unicode="s" horiz-adv-x="437" 
d="M413 485l-22 -72l-9 -3q-17 22 -53 37t-73 15q-46 0 -76 -21t-30 -55q0 -21 15 -38t26.5 -23t38.5 -18l52 -24q31 -14 59 -45.5t28 -78.5q0 -71 -54.5 -122.5t-159.5 -51.5q-101 0 -182 50l-3 9l23 72l8 3q22 -19 36.5 -29.5t44.5 -21t66 -10.5q53 0 83.5 25t30.5 59
q0 29 -19.5 46t-62.5 35l-25 12q-23 10 -38.5 19.5t-34.5 25t-28.5 38.5t-9.5 51q0 16 3.5 34t17 42.5t34.5 43t60.5 31.5t91.5 13q87 0 158 -39z" />
    <glyph glyph-name="t" unicode="t" horiz-adv-x="292" 
d="M235 85l6 -5q-2 -6 -6 -18.5t-6 -18.5l-9 -33l-8 -8q-36 -9 -72 -9q-37 0 -62 10q-56 22 -56 87q0 29 5.5 58t36.5 159l32 136q-20 1 -72 -1l-5 7q11 34 18 65l7 6q32 -2 68 -2q14 57 28 126l7 6q48 11 103 26l6 -6q-9 -33 -20 -75l-19 -77q27 0 109 2l4 -6
q-15 -44 -20 -67l-8 -6q-24 1 -53.5 1.5t-48.5 0.5l-54 -226q-6 -30 -10 -45q-9 -45 -9 -55q0 -45 49 -45q23 0 59 13z" />
    <glyph glyph-name="u" unicode="u" 
d="M467 161l-30 -154l-7 -6l-98 -4l-5 7l12 49q-32 -29 -78 -46t-87 -17q-58 0 -102.5 32.5t-44.5 104.5q0 37 25 151l23 98q14 60 28 135l7 7l100 4l5 -6q-36 -151 -55 -225q-23 -96 -23 -134q0 -33 17 -53.5t33 -25t33 -4.5q67 0 136 58l38 170q26 122 42 209l8 7l101 5
l4 -7l-58 -246z" />
    <glyph glyph-name="v" unicode="v" horiz-adv-x="479" 
d="M419 343l-85 -151q-24 -43 -49 -89l-53 -97l-8 -6l-117 -3l-8 6l-21 196l-13 118l-25 193l7 7q56 1 102 5l7 -6l10 -154l11 -123l14 -156l136 267q62 116 85 165l8 4l92 1l5 -7q-75 -128 -98 -170z" />
    <glyph glyph-name="w" unicode="w" horiz-adv-x="750" 
d="M682 300l-74 -151l-67 -140l-8 -7l-118 -3l-7 7l-3 105l-8 320l-131 -276q-19 -40 -70 -149l-7 -5l-116 -2l-7 6l-9 176l-8 164l-10 164l6 8l97 4l6 -6l2 -177l5 -244l135 284q34 72 62 136l8 5q68 -1 122 2l7 -7v-112l5 -313l118 250q44 93 79 176l8 5l85 1l5 -8
q-21 -41 -107 -213z" />
    <glyph glyph-name="x" unicode="x" horiz-adv-x="458" 
d="M378 401l-113 -133q36 -85 118 -260l-5 -7l-112 -4l-7 5l-30 85l-40 103l-74 -91q-38 -45 -73 -95l-8 -4l-104 -1l-5 7q14 15 49 54.5t49 54.5l133 152q-65 146 -111 244l6 8l107 4l8 -5q33 -93 67 -173l53 66q22 28 78 105l9 4l98 1l4 -8z" />
    <glyph glyph-name="y" unicode="y" horiz-adv-x="479" 
d="M515 521l4 -8q-43 -67 -177 -291l-102 -169q-111 -193 -160 -289l-8 -7l-104 -1l-3 8q119 182 152 240l-24 163l-26 173l-30 172l7 7q38 1 104 5l8 -5l16 -153l28 -231l97 172q1 2 23 41.5t49.5 90t39.5 76.5l8 5z" />
    <glyph glyph-name="z" unicode="z" horiz-adv-x="437" 
d="M360 72l-21 -65l-9 -6q-26 0 -79 0.5t-80 0.5q-77 0 -229 -2l-4 9q70 85 122 153l155 195q47 60 66 86l-223 -2l-5 7l22 65l8 7q140 -2 154 -2q71 0 213 2l4 -9l-44 -56q-2 -3 -51 -63.5t-104 -128t-70 -87.5q-39 -49 -76 -101q123 1 245 5z" />
    <glyph glyph-name="braceleft" unicode="{" horiz-adv-x="354" 
d="M59 249v50q16 5 23.5 8t17.5 13t18 27q12 30 12 113v96q1 71 7.5 105t29.5 59q25 27 55 34.5t108 10.5v-50q-16 -4 -22 -6t-20 -8t-24 -15.5t-17 -22.5q-16 -27 -17 -115v-46q0 -60 -1 -91q-2 -69 -22.5 -96t-63.5 -41q43 -14 63.5 -41t22.5 -96q1 -31 1 -91v-47
q1 -88 17 -115q7 -13 17 -22.5t24 -15.5t20 -8t22 -6v-50q-78 3 -108 10.5t-55 34.5q-23 25 -29.5 59t-7.5 105v97q0 83 -12 113q-8 17 -18 27t-17.5 13t-23.5 8z" />
    <glyph glyph-name="bar" unicode="|" horiz-adv-x="229" 
d="M157 750v-1000h-80v1000h80z" />
    <glyph glyph-name="braceright" unicode="}" horiz-adv-x="354" 
d="M289 298v-50q-16 -5 -23.5 -8t-17.5 -13t-18 -27q-12 -30 -12 -113v-96q-1 -71 -7.5 -105t-29.5 -59q-25 -27 -55 -34.5t-108 -10.5v50q16 4 22 6t20 8t24 15.5t17 22.5q16 27 17 115v46q0 60 1 91q2 69 22.5 96t63.5 41q-43 14 -63.5 41t-22.5 96q-1 31 -1 91v47
q-1 88 -17 115q-7 13 -17 22.5t-24 15.5t-20 8t-22 6v50q78 -3 108 -10.5t55 -34.5q23 -25 29.5 -59t7.5 -105v-97q0 -83 12 -113q8 -17 18 -27t17.5 -13t23.5 -8z" />
    <glyph glyph-name="asciitilde" unicode="~" horiz-adv-x="729" 
d="M564 366l39 -71q-19 -21 -32 -34t-44 -29.5t-62 -16.5q-30 0 -99 31l-30 15q-50 24 -80 24q-27 0 -44 -13t-51 -54l-40 71q57 85 133 85q39 0 111 -34l33 -15q46 -21 70 -21q43 0 96 62z" />
    <glyph glyph-name="exclamdown" unicode="&#xa1;" horiz-adv-x="271" 
d="M107 646l24 104l8 6l111 3l6 -6q-13 -50 -23 -103l-10 -8l-110 -3zM10 180l31 118q39 153 42 168q3 12 8.5 37.5t8.5 38.5l7 7l75 2l4 -6l-23 -115l-28 -135q-28 -149 -51 -286l-8 -7l-110 -5l-5 8z" />
    <glyph glyph-name="cent" unicode="&#xa2;" horiz-adv-x="500" 
d="M390 443l-174 -370q27 -6 43 -6q67 0 139 52l8 -3q-13 -38 -28 -89l-6 -6q-60 -34 -136 -34q-33 0 -57 6q-18 -39 -35 -79l-8 -7q-36 0 -58 -1l-4 6q23 43 50 99q-108 54 -108 187q0 79 34.5 154.5t108 129t168.5 53.5q21 0 44 -3q25 57 31 70l7 5q31 0 54 1l3 -6
q-19 -37 -41 -81q32 -13 61 -34l2 -9q-18 -45 -29 -78l-8 -2q-24 32 -61 45zM165 96l169 357q-9 1 -19 1q-82 0 -140 -78t-58 -172q0 -71 48 -108z" />
    <glyph glyph-name="sterling" unicode="&#xa3;" horiz-adv-x="542" 
d="M443 73l-19 -68l-7 -6l-152 1h-119l-150 -2l-4 9q51 77 77 139t43 166l-74 -2l-4 6l17 59l7 4l65 -1q16 114 27 155t41 78q70 82 205 82q43 0 77 -7.5t48 -14.5t36 -20l3 -8l-23 -73l-8 -2q-19 14 -30.5 21.5t-38 16t-57.5 8.5q-75 0 -120 -47q-18 -20 -29 -49t-15.5 -54
t-12.5 -84q103 -1 225 3l5 -6l-20 -62l-8 -6q-103 3 -214 2q-22 -108 -34 -143.5t-47 -92.5q117 -1 306 5z" />
    <glyph glyph-name="currency" unicode="&#xa4;" horiz-adv-x="667" 
d="M626 570l-75 -76q50 -69 50 -154t-52 -156l77 -76l-61 -61l-76 77q-71 -50 -153 -50q-85 0 -156 51l-76 -76l-60 60l76 76q-51 72 -51 155q0 84 51 155l-75 75l60 60l75 -75q71 51 156 51q84 0 154 -51l76 75zM521 340q0 82 -55 135t-131 53t-131 -52.5t-55 -135.5
q0 -81 55 -134.5t133 -53.5q77 0 130 53.5t54 134.5z" />
    <glyph glyph-name="yen" unicode="&#xa5;" horiz-adv-x="521" 
d="M425 178l-8 -6q-38 1 -136 1l-6 -26q-28 -136 -29 -141l-7 -6q-58 0 -102 -2l-5 6q6 24 21.5 85t21.5 84q-39 0 -69 -0.5t-45.5 -0.5h-18.5l-4 8q6 17 17 56l8 7q1 0 24 -0.5t53.5 -0.5h50.5q7 28 7 35l-15 48q-89 0 -108 -1l-5 8q10 26 18 57l8 7q16 -1 66 -1l-28 92
q-4 13 -13.5 45.5t-15.5 49.5q-14 49 -27 86l4 6q42 1 107 4l5 -4q19 -80 39 -156q23 -84 43 -156l110 156q24 35 49 71.5t38.5 56.5t17.5 26l7 5q55 -1 97 0l4 -6q-25 -33 -105 -140l-100 -136h39q20 0 37 1l5 -6q-7 -20 -18 -60l-7 -6q-23 1 -107 1l-40 -54l-7 -29h88
q20 0 54 2l4 -6q-8 -27 -17 -60z" />
    <glyph glyph-name="brokenbar" unicode="&#xa6;" horiz-adv-x="229" 
d="M77 -191v381h80v-381h-80zM157 308h-80v381h80v-381z" />
    <glyph glyph-name="section" unicode="&#xa7;" horiz-adv-x="521" 
d="M342 480l27 -18q26 -17 40 -28t32 -30t26.5 -42t8.5 -51q0 -30 -11.5 -57t-27 -43.5t-39 -32t-38 -22.5t-34.5 -15q16 -18 24 -28.5t17.5 -35t9.5 -50.5q0 -73 -60 -125.5t-169 -52.5q-45 0 -82.5 8.5t-54.5 17t-42 24.5l-4 8l24 81l9 2q20 -21 42 -35q50 -28 108 -28
q60 0 92.5 27t32.5 66q0 30 -20.5 51.5t-75.5 56.5l-27 18q-26 17 -41.5 28.5t-36 31.5t-30.5 45.5t-10 55.5q0 71 57 120q31 27 99 51q-14 17 -22 28t-14.5 30t-6.5 41q0 26 11 53t33.5 54t66 44t101.5 17q87 0 162 -45l3 -8l-25 -74l-7 -2q-22 27 -59 41t-72 14
q-48 0 -78 -26t-30 -61q0 -29 20 -49.5t71 -54.5zM200 230l33 -21q7 -4 14.5 -9t12.5 -8t11 -7q44 15 63 28q48 35 48 78q0 22 -13.5 41.5t-25 28.5t-34.5 24l-30 20l-37 26q-46 -13 -68 -28q-49 -32 -49 -78q0 -28 18 -48t57 -47z" />
    <glyph glyph-name="dieresis" unicode="&#xa8;" horiz-adv-x="292" 
d="M312 704l-21 -97l-8 -7l-94 -3l-6 6l21 96l7 6l96 5zM113 703l-22 -97l-8 -6l-97 -3l-5 5l22 97l7 6l98 3z" />
    <glyph glyph-name="copyright" unicode="&#xa9;" horiz-adv-x="833" 
d="M775 351q-1 -148 -103.5 -251t-252.5 -103q-144 0 -250 101t-106 255q0 151 105 253.5t251 102.5q152 0 254.5 -105t101.5 -253zM743 351q1 135 -92 230.5t-230 95.5q-136 0 -231 -95t-95 -229q0 -136 95 -230t229 -94q136 0 229.5 94t94.5 228zM560 258l56 -49
q-76 -91 -191 -91q-101 0 -168 66.5t-67 168.5q0 101 67 169.5t170 68.5q113 0 188 -90l-55 -53q-60 68 -133 68q-67 0 -113 -46t-46 -116t46.5 -115.5t113.5 -45.5q34 0 64 14t40.5 23.5t27.5 27.5z" />
    <glyph glyph-name="ordfeminine" unicode="&#xaa;" horiz-adv-x="375" 
d="M413 697l-29 -126q-36 -162 -40 -200l-7 -6h-18q-32 0 -45 -1l-6 7l3 17l-4 -3q-46 -24 -82 -24q-58 0 -91 36.5t-33 92.5q0 42 21.5 91.5t66.5 82.5q59 42 168 42l90 -1zM327 649h-2q-57 2 -88 -9q-40 -14 -64 -48t-29 -57t-5 -39q0 -32 18 -54t53 -22q44 0 73 29l10 46
q10 46 21 96t13 58z" />
    <glyph glyph-name="guillemotleft" unicode="&#xab;" horiz-adv-x="417" 
d="M414 469l2 -7q-96 -124 -143 -187q25 -81 63 -186l-7 -8h-81l-8 6q-16 54 -25 81q-7 24 -35 107l2 9q115 157 131 180l10 5h91zM244 469l3 -8q-62 -79 -142 -185l62 -187l-5 -8h-81l-7 6l-61 185l1 11q75 101 130 182l11 4h89z" />
    <glyph glyph-name="logicalnot" unicode="&#xac;" horiz-adv-x="667" 
d="M579 0v253h-587v79h667v-332h-80z" />
    <glyph glyph-name="registered" unicode="&#xae;" horiz-adv-x="833" 
d="M268 580h146q74 0 105 -11q35 -12 53.5 -41t18.5 -63q0 -83 -93 -107q30 -13 44 -32t21 -62q8 -56 14 -80.5t21 -52.5h-92q-11 20 -19 62q-5 48 -11 69q-8 44 -29.5 56.5t-70.5 13.5h-28v-201h-80v449zM349 518v-122h66q18 0 29 1t29.5 6t28 19.5t9.5 36.5q0 38 -32 53
q-16 6 -79 6h-51zM775 351q-1 -148 -104 -251t-253 -103q-143 0 -249 101t-106 254q0 152 104.5 254.5t250.5 102.5q153 0 255.5 -105t101.5 -253zM743 351q1 135 -92.5 230.5t-230.5 95.5t-231 -95t-94 -230t95 -229t229 -94q137 0 230 93.5t94 228.5z" />
    <glyph glyph-name="macron" unicode="&#xaf;" horiz-adv-x="292" 
d="M284 692l4 -7q-2 -7 -10.5 -31t-13.5 -38l-9 -5q-5 0 -42.5 0.5t-52.5 0.5h-63q-70 0 -89 -1l-4 8q16 44 23 65l10 8q17 -2 82 -3h67q57 0 98 3z" />
    <glyph glyph-name="macron" unicode="&#x2c9;" horiz-adv-x="292" 
d="M284 692l4 -7q-2 -7 -10.5 -31t-13.5 -38l-9 -5q-5 0 -42.5 0.5t-52.5 0.5h-63q-70 0 -89 -1l-4 8q16 44 23 65l10 8q17 -2 82 -3h67q57 0 98 3z" />
    <glyph glyph-name="degree" unicode="&#xb0;" horiz-adv-x="354" 
d="M53 595q0 67 47.5 114t114.5 47t114 -47t47 -114t-47 -114.5t-114 -47.5t-114.5 47.5t-47.5 114.5zM135 595q0 -33 23.5 -56.5t56.5 -23.5q32 0 55.5 23.5t23.5 56.5q0 32 -23.5 55.5t-55.5 23.5q-33 0 -56.5 -23.5t-23.5 -55.5z" />
    <glyph glyph-name="plusminus" unicode="&#xb1;" horiz-adv-x="667" 
d="M377 377v-242h-80v242h-254v79h254v242h80v-242h251v-79h-251zM628 79v-79h-585v79h585z" />
    <glyph glyph-name="twosuperior" unicode="&#xb2;" horiz-adv-x="396" 
d="M335 301l5 -7q-8 -23 -17 -54l-7 -5q-18 1 -117 1h-72q-100 0 -120 -1l-3 12q17 17 62 53l66 57q117 104 143 137q25 34 25 60t-20.5 47.5t-62.5 21.5q-62 0 -117 -52l-9 4q5 19 9.5 37.5t8.5 33.5l4 6q53 34 120 34q69 0 107 -35.5t38 -84.5q0 -51 -36 -94.5
t-120 -112.5l-73 -62q64 0 96 1q48 0 90 3z" />
    <glyph glyph-name="threesuperior" unicode="&#xb3;" horiz-adv-x="396" 
d="M395 678l4 -10q-77 -81 -147 -165q33 -6 47 -14q49 -27 49 -96t-51.5 -118t-139.5 -49q-77 0 -129 38l-3 8q10 35 15 54l8 1q43 -43 100 -43t89.5 32.5t32.5 72.5q0 32 -22 51.5t-55 19.5q-28 0 -52 -12l-7 9l5 7q8 9 71 78q11 11 66 77q-134 -1 -165 -3l-6 7
q12 38 15 49l6 6q33 -2 70 -2q151 0 199 2z" />
    <glyph glyph-name="acute" unicode="&#xb4;" horiz-adv-x="292" 
d="M253 748l3 -8q-78 -84 -129 -145l-9 -9l-9 -5q-44 2 -70 1l-3 8q44 63 91 152l8 5q9 0 27.5 -0.5t28.5 -0.5q20 0 62 2z" />
    <glyph glyph-name="mu" unicode="&#xb5;" 
d="M545 522l4 -7q-15 -60 -21 -86q-10 -38 -37 -159q-42 -186 -54 -263l-7 -6q-28 -1 -98 -4l-5 7l11 45q-20 -18 -33 -28t-39.5 -21.5t-53.5 -11.5q-56 0 -85 37q-8 10 -15 23q-4 -15 -10 -45q-15 -64 -27 -123q-18 -96 -22 -115l-7 -5q-57 1 -105 -1l-5 7q46 180 126 542
q27 125 41 203l7 6q33 1 100 5l5 -7q-4 -16 -27 -109.5t-27 -110.5q-21 -96 -21 -126q0 -43 24 -66t67 -23q68 0 110 55q19 26 28 58t24 109q3 17 10.5 51.5t11.5 51.5q13 57 21 105l8 7q40 1 101 5z" />
    <glyph glyph-name="mu" unicode="&#x3bc;" 
d="M545 522l4 -7q-15 -60 -21 -86q-10 -38 -37 -159q-42 -186 -54 -263l-7 -6q-28 -1 -98 -4l-5 7l11 45q-20 -18 -33 -28t-39.5 -21.5t-53.5 -11.5q-56 0 -85 37q-8 10 -15 23q-4 -15 -10 -45q-15 -64 -27 -123q-18 -96 -22 -115l-7 -5q-57 1 -105 -1l-5 7q46 180 126 542
q27 125 41 203l7 6q33 1 100 5l5 -7q-4 -16 -27 -109.5t-27 -110.5q-21 -96 -21 -126q0 -43 24 -66t67 -23q68 0 110 55q19 26 28 58t24 109q3 17 10.5 51.5t11.5 51.5q13 57 21 105l8 7q40 1 101 5z" />
    <glyph glyph-name="paragraph" unicode="&#xb6;" horiz-adv-x="667" 
d="M356 706h230v-54h-34v-819h-58v819h-145v-819h-57v486q-55 9 -89 35q-69 53 -69 151q0 93 62 150q25 23 58.5 35t52 13.5t49.5 2.5z" />
    <glyph glyph-name="periodcentered" unicode="&#xb7;" horiz-adv-x="229" 
d="M176 335l-23 -103l-9 -7l-110 -3l-6 6q11 44 23 104l8 7l111 4z" />
    <glyph glyph-name="periodcentered" unicode="&#x2219;" horiz-adv-x="229" 
d="M176 335l-23 -103l-9 -7l-110 -3l-6 6q11 44 23 104l8 7l111 4z" />
    <glyph glyph-name="cedilla" unicode="&#xb8;" horiz-adv-x="292" 
d="M233 -45l4 -7q-51 -92 -74 -136l-9 -7h-96l-4 9q79 106 99 136l10 6z" />
    <glyph glyph-name="onesuperior" unicode="&#xb9;" horiz-adv-x="396" 
d="M287 523l-22 -95q-4 -22 -14 -66.5t-13 -61.5l-12 -58l-6 -6q-44 0 -69 -1l-5 6q19 76 36 152l16 69q1 4 7.5 34t10.5 45q5 21 9 40t6 26.5t3 12.5q-17 -1 -62 -8l-7 6q7 23 13 45l6 6q96 11 135 17l6 -6l-2 -8q-3 -12 -17 -70t-19 -79z" />
    <glyph glyph-name="ordmasculine" unicode="&#xba;" horiz-adv-x="375" 
d="M208 356q-66 0 -101 33q-37 34 -37 101q0 34 9 69t29 71t58.5 59t89.5 23q62 0 100 -34t38 -100q0 -12 -2 -30t-12.5 -54t-28.5 -64t-55.5 -50.5t-87.5 -23.5zM209 411q33 0 57 24.5t34 59.5t13.5 57.5t3.5 33.5q0 71 -62 71q-33 0 -56.5 -23t-33.5 -56t-14.5 -57
t-4.5 -39q0 -34 16.5 -52.5t46.5 -18.5z" />
    <glyph glyph-name="guillemotright" unicode="&#xbb;" horiz-adv-x="417" 
d="M-28 81l-2 7q46 58 109 142q10 13 34 45q-19 64 -62 186l6 8h81l8 -6q8 -28 26 -84q18 -58 34 -104l-1 -10q-72 -93 -132 -179l-10 -5h-91zM142 81l-3 8q22 26 142 185l-62 187l5 8h81l7 -6l61 -185l-1 -11q-95 -130 -130 -182l-10 -4h-90z" />
    <glyph glyph-name="onequarter" unicode="&#xbc;" horiz-adv-x="917" 
d="M835 118l-7 -6q-27 1 -53 0q-13 -53 -23 -107l-7 -6q-3 0 -63 -2l-6 7q13 50 27 108h-92h-104l-5 7l11 41l4 8q17 19 113.5 134t114.5 135l8 5q45 0 91 1l5 -7q-30 -128 -32 -140q-25 -110 -30 -127q40 0 56 1l6 -8q-6 -17 -14 -44zM286 24l-10 -16l-10 -7q-12 -1 -32 -1
t-32 -1l-4 8q4 6 24 35t38.5 57t24.5 37q22 32 64 98l134 206q93 143 146 230l11 7q38 0 62 1l5 -7q-77 -112 -163 -241l-119 -185q-63 -97 -139 -221zM588 169h128l34 137q3 15 11 45l9 34q-16 -20 -48 -58zM287 523l-22 -96q-3 -13 -13.5 -61t-13.5 -67l-12 -58l-6 -5
q-19 0 -69 -2l-5 7q3 10 36 152l16 69q3 13 8.5 39t8.5 39q14 61 19 80q-34 -4 -62 -9l-7 6q8 29 13 46l6 5q15 2 44.5 5.5t52 6.5t38.5 6l6 -7l-2 -8q-33 -133 -36 -148z" />
    <glyph glyph-name="onehalf" unicode="&#xbd;" horiz-adv-x="917" 
d="M287 523l-22 -95q-14 -68 -27 -128l-12 -58l-6 -6q-44 0 -69 -1l-5 6q19 76 36 152l16 69q12 52 18 79q5 21 9 40t6 26.5t3 12.5q-36 -4 -62 -9l-7 6q8 29 13 46l6 5q15 2 44.5 5.5t52 6.5t38.5 6l6 -7l-2 -8q-33 -133 -36 -148zM263 25l-11 -17l-9 -6q-12 0 -32 -1
t-32 -1l-4 8q6 9 43 63.5t44 65.5q31 44 64 97l134 206q83 126 146 230l11 7q38 0 62 1l4 -7q-44 -64 -162 -241l-119 -185q-75 -117 -139 -220zM802 66l5 -7q-8 -23 -17 -54l-7 -5q-33 1 -117 1h-72q-102 0 -120 -1l-3 12q17 17 62 53l66 57q117 104 143 137q25 34 25 60
t-20.5 47.5t-62.5 21.5q-62 0 -117 -52l-9 4q5 18 9.5 36.5t8.5 34.5l4 6q53 34 120 34q69 0 107 -35.5t38 -84.5q0 -51 -36 -94.5t-120 -112.5l-73 -62q64 0 96 1q48 0 90 3z" />
    <glyph glyph-name="threequarters" unicode="&#xbe;" horiz-adv-x="917" 
d="M835 118l-7 -6q-27 1 -54 0q-13 -58 -22 -107l-7 -6q-5 0 -63 -2l-6 7q14 52 26 108h-91h-28.5h-47h-29.5l-4 7l10 41l5 8q14 16 111 131t117 138l8 5q45 0 90 1l6 -6q-5 -23 -17.5 -75t-15.5 -66q-19 -87 -29 -127q39 0 56 1l5 -8q-4 -14 -13 -44zM303 24l-10 -16l-9 -7
q-12 -1 -32.5 -1.5t-32.5 -0.5l-3 8q6 9 43 63.5t44 65.5q7 10 29 44.5t35 53.5l133 206q80 121 147 230l11 7q38 0 62 1l4 -7q-95 -139 -162 -241l-119 -185q-84 -129 -140 -221zM587 169h129l33 137l12 45l9 35q-30 -38 -48 -58zM395 678l4 -10q-77 -81 -147 -165
q33 -6 47 -14q49 -27 49 -96t-51.5 -118t-139.5 -49q-77 0 -129 38l-3 8q10 35 15 54l8 1q43 -43 100 -43t89.5 32.5t32.5 72.5q0 32 -22 51.5t-55 19.5q-28 0 -52 -12l-7 9l5 7q8 9 71 78q11 11 66 77q-134 -1 -165 -3l-6 7q12 38 15 49l6 6q33 -2 70 -2q151 0 199 2z" />
    <glyph glyph-name="questiondown" unicode="&#xbf;" horiz-adv-x="417" 
d="M228 645l25 105l8 6l110 3l6 -7q-15 -59 -23 -103l-8 -7l-113 -3zM95 352l30 33q63 67 82 115q3 8 7 22.5t5 18.5l9 8l86 2l6 -7q-12 -54 -33 -90t-71 -93l-20 -21q-98 -104 -98 -177q0 -44 30.5 -68t73.5 -24q34 0 63 9.5t42.5 18t35.5 25.5l9 -5l-24 -85l-7 -9
q-67 -38 -150 -38q-66 0 -109.5 27t-59 61.5t-15.5 73.5q0 38 19 79t37.5 64.5t51.5 59.5z" />
    <glyph glyph-name="Agrave" unicode="&#xc0;" horiz-adv-x="604" 
d="M453 710l6 -5q27 -306 69 -698l-6 -6l-107 -3l-6 7l-8 124l-7 87h-249l-39 -75q-30 -59 -67 -133l-7 -6l-105 -2l-4 10q67 117 131 234l120 218l131 241l8 5zM365 639l-179 -341q17 0 51 -0.5t51 -0.5t51.5 0.5t51.5 0.5l-16 184zM412 893l28 -134l-6 -7l-66 -1l-7 4
q-39 72 -77 136l6 8h115z" />
    <glyph glyph-name="Aacute" unicode="&#xc1;" horiz-adv-x="604" 
d="M453 710l6 -5q27 -306 69 -698l-6 -6l-107 -3l-6 7l-8 124l-7 87h-249l-39 -75q-30 -59 -67 -133l-7 -6l-105 -2l-4 10q67 117 131 234l120 218l131 241l8 5zM365 639l-179 -341q17 0 51 -0.5t51 -0.5t51.5 0.5t51.5 0.5l-16 184zM560 900l4 -8q-4 -4 -28.5 -28
t-29.5 -29l-24.5 -24.5l-37.5 -37.5l-16 -17l-11 -5q-32 1 -67 0l-4 8q1 2 22.5 36.5t26.5 41.5q24 40 32 57l9 5q60 0 124 1z" />
    <glyph glyph-name="Acircumflex" unicode="&#xc2;" horiz-adv-x="604" 
d="M453 710l6 -5q27 -306 69 -698l-6 -6l-107 -3l-6 7l-8 124l-7 87h-249l-39 -75q-30 -59 -67 -133l-7 -6l-105 -2l-4 10q67 117 131 234l120 218l131 241l8 5zM365 639l-179 -341q17 0 51 -0.5t51 -0.5t51.5 0.5t51.5 0.5l-16 184zM503 894l48 -135l-6 -6l-87 -3l-7 6
l-34 93q-16 -18 -44.5 -49.5t-39.5 -44.5l-9 -4h-79l-4 8q77 92 109 136l10 5h136z" />
    <glyph glyph-name="Atilde" unicode="&#xc3;" horiz-adv-x="604" 
d="M453 710l6 -5q27 -306 69 -698l-6 -6l-107 -3l-6 7l-8 124l-7 87h-249l-39 -75q-30 -59 -67 -133l-7 -6l-105 -2l-4 10q67 117 131 234l120 218l131 241l8 5zM365 639l-179 -341q17 0 51 -0.5t51 -0.5t51.5 0.5t51.5 0.5l-16 184zM582 884l-17 -75l-6 -9q-45 -36 -90 -36
q-31 0 -77 23l-12 7q-32 15 -51 15q-36 0 -85 -38l-7 3l18 74l6 10q46 33 86 33q27 0 75 -22l12 -7q36 -17 54 -17q33 0 88 42z" />
    <glyph glyph-name="Adieresis" unicode="&#xc4;" horiz-adv-x="604" 
d="M453 710l6 -5q27 -306 69 -698l-6 -6l-107 -3l-6 7l-8 124l-7 87h-249l-39 -75q-30 -59 -67 -133l-7 -6l-105 -2l-4 10q67 117 131 234l120 218l131 241l8 5zM365 639l-179 -341q17 0 51 -0.5t51 -0.5t51.5 0.5t51.5 0.5l-16 184zM580 867l-22 -98l-8 -6l-101 -2l-4 6
l21 95l7 7l101 3zM354 866l-22 -96l-8 -6l-100 -2l-6 6l23 94l7 8l100 2z" />
    <glyph glyph-name="Aring" unicode="&#xc5;" horiz-adv-x="604" 
d="M453 710l6 -5q27 -306 69 -698l-6 -6l-107 -3l-6 7l-8 124l-7 87h-249l-39 -75q-30 -59 -67 -133l-7 -6l-105 -2l-4 10q67 117 131 234l120 218l131 241l8 5zM365 639l-179 -341q17 0 51 -0.5t51 -0.5t51.5 0.5t51.5 0.5l-16 184zM522 862q1 -48 -33 -86t-96 -38
q-46 0 -74 24t-28 67q0 51 36.5 87t94.5 36q45 0 72 -23.5t28 -66.5zM450 834q5 17 5 32q0 41 -35 41q-32 0 -46.5 -28t-14.5 -54q0 -44 37 -44q36 0 54 53z" />
    <glyph glyph-name="AE" unicode="&#xc6;" horiz-adv-x="833" 
d="M750 85l-24 -80l-6 -5h-251l-153 -2l-5 4l27 110l24 101l-203 -2l-48 -81q-25 -41 -71 -125l-8 -5l-105 -1l-4 7q66 100 145 232l178 291q58 90 105 173l8 4h509l5 -3l-21 -74l-7 -6q-171 3 -172 3q-25 0 -111 -2l-50 -216h85l192 3l4 -6l-22 -73l-8 -6h-269l-25 -111
l-28 -130h85l219 6zM407 627l-200 -332h174l75 332h-49z" />
    <glyph glyph-name="Ccedilla" unicode="&#xc7;" horiz-adv-x="625" 
d="M550 140l8 -4q-3 -10 -8.5 -28t-8.5 -28q-7 -27 -13 -47l-6 -8q-76 -40 -173 -40q-144 0 -223.5 86.5t-79.5 218.5q0 54 13.5 110.5t45 114.5t77 103.5t115.5 74t154 28.5q122 0 203 -55l3 -8q-11 -32 -27 -84l-9 -2q-63 60 -162 60q-70 0 -128.5 -32t-95 -82t-56 -109
t-19.5 -116q0 -104 59.5 -161.5t149.5 -57.5q97 0 181 66zM367 -46l5 -6q-10 -19 -37.5 -68t-37.5 -68l-9 -7q-52 1 -96 0l-4 9q81 107 100 135l10 6q12 0 34 -0.5t35 -0.5z" />
    <glyph glyph-name="Egrave" unicode="&#xc8;" horiz-adv-x="521" 
d="M438 84l-24 -78l-7 -6h-208l-194 -3l-5 7l49 202l35 157q41 181 72 338l7 5h245l147 3l6 -6l-21 -74l-8 -7q-18 0 -54 1t-54 1q-106 2 -171 1l-49 -217h140l133 2l4 -7l-20 -70l-9 -6l-118 1h-147l-21 -91l-33 -151h126l174 4zM370 893l28 -134l-6 -7l-66 -1l-7 4
q-39 72 -77 136l6 8h115z" />
    <glyph glyph-name="Eacute" unicode="&#xc9;" horiz-adv-x="521" 
d="M438 84l-24 -78l-7 -6h-208l-194 -3l-5 7l49 202l35 157q41 181 72 338l7 5h245l147 3l6 -6l-21 -74l-8 -7q-18 0 -54 1t-54 1q-106 2 -171 1l-49 -217h140l133 2l4 -7l-20 -70l-9 -6l-118 1h-147l-21 -91l-33 -151h126l174 4zM518 900l4 -8q-4 -4 -28.5 -28t-29.5 -29
l-24.5 -24.5l-37.5 -37.5l-16 -17l-11 -5q-32 1 -67 0l-4 8q1 2 22.5 36.5t26.5 41.5q24 40 32 57l9 5q60 0 124 1z" />
    <glyph glyph-name="Ecircumflex" unicode="&#xca;" horiz-adv-x="521" 
d="M438 84l-24 -78l-7 -6h-208l-194 -3l-5 7l49 202l35 157q41 181 72 338l7 5h245l147 3l6 -6l-21 -74l-8 -7q-18 0 -54 1t-54 1q-106 2 -171 1l-49 -217h140l133 2l4 -7l-20 -70l-9 -6l-118 1h-147l-21 -91l-33 -151h126l174 4zM461 894l48 -135l-6 -6l-87 -3l-7 6l-34 93
q-16 -18 -44.5 -49.5t-39.5 -44.5l-9 -4h-79l-4 8q77 92 109 136l10 5h136z" />
    <glyph glyph-name="Edieresis" unicode="&#xcb;" horiz-adv-x="521" 
d="M438 84l-24 -78l-7 -6h-208l-194 -3l-5 7l49 202l35 157q41 181 72 338l7 5h245l147 3l6 -6l-21 -74l-8 -7q-18 0 -54 1t-54 1q-106 2 -171 1l-49 -217h140l133 2l4 -7l-20 -70l-9 -6l-118 1h-147l-21 -91l-33 -151h126l174 4zM547 867l-22 -98l-8 -6l-101 -2l-4 6l21 95
l7 7l101 3zM321 866l-22 -96l-8 -6l-100 -2l-6 6l23 94l7 8l100 2z" />
    <glyph glyph-name="Igrave" unicode="&#xcc;" horiz-adv-x="271" 
d="M162 206l-40 -200l-8 -5l-109 -2l-5 5l32 134l49 211q45 198 75 352l6 6l111 2l4 -6q-47 -191 -91 -387zM245 893l28 -134l-6 -7l-66 -1l-7 4q-39 72 -77 136l6 8h115z" />
    <glyph glyph-name="Iacute" unicode="&#xcd;" horiz-adv-x="271" 
d="M162 206l-40 -200l-8 -5l-109 -2l-5 5l32 134l49 211q45 198 75 352l6 6l111 2l4 -6q-47 -191 -91 -387zM393 900l4 -8q-4 -4 -28.5 -28t-29.5 -29l-24.5 -24.5t-36.5 -37.5l-17 -17l-11 -5q-32 1 -67 0l-4 8q1 2 22.5 36.5t26.5 41.5q24 40 32 57l9 5q60 0 124 1z" />
    <glyph glyph-name="Icircumflex" unicode="&#xce;" horiz-adv-x="271" 
d="M162 206l-40 -200l-8 -5l-109 -2l-5 5l32 134l49 211q45 198 75 352l6 6l111 2l4 -6q-47 -191 -91 -387zM336 894l48 -135l-6 -6l-87 -3l-7 6l-34 93q-16 -18 -44.5 -49.5t-39.5 -44.5l-9 -4h-79l-4 8q77 92 109 136l10 5h136z" />
    <glyph glyph-name="Idieresis" unicode="&#xcf;" horiz-adv-x="271" 
d="M162 206l-40 -200l-8 -5l-109 -2l-5 5l32 134l49 211q45 198 75 352l6 6l111 2l4 -6q-47 -191 -91 -387zM422 867l-22 -98l-8 -6l-101 -2l-4 6l21 95l7 7l101 3zM196 866l-22 -96l-8 -6l-100 -2l-6 6l23 94l7 8l100 2z" />
    <glyph glyph-name="Eth" unicode="&#xd0;" horiz-adv-x="708" 
d="M5 -1l-5 5q22 90 42 180l37 159q-35 0 -70 -1l-4 6q3 12 15 61l7 6q33 -1 67 -1l3 12q13 64 36 166q14 73 19 109l8 6q11 0 33 -0.5t35 -0.5h69q22 1 67 1q84 0 147 -16.5t106 -67.5q56 -67 56 -179q0 -82 -31.5 -172t-90.5 -154q-32 -34 -72 -58t-73.5 -35.5t-86 -17.5
t-84 -7t-92.5 -1h-62h-76zM189 344l-2 -11q-20 -90 -29 -126q-13 -57 -25 -122l42 -1q63 1 97.5 3.5t79.5 17.5t81 44q60 50 93 133t33 164q0 137 -115 168q-39 11 -144 10l-47 -1l-48 -208h16q154 0 176 2l4 -6q-11 -41 -16 -62l-8 -7q-63 2 -171 2h-17z" />
    <glyph glyph-name="Ntilde" unicode="&#xd1;" horiz-adv-x="708" 
d="M612 268l-55 -261l-7 -6l-103 -2l-8 5l-46 126l-168 465l-84 -401l-38 -188l-6 -6l-91 -2l-5 6l62 263l32 146q36 160 60 288l7 6l116 2l8 -5l52 -144l84 -234l72 -197l76 367l42 205l7 6l88 1l5 -5l-58 -249zM634 884l-17 -75l-6 -9q-45 -36 -90 -36q-31 0 -77 23l-12 7
q-32 15 -51 15q-36 0 -85 -38l-7 3l18 74l6 10q46 33 86 33q27 0 75 -22l12 -7q36 -17 54 -17q33 0 88 42z" />
    <glyph glyph-name="Ograve" unicode="&#xd2;" horiz-adv-x="750" 
d="M694 301q-41 -158 -138 -237t-229 -79q-56 0 -105 15t-90.5 46.5t-66 87.5t-24.5 130q0 25 4 57.5t15 77.5t28.5 88t48.5 86.5t70.5 75.5t98 52.5t128.5 20.5q53 0 101 -15t89 -46t65.5 -86t24.5 -129q0 -73 -20 -145zM590 359q10 50 10 92q0 54 -17 93.5t-45 59t-55 28
t-55 8.5q-60 0 -108.5 -29.5t-78 -73t-49.5 -97t-27.5 -98.5t-7.5 -81q0 -92 46 -142q45 -50 130 -50q96 0 164 80.5t93 209.5zM485 893l28 -134l-6 -7l-66 -1l-7 4q-39 72 -77 136l6 8h115z" />
    <glyph glyph-name="Oacute" unicode="&#xd3;" horiz-adv-x="750" 
d="M694 301q-41 -158 -138 -237t-229 -79q-56 0 -105 15t-90.5 46.5t-66 87.5t-24.5 130q0 25 4 57.5t15 77.5t28.5 88t48.5 86.5t70.5 75.5t98 52.5t128.5 20.5q53 0 101 -15t89 -46t65.5 -86t24.5 -129q0 -73 -20 -145zM590 359q10 50 10 92q0 54 -17 93.5t-45 59t-55 28
t-55 8.5q-60 0 -108.5 -29.5t-78 -73t-49.5 -97t-27.5 -98.5t-7.5 -81q0 -92 46 -142q45 -50 130 -50q96 0 164 80.5t93 209.5zM633 900l4 -8q-4 -4 -28.5 -28t-29.5 -29l-24.5 -24.5t-36.5 -37.5l-17 -17l-11 -5q-32 1 -67 0l-4 8q1 2 22.5 36.5t26.5 41.5q24 40 32 57l9 5
q60 0 124 1z" />
    <glyph glyph-name="Ocircumflex" unicode="&#xd4;" horiz-adv-x="750" 
d="M694 301q-41 -158 -138 -237t-229 -79q-56 0 -105 15t-90.5 46.5t-66 87.5t-24.5 130q0 25 4 57.5t15 77.5t28.5 88t48.5 86.5t70.5 75.5t98 52.5t128.5 20.5q53 0 101 -15t89 -46t65.5 -86t24.5 -129q0 -73 -20 -145zM590 359q10 50 10 92q0 54 -17 93.5t-45 59t-55 28
t-55 8.5q-60 0 -108.5 -29.5t-78 -73t-49.5 -97t-27.5 -98.5t-7.5 -81q0 -92 46 -142q45 -50 130 -50q96 0 164 80.5t93 209.5zM576 894l48 -135l-6 -6l-87 -3l-7 6l-34 93q-16 -18 -44.5 -49.5t-39.5 -44.5l-9 -4h-79l-4 8q77 92 109 136l10 5h136z" />
    <glyph glyph-name="Otilde" unicode="&#xd5;" horiz-adv-x="750" 
d="M694 301q-41 -158 -138 -237t-229 -79q-56 0 -105 15t-90.5 46.5t-66 87.5t-24.5 130q0 25 4 57.5t15 77.5t28.5 88t48.5 86.5t70.5 75.5t98 52.5t128.5 20.5q53 0 101 -15t89 -46t65.5 -86t24.5 -129q0 -73 -20 -145zM590 359q10 50 10 92q0 54 -17 93.5t-45 59t-55 28
t-55 8.5q-60 0 -108.5 -29.5t-78 -73t-49.5 -97t-27.5 -98.5t-7.5 -81q0 -92 46 -142q45 -50 130 -50q96 0 164 80.5t93 209.5zM655 884l-17 -75l-6 -9q-45 -36 -90 -36q-31 0 -77 23l-12 7q-32 15 -51 15q-36 0 -85 -38l-7 3l18 74l6 10q46 33 86 33q27 0 75 -22l12 -7
q36 -17 54 -17q33 0 88 42z" />
    <glyph glyph-name="Odieresis" unicode="&#xd6;" horiz-adv-x="750" 
d="M694 301q-41 -158 -138 -237t-229 -79q-56 0 -105 15t-90.5 46.5t-66 87.5t-24.5 130q0 25 4 57.5t15 77.5t28.5 88t48.5 86.5t70.5 75.5t98 52.5t128.5 20.5q53 0 101 -15t89 -46t65.5 -86t24.5 -129q0 -73 -20 -145zM590 359q10 50 10 92q0 54 -17 93.5t-45 59t-55 28
t-55 8.5q-60 0 -108.5 -29.5t-78 -73t-49.5 -97t-27.5 -98.5t-7.5 -81q0 -92 46 -142q45 -50 130 -50q96 0 164 80.5t93 209.5zM660 867l-22 -98l-8 -6l-101 -2l-4 6l21 95l7 7l101 3zM434 866l-22 -96l-8 -6l-100 -2l-6 6l23 94l7 8l100 2z" />
    <glyph glyph-name="multiply" unicode="&#xd7;" horiz-adv-x="667" 
d="M592 91l-56 -55l-200 200l-202 -200l-55 55l201 201l-201 201l55 56l202 -201l200 201l56 -56l-200 -201z" />
    <glyph glyph-name="Oslash" unicode="&#xd8;" horiz-adv-x="750" 
d="M698 580l-9 -6q25 -67 25 -128q0 -77 -29 -175.5t-93 -171.5q-100 -114 -271 -114q-146 0 -227 101l-14 -12l-79 -69h-10q-19 22 -34 43l1 11q56 39 91 68l15 13q-22 58 -22 121q0 49 10 104.5t37.5 120t69 116t111.5 85.5t158 34q87 0 152 -31q45 -22 77 -64l11 9l79 67
h9l36 -41l-2 -9q-33 -23 -92 -72zM160 220l414 337q-41 82 -150 82q-56 0 -103 -28t-76.5 -70.5t-49.5 -94.5t-28.5 -97.5t-8.5 -81.5q0 -17 2 -47zM595 496l-418 -339q17 -36 55.5 -62.5t94.5 -26.5q94 0 162 72q53 58 81.5 145t28.5 169q0 19 -4 42z" />
    <glyph glyph-name="Ugrave" unicode="&#xd9;" horiz-adv-x="688" 
d="M689 709l5 -6l-39 -163l-38 -166q-37 -153 -54 -206t-49 -92q-76 -91 -227 -91q-121 0 -183 55q-55 52 -55 136q0 49 32 188l47 199l29 138l7 6l110 3l4 -6l-44 -177l-39 -164q-31 -135 -31 -175q0 -36 11 -58q31 -62 120 -62q81 0 129 51q31 34 48.5 87.5t48.5 184.5
l34 152l33 157l7 7zM454 893l28 -134l-6 -7l-66 -1l-7 4q-39 72 -77 136l6 8h115z" />
    <glyph glyph-name="Uacute" unicode="&#xda;" horiz-adv-x="688" 
d="M689 709l5 -6l-39 -163l-38 -166q-37 -153 -54 -206t-49 -92q-76 -91 -227 -91q-121 0 -183 55q-55 52 -55 136q0 49 32 188l47 199l29 138l7 6l110 3l4 -6l-44 -177l-39 -164q-31 -135 -31 -175q0 -36 11 -58q31 -62 120 -62q81 0 129 51q31 34 48.5 87.5t48.5 184.5
l34 152l33 157l7 7zM602 900l4 -8q-4 -4 -28.5 -28t-29.5 -29l-24.5 -24.5l-37.5 -37.5l-16 -17l-11 -5q-32 1 -67 0l-4 8q1 2 22.5 36.5t26.5 41.5q24 40 32 57l9 5q60 0 124 1z" />
    <glyph glyph-name="Ucircumflex" unicode="&#xdb;" horiz-adv-x="688" 
d="M689 709l5 -6l-39 -163l-38 -166q-37 -153 -54 -206t-49 -92q-76 -91 -227 -91q-121 0 -183 55q-55 52 -55 136q0 49 32 188l47 199l29 138l7 6l110 3l4 -6l-44 -177l-39 -164q-31 -135 -31 -175q0 -36 11 -58q31 -62 120 -62q81 0 129 51q31 34 48.5 87.5t48.5 184.5
l34 152l33 157l7 7zM545 894l48 -135l-6 -6l-87 -3l-7 6l-34 93q-16 -18 -44.5 -49.5t-39.5 -44.5l-9 -4h-79l-4 8q77 92 109 136l10 5h136z" />
    <glyph glyph-name="Udieresis" unicode="&#xdc;" horiz-adv-x="688" 
d="M689 709l5 -6l-39 -163l-38 -166q-37 -153 -54 -206t-49 -92q-76 -91 -227 -91q-121 0 -183 55q-55 52 -55 136q0 49 32 188l47 199l29 138l7 6l110 3l4 -6l-44 -177l-39 -164q-31 -135 -31 -175q0 -36 11 -58q31 -62 120 -62q81 0 129 51q31 34 48.5 87.5t48.5 184.5
l34 152l33 157l7 7zM636 867l-22 -98l-8 -6l-101 -2l-4 6l21 95l7 7l101 3zM410 866l-22 -96l-8 -6l-100 -2l-6 6l23 94l7 8l100 2z" />
    <glyph glyph-name="Yacute" unicode="&#xdd;" horiz-adv-x="542" 
d="M288 154l-30 -148l-7 -6l-106 -2l-5 6q32 126 46 188q3 14 10.5 46.5t11.5 50.5l-67 220l-59 188l4 7l112 4l6 -5q37 -149 85 -325l115 163q99 144 110 161l7 4h102l4 -6q-40 -50 -110 -145l-200 -272zM529 900l4 -8q-4 -4 -28.5 -28t-29.5 -29l-24.5 -24.5t-36.5 -37.5
l-17 -17l-11 -5q-32 1 -67 0l-4 8q1 2 22.5 36.5t26.5 41.5q24 40 32 57l9 5q60 0 124 1z" />
    <glyph glyph-name="Thorn" unicode="&#xde;" horiz-adv-x="562" 
d="M197 157h-47q-11 -49 -30 -150l-8 -6q-56 0 -108 -2l-4 6l2 8q15 62 30 125l48 212q57 251 75 351l7 6q59 0 109 2l4 -6q-2 -9 -13.5 -56.5t-12.5 -50.5l34 1q107 2 146 -9q71 -17 100 -65t29 -107q0 -110 -75 -182q-28 -26 -60 -42t-74 -23t-70.5 -9t-81.5 -3zM184 316
l-16 -77h23q81 0 121 9q38 8 65.5 27t40.5 37.5t20.5 42t8.5 34t1 20.5q0 56 -39 86q-22 17 -53.5 20.5t-93.5 1.5h-32q-38 -166 -46 -201z" />
    <glyph glyph-name="germandbls" unicode="&#xdf;" 
d="M141 182l-35 -175l-7 -6l-100 -4l-5 6l50 218l47 220q8 35 35 151q19 80 49 119q61 82 190 82q53 0 91.5 -14t58 -37t28 -46t8.5 -47q0 -35 -17.5 -69t-33.5 -52t-45 -46l-25 -25q-41 -38 -41 -51t34 -55l26 -34q1 -2 14 -18.5t15 -20.5q38 -52 38 -110q0 -29 -11.5 -58
t-35 -56t-67.5 -44t-102 -17q-49 0 -104 22l-4 9l17 73l8 2q40 -31 82 -31q50 0 79.5 30.5t29.5 66.5q0 43 -57 115l-43 53q-31 38 -31 55q0 20 36 54l28 26q31 27 50 46.5t39.5 54.5t20.5 66q0 35 -24.5 60t-65.5 25q-76 0 -111 -71q-19 -38 -61 -240z" />
    <glyph glyph-name="agrave" unicode="&#xe0;" 
d="M549 512l-45 -194q-37 -164 -62 -311l-7 -7l-94 -2l-5 7l7 40q-62 -51 -146 -51q-79 0 -132 53t-53 144q0 57 23 116t57 99q33 39 73.5 64t86 35t78 13t76.5 3l138 -1zM358 122l72 323q-8 0 -23 0.5t-22 0.5q-95 0 -157 -42q-29 -20 -51 -49t-32 -53t-16 -50.5t-7 -37
t-1 -16.5q0 -46 28 -85.5t89 -39.5q50 0 87 23q6 4 33 26zM367 746l6 -5q6 -61 21 -151l-5 -7l-64 -1l-8 6q-42 99 -67 149l5 9h112z" />
    <glyph glyph-name="aacute" unicode="&#xe1;" 
d="M549 512l-45 -194q-37 -164 -62 -311l-7 -7l-94 -2l-5 7l7 40q-62 -51 -146 -51q-79 0 -132 53t-53 144q0 57 23 116t57 99q33 39 73.5 64t86 35t78 13t76.5 3l138 -1zM358 122l72 323q-8 0 -23 0.5t-22 0.5q-95 0 -157 -42q-29 -20 -51 -49t-32 -53t-16 -50.5t-7 -37
t-1 -16.5q0 -46 28 -85.5t89 -39.5q50 0 87 23q6 4 33 26zM499 748l3 -8q-78 -84 -129 -145l-9 -9l-9 -5q-44 2 -70 1l-3 8q44 63 91 152l8 5q9 0 28 -0.5t28 -0.5q20 0 62 2z" />
    <glyph glyph-name="acircumflex" unicode="&#xe2;" 
d="M549 512l-45 -194q-37 -164 -62 -311l-7 -7l-94 -2l-5 7l7 40q-62 -51 -146 -51q-79 0 -132 53t-53 144q0 57 23 116t57 99q33 39 73.5 64t86 35t78 13t76.5 3l138 -1zM358 122l72 323q-8 0 -23 0.5t-22 0.5q-95 0 -157 -42q-29 -20 -51 -49t-32 -53t-16 -50.5t-7 -37
t-1 -16.5q0 -46 28 -85.5t89 -39.5q50 0 87 23q6 4 33 26zM457 740l38 -151l-6 -6l-79 -2l-8 6l-23 107q-56 -73 -82 -109l-9 -3h-73l-5 7q90 119 111 151l10 6h119z" />
    <glyph glyph-name="atilde" unicode="&#xe3;" 
d="M549 512l-45 -194q-37 -164 -62 -311l-7 -7l-94 -2l-5 7l7 40q-62 -51 -146 -51q-79 0 -132 53t-53 144q0 57 23 116t57 99q33 39 73.5 64t86 35t78 13t76.5 3l138 -1zM358 122l72 323q-8 0 -23 0.5t-22 0.5q-95 0 -157 -42q-29 -20 -51 -49t-32 -53t-16 -50.5t-7 -37
t-1 -16.5q0 -46 28 -85.5t89 -39.5q50 0 87 23q6 4 33 26zM536 710l-18 -77l-5 -8q-47 -36 -94 -36q-29 0 -69 21l-12 7q-34 19 -55 19q-30 0 -85 -39l-7 3l18 74l6 11q49 31 89 31q31 0 74 -23l13 -6q30 -16 51 -16q38 0 87 42z" />
    <glyph glyph-name="adieresis" unicode="&#xe4;" 
d="M549 512l-45 -194q-37 -164 -62 -311l-7 -7l-94 -2l-5 7l7 40q-62 -51 -146 -51q-79 0 -132 53t-53 144q0 57 23 116t57 99q33 39 73.5 64t86 35t78 13t76.5 3l138 -1zM358 122l72 323q-8 0 -23 0.5t-22 0.5q-95 0 -157 -42q-29 -20 -51 -49t-32 -53t-16 -50.5t-7 -37
t-1 -16.5q0 -46 28 -85.5t89 -39.5q50 0 87 23q6 4 33 26zM538 704l-21 -97l-8 -7l-94 -3l-6 6l21 96l7 6l96 5zM339 703l-22 -97l-8 -6l-97 -3l-5 5l22 97l7 6l98 3z" />
    <glyph glyph-name="aring" unicode="&#xe5;" 
d="M549 512l-45 -194q-37 -164 -62 -311l-7 -7l-94 -2l-5 7l7 40q-62 -51 -146 -51q-79 0 -132 53t-53 144q0 57 23 116t57 99q33 39 73.5 64t86 35t78 13t76.5 3l138 -1zM358 122l72 323q-8 0 -23 0.5t-22 0.5q-95 0 -157 -42q-29 -20 -51 -49t-32 -53t-16 -50.5t-7 -37
t-1 -16.5q0 -46 28 -85.5t89 -39.5q50 0 87 23q6 4 33 26zM495 695q1 -48 -32.5 -86t-96.5 -38q-46 0 -74 24t-28 67q0 51 36.5 87t94.5 36q45 0 72 -24t28 -66zM423 667q5 17 5 32q0 41 -35 41q-32 0 -46.5 -28t-14.5 -54q0 -44 37 -44q38 0 54 53z" />
    <glyph glyph-name="ae" unicode="&#xe6;" horiz-adv-x="854" 
d="M91 405l22 81l6 8q85 37 166 37q75 0 120 -30q22 -15 34 -42q70 73 176 73q76 0 123 -28q77 -45 77 -161q0 -34 -11 -85l-9 -6q-142 2 -214 2q-76 0 -145 -1q-6 -38 -6 -50q0 -56 35.5 -95.5t109.5 -39.5q103 0 176 62l9 -5l-26 -89l-7 -8q-77 -40 -163 -40
q-133 0 -195 84q-87 -84 -205 -84q-86 0 -128.5 44.5t-42.5 107.5q0 69 46 115q29 29 81.5 45t88.5 18.5t113 5.5h28q13 48 13 65q0 67 -99 67q-38 0 -72 -10t-49.5 -18.5t-43.5 -26.5zM449 321h269q4 28 4 42q0 43 -26.5 71.5t-84.5 28.5q-71 0 -116 -54q-30 -34 -46 -88z
M336 255h-31q-44 -1 -67.5 -3t-57.5 -10.5t-52 -23.5q-34 -30 -34 -70q0 -30 23.5 -55t68.5 -25q37 0 69.5 13t47 24.5t35.5 31.5q-8 42 -8 60q0 20 6 58z" />
    <glyph glyph-name="ccedilla" unicode="&#xe7;" horiz-adv-x="458" 
d="M389 117l9 -4q-12 -37 -26 -90l-6 -7q-54 -28 -125 -28q-93 0 -157.5 60.5t-64.5 166.5q0 40 10.5 82t34 84.5t57 75.5t84.5 53.5t112 20.5q94 0 150 -40l2 -8q-10 -27 -25 -78l-10 -3q-33 50 -112 50q-62 0 -108 -40t-65.5 -90.5t-19.5 -99.5q0 -69 39.5 -111t100.5 -42
q67 0 120 48zM262 -46l5 -6q-51 -92 -74 -136l-9 -7q-52 1 -96 0l-4 9q90 121 99 135l10 6q13 0 35 -0.5t34 -0.5z" />
    <glyph glyph-name="egrave" unicode="&#xe8;" horiz-adv-x="542" 
d="M447 125l-26 -91l-5 -6q-70 -40 -163 -40q-33 0 -66 6q-85 16 -125.5 73.5t-40.5 139.5q0 56 17 111.5t49.5 104t89 78.5t127.5 30q91 0 142 -42q57 -49 57 -145q0 -32 -11 -91l-7 -5q-16 0 -115 0.5t-118 0.5q-21 0 -125 -2q-3 -23 -3 -45q0 -66 39 -99t111 -33
q38 0 71 10.5t49.5 20t44.5 29.5zM140 319h263q5 37 5 47q0 40 -25.5 67.5t-80.5 27.5q-71 0 -120 -59q-25 -32 -42 -83zM345 746l6 -5q6 -61 21 -151l-5 -7l-64 -1l-8 6q-42 99 -67 149l5 9h112z" />
    <glyph glyph-name="eacute" unicode="&#xe9;" horiz-adv-x="542" 
d="M447 125l-26 -91l-5 -6q-70 -40 -163 -40q-33 0 -66 6q-85 16 -125.5 73.5t-40.5 139.5q0 56 17 111.5t49.5 104t89 78.5t127.5 30q91 0 142 -42q57 -49 57 -145q0 -32 -11 -91l-7 -5q-16 0 -115 0.5t-118 0.5q-21 0 -125 -2q-3 -23 -3 -45q0 -66 39 -99t111 -33
q38 0 71 10.5t49.5 20t44.5 29.5zM140 319h263q5 37 5 47q0 40 -25.5 67.5t-80.5 27.5q-71 0 -120 -59q-25 -32 -42 -83zM477 748l3 -8q-78 -84 -129 -145l-9 -9l-9 -5q-44 2 -70 1l-3 8q44 63 91 152l8 5q9 0 28 -0.5t28 -0.5q20 0 62 2z" />
    <glyph glyph-name="ecircumflex" unicode="&#xea;" horiz-adv-x="542" 
d="M447 125l-26 -91l-5 -6q-70 -40 -163 -40q-33 0 -66 6q-85 16 -125.5 73.5t-40.5 139.5q0 56 17 111.5t49.5 104t89 78.5t127.5 30q91 0 142 -42q57 -49 57 -145q0 -32 -11 -91l-7 -5q-16 0 -115 0.5t-118 0.5q-21 0 -125 -2q-3 -23 -3 -45q0 -66 39 -99t111 -33
q38 0 71 10.5t49.5 20t44.5 29.5zM140 319h263q5 37 5 47q0 40 -25.5 67.5t-80.5 27.5q-71 0 -120 -59q-25 -32 -42 -83zM435 740l38 -151l-6 -6l-79 -2l-8 6l-23 107q-56 -73 -82 -109l-9 -3h-73l-5 7q90 119 111 151l10 6h119z" />
    <glyph glyph-name="edieresis" unicode="&#xeb;" horiz-adv-x="542" 
d="M447 125l-26 -91l-5 -6q-70 -40 -163 -40q-33 0 -66 6q-85 16 -125.5 73.5t-40.5 139.5q0 56 17 111.5t49.5 104t89 78.5t127.5 30q91 0 142 -42q57 -49 57 -145q0 -32 -11 -91l-7 -5q-16 0 -115 0.5t-118 0.5q-21 0 -125 -2q-3 -23 -3 -45q0 -66 39 -99t111 -33
q38 0 71 10.5t49.5 20t44.5 29.5zM140 319h263q5 37 5 47q0 40 -25.5 67.5t-80.5 27.5q-71 0 -120 -59q-25 -32 -42 -83zM510 704l-21 -97l-8 -7l-94 -3l-6 6l21 96l7 6l96 5zM311 703l-22 -97l-8 -6l-97 -3l-5 5l22 97l7 6l98 3z" />
    <glyph glyph-name="igrave" unicode="&#xec;" horiz-adv-x="250" 
d="M138 157l-29 -151l-7 -5l-106 -3l-5 6q28 107 63 266l13 62q18 82 32 172l7 7l109 16l5 -7q-25 -98 -61 -260zM199 746l6 -5q6 -61 21 -151l-5 -7l-64 -1l-8 6q-42 99 -67 149l5 9h112z" />
    <glyph glyph-name="iacute" unicode="&#xed;" horiz-adv-x="250" 
d="M138 157l-29 -151l-7 -5l-106 -3l-5 6q28 107 63 266l13 62q18 82 32 172l7 7l109 16l5 -7q-25 -98 -61 -260zM331 748l3 -8q-78 -84 -129 -145l-9 -9l-9 -5q-44 2 -70 1l-3 8q44 63 91 152l8 5q9 0 28 -0.5t28 -0.5q20 0 62 2z" />
    <glyph glyph-name="icircumflex" unicode="&#xee;" horiz-adv-x="250" 
d="M138 157l-29 -151l-7 -5l-106 -3l-5 6q28 107 63 266l13 62q18 82 32 172l7 7l109 16l5 -7q-25 -98 -61 -260zM289 740l38 -151l-6 -6l-79 -2l-8 6l-23 107q-56 -73 -82 -109l-9 -3h-73l-5 7q90 119 111 151l10 6h119z" />
    <glyph glyph-name="idieresis" unicode="&#xef;" horiz-adv-x="250" 
d="M138 157l-29 -151l-7 -5l-106 -3l-5 6q28 107 63 266l13 62q18 82 32 172l7 7l109 16l5 -7q-25 -98 -61 -260zM364 704l-21 -97l-8 -7l-94 -3l-6 6l21 96l7 6l96 5zM165 703l-22 -97l-8 -6l-97 -3l-5 5l22 97l7 6l98 3z" />
    <glyph glyph-name="eth" unicode="&#xf0;" horiz-adv-x="542" 
d="M532 652l-5 -8q-11 -2 -70 -12q51 -118 51 -230q0 -167 -63 -277q-78 -136 -238 -136q-78 0 -128 35q-75 52 -75 165q0 43 9 88t31 91t53.5 82t81 58.5t109.5 22.5q74 0 108 -34q-6 55 -32 118q-151 -28 -185 -38l-8 3q-9 26 -23 63l5 7q47 7 128 22l48 9q-37 60 -83 88
l4 10q30 4 45 8q6 1 31 8l11 -2q48 -40 85 -94l16 3q37 6 61 14l12 -5q7 -23 21 -59zM217 62q66 0 108 57q29 39 48 105t19 116q0 14 -2 27.5t-10.5 37.5t-31.5 39t-59 15q-46 0 -81.5 -28t-54.5 -72.5t-28.5 -91.5t-9.5 -93q0 -52 25.5 -82t76.5 -30z" />
    <glyph glyph-name="ntilde" unicode="&#xf1;" 
d="M468 138l-25 -132l-8 -6l-102 -3l-4 7l42 179l25 113q10 46 10 71q0 80 -84 80q-61 0 -133 -53q-51 -232 -81 -388l-7 -6l-102 -3l-5 7l41 172l16 75q30 132 48 253l7 7q51 6 106 18l5 -7l-14 -51q29 19 45 28.5t52.5 21t74.5 11.5q18 0 37 -4t45 -15.5t42.5 -40
t16.5 -70.5q0 -54 -33 -196zM536 710l-18 -77l-5 -8q-47 -36 -94 -36q-29 0 -69 21l-12 7q-34 19 -55 19q-30 0 -85 -39l-7 3l18 74l6 11q49 31 89 31q31 0 74 -23l13 -6q30 -16 51 -16q38 0 87 42z" />
    <glyph glyph-name="ograve" unicode="&#xf2;" horiz-adv-x="562" 
d="M494 223q-8 -31 -18.5 -58t-32.5 -61t-49.5 -58.5t-72 -41t-98.5 -16.5q-100 0 -153 52t-53 153q0 51 14.5 105t44.5 108.5t88.5 89.5t135.5 35q99 0 154 -53t55 -149q0 -48 -15 -106zM390 254q12 50 12 86t-10.5 61t-27.5 36.5t-32.5 16t-31.5 4.5q-44 0 -78.5 -26
t-52 -61.5t-29 -79t-14.5 -70.5t-3 -44q0 -57 29 -86t73 -29q123 0 165 192zM355 746l6 -5q6 -61 21 -151l-5 -7l-64 -1l-8 6q-42 99 -67 149l5 9h112z" />
    <glyph glyph-name="oacute" unicode="&#xf3;" horiz-adv-x="562" 
d="M494 223q-8 -31 -18.5 -58t-32.5 -61t-49.5 -58.5t-72 -41t-98.5 -16.5q-100 0 -153 52t-53 153q0 51 14.5 105t44.5 108.5t88.5 89.5t135.5 35q99 0 154 -53t55 -149q0 -48 -15 -106zM390 254q12 50 12 86t-10.5 61t-27.5 36.5t-32.5 16t-31.5 4.5q-44 0 -78.5 -26
t-52 -61.5t-29 -79t-14.5 -70.5t-3 -44q0 -57 29 -86t73 -29q123 0 165 192zM487 748l3 -8q-78 -84 -129 -145l-9 -9l-9 -5q-44 2 -70 1l-3 8q44 63 91 152l8 5q9 0 28 -0.5t28 -0.5q20 0 62 2z" />
    <glyph glyph-name="ocircumflex" unicode="&#xf4;" horiz-adv-x="562" 
d="M494 223q-8 -31 -18.5 -58t-32.5 -61t-49.5 -58.5t-72 -41t-98.5 -16.5q-100 0 -153 52t-53 153q0 51 14.5 105t44.5 108.5t88.5 89.5t135.5 35q99 0 154 -53t55 -149q0 -48 -15 -106zM390 254q12 50 12 86t-10.5 61t-27.5 36.5t-32.5 16t-31.5 4.5q-44 0 -78.5 -26
t-52 -61.5t-29 -79t-14.5 -70.5t-3 -44q0 -57 29 -86t73 -29q123 0 165 192zM445 740l38 -151l-6 -6l-79 -2l-8 6l-23 107q-56 -73 -82 -109l-9 -3h-73l-5 7q90 119 111 151l10 6h119z" />
    <glyph glyph-name="otilde" unicode="&#xf5;" horiz-adv-x="562" 
d="M494 223q-8 -31 -18.5 -58t-32.5 -61t-49.5 -58.5t-72 -41t-98.5 -16.5q-100 0 -153 52t-53 153q0 51 14.5 105t44.5 108.5t88.5 89.5t135.5 35q99 0 154 -53t55 -149q0 -48 -15 -106zM390 254q12 50 12 86t-10.5 61t-27.5 36.5t-32.5 16t-31.5 4.5q-44 0 -78.5 -26
t-52 -61.5t-29 -79t-14.5 -70.5t-3 -44q0 -57 29 -86t73 -29q123 0 165 192zM524 710l-18 -77l-5 -8q-47 -36 -94 -36q-29 0 -69 21l-12 7q-34 19 -55 19q-30 0 -85 -39l-7 3l18 74l6 11q49 31 89 31q31 0 74 -23l13 -6q30 -16 51 -16q38 0 87 42z" />
    <glyph glyph-name="odieresis" unicode="&#xf6;" horiz-adv-x="562" 
d="M494 223q-8 -31 -18.5 -58t-32.5 -61t-49.5 -58.5t-72 -41t-98.5 -16.5q-100 0 -153 52t-53 153q0 51 14.5 105t44.5 108.5t88.5 89.5t135.5 35q99 0 154 -53t55 -149q0 -48 -15 -106zM390 254q12 50 12 86t-10.5 61t-27.5 36.5t-32.5 16t-31.5 4.5q-44 0 -78.5 -26
t-52 -61.5t-29 -79t-14.5 -70.5t-3 -44q0 -57 29 -86t73 -29q123 0 165 192zM508 704l-21 -97l-8 -7l-94 -3l-6 6l21 96l7 6l96 5zM309 703l-22 -97l-8 -6l-97 -3l-5 5l22 97l7 6l98 3z" />
    <glyph glyph-name="divide" unicode="&#xf7;" horiz-adv-x="667" 
d="M388 144q0 -22 -15.5 -38.5t-41.5 -16.5q-24 0 -40 16t-16 39t16 40t41 17q24 0 40 -16.5t16 -40.5zM388 435q0 -22 -15.5 -38.5t-41.5 -16.5q-24 0 -40 16t-16 39t16 40t41 17q24 0 40 -17t16 -40zM663 330v-79h-666v79h666z" />
    <glyph glyph-name="oslash" unicode="&#xf8;" horiz-adv-x="562" 
d="M510 413l-12 -9q11 -41 11 -71q0 -32 -5.5 -70t-24.5 -89t-48.5 -90.5t-84.5 -67.5t-126 -28q-84 0 -136 39q-18 13 -38 42l-28 -20q-9 -8 -25.5 -20t-20.5 -15h-8l-25 36l2 9q9 6 49 33l35 26q-9 43 -9 67q0 36 6.5 76.5t26.5 90t50.5 88t83.5 65t121 26.5
q112 0 172 -79l22 15q20 15 55 43l10 -1l25 -33l-2 -10q-23 -15 -76 -53zM122 190l273 201q-24 67 -95 67q-64 0 -110 -56q-49 -64 -68 -212zM402 332l-273 -199q9 -30 29 -47q27 -24 67 -24q97 0 145 121q23 61 32 149z" />
    <glyph glyph-name="ugrave" unicode="&#xf9;" 
d="M467 161l-30 -154l-7 -6l-98 -4l-5 7l12 49q-32 -29 -78 -46t-87 -17q-58 0 -102.5 32.5t-44.5 104.5q0 37 25 151l23 98q14 60 28 135l7 7l100 4l5 -6q-36 -151 -55 -225q-23 -96 -23 -134q0 -33 17 -53.5t33 -25t33 -4.5q67 0 136 58l38 170q26 122 42 209l8 7l101 5
l4 -7l-58 -246zM367 746l6 -5q6 -61 21 -151l-5 -7l-64 -1l-8 6q-42 99 -67 149l5 9h112z" />
    <glyph glyph-name="uacute" unicode="&#xfa;" 
d="M467 161l-30 -154l-7 -6l-98 -4l-5 7l12 49q-32 -29 -78 -46t-87 -17q-58 0 -102.5 32.5t-44.5 104.5q0 37 25 151l23 98q14 60 28 135l7 7l100 4l5 -6q-36 -151 -55 -225q-23 -96 -23 -134q0 -33 17 -53.5t33 -25t33 -4.5q67 0 136 58l38 170q26 122 42 209l8 7l101 5
l4 -7l-58 -246zM499 748l3 -8q-78 -84 -129 -145l-9 -9l-9 -5q-44 2 -70 1l-3 8q44 63 91 152l8 5q9 0 28 -0.5t28 -0.5q20 0 62 2z" />
    <glyph glyph-name="ucircumflex" unicode="&#xfb;" 
d="M467 161l-30 -154l-7 -6l-98 -4l-5 7l12 49q-32 -29 -78 -46t-87 -17q-58 0 -102.5 32.5t-44.5 104.5q0 37 25 151l23 98q14 60 28 135l7 7l100 4l5 -6q-36 -151 -55 -225q-23 -96 -23 -134q0 -33 17 -53.5t33 -25t33 -4.5q67 0 136 58l38 170q26 122 42 209l8 7l101 5
l4 -7l-58 -246zM457 740l38 -151l-6 -6l-79 -2l-8 6l-23 107q-56 -73 -82 -109l-9 -3h-73l-5 7q90 119 111 151l10 6h119z" />
    <glyph glyph-name="udieresis" unicode="&#xfc;" 
d="M467 161l-30 -154l-7 -6l-98 -4l-5 7l12 49q-32 -29 -78 -46t-87 -17q-58 0 -102.5 32.5t-44.5 104.5q0 37 25 151l23 98q14 60 28 135l7 7l100 4l5 -6q-36 -151 -55 -225q-23 -96 -23 -134q0 -33 17 -53.5t33 -25t33 -4.5q67 0 136 58l38 170q26 122 42 209l8 7l101 5
l4 -7l-58 -246zM518 704l-21 -97l-8 -7l-94 -3l-6 6l21 96l7 6l96 5zM319 703l-22 -97l-8 -6l-97 -3l-5 5l22 97l7 6l98 3z" />
    <glyph glyph-name="yacute" unicode="&#xfd;" horiz-adv-x="479" 
d="M515 521l4 -8q-43 -67 -177 -291l-102 -169q-111 -193 -160 -289l-8 -7l-104 -1l-3 8q119 182 152 240l-24 163l-26 173l-30 172l7 7q38 1 104 5l8 -5l16 -153l28 -231l97 172q1 2 23 41.5t49.5 90t39.5 76.5l8 5zM446 748l3 -8q-78 -84 -129 -145l-9 -9l-9 -5
q-44 2 -70 1l-3 8q44 63 91 152l8 5q10 0 28 -0.5t28 -0.5q20 0 62 2z" />
    <glyph glyph-name="thorn" unicode="&#xfe;" 
d="M253 679l-45 -199q72 49 142 49q81 0 131 -57t50 -146q0 -106 -62 -192q-98 -136 -316 -136q-27 0 -52 1q-12 -49 -26 -119q-18 -96 -22 -114l-7 -6q-55 1 -105 0l-5 6q79 313 179 778q32 142 44 227l8 7q60 8 109 18l5 -6q-1 -5 -7.5 -30.5t-12.5 -49.5t-8 -31zM191 396
l-73 -320q27 -3 36 -3q69 0 123.5 23.5t84.5 61t45 78.5t15 82q0 62 -33 95t-81 33q-68 0 -117 -50z" />
    <glyph glyph-name="ydieresis" unicode="&#xff;" horiz-adv-x="479" 
d="M515 521l4 -8q-43 -67 -177 -291l-102 -169q-111 -193 -160 -289l-8 -7l-104 -1l-3 8q119 182 152 240l-24 163l-26 173l-30 172l7 7q38 1 104 5l8 -5l16 -153l28 -231l97 172q1 2 23 41.5t49.5 90t39.5 76.5l8 5zM479 704l-21 -97l-8 -7l-94 -3l-6 6l21 96l7 6l96 5z
M280 703l-22 -97l-8 -6l-97 -3l-5 5l22 97l7 6l98 3z" />
    <glyph glyph-name="dotlessi" unicode="&#x131;" horiz-adv-x="250" 
d="M138 157l-29 -151l-7 -5l-106 -3l-5 6q28 107 63 266l13 62q18 82 32 172l7 7l109 16l5 -7q-25 -98 -61 -260z" />
    <glyph glyph-name="Lslash" unicode="&#x141;" horiz-adv-x="500" 
d="M424 90l5 -7l-12 -39q-8 -26 -11 -39l-8 -6q-19 0 -69 0.5t-69 0.5h-118q-18 0 -65 -0.5t-71 -0.5l-5 6q1 5 27 111q9 34 23 102l8 33q-11 -7 -82 -51l-7 5q12 36 19 73l7 10q11 7 19 12t25.5 15t38.5 23l22 102q5 23 15 67.5t15 66.5q10 63 26 128l6 5q63 0 111 2l5 -6
l-33 -129q-5 -22 -15.5 -64.5t-11.5 -48.5l-10 -49l12 7q58 34 64 38q45 27 101 62l6 -4q-17 -59 -22 -78l-7 -8l-15 -9q-21 -12 -74.5 -44t-73.5 -44l-13 -8l-11 -49q-5 -22 -21 -91.5t-21 -97.5q67 -2 290 4z" />
    <glyph glyph-name="lslash" unicode="&#x142;" horiz-adv-x="250" 
d="M194 405l-13 -61q-56 -271 -67 -338l-8 -6q-36 0 -102 -3l-4 6q3 20 24 111q8 32 22 96l25 119q-20 -13 -41 -27.5t-28 -19.5l-7 5q5 17 10 38.5t7 30.5l6 9q31 18 71 46l7 32q53 245 61 329l7 6q79 13 110 19l5 -6q-2 -12 -15.5 -70.5t-16.5 -70.5q-9 -36 -26 -121
l-9 -42q23 16 71 48l6 -5q-11 -38 -17 -69l-7 -9q-22 -15 -71 -47z" />
    <glyph glyph-name="OE" unicode="&#x152;" horiz-adv-x="958" 
d="M873 84l-23 -80l-7 -5l-206 1h-111q-78 -2 -118 -2q-166 0 -230 31q-136 66 -136 249q0 136 77 260q35 56 80 91.5t102.5 52t110 22t128.5 5.5q1 0 136 -3h114l201 3l5 -6l-21 -75l-9 -6l-287 3l-49 -218h164l117 2l5 -7l-21 -70l-9 -6l-122 1h-152l-23 -102l-30 -140
q184 0 308 5zM408 82l40 1l39 174l44 199l38 171h-44q-47 0 -74.5 -2t-67.5 -10t-67 -23t-56.5 -44.5t-52.5 -71.5q-50 -92 -50 -199q0 -112 68 -161q27 -19 65.5 -26.5t117.5 -7.5z" />
    <glyph glyph-name="oe" unicode="&#x153;" horiz-adv-x="917" 
d="M814 129l7 -4l-26 -87l-5 -7q-74 -42 -165 -42q-78 0 -126 27q-51 28 -71 84q-27 -44 -58 -68q-59 -44 -151 -44q-91 0 -146.5 54.5t-55.5 152.5q0 15 2 35t9 53.5t19 65t34.5 65.5t52.5 59t76.5 41.5t102.5 16.5q94 0 148 -59q12 -14 25 -40q72 99 202 99q87 0 137 -43
q54 -48 54 -142q0 -35 -13 -91l-7 -7h-119h-90q-58 0 -148 -3q0 -5 -1 -14t-1.5 -16.5t-0.5 -14.5q0 -60 38.5 -95.5t107.5 -35.5q95 0 169 60zM515 316l265 2q5 22 5 38q0 103 -106 103q-77 0 -125 -63q-24 -32 -39 -80zM405 282q7 35 7 60q0 35 -11.5 59.5t-30 35.5
t-34.5 15.5t-32 4.5q-54 0 -94 -36.5t-57 -88.5t-24.5 -90t-7.5 -60q0 -39 12.5 -65.5t32 -37.5t33.5 -14.5t26 -3.5q76 0 117.5 59.5t62.5 161.5z" />
    <glyph glyph-name="Scaron" unicode="&#x160;" horiz-adv-x="562" 
d="M9 46l-3 8l24 88l10 2q18 -26 41 -40q55 -37 128 -37q71 0 117.5 35t46.5 96q0 42 -35 77q-17 16 -78 49l-32 18q-54 29 -71 43q-59 49 -59 127q0 87 65.5 149.5t190.5 62.5q106 0 193 -55l3 -8l-27 -83l-10 -2q-29 37 -73.5 51.5t-81.5 14.5q-68 0 -107 -34.5t-39 -81.5
q0 -41 25 -64.5t87 -55.5l29 -14q22 -12 33.5 -19t34 -25t34.5 -35.5t22.5 -45t10.5 -58.5q0 -39 -15.5 -77.5t-46 -72.5t-84.5 -55t-123 -21q-84 0 -155 29q-26 10 -55 34zM297 756l-48 134l6 7l87 3l7 -6l34 -93q17 19 44 48q7 7 40 46l9 4h79l4 -8q-92 -112 -109 -136
l-9 -5h-137z" />
    <glyph glyph-name="scaron" unicode="&#x161;" horiz-adv-x="437" 
d="M413 485l-22 -72l-9 -3q-17 22 -53 37t-73 15q-46 0 -76 -21t-30 -55q0 -21 15 -38t26.5 -23t38.5 -18l52 -24q31 -14 59 -45.5t28 -78.5q0 -71 -54.5 -122.5t-159.5 -51.5q-101 0 -182 50l-3 9l23 72l8 3q22 -19 36.5 -29.5t44.5 -21t66 -10.5q53 0 83.5 25t30.5 59
q0 29 -19.5 46t-62.5 35l-25 12q-23 10 -38.5 19.5t-34.5 25t-28.5 38.5t-9.5 51q0 16 3.5 34t17 42.5t34.5 43t60.5 31.5t91.5 13q87 0 158 -39zM210 587l-38 151l6 6l79 2l9 -6l23 -107q37 51 81 108l9 4h73l5 -8q-28 -34 -59 -77q-38 -51 -52 -73l-9 -6h-119z" />
    <glyph glyph-name="Ydieresis" unicode="&#x178;" horiz-adv-x="542" 
d="M288 154l-30 -148l-7 -6l-106 -2l-5 6q32 126 46 188q3 14 10.5 46.5t11.5 50.5l-67 220l-59 188l4 7l112 4l6 -5q37 -149 85 -325l115 163q99 144 110 161l7 4h102l4 -6q-40 -50 -110 -145l-200 -272zM558 867l-22 -98l-8 -6l-101 -2l-4 6l21 95l7 7l101 3zM332 866
l-22 -96l-8 -6l-100 -2l-6 6l23 94l7 8l100 2z" />
    <glyph glyph-name="Zcaron" unicode="&#x17d;" horiz-adv-x="521" 
d="M447 82l-23 -77l-7 -6l-166 1h-171l-150 -3l-5 10q76 97 114 147l361 472q-131 0 -306 -6l-6 7l24 76l7 6l147 -2h134l172 2l4 -10q-120 -156 -143 -185l-326 -430h186l148 4zM276 756l-48 134l6 7l87 3l7 -6l34 -93q17 19 44 48q7 7 40 46l9 4h79l4 -8
q-92 -112 -109 -136l-9 -5h-137z" />
    <glyph glyph-name="zcaron" unicode="&#x17e;" horiz-adv-x="437" 
d="M360 72l-21 -65l-9 -6q-26 0 -79 0.5t-80 0.5q-77 0 -229 -2l-4 9q70 85 122 153l155 195q47 60 66 86l-223 -2l-5 7l22 65l8 7q140 -2 154 -2q71 0 213 2l4 -9l-44 -56q-2 -3 -51 -63.5t-104 -128t-70 -87.5q-39 -49 -76 -101q123 1 245 5zM210 587l-38 151l6 6l79 2
l9 -6l23 -107q37 51 81 108l9 4h73l5 -8q-28 -34 -59 -77q-38 -51 -52 -73l-9 -6h-119z" />
    <glyph glyph-name="florin" unicode="&#x192;" horiz-adv-x="417" 
d="M341 349l-8 -8q-30 2 -88 3q-6 -28 -36 -176.5t-34 -167.5q-7 -31 -10 -45.5t-11 -40t-16 -38t-21.5 -29.5t-30.5 -24.5t-41 -13.5t-54 -6q-33 0 -70 8l-4 8q2 9 17 69l8 5q22 -6 41 -6t32.5 5.5t21 15.5t10.5 16t7 16q10 29 32 132l55 272q-5 0 -38 -0.5t-39 -0.5l-5 6
q8 29 18 67l8 7q31 -3 71 -3l13 65q10 50 16 73.5t18.5 49.5t31.5 43q42 38 118 38q39 0 71 -8l5 -8q-10 -37 -17 -69l-9 -6q-17 7 -40 7q-29 0 -55 -21q-17 -20 -37 -112l-11 -53q65 0 95 2l5 -8q-13 -43 -19 -64z" />
    <glyph glyph-name="circumflex" unicode="&#x2c6;" horiz-adv-x="292" 
d="M250 740l38 -151l-6 -6l-79 -2l-8 6l-23 107q-56 -73 -82 -109l-9 -3h-73l-5 7q90 119 111 151l10 6h119z" />
    <glyph glyph-name="caron" unicode="&#x2c7;" horiz-adv-x="292" 
d="M41 587l-38 151l6 6l79 2l9 -6l23 -107q37 51 81 108l9 4h73l5 -8q-28 -34 -59 -77q-38 -51 -52 -73l-9 -6h-119z" />
    <glyph glyph-name="breve" unicode="&#x2d8;" horiz-adv-x="292" 
d="M277 729l4 -6q-2 -13 -5.5 -25.5t-14.5 -34t-26.5 -36.5t-44 -26.5t-64.5 -11.5q-52 0 -84 26.5t-32 70.5q0 12 6 36l7 5q35 0 68 2l4 -7q-3 -8 -3 -18q0 -19 13 -29t32 -10q24 0 40 13t20 23.5t6 20.5l7 6q36 0 67 1z" />
    <glyph glyph-name="dotaccent" unicode="&#x2d9;" horiz-adv-x="292" 
d="M207 710l4 -6q-3 -13 -22 -98l-8 -6q-37 0 -96 -3l-5 6q15 64 21 97l8 5q74 3 98 5z" />
    <glyph glyph-name="ring" unicode="&#x2da;" horiz-adv-x="292" 
d="M261 695q1 -48 -32.5 -86t-96.5 -38q-46 0 -74 24t-28 67q0 51 36.5 87t94.5 36q45 0 72 -24t28 -66zM189 667q5 17 5 32q0 41 -35 41q-32 0 -46.5 -28t-14.5 -54q0 -44 37 -44q38 0 54 53z" />
    <glyph glyph-name="ogonek" unicode="&#x2db;" horiz-adv-x="292" 
d="M191 18l20 -15q-16 -8 -23 -12t-22.5 -14.5t-23 -23t-7.5 -26.5q0 -35 41 -35q25 0 61 22l6 -4q-9 -24 -20 -59l-7 -7q-40 -18 -78 -18q-43 0 -66.5 20t-23.5 50q0 42 40 73q36 29 103 49z" />
    <glyph glyph-name="tilde" unicode="&#x2dc;" horiz-adv-x="292" 
d="M319 710l-18 -77l-5 -8q-47 -36 -94 -36q-29 0 -69 21l-12 7q-34 19 -55 19q-30 0 -85 -39l-7 3l18 74l6 11q49 31 89 31q31 0 74 -23l13 -6q30 -16 51 -16q38 0 87 42z" />
    <glyph glyph-name="hungarumlaut" unicode="&#x2dd;" horiz-adv-x="292" 
d="M162 748l3 -8q-87 -93 -130 -145q-2 -2 -4.5 -5t-3.5 -4l-9 -5q-45 2 -70 1l-4 8q48 69 92 152l8 5q9 0 27.5 -0.5t27.5 -0.5q21 0 63 2zM346 748l3 -8q-75 -80 -130 -145q-2 -3 -8 -9l-9 -5q-45 2 -70 1l-4 8q31 44 92 152l8 5q10 0 28 -0.5t27 -0.5q21 0 63 2z" />
    <glyph glyph-name="endash" unicode="&#x2013;" 
d="M553 322l-26 -79l-8 -6l-175 3h-158h-177l-5 7l26 75l9 8l166 -3h138l206 2z" />
    <glyph glyph-name="emdash" unicode="&#x2014;" horiz-adv-x="708" 
d="M677 322l-12 -37q-8 -28 -13 -42l-8 -6q-33 0 -204 2h-212q-120 0 -199 -1h-20l-5 8q15 42 25 76l9 7q7 -1 22 -1q24 -1 81 -1.5t72 -0.5h201q208 0 259 3z" />
    <glyph glyph-name="quoteleft" unicode="&#x2018;" horiz-adv-x="229" 
d="M81 514l-4 8q46 70 63 98q81 142 83 142l9 6l67 1l4 -6q-52 -117 -99 -239l-9 -6z" />
    <glyph glyph-name="quoteright" unicode="&#x2019;" horiz-adv-x="229" 
d="M304 769l4 -8q-49 -73 -99 -160q-8 -13 -23.5 -40t-23.5 -40l-9 -6l-67 -1l-5 6q50 111 100 239l9 7z" />
    <glyph glyph-name="quotesinglbase" unicode="&#x201a;" horiz-adv-x="229" 
d="M146 120l4 -8q-49 -73 -99 -160q-8 -14 -23.5 -40t-23.5 -40l-9 -6l-67 -1l-5 6q50 111 100 239l9 7z" />
    <glyph glyph-name="quotedblleft" unicode="&#x201c;" horiz-adv-x="417" 
d="M261 514l-4 8q40 59 65 101l81 139l9 6l67 1l5 -6q-36 -79 -100 -239l-8 -6zM83 514l-4 8q35 52 63 98l83 142l9 6l67 1l5 -6q-56 -126 -99 -239l-9 -6z" />
    <glyph glyph-name="quotedblright" unicode="&#x201d;" horiz-adv-x="417" 
d="M307 769l4 -8q-37 -56 -51 -78q-6 -9 -29.5 -49t-44.5 -76l-21 -37l-9 -6l-67 -1l-5 6q50 112 100 239l8 7zM485 769l4 -8q-6 -9 -23 -34q-19 -28 -77 -127q-24 -44 -46 -79l-9 -6l-67 -1l-5 6q61 138 100 239l9 7z" />
    <glyph glyph-name="quotedblbase" unicode="&#x201e;" horiz-adv-x="417" 
d="M131 120l3 -8q-42 -63 -65 -101l-80 -139l-9 -6l-68 -1l-4 6q55 125 99 239l9 7zM309 120l3 -8q-44 -66 -62 -96l-83 -144l-9 -6l-68 -1l-4 6q48 108 99 239l9 7z" />
    <glyph glyph-name="dagger" unicode="&#x2020;" horiz-adv-x="479" 
d="M471 440l-155 2l-79 -338q-30 -129 -58 -271l-9 -8h-96l-6 8l63 255l84 354l-164 -3l-5 8l18 68l10 7h159l22 94l30 142l9 8l92 2l6 -9l-26 -104l-32 -134l162 2l5 -7l-21 -68z" />
    <glyph glyph-name="daggerdbl" unicode="&#x2021;" horiz-adv-x="479" 
d="M485 461l-9 -7q-69 2 -158 1l-70 -301q94 1 163 3l6 -8q-14 -44 -20 -68l-10 -7q-62 1 -157 1q-2 -8 -8.5 -36.5t-13.5 -60t-9 -38.5q-18 -90 -21 -107l-8 -7q-53 0 -94 -1l-6 8q8 23 31 119t28 123q-100 0 -163 -2l-5 7q5 17 11 37.5t9 30.5l9 8q63 -2 158 -2l71 302
q-47 -1 -97 -2t-68 -1l-5 8q15 54 19 68l10 7q106 -2 159 -1q25 87 49 222l8 8q54 0 92 2l6 -8q-11 -41 -55 -224q90 -1 163 2l5 -7q-6 -16 -20 -69z" />
    <glyph glyph-name="bullet" unicode="&#x2022;" horiz-adv-x="333" 
d="M299 353q0 -55 -35.5 -92.5t-92.5 -37.5q-58 0 -95 38.5t-37 91.5q0 52 37.5 91t93.5 39q54 0 91.5 -37t37.5 -93z" />
    <glyph glyph-name="ellipsis" unicode="&#x2026;" horiz-adv-x="1000" 
d="M838 51q0 -23 -15.5 -40t-40.5 -17q-23 0 -40 15.5t-17 40.5q0 24 16.5 40.5t40.5 16.5t40 -16.5t16 -39.5zM504 51q0 -23 -15.5 -40t-40.5 -17q-23 0 -40 15.5t-17 40.5q0 24 16.5 40.5t40.5 16.5t40 -16.5t16 -39.5zM170 51q0 -23 -15.5 -40t-40.5 -17q-23 0 -40 15.5
t-17 40.5q0 24 16.5 40.5t40.5 16.5t40 -16.5t16 -39.5z" />
    <glyph glyph-name="perthousand" unicode="&#x2030;" horiz-adv-x="1312" 
d="M393 480q-16 -141 -89 -209q-49 -45 -119 -45q-55 0 -91 31q-42 39 -42 120q0 10 1 25.5t6 47t13 61t24.5 62.5t38.5 57.5t56 40.5t76 16q65 0 97.5 -41t32.5 -113q0 -30 -4 -53zM312 443q15 68 15 104q0 86 -66 86q-52 0 -84 -57q-21 -38 -37 -101.5t-16 -109.5
q0 -86 65 -86q37 0 68.5 33.5t54.5 130.5zM859 244q-16 -141 -89 -209q-49 -45 -119 -45q-57 0 -90 31q-42 39 -42 119q0 10 1 26t6 47t13 61t24.5 63t38.5 57.5t56 40.5t76 16q64 0 96.5 -41t32.5 -113q0 -30 -4 -53zM778 207q15 67 15 104q0 86 -65 86q-53 0 -85 -57
q-21 -38 -36.5 -102t-15.5 -109q0 -86 64 -86q37 0 68.5 33t54.5 131zM1255 244q-16 -141 -89 -209q-49 -45 -119 -45q-57 0 -90 31q-42 39 -42 119q0 10 1 26t6 47t13 61t24.5 63t38.5 57.5t56 40.5t76 16q64 0 96.5 -41t32.5 -113q0 -30 -4 -53zM1174 207q15 67 15 104
q0 86 -65 86q-53 0 -85 -57q-21 -38 -36.5 -102t-15.5 -109q0 -86 64 -86q37 0 68.5 33t54.5 131zM291 25l-10 -17l-9 -6q-12 0 -32 -1t-32 -1l-4 8q6 9 43 63.5t44 65.5q8 11 64 97l134 207q93 143 146 230l11 7q38 0 62 1l4 -7q-95 -139 -162 -241l-119 -185
q-51 -79 -140 -221z" />
    <glyph glyph-name="guilsinglleft" unicode="&#x2039;" horiz-adv-x="250" 
d="M245 469l4 -8q-29 -34 -74 -94q-8 -10 -33 -44t-36 -48q38 -115 62 -186l-4 -8h-81l-7 6q-20 60 -28 88q-3 7 -11.5 31t-15.5 44.5t-7 21.5l2 11q112 156 129 182l11 5q44 -1 89 -1z" />
    <glyph glyph-name="guilsinglright" unicode="&#x203a;" horiz-adv-x="250" 
d="M-27 81l-3 7q61 77 77 99l66 88q-13 48 -62 186l6 8q42 -1 82 0l7 -6q23 -76 26 -85l34 -103l-1 -10q-90 -118 -132 -179l-10 -5h-90z" />
    <glyph glyph-name="fraction" unicode="&#x2044;" horiz-adv-x="125" 
d="M25 245l-150 -237l-9 -7l-55 -2l-5 8q102 152 151 227l134 206q92 143 163 260l11 7l53 1l5 -7l-180 -271z" />
    <glyph glyph-name="fraction" unicode="&#x2215;" horiz-adv-x="125" 
d="M25 245l-150 -237l-9 -7l-55 -2l-5 8q102 152 151 227l134 206q92 143 163 260l11 7l53 1l5 -7l-180 -271z" />
    <glyph glyph-name="Euro" unicode="&#x20ac;" 
d="M383 230h-165q8 -80 44.5 -124.5t99.5 -44.5q42 0 75 16.5t70 49.5l8 -4l-25 -90l-6 -8q-65 -40 -139 -40q-109 0 -167.5 68t-67.5 177h-47q-20 0 -36.5 -0.5t-20.5 -0.5l-6 8q19 44 23 56l7 7q1 0 20 -0.5t32 -0.5h26q3 43 12 86h-23q-20 0 -36.5 -0.5t-20.5 -0.5l-6 8
q19 44 23 56l7 7q1 0 20 -0.5t32 -0.5h25q39 105 117 171.5t191 66.5q54 0 97.5 -18t62.5 -35l3 -8l-30 -72l-10 -2q-12 26 -44 43t-76 17q-68 0 -120 -44t-83 -119h226q20 0 52 2l6 -6q-19 -38 -25 -60l-6 -6q-26 1 -54 1h-220q-9 -42 -12 -86h194q20 0 52 2l6 -6
q-19 -37 -25 -60l-6 -6q-26 1 -54 1z" />
    <glyph glyph-name="trademark" unicode="&#x2122;" horiz-adv-x="687" 
d="M683 706v-332h-57l2 205q0 26 3 68q-7 -25 -16 -57l-68 -216h-51l-68 217q-1 4 -2.5 7.5t-5.5 17t-9 30.5q1 -10 1.5 -22.5t1.5 -26t1 -18.5l2 -205h-56v332h79l83 -262l81 262h79zM228 657v-283h-58v283h-107v49h270v-49h-105z" />
    <glyph glyph-name="minus" unicode="&#x2212;" horiz-adv-x="667" 
d="M664 332v-79h-667v79h667z" />
    <glyph glyph-name="fi" unicode="&#xfb01;" horiz-adv-x="542" 
d="M307 448l-8 -7q-40 2 -88 2q-50 -212 -88 -437l-8 -7q-45 0 -100 -4l-6 6q7 31 43 192l54 249q-39 1 -75 0l-6 6q12 41 18 67l8 7q31 -3 71 -3l14 65q10 51 15.5 73.5t18 49t31.5 43.5q42 38 118 38q37 0 72 -8l5 -8q-9 -34 -18 -69l-8 -6q-19 7 -41 7q-36 0 -54 -21
q-16 -18 -38 -111l-10 -52h94l5 -7q-5 -15 -10 -34t-9 -31zM451 260l-22 -103q-27 -141 -28 -150l-7 -6q-59 0 -106 -2l-6 6q2 8 13.5 50.5t11.5 44.5q0 15 39 171l13 62q24 111 32 172l7 6q59 8 108 17l6 -7q-17 -65 -61 -261zM560 767l7 -6l-23 -93l-7 -8q-49 -6 -105 -14
l-6 8q15 68 20 92l9 8q49 5 105 13z" />
    <glyph glyph-name="fl" unicode="&#xfb02;" horiz-adv-x="542" 
d="M307 448l-8 -8q-30 2 -88 3q-40 -181 -48 -223q-24 -115 -40 -214l-7 -6q-48 0 -101 -4l-5 6q6 30 22 100.5t20 90.5l55 250q-5 0 -38 -0.5t-38 -0.5l-6 6q12 41 18 67l8 7q16 -1 36 -3h35l14 65q10 51 15.5 73.5t18 49t31.5 43.5q42 38 118 38q37 0 72 -8l5 -8
q-9 -34 -18 -69l-8 -6q-19 7 -41 7q-36 0 -54 -21q-17 -19 -38 -112l-11 -53q65 0 95 2l5 -8q-5 -15 -10 -33.5t-9 -30.5zM512 529l-39 -185q-50 -235 -67 -338l-8 -6q-64 -1 -102 -4l-5 6q4 20 25 111q11 45 21 97l51 233q52 249 60 329l8 7q51 7 109 19l6 -7
q-2 -12 -15.5 -70.5t-16.5 -70.5q-6 -24 -16 -69.5t-11 -51.5z" />
    </font>
</defs>
</svg>
