<?xml version="1.0" standalone="no"?>
<!DOCTYPE svg PUBLIC "-//W3C//DTD SVG 1.1//EN" "http://www.w3.org/Graphics/SVG/1.1/DTD/svg11.dtd" >
<svg xmlns="http://www.w3.org/2000/svg" xmlns:xlink="http://www.w3.org/1999/xlink" version="1.1">
<metadata>
Created by FontForge 20170731 at Fri Oct  8 20:14:55 1999
 By ,,,
Copyright (c) 1991, 1998, 1999 Adobe Systems Incorporated.  All Rights Reserved.Formata is either a registered trademark or trademark of Berthold Types Limited in the United States and/or other countries.
</metadata>
<defs>
<font id="Formata-Bold" horiz-adv-x="583" >
  <font-face 
    font-family="Formata Bold"
    font-weight="700"
    font-stretch="normal"
    units-per-em="1000"
    panose-1="2 11 8 0 0 0 0 0 0 0"
    ascent="743"
    descent="-257"
    x-height="539"
    cap-height="709"
    bbox="-138 -257 1283 980"
    underline-thickness="50"
    underline-position="-200"
    unicode-range="U+0020-FB02"
  />
<missing-glyph horiz-adv-x="292" 
 />
    <glyph glyph-name=".notdef" horiz-adv-x="292" 
 />
    <glyph glyph-name=".null" horiz-adv-x="0" 
 />
    <glyph glyph-name="nonmarkingreturn" horiz-adv-x="333" 
 />
    <glyph glyph-name="space" unicode=" " horiz-adv-x="292" 
 />
    <glyph glyph-name="space" unicode="&#xa0;" horiz-adv-x="292" 
 />
    <glyph glyph-name="exclam" unicode="!" horiz-adv-x="313" 
d="M262 265l-7 -9l-146 -3l-5 7q-13 298 -30 489l6 8l199 10l9 -5q-22 -220 -26 -497zM273 172l5 -3l-2 -166l-5 -4l-187 -2l-5 7v160l7 6q13 0 39 -0.5t39 -0.5h19z" />
    <glyph glyph-name="quotedbl" unicode="&#x22;" horiz-adv-x="396" 
d="M372 670l-53 -262h-31l-55 250q-2 16 -2 25q0 29 21.5 47.5t53.5 18.5q28 0 47.5 -17t19.5 -45q0 -12 -1 -17zM164 670l-53 -262h-32l-54 250q0 3 -1 7.5t-1.5 8.5t-0.5 8q0 33 23.5 50t52.5 17q28 0 47.5 -17t19.5 -45q0 -3 -0.5 -9t-0.5 -8z" />
    <glyph glyph-name="numbersign" unicode="#" horiz-adv-x="667" 
d="M485 186l-26 -187h-125l26 187h-99l-26 -187h-124l25 187h-94v123h112l13 96h-100v124h117l25 176h125l-26 -176h100l24 176h125l-24 -176h91v-124h-109l-12 -96h98v-123h-116zM278 309h99l14 96h-100z" />
    <glyph glyph-name="dollar" unicode="$" horiz-adv-x="562" 
d="M344 417l37 -26q33 -21 52.5 -36t47 -42t41 -60t13.5 -72q0 -14 -3 -29.5t-14 -44t-41 -55.5t-76 -45q-61 -22 -159 -22l-13 -60l-8 -6l-78 -1l-5 7l18 68q-56 14 -102 40l-5 7l3 143l12 5q38 -30 61 -41t64 -22l36 145l-38 25q-33 22 -50.5 35.5t-41.5 39t-35 57.5
t-11 72q0 85 58 139q58 56 168 56q17 0 51 -2l9 53l8 7l78 -1l6 -6l-15 -63q43 -9 89 -30l4 -6l-13 -131l-12 -3q-53 31 -99 45zM300 220l-29 -102q27 -2 43 5q30 11 30 39q0 33 -44 58zM271 466l28 98q-27 2 -39 -3q-31 -12 -31 -40q0 -24 42 -55z" />
    <glyph glyph-name="percent" unicode="%" horiz-adv-x="917" 
d="M366 456q0 -37 -2.5 -64.5t-12.5 -61t-27 -54.5t-49.5 -35.5t-77.5 -14.5q-44 0 -76 14.5t-49.5 35.5t-27 54t-12 60.5t-2.5 63.5q0 37 2 63.5t11.5 61t26.5 56t49.5 37t77.5 15.5t77.5 -14.5t49.5 -35.5t27 -54t12.5 -61t2.5 -66zM239 457q0 69 -7 104q-7 41 -35 41
q-16 0 -26 -17q-14 -25 -14 -128q0 -73 6 -106q9 -40 34 -40q28 0 35 40q7 35 7 106zM887 221q0 -38 -2.5 -66t-12.5 -61t-27 -54t-49.5 -35.5t-77.5 -14.5q-44 0 -76 14.5t-49.5 35.5t-27 54.5t-12 60.5t-2.5 64t2 63t11.5 60.5t26.5 56t49.5 37t77.5 15.5t77.5 -14.5
t49.5 -35.5t27 -54t12.5 -60.5t2.5 -65.5zM760 222q0 69 -7 104q-8 40 -35 40q-16 0 -26 -17q-14 -25 -14 -127q0 -74 6 -106q9 -41 34 -41q28 0 35 41q7 35 7 106zM375 10l-6 -7q-86 -3 -101 -3l-7 9q18 42 108 246l102 237q41 95 73 178l7 7q11 -1 54.5 -0.5t46.5 0.5
l4 -9q-174 -373 -281 -658z" />
    <glyph glyph-name="ampersand" unicode="&#x26;" horiz-adv-x="708" 
d="M691 330l2 -11q-24 -41 -41 -65t-72 -94q57 -73 129 -152l-5 -9q-32 1 -96 1q-84 -2 -124 -4l-8 5l-33 41q-91 -58 -193 -58q-95 0 -165 52.5t-70 146.5q0 39 14 72.5t41 60t47.5 41.5t50.5 34q-19 25 -28.5 40t-19.5 44.5t-10 62.5q0 65 34 108t80 59t101 16
q98 0 145 -45q51 -47 51 -120q0 -49 -25.5 -87.5t-91.5 -86.5l84 -108q63 77 96 175l8 1zM355 158l-89 111q-15 -11 -21 -16.5t-15.5 -19.5t-9.5 -29q0 -27 19 -45.5t52 -18.5q26 0 64 18zM321 489q47 37 47 70q0 21 -10.5 32.5t-17.5 13t-14 1.5q-19 0 -31 -13.5t-12 -30.5
q0 -20 38 -73z" />
    <glyph glyph-name="quotesingle" unicode="'" horiz-adv-x="208" 
d="M174 670l-53 -262h-32l-54 250q-2 16 -2 25q0 31 23 48.5t53 17.5q9 0 17.5 -2t14 -5t11 -6.5t8 -6.5t4.5 -6l3 -3q9 -15 7 -50z" />
    <glyph glyph-name="parenleft" unicode="(" horiz-adv-x="333" 
d="M315 765l8 -10q-93 -256 -93 -482q0 -193 93 -477l-8 -9h-103l-8 6q-43 77 -73 147q-78 185 -78 335q0 148 71 320q39 92 80 164l8 6h103z" />
    <glyph glyph-name="parenright" unicode=")" horiz-adv-x="333" 
d="M18 -213l-8 10q33 98 40 126q53 185 53 356q0 197 -93 476l8 10h103l8 -6q151 -264 151 -483q0 -146 -75 -330q-32 -74 -76 -153l-8 -6h-103z" />
    <glyph glyph-name="asterisk" unicode="*" horiz-adv-x="479" 
d="M442 523l2 -6q-39 -72 -54 -102l-6 -2l-105 74l27 -118l-5 -5l-118 -3l-3 4l13 123q-46 -45 -90 -78l-6 1l-60 99l2 7l110 45l-111 45l-3 7q32 49 57 98l8 1q59 -45 97 -71l-21 117l5 5l114 1l5 -4l-20 -120q49 44 96 78l7 -2q25 -47 59 -98l-1 -7l-117 -50z" />
    <glyph glyph-name="plus" unicode="+" horiz-adv-x="667" 
d="M398 228v-228h-127v228h-229v127h229v227h127v-227h227v-127h-227z" />
    <glyph glyph-name="comma" unicode="," horiz-adv-x="271" 
d="M265 177l4 -7q-56 -125 -58 -131q-4 -8 -26.5 -63t-27.5 -66l-7 -5l-145 -4l-4 7q37 130 61 256l5 6q103 1 198 7z" />
    <glyph glyph-name="hyphen" unicode="-" horiz-adv-x="396" 
d="M358 360l4 -5l-7 -140l-6 -7h-311l-4 5l6 140l6 7h312z" />
    <glyph glyph-name="hyphen" unicode="&#xad;" horiz-adv-x="396" 
d="M358 360l4 -5l-7 -140l-6 -7h-311l-4 5l6 140l6 7h312z" />
    <glyph glyph-name="period" unicode="." horiz-adv-x="271" 
d="M231 172l4 -4v-163l-4 -4l-189 -4l-4 6l-4 161l4 6z" />
    <glyph glyph-name="slash" unicode="/" horiz-adv-x="521" 
d="M130 -140l-6 -6l-134 -4l-6 9q49 111 96 220.5t79 182.5q122 284 202 495l6 7h134l4 -9q-20 -42 -48 -111q-92 -218 -139 -325q-89 -206 -188 -459z" />
    <glyph glyph-name="zero" unicode="0" 
d="M550 338q0 -121 -18.5 -183.5t-52.5 -99.5q-63 -70 -185 -70q-78 0 -131 25t-80 74.5t-38 109.5t-11 144q0 73 7 126.5t21 85t22.5 45t21.5 27.5q63 69 184 69q64 0 111 -18t75.5 -48t45 -76.5t22.5 -96t6 -114.5zM355 339q0 143 -19 188q-14 34 -45 34q-30 0 -43 -32
q-19 -40 -19 -192q0 -51 3 -100q2 -49 11 -79q15 -43 49 -43q33 0 46 40q17 49 17 184z" />
    <glyph glyph-name="one" unicode="1" 
d="M409 8l-8 -7q-108 0 -201 -4l-5 7q7 270 6 528l-87 -5l-6 6l8 120l7 6l275 36l7 -6q-3 -303 -3 -401q0 -147 7 -280z" />
    <glyph glyph-name="two" unicode="2" 
d="M34 636l6 7q44 17 65.5 24.5t62.5 16t81 8.5q123 0 189.5 -64t66.5 -162t-83 -201q-12 -15 -43 -52.5t-43 -52.5l187 6l6 -7q-6 -79 -7 -148l-7 -11q-23 0 -64 0.5t-62 0.5q-62 0 -212 -2t-165 -2l-3 14q90 112 190 246q58 80 75.5 111t17.5 65q0 35 -24 67t-82 32
q-45 0 -75.5 -14t-69.5 -44l-9 7z" />
    <glyph glyph-name="three" unicode="3" 
d="M51 175l9 5q23 -16 37 -24.5t42 -18t57 -9.5q54 0 85 27.5t31 73.5q0 42 -29.5 67.5t-69.5 25.5q-25 0 -53 -14l-7 6q25 55 87 211l-192 -6l-7 7l8 141l7 10q126 -2 190 -2q94 0 252 5l7 -11q-67 -133 -118 -242q40 -6 67 -22q80 -50 80 -166q0 -110 -75 -183
q-75 -71 -219 -71q-95 0 -188 34l-3 7z" />
    <glyph glyph-name="four" unicode="4" 
d="M544 125h-63l5 -120l-9 -7q-95 1 -186 -3l-6 6l6 124h-255l-5 8v106q114 235 121 250q11 22 81 184l9 7l234 3l8 -7q-4 -171 -3 -413l71 3l7 -6l-7 -128zM193 263h103l6 279q-38 -94 -63 -164z" />
    <glyph glyph-name="five" unicode="5" 
d="M252 528l-8 -76q44 6 64 6q112 0 171.5 -62.5t59.5 -158.5q0 -39 -12.5 -78t-42 -80.5t-90 -67.5t-143.5 -26q-97 0 -194 31l-6 9q4 64 4 147l10 5q27 -16 43.5 -24.5t45 -17t57.5 -8.5q55 0 81.5 26.5t26.5 66.5q0 41 -30.5 66.5t-86.5 25.5q-61 0 -126 -30l-9 5
q2 37 8 119q13 168 16 264l7 7q24 0 72 -0.5t72 -0.5q66 0 250 4l5 -8l-12 -142l-7 -7z" />
    <glyph glyph-name="six" unicode="6" 
d="M502 519l-11 -5q-51 39 -117 39q-61 0 -98 -30q-17 -14 -27 -32t-12.5 -31.5t-5.5 -35.5q60 35 119 35q102 0 154 -68t52 -156q0 -67 -21.5 -117t-58 -78t-79.5 -41.5t-93 -13.5q-272 0 -272 329q0 184 84 283q81 95 247 95q66 0 141 -24l6 -8zM227 270q0 -93 16 -121
q21 -35 58 -35q29 0 46 18.5t21 37t4 38.5q0 40 -18.5 69t-55.5 29q-38 0 -71 -36z" />
    <glyph glyph-name="seven" unicode="7" 
d="M546 683l6 -11q-8 -27 -25.5 -81.5t-26.5 -81.5q-16 -49 -45 -142.5t-34 -110.5q-36 -118 -49 -164q-4 -14 -10.5 -42t-9.5 -42l-8 -8q-115 1 -219 -3l-8 8q19 56 60 165q49 129 136 353l-264 -4l-6 6l13 144l7 8q195 0 483 6z" />
    <glyph glyph-name="eight" unicode="8" 
d="M448 366q19 -8 28.5 -13.5t23.5 -18.5t26 -32q29 -46 29 -102q0 -82 -53 -141q-68 -73 -212 -73q-97 0 -163 37q-44 25 -71.5 74t-27.5 103q0 72 44 123q25 27 64 43q-38 20 -55 39q-35 41 -35 99q0 16 4 34.5t14 42.5t32.5 46.5t54.5 37.5q60 27 146 27
q59 0 104.5 -14.5t70.5 -35.5t40.5 -49t20.5 -49t5 -41q0 -56 -32 -94q-20 -25 -58 -43zM338 540q-15 35 -46 35q-4 0 -8 -0.5t-13 -4.5t-15.5 -11.5t-11.5 -23.5t-5 -38q0 -31 9 -49q16 -28 43 -28q9 0 14 2q39 14 39 75q0 29 -6 43zM328 137q17 19 17 67q0 35 -10.5 56
t-21 26t-21.5 5q-54 0 -54 -94q0 -43 17 -60t36 -17q22 0 37 17z" />
    <glyph glyph-name="nine" unicode="9" 
d="M81 158l10 5q53 -39 118 -39q53 0 89 23q21 14 33.5 35t15 33.5t6.5 37.5q-25 -13 -37.5 -18.5t-34.5 -11t-47 -5.5q-101 0 -154 66.5t-53 165.5q0 108 66.5 175t186.5 67q85 0 147 -37q124 -74 124 -294q0 -178 -84 -281q-38 -46 -95.5 -70.5t-154.5 -24.5
q-61 0 -138 24l-6 8zM356 407q0 91 -15 120q-20 36 -60 36q-37 0 -53.5 -28.5t-16.5 -64.5q0 -42 19 -71t53 -29q38 0 73 37z" />
    <glyph glyph-name="colon" unicode=":" horiz-adv-x="313" 
d="M273 172l4 -4v-163l-4 -4l-189 -4l-5 6l-3 161l3 6zM276 533l2 -3v-165l-5 -4l-191 -3l-5 5v161l4 6z" />
    <glyph glyph-name="semicolon" unicode=";" horiz-adv-x="313" 
d="M306 177l4 -7q-18 -42 -25 -57q-33 -72 -86 -203l-8 -5l-144 -4l-5 7q31 95 62 256l5 6q102 1 197 7zM302 533l4 -4l-2 -165l-5 -4l-190 -3l-4 5v161l4 6z" />
    <glyph glyph-name="less" unicode="&#x3c;" horiz-adv-x="667" 
d="M667 135v-138l-667 292v124l667 296v-139l-490 -219z" />
    <glyph glyph-name="equal" unicode="=" horiz-adv-x="667" 
d="M667 251v-127h-667v127h667zM667 459v-127h-667v127h667z" />
    <glyph glyph-name="greater" unicode="&#x3e;" horiz-adv-x="667" 
d="M667 289l-667 -292v138l489 216l-489 219v139l667 -296v-124z" />
    <glyph glyph-name="question" unicode="?" horiz-adv-x="458" 
d="M305 258l-5 -8l-176 -4l-5 7q1 32 10.5 51.5t35.5 48.5l24 30q62 81 62 145q0 49 -29.5 74t-71.5 25q-48 0 -118 -44l-8 8l4 139l7 8q99 35 174 35q84 0 137 -24q51 -23 79 -70t28 -108q0 -67 -46 -146q-14 -25 -58 -79l-22 -29q-20 -27 -22 -59zM303 172l5 -3l-2 -166
l-4 -4l-187 -2l-5 7v160l7 6q13 0 39 -0.5t39 -0.5h19q60 2 89 3z" />
    <glyph glyph-name="at" unicode="@" horiz-adv-x="896" 
d="M779 101l47 -61q-30 -29 -55 -48.5t-73.5 -50.5t-109 -48t-127.5 -17q-50 0 -100.5 10t-104 36.5t-94.5 66t-67 104t-26 145.5q0 126 59.5 234.5t166 174t233.5 65.5q77 0 136.5 -26t94 -68.5t51.5 -91.5t17 -102q0 -143 -73 -250.5t-165 -107.5q-51 0 -76 34
q-8 11 -14 36q-55 -69 -125 -69q-50 0 -88 32q-51 44 -51 137q0 108 62.5 197.5t155.5 89.5q29 0 52 -11.5t31.5 -21.5t20.5 -27l9 39h91l-33 -158q-28 -136 -28 -161q0 -32 19 -32q22 0 51.5 34.5t53 99t23.5 133.5q0 59 -20.5 102.5t-54.5 67t-71.5 34.5t-77.5 11
q-145 0 -256.5 -118t-111.5 -276q0 -66 21.5 -118t53.5 -82t74 -50t79.5 -27t73.5 -7q60 0 113.5 14.5t97 42.5t65 45t50.5 44zM524 350q-1 42 -21.5 63t-46.5 21q-49 0 -83.5 -62t-34.5 -131q0 -24 6.5 -41.5t14.5 -25.5t18.5 -12.5t15.5 -5t9 -0.5q47 0 85 62t37 132z" />
    <glyph glyph-name="A" unicode="A" horiz-adv-x="688" 
d="M430 172h-195l-39 -168l-7 -4h-184l-5 7l218 694l6 5l254 3l7 -5l203 -696l-7 -8h-103q-15 0 -32 -0.5t-38 -1.5t-33 -1l-7 5zM272 316h124l-25 106l-33 151q-14 -60 -40 -156z" />
    <glyph glyph-name="B" unicode="B" horiz-adv-x="688" 
d="M237 708l44 1q23 1 69 1q95 0 140 -11t75 -36q54 -45 54 -122q0 -38 -16 -71q-25 -51 -91 -85q25 -5 39.5 -9t37 -18t37.5 -35q30 -44 30 -104q0 -77 -46 -130q-26 -30 -58 -48.5t-79.5 -26.5t-83 -10.5t-104.5 -3.5h-226l-5 5q5 218 5 392q0 168 -9 303l4 6zM264 291
v-160q80 -2 111 12q49 22 49 74q0 58 -56 71q-17 4 -104 3zM266 580v-151q38 0 55 1q45 3 65.5 25t20.5 52q0 32 -19 51q-11 11 -28.5 16.5t-40.5 5.5h-53z" />
    <glyph glyph-name="C" unicode="C" horiz-adv-x="604" 
d="M574 21l-5 -6q-101 -30 -174 -30q-154 0 -243 71q-120 96 -120 288q0 181 98 279t261 98q85 0 180 -37l4 -7q-7 -77 -9 -165l-7 -4q-58 49 -128 49t-121.5 -49t-51.5 -155q0 -58 16.5 -100t44.5 -63.5t58 -31t63 -9.5q70 0 133 45l8 -4z" />
    <glyph glyph-name="D" unicode="D" horiz-adv-x="708" 
d="M63 -3l-6 8q2 97 2 211q0 323 -7 485l6 5h278q34 0 55 -1t60.5 -8t66 -19t59 -37t52.5 -59t33.5 -88t13.5 -122q0 -151 -65 -245q-30 -42 -70 -70t-85.5 -39t-78.5 -14.5t-75 -3.5q-52 0 -239 -3zM272 551v-394q4 0 14 -0.5t17 -0.5q59 0 92 29q57 48 57 176
q0 134 -55 172q-28 20 -84 20q-13 0 -41 -2z" />
    <glyph glyph-name="E" unicode="E" horiz-adv-x="562" 
d="M478 292h-208v-138q100 0 254 6l6 -6l-10 -148l-9 -6q-82 0 -135 0.5t-55 0.5q-72 0 -262 -4l-5 7q4 153 4 313q0 240 -7 383l6 6h450l5 -4l-7 -138l-6 -5h-231v-127l219 4l6 -7l-8 -131z" />
    <glyph glyph-name="F" unicode="F" horiz-adv-x="521" 
d="M472 276h-206l6 -270l-7 -6q-109 1 -204 -3l-7 6q0 37 1 109.5t2 108.5q0 26 0.5 80t0.5 81q0 114 -7 321l6 4q231 -1 445 3l7 -5l-8 -138l-7 -7h-228l1 -141l216 6l5 -5q-6 -64 -9 -137z" />
    <glyph glyph-name="G" unicode="G" horiz-adv-x="708" 
d="M654 359l5 -5q-4 -89 -4 -162q0 -52 2 -158l-4 -8q-48 -14 -73.5 -20.5t-72.5 -13.5t-96 -7q-169 0 -257 71q-50 40 -86 111.5t-36 177.5q0 54 10.5 104.5t38 101t69 87.5t109 60t153.5 23q103 0 210 -44l3 -7l-12 -166l-9 -3q-31 20 -46.5 29t-49 19.5t-68.5 10.5
q-72 0 -119 -38q-67 -54 -67 -177q0 -98 44 -149q37 -45 107 -45q23 0 48 6q1 101 -7 193l5 6q110 -1 203 3z" />
    <glyph glyph-name="H" unicode="H" horiz-adv-x="750" 
d="M478 -3l-4 6q0 29 1.5 107t1.5 108q0 53 -1 80q-28 1 -84 1q-46 0 -117 -3v-291l-4 -5l-212 -3l-5 5q4 365 4 402q0 113 -5 296l4 6q27 -1 82 -1q36 0 132 4l4 -6v-251h201l-4 249l5 5l214 3l5 -4q-4 -256 -4 -385q0 -154 4 -314l-5 -6q-126 0 -213 -3z" />
    <glyph glyph-name="I" unicode="I" horiz-adv-x="333" 
d="M281 5l-4 -5q-114 1 -218 -3l-4 5q0 90 2 268q2 114 2 171q0 99 -6 260l5 5q115 -1 217 3l4 -5q-5 -167 -5 -275q0 -179 7 -424z" />
    <glyph glyph-name="J" unicode="J" horiz-adv-x="375" 
d="M328 320v-41q1 -97 -5 -137q-23 -147 -217 -147q-33 0 -97 6l-6 6q2 66 2 74q0 12 -0.5 35.5t-0.5 35.5l6 6q15 -3 30 -3q75 0 75 108q0 150 -9 438l7 5h98q18 0 54.5 1t54.5 2l7 -4q-1 -52 -1 -152q0 -79 2 -233z" />
    <glyph glyph-name="K" unicode="K" horiz-adv-x="688" 
d="M366 163l-105 201q3 -150 3 -151q2 -121 8 -208l-6 -5q-107 1 -205 -3l-7 6q5 183 5 286q0 236 -12 411l6 6q106 -1 210 3l6 -5l-7 -309l124 220l48 87l7 4l220 3l6 -7q-118 -155 -207 -293l130 -239q66 -114 95 -156l-3 -9l-230 -9l-9 4q-37 82 -77 163z" />
    <glyph glyph-name="L" unicode="L" horiz-adv-x="542" 
d="M276 709l7 -4q-1 -12 -2 -37.5t-2 -38.5q0 -5 -5 -473q121 1 248 6l5 -6l-10 -150l-5 -6q-221 2 -448 -3l-5 6q1 66 1 128q0 85 -2 255q0 214 -3 316l6 5z" />
    <glyph glyph-name="M" unicode="M" horiz-adv-x="938" 
d="M360 706l111 -428q4 15 10.5 43t9.5 39q10 41 31 115t27 98q22 86 32 129l7 4l271 3l6 -6q4 -151 14 -340q3 -59 9.5 -178t9.5 -179l-6 -6q-82 1 -196 -3l-5 6l-8 391v150l-37 -136l-16 -61l-91 -341l-8 -6q-80 1 -156 -3l-7 6q-50 195 -82 315l-16 59l-47 173l-4 -142
q-4 -170 -4 -255q0 -41 2 -147l-7 -6l-167 -3l-5 6q23 318 33 698l6 5h135q48 1 142 3z" />
    <glyph glyph-name="N" unicode="N" horiz-adv-x="729" 
d="M529 -3l-8 4q-45 64 -113 157l-186 252l14 -404l-5 -6q-71 1 -168 -3l-6 5q3 103 3 170q0 308 -10 528l6 6h89l87 3l6 -3q53 -78 112 -157q69 -94 155 -216q1 193 -5 368l4 5l163 3l6 -4q0 -31 -0.5 -219.5t-0.5 -224.5q0 -91 3 -255l-6 -6z" />
    <glyph glyph-name="O" unicode="O" horiz-adv-x="729" 
d="M697 362q3 -148 -48 -234q-84 -142 -288 -142q-159 0 -244 92.5t-85 264.5q0 149 52 236q85 143 280 143q149 0 231 -77q97 -93 102 -283zM477 356q-2 215 -109 215q-65 0 -90.5 -58.5t-25.5 -164.5q0 -209 112 -209q116 0 113 217z" />
    <glyph glyph-name="P" unicode="P" horiz-adv-x="646" 
d="M269 708l48 1q68 -1 104 -3.5t80 -18.5t74 -47q55 -56 55 -159q0 -122 -77 -190q-27 -23 -60 -37.5t-77 -20t-70.5 -6.5t-78.5 -1q0 -15 -0.5 -45t-0.5 -45q0 -48 3 -130l-5 -6q-112 1 -204 -3l-7 5q7 278 7 460q0 79 -4 239l6 5zM268 565v-191q71 0 98 15q47 26 47 89
q0 62 -49 79q-22 8 -96 8z" />
    <glyph glyph-name="Q" unicode="Q" horiz-adv-x="729" 
d="M665 -192l-9 -1q-40 23 -134 72q-152 79 -154 80q-28 14 -63 29l-10 2q-50 10 -66 15q-94 30 -145.5 116.5t-51.5 227.5q0 172 81.5 272t250.5 100q139 0 219 -68q114 -95 114 -310q0 -131 -45 -204q-19 -31 -44 -53t-42.5 -31t-46.5 -21q107 -38 219 -71l7 -11
q-40 -63 -80 -144zM478 355q0 86 -19 143q-25 73 -91 73q-65 0 -90.5 -58.5t-25.5 -165.5q0 -210 114 -210q31 0 60.5 24t41.5 80q10 44 10 114z" />
    <glyph glyph-name="R" unicode="R" horiz-adv-x="646" 
d="M296 262l-33 -1q0 -128 7 -255l-6 -6l-206 -3l-5 6q5 322 5 387q0 165 -11 311l5 5h180l52 1q64 1 98.5 0t78.5 -11t71 -31q26 -20 48 -61t22 -100q0 -58 -23 -106q-13 -26 -31.5 -45.5t-32 -27t-35.5 -17.5l91 -177l68 -117l-4 -9l-211 -9l-11 8l-54 126zM265 564
l-2 -166q133 -4 133 89q0 78 -81 78q-6 0 -25 -0.5t-25 -0.5z" />
    <glyph glyph-name="S" unicode="S" 
d="M61 189l9 3q14 -12 22 -17q58 -42 147 -42q31 0 53 7.5t31 19.5t12 21t3 18q0 18 -13 33t-24.5 21t-33.5 15l-50 20q-28 13 -44 21t-42 27t-40.5 39t-25.5 52.5t-11 71.5q0 101 64 161q68 62 200 62q101 0 191 -39l4 -6l-9 -156l-9 -4q-28 22 -44 31q-51 30 -107 30
q-37 0 -58 -15q-22 -18 -22 -46q0 -38 67 -65l55 -23q69 -28 106 -63q58 -53 58 -144q0 -69 -40 -131q-72 -106 -262 -106q-99 0 -186 33l-8 10q6 92 7 161z" />
    <glyph glyph-name="T" unicode="T" horiz-adv-x="542" 
d="M530 552l-152 5q0 -31 -0.5 -93t-0.5 -93q0 -154 5 -364l-7 -7q-84 1 -208 -3l-6 6q5 254 6 552l-159 -4l-5 5l6 144l7 6h523l5 -1q-6 -73 -8 -147z" />
    <glyph glyph-name="U" unicode="U" horiz-adv-x="688" 
d="M263 709l5 -5q-6 -264 -6 -397q0 -81 11 -112q21 -62 87 -62q43 0 69 26q15 15 22 40t8 46.5t1 67.5q0 191 -7 389l5 4l183 3l6 -4l-5 -412l-1 -38l-3 -46.5t-6.5 -45t-14.5 -48t-25.5 -41t-40.5 -38.5q-73 -51 -205 -51q-178 0 -247 87q-22 27 -33.5 65t-14 62.5
t-3.5 68.5v31q0 193 -4 402l4 5q118 0 215 3z" />
    <glyph glyph-name="V" unicode="V" horiz-adv-x="646" 
d="M216 712l7 -4q38 -196 56 -280q38 -166 58 -248q6 27 16.5 78t15.5 73q49 230 75 369l6 6l188 3l5 -4q-134 -438 -204 -699l-8 -6q-129 0 -226 -3l-6 5q-3 12 -20.5 76t-27.5 99q-10 33 -30 98.5t-29 98.5q-7 21 -63 212l-33 111l3 6q78 2 116 3q17 1 50.5 3t50.5 3z" />
    <glyph glyph-name="W" unicode="W" horiz-adv-x="1000" 
d="M577 -3l-6 6q-3 15 -15.5 94t-14.5 88q-5 28 -16 84t-16 84q-3 18 -8.5 52t-8.5 49q-29 -147 -38 -196q-8 -37 -16 -79t-17.5 -93.5t-14.5 -79.5l-8 -6q-30 1 -91 1q-62 0 -147 -4l-6 6q-74 353 -154 694l4 7q36 0 104 2l105 6l8 -4l87 -539q46 248 93 531l6 6l215 3
l6 -5q48 -307 89 -534l90 532l7 4l180 3l6 -4l-172 -700l-6 -5q-33 1 -99 1q-69 0 -146 -4z" />
    <glyph glyph-name="X" unicode="X" horiz-adv-x="625" 
d="M612 709l3 -7q-64 -103 -193 -336q118 -219 198 -355l-5 -11l-218 -6l-11 6q-22 56 -82 194l-88 -188l-9 -6q-112 0 -199 -3l-5 5q56 98 113 193q29 50 94 169q-64 109 -82 142q-62 108 -110 188l6 9q18 1 54.5 2t54.5 1q19 1 55.5 3t54.5 3l10 -6q38 -99 74 -178
q41 90 73 172l6 6q102 -1 206 3z" />
    <glyph glyph-name="Y" unicode="Y" horiz-adv-x="667" 
d="M227 712l7 -4q27 -63 121 -237q62 135 102 232l5 3l195 3l4 -5q-103 -174 -219 -398v-59q0 -144 4 -241l-8 -6q-115 0 -212 -3l-5 6q6 129 6 248v52q-174 301 -233 393l4 7q115 1 229 9z" />
    <glyph glyph-name="Z" unicode="Z" 
d="M564 704l-253 -552l239 7l5 -6l-10 -144l-6 -9h-308q-101 0 -209 -3l-6 7q142 302 181 380q37 74 76 171l-223 -4l-7 6l10 142l6 7q32 0 96.5 -0.5t97.5 -0.5q71 0 307 4z" />
    <glyph glyph-name="bracketleft" unicode="[" horiz-adv-x="333" 
d="M330 -210l-8 -6q-27 1 -82 1q-75 0 -176 -4l-6 8q1 103 1 311q0 256 -9 655l6 7l270 4l6 -6q-2 -46 -2 -57q0 -26 1 -40l-5 -7l-98 3q-1 -89 -1 -267q0 -190 5 -503h96l5 -4z" />
    <glyph glyph-name="backslash" unicode="\" horiz-adv-x="521" 
d="M537 -140l-1 -6q-10 0 -31.5 -0.5t-32.5 -0.5q-44 -2 -67 -2l-14 9q-15 37 -100 249t-100 249q-105 258 -167 382q-2 6 -8 18l1 6q72 0 134 1l11 -9q25 -66 102 -250q33 -76 95 -230q103 -251 165 -387q1 -1 6 -12t7 -17z" />
    <glyph glyph-name="bracketright" unicode="]" horiz-adv-x="333" 
d="M3 756l8 6q26 -1 79 -1q71 0 179 4l6 -8q-1 -106 -1 -318q0 -235 9 -647l-6 -7l-270 -4l-6 6q2 40 2 58q0 26 -1 39l5 7l98 -3q0 47 0.5 141t0.5 141q0 182 -5 487l-96 -1l-5 5z" />
    <glyph glyph-name="asciicircum" unicode="^" horiz-adv-x="729" 
d="M421 706l194 -396h-138l-110 232l-116 -232h-137l203 396h104z" />
    <glyph glyph-name="underscore" unicode="_" horiz-adv-x="500" 
d="M510 -75v-50h-520v50h520z" />
    <glyph glyph-name="grave" unicode="`" horiz-adv-x="292" 
d="M202 800l6 -5q24 -87 61 -175l-5 -7h-129l-8 4q-46 81 -105 175l4 6q97 -1 176 2z" />
    <glyph glyph-name="a" unicode="a" 
d="M334 4v38q-86 -52 -145 -52q-72 0 -119.5 48.5t-47.5 122.5q0 30 7 55.5t23 44t32 33t43 25.5t46.5 18t52.5 13t50.5 9t50.5 7q2 9 0.5 18.5t-6 17t-19 12t-37.5 4.5q-33 0 -66.5 -7t-54 -14t-59.5 -23l-7 4l6 126l6 8q115 35 217 35q123 0 176 -48q24 -22 34.5 -51
t11.5 -65t0 -86l-1 -64q0 -124 8 -225l-6 -8q-73 1 -189 -3zM331 154v103q-17 -1 -25.5 -2t-25.5 -4t-26 -7.5t-20 -12t-16 -18.5t-5 -26q0 -25 16 -39t41 -14q29 0 61 20z" />
    <glyph glyph-name="b" unicode="b" horiz-adv-x="625" 
d="M256 790l-7 -282q70 40 133 40q104 0 163.5 -69.5t59.5 -177.5q0 -129 -74 -207q-30 -32 -67.5 -52.5t-80.5 -28.5t-69.5 -10t-67.5 -3h-191l-7 6q4 394 4 471q0 163 -9 280l7 6q99 15 201 35zM250 395v-267q74 0 105 26q46 37 46 121q0 53 -20.5 94t-70.5 41
q-22 0 -60 -15z" />
    <glyph glyph-name="c" unicode="c" horiz-adv-x="479" 
d="M461 159l7 -5l-6 -136l-5 -6q-85 -24 -140 -24q-68 0 -121 18.5t-84.5 46.5t-51.5 66.5t-27.5 74t-7.5 72.5q0 76 30 139t84 97q72 46 183 46q60 0 140 -28l5 -6q-10 -63 -16 -137l-11 -3q-11 11 -18 17t-26.5 13t-44.5 7q-50 0 -83.5 -37t-33.5 -102q0 -63 33 -102.5
t98 -39.5q50 0 96 29z" />
    <glyph glyph-name="d" unicode="d" horiz-adv-x="625" 
d="M373 4l1 44q-64 -60 -150 -60q-93 0 -146.5 75.5t-53.5 180.5q0 161 102 240q34 26 82 38.5t79 13.5t83 0q1 128 -6 220l6 6l200 35l6 -5q-5 -98 -6 -277q0 -17 -1 -122.5t-1 -125.5q0 -119 5 -259l-6 -8q-100 1 -189 -3zM369 147q2 115 1 257q-4 0 -13 0.5t-14 0.5
q-113 0 -113 -149q0 -58 16 -89q23 -40 63 -40q22 0 60 20z" />
    <glyph glyph-name="e" unicode="e" horiz-adv-x="562" 
d="M533 224l-310 -4q5 -27 14 -43t32 -30q35 -21 92 -21q93 0 153 40l7 -5l-5 -128l-6 -9q-18 -8 -34 -14q-66 -22 -154 -22q-121 0 -191 48q-107 73 -107 231q0 74 24 130t64 87.5t86 47t96 15.5q96 0 155 -47q32 -25 52 -59.5t27.5 -76t9.5 -67.5t2 -65zM218 330l134 2
q-4 90 -64 90q-14 0 -25 -5q-42 -18 -45 -87z" />
    <glyph glyph-name="f" unicode="f" horiz-adv-x="375" 
d="M354 400l-72 1q-1 -203 8 -394l-7 -7q-80 1 -199 -3l-7 6q6 162 6 400l-76 -3l-6 6l7 121l8 9l67 -2q-2 38 -2 57q0 50 5.5 81.5t23.5 64.5t59 49t105 16q38 0 112 -8l5 -6q-8 -77 -10 -131l-8 -5q-22 6 -34 6q-21 0 -34 -9t-18 -29.5t-5.5 -37.5t-0.5 -50l86 4l5 -7
l-10 -123z" />
    <glyph glyph-name="g" unicode="g" 
d="M567 400l-68 18q22 -44 22 -78q0 -57 -36.5 -96.5t-83.5 -55.5t-97 -16q-13 0 -41 2l-19 -42l90 -14l37 -7q186 -31 186 -166q0 -32 -12 -62.5t-40.5 -62t-87 -51t-139.5 -19.5q-94 0 -152 24q-54 22 -74.5 57.5t-20.5 68.5q0 67 63 115l-39 31l1 8q50 92 75 143
q-34 18 -39 22q-25 19 -43 53t-18 76q0 80 59 133q64 57 213 57q19 0 40.5 -1t33.5 -1h195l7 -5q-5 -66 -7 -125zM340 349q0 36 -15.5 60t-44.5 24q-27 0 -42.5 -22t-15.5 -49q0 -17 3 -33.5t18 -35.5t40 -19q23 0 40 17.5t17 57.5zM285 -48q-9 1 -36.5 7.5t-35.5 8.5
q-9 -31 -9 -43q0 -35 28 -51t59 -16q36 0 54 13.5t18 31.5q0 16 -13.5 27t-27 14.5t-37.5 7.5z" />
    <glyph glyph-name="h" unicode="h" horiz-adv-x="625" 
d="M251 792v-303q86 59 168 59q69 0 112 -43q25 -25 31.5 -58.5t7.5 -97.5v-76q1 -154 8 -265l-8 -8q-12 0 -38 0.5t-38 0.5q-54 0 -119 -4l-6 9q0 15 0.5 41t0.5 40q0 20 -0.5 61.5t-0.5 62.5v36q0 83 -10.5 115.5t-46.5 32.5q-22 0 -58 -18q1 -170 9 -370l-7 -7
q-108 1 -201 -3l-5 7q2 222 2 333q0 131 -2 208t-5 111.5t-10 100.5l4 6q97 14 206 35z" />
    <glyph glyph-name="i" unicode="i" horiz-adv-x="313" 
d="M271 7l-7 -7q-117 1 -209 -3l-7 7q6 180 6 271q0 119 -12 237l6 6q107 15 210 35l5 -8q-2 -148 -2 -222q0 -154 10 -316zM257 779v-160l-6 -6q-78 -9 -191 -29l-9 6l-4 163l7 7l197 26z" />
    <glyph glyph-name="j" unicode="j" horiz-adv-x="313" 
d="M258 99v-43q3 -81 -9 -129.5t-62 -95.5q-68 -64 -189 -88l-7 4l-26 127l3 7q51 12 68 41t17 107q0 11 -1 79t-1 81q-2 222 -12 322l7 7q81 11 206 35l7 -6q-4 -79 -4 -145q0 -21 1.5 -149.5t1.5 -153.5zM248 779v-160l-6 -6q-87 -10 -191 -29l-9 6q1 66 -3 163l6 7
l197 26z" />
    <glyph glyph-name="k" unicode="k" horiz-adv-x="604" 
d="M562 539l7 -10l-64 -96q-17 -24 -64 -97q99 -208 157 -322l-8 -8l-212 -9l-9 7q-28 75 -120 283q0 -160 7 -279l-8 -8q-27 1 -83 1q-74 -2 -111 -4l-8 6q5 135 5 260q0 319 -15 492l7 8l205 35l7 -6q-6 -248 -6 -488q69 129 113 225l9 7q82 -1 191 3z" />
    <glyph glyph-name="l" unicode="l" horiz-adv-x="313" 
d="M267 7l-7 -7q-115 1 -207 -3l-7 7q5 177 5 286q0 258 -1.5 321t-9.5 145l6 6l207 36l8 -9q0 -33 -1 -234t-1 -240q0 -133 8 -308z" />
    <glyph glyph-name="m" unicode="m" horiz-adv-x="917" 
d="M44 512l6 6q104 14 207 35l8 -8l-1 -61q25 19 41.5 30t47 22t61.5 11q79 0 114 -63q31 24 59 37q54 25 118 25q71 0 112 -38q19 -18 29 -45.5t11.5 -45t2.5 -48.5l1 -33q0 -153 7 -329l-7 -7q-108 0 -198 -3l-7 6q2 190 2 244q0 98 -8 118q-12 30 -44 30q-15 0 -47 -12
q0 -177 6 -376l-6 -7q-100 0 -196 -3l-8 7q2 68 2 240q0 93 -10.5 122t-39.5 29q-19 0 -49 -15q0 -183 6 -373l-7 -7l-198 -3l-8 7q4 220 4 279q0 115 -11 229z" />
    <glyph glyph-name="n" unicode="n" horiz-adv-x="625" 
d="M578 7l-8 -7q-100 1 -197 -3l-5 6q0 17 0.5 52t0.5 52v47q0 140 -7 185q-7 55 -51 55q-19 0 -55 -18q-1 -28 2 -199q1 -79 5 -170l-5 -7q-103 1 -201 -3l-6 7q2 126 2 189q0 178 -15 321l6 6q107 15 203 35l10 -9l-2 -55q28 20 43 29q54 29 119 29q85 0 124 -61
q20 -30 24.5 -70.5t4.5 -134.5v-54q2 -127 8 -222z" />
    <glyph glyph-name="o" unicode="o" horiz-adv-x="604" 
d="M576 268q0 -118 -44 -182q-70 -98 -228 -98q-77 0 -132 21q-144 52 -144 254q0 134 58 202q70 82 217 82q134 0 204 -69q69 -67 69 -210zM369 277q0 147 -65 147q-42 0 -55.5 -42.5t-13.5 -123.5q0 -57 8 -89q14 -57 59 -57q32 0 50 37q17 32 17 128z" />
    <glyph glyph-name="p" unicode="p" horiz-adv-x="625" 
d="M253 544l-1 -45q62 48 138 48q101 0 157 -76t56 -177q0 -66 -23 -124q-31 -80 -105 -124q-33 -20 -75 -31t-66 -13t-73 -4l8 -242l-6 -6q-13 1 -40 1q-13 1 -40 1q-15 0 -125 -5l-7 6q4 230 4 344q0 237 -15 414l6 7q97 13 198 35zM260 392v-264q24 1 37.5 2.5t35 11
t37.5 28.5q30 38 30 106q0 56 -17 87q-23 43 -70 43q-19 0 -53 -14z" />
    <glyph glyph-name="q" unicode="q" horiz-adv-x="625" 
d="M367 -247l4 271q-65 -36 -130 -36q-98 0 -158.5 67t-60.5 187q0 114 48 183q27 41 63.5 65.5t87 34t86.5 11.5t98 1h43l118 2l8 -6q-5 -152 -5 -227l1 -115l2 -163q2 -145 9 -272l-7 -6q-12 0 -35.5 0.5t-34.5 0.5q-34 0 -130 -4zM370 134v268q-38 2 -58 -2
q-81 -18 -81 -130q0 -148 87 -148q18 0 52 12z" />
    <glyph glyph-name="r" unicode="r" horiz-adv-x="417" 
d="M43 512l6 7q110 14 208 35l7 -8l-2 -100q16 33 24 46q41 63 110 63q17 0 35 -3l7 -6q-24 -101 -42 -206l-10 -3q-27 18 -52 18q-21 0 -35.5 -7.5t-22 -17t-11 -29t-4 -32t-0.5 -37.5q0 -33 1 -49l3 -175l-7 -8q-109 1 -203 -2l-7 7q6 184 6 276q0 118 -11 231z" />
    <glyph glyph-name="s" unicode="s" horiz-adv-x="500" 
d="M283 360l70 -29q36 -15 57 -32q59 -48 59 -124q0 -84 -64.5 -135.5t-181.5 -51.5q-91 0 -160 26q-5 2 -14.5 5.5t-11.5 4.5l-6 11l7 130l10 5q24 -20 38 -28q52 -33 112 -33q17 0 29 3.5t17.5 8.5t9 11t4 9t0.5 6q0 12 -8.5 21t-17.5 13.5t-26 10.5l-42 17q-68 31 -92 59
q-35 42 -35 104q0 43 19 79t48 57q59 42 169 42q70 0 161 -26l6 -6q-7 -60 -11 -123l-10 -3q-61 43 -124 43q-24 0 -37.5 -10t-15 -16t-1.5 -11q0 -20 42 -38z" />
    <glyph glyph-name="t" unicode="t" horiz-adv-x="375" 
d="M305 402l-38 -1l-3 -175q0 -59 9 -76q13 -24 47 -24q22 0 51 11l8 -4l-10 -123l-7 -7q-72 -15 -124 -15q-72 0 -110 22.5t-53 70.5q-8 27 -8 98q0 23 0.5 68t0.5 68l2 88l-64 -2l-6 6l6 122l7 7h57v131l5 7q92 23 186 51l9 -6l-3 -187q50 0 95 4l8 -7l-11 -120l-8 -8
q-8 0 -23.5 0.5t-22.5 0.5z" />
    <glyph glyph-name="u" unicode="u" horiz-adv-x="625" 
d="M372 4l1 46q-26 -20 -38 -26q-61 -37 -125 -37q-76 0 -121 56q-25 31 -30.5 72.5t-4.5 133.5v43q1 132 -4 235l7 6l191 9l8 -9q0 -18 0.5 -53.5t0.5 -53.5q0 -11 -1 -80.5t-1 -82.5q0 -32 1 -47.5t6 -36.5t17 -30t32 -9q21 0 59 20l-6 366l6 7q97 2 194 9l8 -10
q-2 -212 -2 -319q0 -110 4 -206l-7 -7q-101 0 -188 -3z" />
    <glyph glyph-name="v" unicode="v" horiz-adv-x="542" 
d="M213 542l8 -6l24 -120q9 -39 27 -114.5t21 -88.5l30 126q24 97 41 191l7 6l167 3l4 -7q-131 -389 -173 -525l-10 -7q-77 1 -178 -3l-8 6q-21 64 -26 83q-32 105 -60 188q-64 192 -87 252l6 7q114 1 207 9z" />
    <glyph glyph-name="w" unicode="w" horiz-adv-x="833" 
d="M493 -3l-8 7q-10 56 -30 170q-5 24 -14.5 73t-14.5 74l-70 -315l-7 -6q-88 1 -193 -3l-9 6q-14 50 -41 155q-18 69 -39 138q-16 55 -64 229l5 8q96 1 192 9l7 -6q26 -149 66 -321q36 164 63 315l6 6q89 -2 205 3l8 -6q17 -106 57 -320q37 159 62 317l6 6q63 -2 155 3
l5 -7q-75 -261 -147 -525l-6 -7q-101 1 -194 -3z" />
    <glyph glyph-name="x" unicode="x" horiz-adv-x="542" 
d="M530 539l5 -8q-24 -34 -80 -117q-72 -108 -85 -129q105 -173 176 -278l-3 -7q-76 0 -114 -1q-34 -1 -102 -5l-10 5q-21 46 -68 137q-46 -91 -64 -130l-9 -6q-12 0 -34 0.5t-34 0.5q-48 0 -111 -4l-5 8q121 179 175 262q-58 95 -70 112q-53 77 -98 146l6 7q35 1 103 3
l108 6l9 -4q38 -78 63 -124q31 60 56 117l9 6q88 -1 177 3z" />
    <glyph glyph-name="y" unicode="y" horiz-adv-x="542" 
d="M103 -253l-5 8q51 120 88 220q-56 172 -83 247q-8 23 -25 69.5t-25 69.5q-35 98 -63 165l4 7q108 1 214 9l8 -6q38 -166 75 -297q39 134 79 291l6 6l160 3l6 -7l-120 -340l-51 -152q-51 -161 -80 -284l-8 -6q-89 0 -180 -3z" />
    <glyph glyph-name="z" unicode="z" horiz-adv-x="500" 
d="M477 539l5 -9q-92 -172 -194 -399l186 6l7 -5l-13 -128l-6 -4q-27 0 -83 0.5t-84 0.5q-104 0 -278 -4l-4 9q42 76 73 140q7 14 57.5 123t61.5 131h-166l-5 5l11 126l5 5q201 -1 427 3z" />
    <glyph glyph-name="braceleft" unicode="{" horiz-adv-x="354" 
d="M16 239v69q27 8 46.5 29.5t26.5 49.5q5 18 6 93v88q0 40 1 60t8.5 45.5t22.5 42.5q30 34 78.5 42t165.5 8v-69q-32 -9 -46 -14.5t-30 -21t-24 -40.5q-8 -24 -8 -92v-38q-1 -75 -3 -100t-11 -46q-22 -52 -92 -71q20 -6 30.5 -10.5t31 -21t30.5 -40.5q9 -21 11 -46t3 -100
v-38q0 -68 8 -92q8 -25 24 -40.5t30 -21t46 -14.5v-69q-117 0 -165.5 8t-78.5 42q-15 17 -22.5 42.5t-8.5 45.5t-1 60v88q-1 75 -6 93q-7 28 -26.5 49.5t-46.5 29.5z" />
    <glyph glyph-name="bar" unicode="|" horiz-adv-x="229" 
d="M178 750v-1000h-127v1000h127z" />
    <glyph glyph-name="braceright" unicode="}" horiz-adv-x="354" 
d="M338 308v-69q-27 -8 -46.5 -29.5t-26.5 -49.5q-5 -18 -6 -93v-88q0 -40 -1 -60t-8.5 -45.5t-22.5 -42.5q-30 -34 -78.5 -42t-165.5 -8v69q32 9 46 14.5t30 21t24 40.5q8 24 8 92v38q1 75 3 100t11 46q22 52 92 71q-20 6 -30.5 10.5t-31 21t-30.5 40.5q-9 21 -11 46
t-3 100v38q0 68 -8 92q-8 25 -24 40.5t-30 21t-46 14.5v69q117 0 165.5 -8t78.5 -42q15 -17 22.5 -42.5t8.5 -45.5t1 -60v-88q1 -75 6 -93q7 -28 26.5 -49.5t46.5 -29.5z" />
    <glyph glyph-name="asciitilde" unicode="~" horiz-adv-x="729" 
d="M574 387l52 -105q-29 -33 -71 -58t-85 -25q-38 0 -104 31l-31 15q-47 22 -73 22q-30 0 -48 -13.5t-56 -56.5l-55 103q13 18 23 29.5t30 29t46 27t57 9.5q37 0 103 -31l36 -16q52 -23 75 -23q48 0 101 62z" />
    <glyph glyph-name="exclamdown" unicode="&#xa1;" horiz-adv-x="313" 
d="M51 499l6 9l147 3l5 -7q14 -321 29 -489l-6 -8l-199 -10l-8 5q23 240 26 497zM39 592l-4 3l1 166l5 4l187 2l5 -7v-160l-7 -6q-12 0 -38 0.5t-39 0.5h-20z" />
    <glyph glyph-name="cent" unicode="&#xa2;" horiz-adv-x="500" 
d="M469 369l-9 -6q-34 15 -68 23q-50 -199 -63 -255q4 0 12.5 -0.5t12.5 -0.5q45 0 108 35l8 -4q-7 -69 -9 -136l-6 -9q-62 -25 -161 -26q-6 -24 -16 -73l-7 -7q-44 0 -81 -2l-6 7q13 41 25 82q-66 17 -106 54q-36 33 -57 90.5t-21 122.5q0 71 26 128.5t68 91.5
q72 58 186 58q12 0 44 -2q6 27 13 67l8 6q37 0 72 1l5 -7l-22 -77q21 -5 56 -18l5 -9q-12 -69 -17 -134zM254 161q37 152 58 228q-16 -4 -27 -8.5t-29.5 -17.5t-28.5 -39.5t-10 -63.5q0 -25 6.5 -45.5t12.5 -29.5t18 -24z" />
    <glyph glyph-name="sterling" unicode="&#xa3;" horiz-adv-x="521" 
d="M499 131l5 -4l-7 -117l-6 -10h-438l-7 11q21 62 30 119q11 78 15 161l-61 -3l-5 6l6 101l8 5l49 -1q0 8 -1 22.5t-1.5 26.5t-0.5 23q0 121 75 175q63 46 179 46q77 0 163 -21l5 -7l-10 -129l-9 -6q-55 23 -101 23q-54 0 -80 -27q-21 -21 -23 -87l-1 -38l159 4l6 -6
l-7 -103l-6 -5h-152l-11 -163z" />
    <glyph glyph-name="currency" unicode="&#xa4;" horiz-adv-x="667" 
d="M661 570l-81 -80q15 -28 22 -43.5t13.5 -44t6.5 -62.5q0 -36 -6.5 -65t-14 -44.5t-22.5 -43.5l82 -82l-97 -95l-80 82q-29 -15 -44 -21.5t-44.5 -13.5t-62.5 -7q-34 0 -63.5 7t-45 14.5t-42.5 22.5l-81 -82l-95 95l82 81q-43 72 -43 155q0 33 6.5 61t13.5 42.5t22 42.5
l-79 81l94 95l80 -80q29 15 44 22t44.5 14t63.5 7q35 0 64 -6.5t43.5 -13.5t43.5 -23l80 80zM497 339q0 74 -49.5 119.5t-114.5 45.5q-63 0 -113 -44.5t-50 -121.5q0 -73 49.5 -118.5t114.5 -45.5q69 0 116 47.5t47 117.5z" />
    <glyph glyph-name="yen" unicode="&#xa5;" horiz-adv-x="646" 
d="M85 436l7 7q29 -1 43 -1l-18 29q-43 75 -117 196l4 7q13 0 37.5 0.5t44.5 1t38 1.5q50 1 101 6l7 -5q28 -64 117 -227q49 102 99 222l5 4q112 0 189 3l4 -5q-48 -80 -132 -233h30q17 0 34 1l6 -6q-2 -40 -3.5 -68.5t-1.5 -40.5l-6 -6q-25 1 -47 1h-76l-16 -30v-46h94
q20 0 50 2l6 -6q-2 -41 -3.5 -70t-1.5 -39l-6 -6q-3 0 -65 0.5t-73 0.5q0 -20 0.5 -49t1 -48t0.5 -26l-7 -7q-107 1 -206 -2l-5 5q4 50 5 127q-44 -1 -138 -1l-6 7q5 54 5 107l7 6q9 0 65.5 -0.5t67.5 -0.5v43l-19 33h-120l-6 7q4 39 5 106z" />
    <glyph glyph-name="brokenbar" unicode="&#xa6;" horiz-adv-x="229" 
d="M51 -191v381h127v-381h-127zM178 308h-127v381h127v-381z" />
    <glyph glyph-name="section" unicode="&#xa7;" horiz-adv-x="562" 
d="M341 500l50 -22q24 -11 38 -18t37.5 -23t36.5 -32t23.5 -41.5t10.5 -54.5q0 -39 -16.5 -75t-31.5 -52t-39 -38q18 -18 26 -27.5t15.5 -29.5t7.5 -46q0 -53 -23.5 -92.5t-62.5 -60.5t-82.5 -31t-90.5 -10q-69 0 -168 28l-6 8q8 81 11 134l8 5q33 -18 39 -20
q44 -19 103 -19q32 0 53 11t21 31q0 29 -52 46q-13 5 -37 15l-45 19q-24 12 -37.5 19t-36 23.5t-34.5 32.5t-21.5 42t-9.5 57q0 44 16.5 80t32 52t38.5 34q-15 14 -23 23.5t-16 29.5t-8 46q0 81 64 132q61 47 178 47q72 0 175 -30l7 -8q-7 -61 -11 -130l-9 -5
q-77 44 -133 44q-30 0 -48 -11.5t-18 -31.5q0 -17 13 -26t55 -25zM295 234l59 -28q31 33 31 55q0 28 -32 49q-10 6 -106 48l-42 21q-29 -33 -29 -54q0 -15 9.5 -28t19.5 -19.5t28 -15.5q21 -11 62 -28z" />
    <glyph glyph-name="dieresis" unicode="&#xa8;" horiz-adv-x="292" 
d="M344 764l4 -3v-162l-4 -4l-154 -12l-6 4l-4 159l3 5zM112 760l4 -4v-157l-6 -5l-156 -11l-5 5l-4 158l4 4q86 4 163 10z" />
    <glyph glyph-name="copyright" unicode="&#xa9;" horiz-adv-x="833" 
d="M773 351q-1 -151 -105 -252.5t-250 -101.5q-147 0 -252 101.5t-105 254.5q0 150 104.5 253t251.5 103q154 0 255.5 -105.5t100.5 -252.5zM741 351q0 135 -92 230.5t-231 95.5q-135 0 -230 -94t-95 -232q0 -131 93 -226.5t231 -95.5q143 0 240 103q44 48 64 108t20 111z
M534 270l87 -81q-81 -84 -195 -84q-121 0 -186 72.5t-65 176.5q0 106 68.5 178t180.5 72q51 0 94 -16.5t61 -31t42 -38.5l-87 -83l-27 22.5t-33 17t-49 9.5q-58 0 -92 -36.5t-34 -92.5q0 -58 33 -94t96 -36q58 0 106 45z" />
    <glyph glyph-name="ordfeminine" unicode="&#xaa;" horiz-adv-x="396" 
d="M225 357v26q-55 -35 -96 -35q-43 0 -75 31t-32 82q0 31 14 54.5t32.5 36.5t49.5 22.5t51.5 12.5t51.5 7v7q-1 15 -10.5 21t-31.5 6q-50 0 -116 -28l-5 2q2 22 3 43l1 39l4 5q66 23 147 23q78 0 112 -34q21 -21 25 -46t3 -83l-1 -41q0 -87 5 -148l-4 -5q-78 0 -123 -2z
M223 455v68q-77 -5 -77 -46q0 -15 9.5 -25t27.5 -10q20 0 40 13z" />
    <glyph glyph-name="guillemotleft" unicode="&#xab;" horiz-adv-x="500" 
d="M108 474l7 7q62 -3 143 -2l5 -9q-71 -122 -98 -179q7 -15 48 -94t47 -91l-4 -12h-135l-8 5q-7 13 -34 59t-50 85l-23 39v11q79 137 102 181zM321 472l8 7h149l6 -9q-68 -114 -103 -184l93 -182l-4 -12q-48 2 -72 2q-21 0 -67 -2l-7 4q-40 76 -103 187l-1 11
q71 120 101 178z" />
    <glyph glyph-name="logicalnot" unicode="&#xac;" horiz-adv-x="667" 
d="M539 0v227h-539v127h539h127v-354h-127z" />
    <glyph glyph-name="registered" unicode="&#xae;" horiz-adv-x="833" 
d="M250 586h163q74 0 108 -11q40 -12 60.5 -44.5t20.5 -67.5q0 -32 -15.5 -55.5t-29.5 -32t-35 -18.5q23 -15 33.5 -30.5t17.5 -55.5q16 -102 39 -143h-126q-14 29 -25 99q-9 65 -20.5 78.5t-61.5 14.5h-19v-192h-110v458zM360 502v-95h48q49 0 64 9q20 11 20 40
q0 30 -24 41q-13 5 -75 5h-33zM773 351q-1 -148 -104 -251t-253 -103q-144 0 -250 101t-106 255q0 152 105 254t251 102q153 0 255.5 -105t101.5 -253zM741 352q1 134 -92.5 229.5t-230.5 95.5t-231.5 -95t-94.5 -229q0 -136 95 -230t229 -94q137 0 230.5 94t94.5 229z" />
    <glyph glyph-name="macron" unicode="&#xaf;" horiz-adv-x="292" 
d="M318 724l5 -6q-2 -19 -7 -99l-6 -7q-53 1 -225 1q-68 0 -111 -1l-5 6q5 44 7 99l6 6q70 -1 209 -1q59 0 127 2z" />
    <glyph glyph-name="macron" unicode="&#x2c9;" horiz-adv-x="292" 
d="M318 724l5 -6q-2 -19 -7 -99l-6 -7q-53 1 -225 1q-68 0 -111 -1l-5 6q5 44 7 99l6 6q70 -1 209 -1q59 0 127 2z" />
    <glyph glyph-name="degree" unicode="&#xb0;" horiz-adv-x="354" 
d="M176 402q-68 1 -119.5 50t-51.5 123q0 71 49.5 121.5t122.5 50.5q74 0 123.5 -52t49.5 -120q0 -71 -50.5 -122.5t-123.5 -50.5zM176 519q28 0 42.5 17.5t14.5 36.5q0 23 -16.5 40.5t-39.5 17.5q-24 0 -39.5 -16.5t-15.5 -39.5q0 -26 16.5 -41t37.5 -15z" />
    <glyph glyph-name="plusminus" unicode="&#xb1;" horiz-adv-x="667" 
d="M398 371v-209h-127v209h-229v127h229v208h127v-208h227v-127h-227zM625 127v-127h-583v127h583z" />
    <glyph glyph-name="twosuperior" unicode="&#xb2;" horiz-adv-x="396" 
d="M30 651l4 4q76 32 138 32q78 0 121.5 -41.5t43.5 -104.5t-54 -131l-56 -70q46 1 122 4l4 -4q-4 -57 -5 -97l-5 -7q-38 1 -70 1q-18 0 -127.5 -1.5t-129.5 -1.5l-2 9q88 108 156 206q28 40 28 69q0 5 -0.5 9.5t-4 15.5t-10.5 19t-21.5 14.5t-34.5 6.5q-42 0 -93 -38l-6 5
q2 28 2 101z" />
    <glyph glyph-name="threesuperior" unicode="&#xb3;" horiz-adv-x="396" 
d="M333 678l4 -7q-40 -80 -77 -158q52 -8 74 -43t22 -78q0 -12 -1.5 -25.5t-12 -41t-28.5 -48t-56.5 -36.5t-91.5 -16q-64 0 -124 22l-3 5q2 48 2 97l6 3q48 -34 89 -34q32 0 53.5 17.5t21.5 47.5q0 29 -19.5 45.5t-45.5 16.5q-16 0 -34 -9l-4 4q27 61 56 137
q-82 -2 -125 -4l-4 5q3 37 4 92l5 6q53 -1 120 -1q78 0 169 3z" />
    <glyph glyph-name="acute" unicode="&#xb4;" horiz-adv-x="292" 
d="M267 799l4 -7l-112 -177l-6 -4l-129 -2l-4 7q29 57 60 174l5 5z" />
    <glyph glyph-name="mu" unicode="&#xb5;" horiz-adv-x="625" 
d="M363 526l7 7q83 2 193 9l8 -10q-2 -136 -2 -179q0 -22 0.5 -66.5t0.5 -67.5q0 -136 4 -212l-8 -7q-109 0 -187 -3l-7 6l1 41q-10 -26 -27 -38t-33 -12q-17 0 -36 12.5t-22 37.5v-97q2 -150 4 -192l-6 -5q-13 0 -39 0.5t-39 0.5q-27 0 -117 -4l-7 6q4 186 4 354
q0 318 -5 420l6 6q103 4 192 9l8 -9q0 -15 -1 -106t-1 -108q0 -106 3 -129q4 -50 55 -50q57 0 57 74v23q-1 38 -1 114q-2 111 -5 175z" />
    <glyph glyph-name="mu" unicode="&#x3bc;" horiz-adv-x="625" 
d="M363 526l7 7q83 2 193 9l8 -10q-2 -136 -2 -179q0 -22 0.5 -66.5t0.5 -67.5q0 -136 4 -212l-8 -7q-109 0 -187 -3l-7 6l1 41q-10 -26 -27 -38t-33 -12q-17 0 -36 12.5t-22 37.5v-97q2 -150 4 -192l-6 -5q-13 0 -39 0.5t-39 0.5q-27 0 -117 -4l-7 6q4 186 4 354
q0 318 -5 420l6 6q103 4 192 9l8 -9q0 -15 -1 -106t-1 -108q0 -106 3 -129q4 -50 55 -50q57 0 57 74v23q-1 38 -1 114q-2 111 -5 175z" />
    <glyph glyph-name="paragraph" unicode="&#xb6;" horiz-adv-x="667" 
d="M308 706h250v-78h-36v-795h-84v795h-118v-795h-84v459q-54 15 -85 39q-70 55 -70 160q0 98 62 157q27 26 59.5 39.5t52 15.5t53.5 3z" />
    <glyph glyph-name="periodcentered" unicode="&#xb7;" horiz-adv-x="271" 
d="M231 372l4 -4v-163l-4 -4l-189 -4l-4 6l-4 161l4 6z" />
    <glyph glyph-name="periodcentered" unicode="&#x2219;" horiz-adv-x="271" 
d="M231 372l4 -4v-163l-4 -4l-189 -4l-4 6l-4 161l4 6z" />
    <glyph glyph-name="cedilla" unicode="&#xb8;" horiz-adv-x="292" 
d="M46 -215l-6 6l79 163l8 5h119l6 -6l-53 -163l-7 -5h-146z" />
    <glyph glyph-name="onesuperior" unicode="&#xb9;" horiz-adv-x="396" 
d="M274 240l-3 -4q-68 0 -133 -2l-3 4q5 201 4 345q-43 -2 -57 -4l-4 4q4 60 6 78l4 4q104 14 179 24l5 -4q0 -17 -1 -118t-1 -121q0 -108 4 -206z" />
    <glyph glyph-name="ordmasculine" unicode="&#xba;" horiz-adv-x="396" 
d="M377 530q0 -97 -48 -140q-46 -43 -129 -43q-94 0 -137.5 45.5t-43.5 134.5q0 103 54 148q46 37 126 37q79 0 126 -38q52 -44 52 -144zM242 535q-1 49 -10.5 73t-33.5 24q-18 0 -28.5 -16t-13 -36.5t-2.5 -53.5q0 -98 43 -98q25 0 35.5 26t9.5 81z" />
    <glyph glyph-name="guillemotright" unicode="&#xbb;" horiz-adv-x="500" 
d="M392 99l-7 -7q-63 3 -142 2l-7 9q55 88 99 180q-69 127 -95 184l4 12h135l8 -5l107 -183v-11q-86 -149 -102 -181zM178 101l-7 -7h-149l-6 9q23 39 62 107q26 45 40 77q-14 30 -50.5 100.5t-41.5 81.5l4 12q48 -2 72 -2q22 0 66 2l8 -4q21 -40 102 -187l1 -11
q-69 -118 -101 -178z" />
    <glyph glyph-name="onequarter" unicode="&#xbc;" horiz-adv-x="917" 
d="M880 81h-42q0 -14 1 -39t2 -39l-5 -4q-63 0 -122 -3l-4 4q0 9 4 81h-167l-3 5v70l15 30q70 143 117 252l6 5q40 1 82.5 1.5t69.5 0.5l6 -4q-3 -94 -2 -270q9 0 23 0.5t24 1.5l4 -4q-2 -28 -4 -83zM650 171h67q3 125 4 182q-17 -41 -41 -107zM273 240l-3 -4q-68 0 -133 -3
l-3 5q5 201 4 344q-6 0 -57 -3l-4 4q4 57 6 78l4 4q40 5 179 24l5 -4q0 -17 -1 -118t-1 -121q0 -110 4 -206zM373 10l-7 -7q-87 -3 -101 -3l-6 9q52 121 107 246q17 39 51.5 118.5t51.5 118.5q44 102 73 177l6 7q64 0 102 1l3 -10q-167 -358 -280 -657z" />
    <glyph glyph-name="onehalf" unicode="&#xbd;" horiz-adv-x="917" 
d="M273 240l-3 -4q-68 0 -133 -3l-3 5q5 201 4 345q-19 -1 -34.5 -2.5t-22.5 -1.5l-4 4q4 57 6 78l4 4q40 5 179 24l5 -4q0 -17 -1 -118t-1 -121q0 -110 4 -206zM551 415l3 4q77 32 139 32q78 0 121.5 -41.5t43.5 -104.5t-54 -131q-1 -2 -15 -19t-25.5 -31.5t-15.5 -19.5
q46 1 122 4l4 -4q-4 -57 -5 -97l-5 -7q-38 1 -71 1q-17 0 -126.5 -1.5t-130.5 -1.5l-2 9q84 102 157 206q28 40 28 69q0 5 -0.5 9.5t-4 15.5t-10.5 19t-21.5 14.5t-34.5 6.5q-42 0 -93 -38l-6 5q0 69 2 101zM339 10l-7 -7q-87 -3 -101 -3l-6 9q52 121 107 246q35 79 103 237
q45 102 73 178l7 6q63 0 101 1l4 -10q-172 -369 -281 -657z" />
    <glyph glyph-name="threequarters" unicode="&#xbe;" horiz-adv-x="917" 
d="M880 81h-42q0 -14 1 -39t2 -39l-5 -4q-63 0 -122 -3l-4 4q0 9 4 81h-166l-3 5v70l15 30q70 143 117 252l6 5q77 0 152 2l6 -5q-3 -92 -2 -269q8 0 22 0.5t24 1.5l4 -4q-2 -28 -4 -83zM651 171h67q3 125 4 182q-21 -52 -41 -107zM333 678l4 -7q-40 -80 -77 -158
q52 -8 74 -43t22 -78q0 -12 -1.5 -25.5t-12 -41t-28.5 -48t-56.5 -36.5t-91.5 -16q-64 0 -124 22l-3 5q2 48 2 97l6 3q48 -34 89 -34q32 0 53.5 17.5t21.5 47.5q0 29 -19.5 45.5t-45.5 16.5q-16 0 -34 -9l-4 4q27 61 56 137q-82 -2 -125 -4l-4 5q3 37 4 92l5 6q53 -1 120 -1
q78 0 169 3zM379 10l-7 -7q-87 -3 -101 -3l-6 9q12 32 107 246q18 39 52 118.5t51 118.5q49 114 73 177l6 7h102l3 -9q-174 -372 -280 -657z" />
    <glyph glyph-name="questiondown" unicode="&#xbf;" horiz-adv-x="458" 
d="M153 504l6 8l175 4l5 -7q-2 -34 -10 -51t-35 -49l-25 -30q-19 -26 -29.5 -42t-21.5 -45.5t-11 -58.5q0 -47 29.5 -72.5t70.5 -25.5q48 0 119 44l8 -8l-4 -139l-7 -9q-35 -12 -54 -18t-52 -11t-70 -5q-139 0 -199 74q-43 52 -43 127q0 85 64 175q2 3 40 51l22 29
q13 19 16.5 29t5.5 30zM155 590l-5 3l2 166l4 4l187 2l5 -7v-159l-7 -7q-26 1 -77 1h-19q-45 0 -90 -3z" />
    <glyph glyph-name="Agrave" unicode="&#xc0;" horiz-adv-x="688" 
d="M430 172h-195l-39 -168l-7 -4h-184l-5 7l218 694l6 5l254 3l7 -5l203 -696l-7 -8h-103q-15 0 -32 -0.5t-38 -1.5t-33 -1l-7 5zM272 316h124l-25 106l-33 151q-14 -60 -40 -156zM373 923l6 -3q17 -76 45 -159l-5 -6h-117l-7 5l-113 156l4 7h187z" />
    <glyph glyph-name="Aacute" unicode="&#xc1;" horiz-adv-x="688" 
d="M430 172h-195l-39 -168l-7 -4h-184l-5 7l218 694l6 5l254 3l7 -5l203 -696l-7 -8h-103q-15 0 -32 -0.5t-38 -1.5t-33 -1l-7 5zM272 316h124l-25 106l-33 151q-14 -60 -40 -156zM512 922l3 -5l-121 -159l-6 -3h-116l-4 5q41 99 54 158l5 4h185z" />
    <glyph glyph-name="Acircumflex" unicode="&#xc2;" horiz-adv-x="688" 
d="M430 172h-195l-39 -168l-7 -4h-184l-5 7l218 694l6 5l254 3l7 -5l203 -696l-7 -8h-103q-15 0 -32 -0.5t-38 -1.5t-33 -1l-7 5zM272 316h124l-25 106l-33 151q-14 -60 -40 -156zM446 923l6 -5q41 -85 83 -152l-4 -8l-157 -2l-6 6l-31 72l-41 -72l-6 -6h-139l-5 6
q56 90 85 155l6 6h209z" />
    <glyph glyph-name="Atilde" unicode="&#xc3;" horiz-adv-x="688" 
d="M430 172h-195l-39 -168l-7 -4h-184l-5 7l218 694l6 5l254 3l7 -5l203 -696l-7 -8h-103q-15 0 -32 -0.5t-38 -1.5t-33 -1l-7 5zM272 316h124l-25 106l-33 151q-14 -60 -40 -156zM512 937l4 -3l3 -132l-4 -8q-50 -41 -99 -41q-20 0 -60 12l-32 12q-41 15 -67 15t-91 -29
l-4 2v121l3 8q43 34 92 34q23 0 47 -7l44 -16q51 -15 70 -15q35 0 94 47z" />
    <glyph glyph-name="Adieresis" unicode="&#xc4;" horiz-adv-x="688" 
d="M430 172h-195l-39 -168l-7 -4h-184l-5 7l218 694l6 5l254 3l7 -5l203 -696l-7 -8h-103q-15 0 -32 -0.5t-38 -1.5t-33 -1l-7 5zM272 316h124l-25 106l-33 151q-14 -60 -40 -156zM546 915l5 -7l-2 -146l-5 -7l-154 -5l-5 6q1 23 1 68q0 44 -1 80l4 6zM299 914l4 -6l-2 -144
l-5 -6l-160 -3l-4 5q2 54 2 72q0 13 -0.5 37t-0.5 36l4 7z" />
    <glyph glyph-name="Aring" unicode="&#xc5;" horiz-adv-x="688" 
d="M430 172h-195l-39 -168l-7 -4h-184l-5 7l218 694l6 5l254 3l7 -5l203 -696l-7 -8h-103q-15 0 -32 -0.5t-38 -1.5t-33 -1l-7 5zM272 316h124l-25 106l-33 151q-14 -60 -40 -156zM471 860q2 -55 -33.5 -89t-99.5 -34q-63 0 -98 33t-35 85q0 55 36 90t97 35q60 0 95.5 -33.5
t37.5 -86.5zM375 863q-2 55 -37 55q-37 0 -37 -60q0 -25 10 -42t27 -17t27.5 17.5t9.5 46.5z" />
    <glyph glyph-name="AE" unicode="&#xc6;" horiz-adv-x="917" 
d="M431 3l4 181h-177l-57 -179l-8 -5q-96 1 -189 -3l-4 9q20 50 60.5 150.5t61.5 150.5q119 296 154 395l6 4h586l7 -2l-8 -139l-5 -6h-223l-2 -126l206 2l6 -6l-8 -132l-7 -7h-198v-136q137 1 242 6l6 -5l-9 -149l-7 -6q-216 1 -430 -3zM311 331h126l4 229h-46z" />
    <glyph glyph-name="Ccedilla" unicode="&#xc7;" horiz-adv-x="604" 
d="M254 -215l-6 7q45 89 79 162l8 6q48 -1 119 -1l6 -6q-26 -77 -53 -162l-6 -6q-75 1 -147 0zM573 21l-4 -7q-92 -29 -184 -29t-161.5 29t-110.5 79.5t-61 113.5t-20 136q0 91 24 157q22 63 60 108t85 68.5t93 34t95 10.5q93 0 181 -38l4 -6q-7 -82 -9 -165l-7 -5
q-5 4 -13 12q-47 38 -115 38q-59 0 -100 -31q-73 -53 -73 -175q0 -96 49.5 -149t133.5 -53q69 0 132 45l8 -4q-4 -57 -7 -169z" />
    <glyph glyph-name="Egrave" unicode="&#xc8;" horiz-adv-x="562" 
d="M478 292h-208v-138q100 0 254 6l6 -6l-10 -148l-9 -6q-82 0 -135 0.5t-55 0.5q-72 0 -262 -4l-5 7q4 153 4 313q0 240 -7 383l6 6h450l5 -4l-7 -138l-6 -5h-231v-127l219 4l6 -7l-8 -131zM310 923l6 -3q17 -76 45 -159l-5 -6h-117l-7 5l-113 156l4 7h187z" />
    <glyph glyph-name="Eacute" unicode="&#xc9;" horiz-adv-x="562" 
d="M478 292h-208v-138q100 0 254 6l6 -6l-10 -148l-9 -6q-82 0 -135 0.5t-55 0.5q-72 0 -262 -4l-5 7q4 153 4 313q0 240 -7 383l6 6h450l5 -4l-7 -138l-6 -5h-231v-127l219 4l6 -7l-8 -131zM449 922l3 -5l-121 -159l-6 -3h-116l-4 5q41 99 54 158l5 4h185z" />
    <glyph glyph-name="Ecircumflex" unicode="&#xca;" horiz-adv-x="562" 
d="M478 292h-208v-138q100 0 254 6l6 -6l-10 -148l-9 -6q-82 0 -135 0.5t-55 0.5q-72 0 -262 -4l-5 7q4 153 4 313q0 240 -7 383l6 6h450l5 -4l-7 -138l-6 -5h-231v-127l219 4l6 -7l-8 -131zM383 923l6 -5q41 -85 83 -152l-4 -8l-157 -2l-6 6l-31 72l-41 -72l-6 -6h-139
l-5 6q56 90 85 155l6 6h209z" />
    <glyph glyph-name="Edieresis" unicode="&#xcb;" horiz-adv-x="562" 
d="M478 292h-208v-138q100 0 254 6l6 -6l-10 -148l-9 -6q-82 0 -135 0.5t-55 0.5q-72 0 -262 -4l-5 7q4 153 4 313q0 240 -7 383l6 6h450l5 -4l-7 -138l-6 -5h-231v-127l219 4l6 -7l-8 -131zM489 915l5 -7l-2 -146l-5 -7l-154 -5l-5 6q1 23 1 68q0 44 -1 80l4 6zM242 914
l4 -6l-2 -144l-5 -6l-160 -3l-4 5q2 54 2 72q0 13 -0.5 37t-0.5 36l4 7z" />
    <glyph glyph-name="Igrave" unicode="&#xcc;" horiz-adv-x="333" 
d="M281 5l-4 -5q-114 1 -218 -3l-4 5q0 90 2 268q2 114 2 171q0 99 -6 260l5 5q115 -1 217 3l4 -5q-5 -167 -5 -275q0 -179 7 -424zM196 923l6 -3q17 -76 45 -159l-5 -6h-117l-7 5l-113 156l4 7h187z" />
    <glyph glyph-name="Iacute" unicode="&#xcd;" horiz-adv-x="333" 
d="M281 5l-4 -5q-114 1 -218 -3l-4 5q0 90 2 268q2 114 2 171q0 99 -6 260l5 5q115 -1 217 3l4 -5q-5 -167 -5 -275q0 -179 7 -424zM335 922l3 -5l-121 -159l-6 -3h-116l-4 5q41 99 54 158l5 4h185z" />
    <glyph glyph-name="Icircumflex" unicode="&#xce;" horiz-adv-x="333" 
d="M281 5l-4 -5q-114 1 -218 -3l-4 5q0 90 2 268q2 114 2 171q0 99 -6 260l5 5q115 -1 217 3l4 -5q-5 -167 -5 -275q0 -179 7 -424zM269 923l6 -5q41 -85 83 -152l-4 -8l-157 -2l-6 6l-31 72l-41 -72l-6 -6h-139l-5 6q56 90 85 155l6 6h209z" />
    <glyph glyph-name="Idieresis" unicode="&#xcf;" horiz-adv-x="333" 
d="M281 5l-4 -5q-114 1 -218 -3l-4 5q0 90 2 268q2 114 2 171q0 99 -6 260l5 5q115 -1 217 3l4 -5q-5 -167 -5 -275q0 -179 7 -424zM375 915l5 -7l-2 -146l-5 -7l-154 -5l-5 6q1 23 1 68q0 44 -1 80l4 6zM128 914l4 -6l-2 -144l-5 -6l-160 -3l-4 5q2 54 2 72q0 13 -0.5 37
t-0.5 36l4 7z" />
    <glyph glyph-name="Eth" unicode="&#xd0;" horiz-adv-x="708" 
d="M63 -3l-6 8q0 9 0.5 27t0.5 27q1 130 0 262q-9 0 -23.5 -1t-29.5 -2l-6 5v85l6 6q30 -1 53 -1q-3 227 -6 288l6 5h228h50q52 -1 84 -3.5t85.5 -22t88.5 -55.5q82 -82 82 -248q0 -177 -85 -275q-30 -35 -67.5 -57t-80.5 -31t-68.5 -11t-64.5 -3l-65 -1q-30 0 -182 -2z
M271 324l2 -167q65 -2 93 10q86 36 86 198q0 62 -11.5 102t-33.5 57.5t-42 23t-48 5.5q-5 0 -11 -0.5t-16.5 -1t-19.5 -0.5v-134q49 1 108 4l5 -6q-1 -21 -2 -44.5t-2 -40.5l-5 -6q-52 1 -103 0z" />
    <glyph glyph-name="Ntilde" unicode="&#xd1;" horiz-adv-x="729" 
d="M529 -3l-8 4q-45 64 -113 157l-186 252l14 -404l-5 -6q-71 1 -168 -3l-6 5q3 103 3 170q0 308 -10 528l6 6h89l87 3l6 -3q53 -78 112 -157q69 -94 155 -216q1 193 -5 368l4 5l163 3l6 -4q0 -31 -0.5 -219.5t-0.5 -224.5q0 -91 3 -255l-6 -6zM533 937l4 -3l3 -132l-4 -8
q-50 -41 -99 -41q-20 0 -60 12l-32 12q-41 15 -67 15t-91 -29l-4 2v121l3 8q43 34 92 34q22 0 47 -7l44 -16q51 -15 70 -15q35 0 94 47z" />
    <glyph glyph-name="Ograve" unicode="&#xd2;" horiz-adv-x="729" 
d="M697 362q3 -148 -48 -234q-84 -142 -288 -142q-159 0 -244 92.5t-85 264.5q0 149 52 236q85 143 280 143q149 0 231 -77q97 -93 102 -283zM477 356q-2 215 -109 215q-65 0 -90.5 -58.5t-25.5 -164.5q0 -209 112 -209q116 0 113 217zM394 923l6 -3q17 -76 45 -159l-5 -6
h-117l-7 5l-113 156l4 7h187z" />
    <glyph glyph-name="Oacute" unicode="&#xd3;" horiz-adv-x="729" 
d="M697 362q3 -148 -48 -234q-84 -142 -288 -142q-159 0 -244 92.5t-85 264.5q0 149 52 236q85 143 280 143q149 0 231 -77q97 -93 102 -283zM477 356q-2 215 -109 215q-65 0 -90.5 -58.5t-25.5 -164.5q0 -209 112 -209q116 0 113 217zM533 922l3 -5l-121 -159l-6 -3h-116
l-4 5q41 99 54 158l5 4h185z" />
    <glyph glyph-name="Ocircumflex" unicode="&#xd4;" horiz-adv-x="729" 
d="M697 362q3 -148 -48 -234q-84 -142 -288 -142q-159 0 -244 92.5t-85 264.5q0 149 52 236q85 143 280 143q149 0 231 -77q97 -93 102 -283zM477 356q-2 215 -109 215q-65 0 -90.5 -58.5t-25.5 -164.5q0 -209 112 -209q116 0 113 217zM467 923l6 -5q41 -85 83 -152l-4 -8
l-157 -2l-6 6l-31 72l-41 -72l-6 -6h-139l-5 6q56 90 85 155l6 6h209z" />
    <glyph glyph-name="Otilde" unicode="&#xd5;" horiz-adv-x="729" 
d="M697 362q3 -148 -48 -234q-84 -142 -288 -142q-159 0 -244 92.5t-85 264.5q0 149 52 236q85 143 280 143q149 0 231 -77q97 -93 102 -283zM477 356q-2 215 -109 215q-65 0 -90.5 -58.5t-25.5 -164.5q0 -209 112 -209q116 0 113 217zM533 937l4 -3l3 -132l-4 -8
q-50 -41 -99 -41q-20 0 -60 12l-32 12q-41 15 -67 15t-91 -29l-4 2v121l3 8q43 34 92 34q22 0 47 -7l44 -16q51 -15 70 -15q35 0 94 47z" />
    <glyph glyph-name="Odieresis" unicode="&#xd6;" horiz-adv-x="729" 
d="M697 362q3 -148 -48 -234q-84 -142 -288 -142q-159 0 -244 92.5t-85 264.5q0 149 52 236q85 143 280 143q149 0 231 -77q97 -93 102 -283zM477 356q-2 215 -109 215q-65 0 -90.5 -58.5t-25.5 -164.5q0 -209 112 -209q116 0 113 217zM573 915l5 -7l-2 -146l-5 -7l-154 -5
l-5 6q1 23 1 68q0 44 -1 80l4 6zM326 914l4 -6l-2 -144l-5 -6l-160 -3l-4 5q2 54 2 72q0 13 -0.5 37t-0.5 36l4 7z" />
    <glyph glyph-name="multiply" unicode="&#xd7;" horiz-adv-x="667" 
d="M605 110l-89 -91l-183 182l-182 -182l-90 91l182 181l-182 183l90 88l182 -181l183 181l89 -88l-181 -183z" />
    <glyph glyph-name="Oslash" unicode="&#xd8;" horiz-adv-x="729" 
d="M724 663l-81 -81q17 -33 25.5 -53.5t18.5 -66.5t10 -100q0 -132 -39 -215q-37 -79 -112.5 -120.5t-178.5 -41.5q-58 0 -107 13.5t-69.5 25.5t-49.5 33l-69 -77l-11 -2l-66 63l-1 11q28 26 84 82q-15 29 -22.5 47t-15.5 61t-8 98q0 64 13 133q25 122 106.5 185t211.5 63
q58 0 105.5 -12.5t65.5 -23t44 -28.5q35 34 70 75l9 1l66 -60zM485 420l-221 -225q13 -22 21.5 -33t30.5 -23.5t51 -12.5q40 0 67.5 25t38 65t14 68t3.5 55q0 11 -5 81zM241 303l216 222q-30 57 -90 57q-71 0 -105 -75q-23 -61 -23 -149q0 -17 2 -55z" />
    <glyph glyph-name="Ugrave" unicode="&#xd9;" horiz-adv-x="688" 
d="M263 709l5 -5q-6 -264 -6 -397q0 -81 11 -112q21 -62 87 -62q43 0 69 26q15 15 22 40t8 46.5t1 67.5q0 191 -7 389l5 4l183 3l6 -4l-5 -412l-1 -38l-3 -46.5t-6.5 -45t-14.5 -48t-25.5 -41t-40.5 -38.5q-73 -51 -205 -51q-178 0 -247 87q-22 27 -33.5 65t-14 62.5
t-3.5 68.5v31q0 193 -4 402l4 5q118 0 215 3zM373 923l6 -3q17 -76 45 -159l-5 -6h-117l-7 5l-113 156l4 7h187z" />
    <glyph glyph-name="Uacute" unicode="&#xda;" horiz-adv-x="688" 
d="M263 709l5 -5q-6 -264 -6 -397q0 -81 11 -112q21 -62 87 -62q43 0 69 26q15 15 22 40t8 46.5t1 67.5q0 191 -7 389l5 4l183 3l6 -4l-5 -412l-1 -38l-3 -46.5t-6.5 -45t-14.5 -48t-25.5 -41t-40.5 -38.5q-73 -51 -205 -51q-178 0 -247 87q-22 27 -33.5 65t-14 62.5
t-3.5 68.5v31q0 193 -4 402l4 5q118 0 215 3zM512 922l3 -5l-121 -159l-6 -3h-116l-4 5q41 99 54 158l5 4h185z" />
    <glyph glyph-name="Ucircumflex" unicode="&#xdb;" horiz-adv-x="688" 
d="M263 709l5 -5q-6 -264 -6 -397q0 -81 11 -112q21 -62 87 -62q43 0 69 26q15 15 22 40t8 46.5t1 67.5q0 191 -7 389l5 4l183 3l6 -4l-5 -412l-1 -38l-3 -46.5t-6.5 -45t-14.5 -48t-25.5 -41t-40.5 -38.5q-73 -51 -205 -51q-178 0 -247 87q-22 27 -33.5 65t-14 62.5
t-3.5 68.5v31q0 193 -4 402l4 5q118 0 215 3zM446 923l6 -5q41 -85 83 -152l-4 -8l-157 -2l-6 6l-31 72l-41 -72l-6 -6h-139l-5 6q56 90 85 155l6 6h209z" />
    <glyph glyph-name="Udieresis" unicode="&#xdc;" horiz-adv-x="688" 
d="M263 709l5 -5q-6 -264 -6 -397q0 -81 11 -112q21 -62 87 -62q43 0 69 26q15 15 22 40t8 46.5t1 67.5q0 191 -7 389l5 4l183 3l6 -4l-5 -412l-1 -38l-3 -46.5t-6.5 -45t-14.5 -48t-25.5 -41t-40.5 -38.5q-73 -51 -205 -51q-178 0 -247 87q-22 27 -33.5 65t-14 62.5
t-3.5 68.5v31q0 193 -4 402l4 5q118 0 215 3zM564 915l5 -7l-2 -146l-5 -7l-154 -5l-5 6q1 23 1 68q0 44 -1 80l4 6zM317 914l4 -6l-2 -144l-5 -6l-160 -3l-4 5q2 54 2 72q0 13 -0.5 37t-0.5 36l4 7z" />
    <glyph glyph-name="Yacute" unicode="&#xdd;" horiz-adv-x="667" 
d="M227 712l7 -4q27 -63 121 -237q62 135 102 232l5 3l195 3l4 -5q-103 -174 -219 -398v-59q0 -144 4 -241l-8 -6q-115 0 -212 -3l-5 6q6 129 6 248v52q-174 301 -233 393l4 7q115 1 229 9zM501 922l3 -5l-121 -159l-6 -3h-116l-4 5q41 99 54 158l5 4h185z" />
    <glyph glyph-name="Thorn" unicode="&#xde;" horiz-adv-x="646" 
d="M268 709l5 -5q-1 -19 -2 -86h46q54 1 88 -1t82.5 -16.5t79.5 -43.5q63 -59 63 -165q0 -135 -90 -202q-34 -26 -83.5 -38.5t-84.5 -14.5t-101 -2q0 -13 1 -66.5t2 -63.5l-4 -5q-112 1 -212 -3l-4 5q4 296 4 443q0 91 -5 256l4 5q110 -1 211 3zM269 283q47 0 66 4
q78 17 78 101q0 80 -85 86h-59v-191z" />
    <glyph glyph-name="germandbls" unicode="&#xdf;" horiz-adv-x="646" 
d="M254 7l-9 -7l-191 -3l-7 6q2 142 2 212q0 97 -4 237v48q-1 48 0 74.5t11.5 68.5t32.5 69q65 83 232 83q102 0 160 -31q85 -45 85 -137q0 -47 -42 -121l-18 -29q-15 -24 -15 -40q0 -21 26 -49l30 -36q23 -26 36 -44t26.5 -52.5t13.5 -70.5q0 -96 -75 -150
q-33 -22 -82 -31.5t-84 -9.5q-25 0 -74 7l-8 6l-1 121l9 6q21 -12 37 -12q28 0 47 16.5t19 43.5q0 28 -30 68l-58 69q-25 35 -25 61q0 30 29 67l24 32q13 20 19 31t11 29t5 40q0 41 -16.5 66t-46.5 25q-76 0 -76 -108v-19q1 -49 7 -536z" />
    <glyph glyph-name="agrave" unicode="&#xe0;" 
d="M334 4v38q-86 -52 -145 -52q-72 0 -119.5 48.5t-47.5 122.5q0 30 7 55.5t23 44t32 33t43 25.5t46.5 18t52.5 13t50.5 9t50.5 7q2 9 0.5 18.5t-6 17t-19 12t-37.5 4.5q-33 0 -66.5 -7t-54 -14t-59.5 -23l-7 4l6 126l6 8q115 35 217 35q123 0 176 -48q24 -22 34.5 -51
t11.5 -65t0 -86l-1 -64q0 -124 8 -225l-6 -8q-73 1 -189 -3zM331 154v103q-17 -1 -25.5 -2t-25.5 -4t-26 -7.5t-20 -12t-16 -18.5t-5 -26q0 -25 16 -39t41 -14q29 0 61 20zM305 800l6 -5q24 -87 61 -175l-5 -7h-129l-8 4q-46 81 -105 175l4 6q97 -1 176 2z" />
    <glyph glyph-name="aacute" unicode="&#xe1;" 
d="M334 4v38q-86 -52 -145 -52q-72 0 -119.5 48.5t-47.5 122.5q0 30 7 55.5t23 44t32 33t43 25.5t46.5 18t52.5 13t50.5 9t50.5 7q2 9 0.5 18.5t-6 17t-19 12t-37.5 4.5q-33 0 -66.5 -7t-54 -14t-59.5 -23l-7 4l6 126l6 8q115 35 217 35q123 0 176 -48q24 -22 34.5 -51
t11.5 -65t0 -86l-1 -64q0 -124 8 -225l-6 -8q-73 1 -189 -3zM331 154v103q-17 -1 -25.5 -2t-25.5 -4t-26 -7.5t-20 -12t-16 -18.5t-5 -26q0 -25 16 -39t41 -14q29 0 61 20zM461 799l4 -7l-112 -177l-6 -4l-129 -2l-4 7q29 57 60 174l5 5z" />
    <glyph glyph-name="acircumflex" unicode="&#xe2;" 
d="M334 4v38q-86 -52 -145 -52q-72 0 -119.5 48.5t-47.5 122.5q0 30 7 55.5t23 44t32 33t43 25.5t46.5 18t52.5 13t50.5 9t50.5 7q2 9 0.5 18.5t-6 17t-19 12t-37.5 4.5q-33 0 -66.5 -7t-54 -14t-59.5 -23l-7 4l6 126l6 8q115 35 217 35q123 0 176 -48q24 -22 34.5 -51
t11.5 -65t0 -86l-1 -64q0 -124 8 -225l-6 -8q-73 1 -189 -3zM331 154v103q-17 -1 -25.5 -2t-25.5 -4t-26 -7.5t-20 -12t-16 -18.5t-5 -26q0 -25 16 -39t41 -14q29 0 61 20zM412 798l5 -5q38 -90 81 -175l-3 -4l-162 -6l-6 5l-36 107l-39 -104l-5 -4h-139l-3 4q46 85 87 177
l6 5h214z" />
    <glyph glyph-name="atilde" unicode="&#xe3;" 
d="M334 4v38q-86 -52 -145 -52q-72 0 -119.5 48.5t-47.5 122.5q0 30 7 55.5t23 44t32 33t43 25.5t46.5 18t52.5 13t50.5 9t50.5 7q2 9 0.5 18.5t-6 17t-19 12t-37.5 4.5q-33 0 -66.5 -7t-54 -14t-59.5 -23l-7 4l6 126l6 8q115 35 217 35q123 0 176 -48q24 -22 34.5 -51
t11.5 -65t0 -86l-1 -64q0 -124 8 -225l-6 -8q-73 1 -189 -3zM331 154v103q-17 -1 -25.5 -2t-25.5 -4t-26 -7.5t-20 -12t-16 -18.5t-5 -26q0 -25 16 -39t41 -14q29 0 61 20zM461 796l4 -4l3 -132l-4 -8q-52 -41 -99 -41q-20 0 -60 12l-32 12q-41 15 -67 15q-27 0 -91 -29
l-4 3v120l3 8q42 34 95 34q16 0 44 -7l44 -15q46 -16 70 -16q21 0 44 12q18 12 50 36z" />
    <glyph glyph-name="adieresis" unicode="&#xe4;" 
d="M334 4v38q-86 -52 -145 -52q-72 0 -119.5 48.5t-47.5 122.5q0 30 7 55.5t23 44t32 33t43 25.5t46.5 18t52.5 13t50.5 9t50.5 7q2 9 0.5 18.5t-6 17t-19 12t-37.5 4.5q-33 0 -66.5 -7t-54 -14t-59.5 -23l-7 4l6 126l6 8q115 35 217 35q123 0 176 -48q24 -22 34.5 -51
t11.5 -65t0 -86l-1 -64q0 -124 8 -225l-6 -8q-73 1 -189 -3zM331 154v103q-17 -1 -25.5 -2t-25.5 -4t-26 -7.5t-20 -12t-16 -18.5t-5 -26q0 -25 16 -39t41 -14q29 0 61 20zM486 764l4 -3v-162l-4 -4l-154 -12l-6 4l-4 159l3 5zM254 760l4 -4v-157l-6 -5l-156 -11l-5 5
l-4 158l4 4q86 4 163 10z" />
    <glyph glyph-name="aring" unicode="&#xe5;" 
d="M334 4v38q-86 -52 -145 -52q-72 0 -119.5 48.5t-47.5 122.5q0 30 7 55.5t23 44t32 33t43 25.5t46.5 18t52.5 13t50.5 9t50.5 7q2 9 0.5 18.5t-6 17t-19 12t-37.5 4.5q-33 0 -66.5 -7t-54 -14t-59.5 -23l-7 4l6 126l6 8q115 35 217 35q123 0 176 -48q24 -22 34.5 -51
t11.5 -65t0 -86l-1 -64q0 -124 8 -225l-6 -8q-73 1 -189 -3zM331 154v103q-17 -1 -25.5 -2t-25.5 -4t-26 -7.5t-20 -12t-16 -18.5t-5 -26q0 -25 16 -39t41 -14q29 0 61 20zM421 718q2 -55 -33.5 -89t-99.5 -34q-63 0 -98 33t-35 85q0 55 36 90t97 35q60 0 95.5 -33.5
t37.5 -86.5zM325 721q-2 55 -37 55q-37 0 -37 -60q0 -25 10 -42t27 -17t27.5 17.5t9.5 46.5z" />
    <glyph glyph-name="ae" unicode="&#xe6;" horiz-adv-x="854" 
d="M825 225h-318q3 -19 6 -29t11.5 -22.5t24.5 -22.5q37 -25 102 -25q91 0 155 37l7 -4l-5 -126l-6 -9q-82 -35 -186 -35q-100 0 -163 30q-25 12 -53 38q-32 -24 -51.5 -35.5t-54 -22t-74.5 -10.5q-60 0 -102.5 17.5t-63.5 46.5t-29.5 56t-8.5 56q0 17 4.5 35.5t15.5 43
t37.5 45.5t64.5 31q58 15 178 13q0 40 -7 54q-18 37 -85 37q-21 0 -42 -3q-54 -8 -118 -39l-9 6l7 114l7 9q104 37 205 37q46 0 79 -9.5t45 -18t26 -23.5q26 18 40.5 26t47.5 16.5t76 8.5q103 0 162 -53q34 -31 53 -82.5t22.5 -86t6.5 -94.5zM333 153q-13 34 -19 71
q-11 1 -33 1q-81 0 -81 -48q0 -21 16.5 -36.5t45.5 -15.5q32 0 71 28zM502 333h142q-1 17 -3 28t-8 27.5t-20.5 25.5t-36.5 9q-20 0 -32 -7q-35 -19 -42 -83z" />
    <glyph glyph-name="ccedilla" unicode="&#xe7;" horiz-adv-x="479" 
d="M160 -215l-6 7q45 89 79 162l8 6q48 -1 119 -1l6 -6q-26 -77 -53 -162l-7 -6q-74 1 -146 0zM461 158l7 -4q-2 -58 -6 -136l-5 -6q-72 -24 -146 -24q-142 0 -214 79.5t-72 196.5q0 125 75 204t217 79q77 0 145 -28l5 -6q-10 -64 -16 -137l-11 -3q-37 37 -88 37
q-52 0 -85 -37.5t-33 -101.5q0 -60 32 -101t97 -41q56 0 98 29z" />
    <glyph glyph-name="egrave" unicode="&#xe8;" horiz-adv-x="562" 
d="M533 224l-310 -4q5 -27 14 -43t32 -30q35 -21 92 -21q93 0 153 40l7 -5l-5 -128l-6 -9q-18 -8 -34 -14q-66 -22 -154 -22q-121 0 -191 48q-107 73 -107 231q0 74 24 130t64 87.5t86 47t96 15.5q96 0 155 -47q32 -25 52 -59.5t27.5 -76t9.5 -67.5t2 -65zM218 330l134 2
q-4 90 -64 90q-14 0 -25 -5q-42 -18 -45 -87zM293 800l6 -5q24 -87 61 -175l-5 -7h-129l-8 4q-46 81 -105 175l4 6q97 -1 176 2z" />
    <glyph glyph-name="eacute" unicode="&#xe9;" horiz-adv-x="562" 
d="M533 224l-310 -4q5 -27 14 -43t32 -30q35 -21 92 -21q93 0 153 40l7 -5l-5 -128l-6 -9q-18 -8 -34 -14q-66 -22 -154 -22q-121 0 -191 48q-107 73 -107 231q0 74 24 130t64 87.5t86 47t96 15.5q96 0 155 -47q32 -25 52 -59.5t27.5 -76t9.5 -67.5t2 -65zM218 330l134 2
q-4 90 -64 90q-14 0 -25 -5q-42 -18 -45 -87zM449 799l4 -7l-112 -177l-6 -4l-129 -2l-4 7q29 57 60 174l5 5z" />
    <glyph glyph-name="ecircumflex" unicode="&#xea;" horiz-adv-x="562" 
d="M533 224l-310 -4q5 -27 14 -43t32 -30q35 -21 92 -21q93 0 153 40l7 -5l-5 -128l-6 -9q-18 -8 -34 -14q-66 -22 -154 -22q-121 0 -191 48q-107 73 -107 231q0 74 24 130t64 87.5t86 47t96 15.5q96 0 155 -47q32 -25 52 -59.5t27.5 -76t9.5 -67.5t2 -65zM218 330l134 2
q-4 90 -64 90q-14 0 -25 -5q-42 -18 -45 -87zM400 798l5 -5q38 -90 81 -175l-3 -4l-162 -6l-6 5l-36 107l-39 -104l-5 -4h-139l-3 4q46 85 87 177l6 5h214z" />
    <glyph glyph-name="edieresis" unicode="&#xeb;" horiz-adv-x="562" 
d="M533 224l-310 -4q5 -27 14 -43t32 -30q35 -21 92 -21q93 0 153 40l7 -5l-5 -128l-6 -9q-18 -8 -34 -14q-66 -22 -154 -22q-121 0 -191 48q-107 73 -107 231q0 74 24 130t64 87.5t86 47t96 15.5q96 0 155 -47q32 -25 52 -59.5t27.5 -76t9.5 -67.5t2 -65zM218 330l134 2
q-4 90 -64 90q-14 0 -25 -5q-42 -18 -45 -87zM475 764l4 -3v-162l-4 -4l-154 -12l-6 4l-4 159l3 5zM243 760l4 -4v-157l-6 -5l-156 -11l-5 5l-4 158l4 4q86 4 163 10z" />
    <glyph glyph-name="igrave" unicode="&#xec;" horiz-adv-x="313" 
d="M271 7l-7 -7q-117 1 -209 -3l-7 7q6 180 6 271q0 119 -12 237l6 6q107 15 210 35l5 -8q-2 -148 -2 -222q0 -154 10 -316zM168 800l6 -5q24 -87 61 -175l-5 -7h-129l-8 4q-46 81 -105 175l4 6q97 -1 176 2z" />
    <glyph glyph-name="iacute" unicode="&#xed;" horiz-adv-x="313" 
d="M271 7l-7 -7q-117 1 -209 -3l-7 7q6 180 6 271q0 119 -12 237l6 6q107 15 210 35l5 -8q-2 -148 -2 -222q0 -154 10 -316zM325 799l4 -7l-112 -177l-6 -4l-129 -2l-4 7q29 57 60 174l5 5z" />
    <glyph glyph-name="icircumflex" unicode="&#xee;" horiz-adv-x="313" 
d="M271 7l-7 -7q-117 1 -209 -3l-7 7q6 180 6 271q0 119 -12 237l6 6q107 15 210 35l5 -8q-2 -148 -2 -222q0 -154 10 -316zM276 798l5 -5q38 -90 81 -175l-3 -4l-162 -6l-6 5l-36 107l-39 -104l-5 -4h-139l-3 4q46 85 87 177l6 5h214z" />
    <glyph glyph-name="idieresis" unicode="&#xef;" horiz-adv-x="313" 
d="M271 7l-7 -7q-117 1 -209 -3l-7 7q6 180 6 271q0 119 -12 237l6 6q107 15 210 35l5 -8q-2 -148 -2 -222q0 -154 10 -316zM351 764l4 -3v-162l-4 -4l-154 -12l-6 4l-4 159l3 5zM119 760l4 -4v-157l-6 -5l-156 -11l-5 5l-4 158l4 4q86 4 163 10z" />
    <glyph glyph-name="eth" unicode="&#xf0;" horiz-adv-x="604" 
d="M550 680l-5 -12q-4 -1 -22.5 -5.5t-36 -8.5t-23.5 -6q113 -171 113 -351q0 -146 -67 -222q-76 -86 -216 -86q-125 0 -196 74q-69 71 -69 202q0 73 24 129t63.5 86.5t82.5 45t87 14.5q41 0 68 -16q-19 44 -42 80q-131 -38 -147 -44l-13 -4l-14 4q-18 40 -39 79l6 11
q93 23 143 38q-49 60 -71 77l6 10q27 4 70 11q12 2 35.5 7t35.5 8l15 -5q39 -37 61 -63q59 17 97 31l12 -3q14 -30 42 -81zM372 287q-2 70 -16.5 105t-51.5 35q-40 0 -54.5 -39t-14.5 -122q0 -32 1.5 -52.5t7.5 -46.5t20.5 -39.5t37.5 -13.5q41 0 56.5 43t13.5 130z" />
    <glyph glyph-name="ntilde" unicode="&#xf1;" horiz-adv-x="625" 
d="M578 7l-8 -7q-100 1 -197 -3l-5 6q0 17 0.5 52t0.5 52v47q0 140 -7 185q-7 55 -51 55q-19 0 -55 -18q-1 -28 2 -199q1 -79 5 -170l-5 -7q-103 1 -201 -3l-6 7q2 126 2 189q0 178 -15 321l6 6q107 15 203 35l10 -9l-2 -55q28 20 43 29q54 29 119 29q85 0 124 -61
q20 -30 24.5 -70.5t4.5 -134.5v-54q2 -127 8 -222zM481 796l4 -4l3 -132l-4 -8q-52 -41 -99 -41q-20 0 -60 12l-32 12q-41 15 -67 15q-27 0 -91 -29l-4 3v120l3 8q42 34 95 34q16 0 44 -7l44 -15q46 -16 70 -16q21 0 44 12q18 12 50 36z" />
    <glyph glyph-name="ograve" unicode="&#xf2;" horiz-adv-x="604" 
d="M576 268q0 -118 -44 -182q-70 -98 -228 -98q-77 0 -132 21q-144 52 -144 254q0 134 58 202q70 82 217 82q134 0 204 -69q69 -67 69 -210zM369 277q0 147 -65 147q-42 0 -55.5 -42.5t-13.5 -123.5q0 -57 8 -89q14 -57 59 -57q32 0 50 37q17 32 17 128zM314 800l6 -5
q24 -87 61 -175l-5 -7h-129l-8 4q-46 81 -105 175l4 6q97 -1 176 2z" />
    <glyph glyph-name="oacute" unicode="&#xf3;" horiz-adv-x="604" 
d="M576 268q0 -118 -44 -182q-70 -98 -228 -98q-77 0 -132 21q-144 52 -144 254q0 134 58 202q70 82 217 82q134 0 204 -69q69 -67 69 -210zM369 277q0 147 -65 147q-42 0 -55.5 -42.5t-13.5 -123.5q0 -57 8 -89q14 -57 59 -57q32 0 50 37q17 32 17 128zM470 799l4 -7
l-112 -177l-6 -4l-129 -2l-4 7q29 57 60 174l5 5z" />
    <glyph glyph-name="ocircumflex" unicode="&#xf4;" horiz-adv-x="604" 
d="M576 268q0 -118 -44 -182q-70 -98 -228 -98q-77 0 -132 21q-144 52 -144 254q0 134 58 202q70 82 217 82q134 0 204 -69q69 -67 69 -210zM369 277q0 147 -65 147q-42 0 -55.5 -42.5t-13.5 -123.5q0 -57 8 -89q14 -57 59 -57q32 0 50 37q17 32 17 128zM421 798l5 -5
q38 -90 81 -175l-3 -4l-162 -6l-6 5l-36 107l-39 -104l-5 -4h-139l-3 4q46 85 87 177l6 5h214z" />
    <glyph glyph-name="otilde" unicode="&#xf5;" horiz-adv-x="604" 
d="M576 268q0 -118 -44 -182q-70 -98 -228 -98q-77 0 -132 21q-144 52 -144 254q0 134 58 202q70 82 217 82q134 0 204 -69q69 -67 69 -210zM369 277q0 147 -65 147q-42 0 -55.5 -42.5t-13.5 -123.5q0 -57 8 -89q14 -57 59 -57q32 0 50 37q17 32 17 128zM470 796l4 -4
l3 -132l-4 -8q-52 -41 -99 -41q-20 0 -60 12l-32 12q-41 15 -67 15q-27 0 -91 -29l-4 3v120l3 8q42 34 95 34q16 0 44 -7l44 -15q46 -16 70 -16q21 0 44 12q18 12 50 36z" />
    <glyph glyph-name="odieresis" unicode="&#xf6;" horiz-adv-x="604" 
d="M576 268q0 -118 -44 -182q-70 -98 -228 -98q-77 0 -132 21q-144 52 -144 254q0 134 58 202q70 82 217 82q134 0 204 -69q69 -67 69 -210zM369 277q0 147 -65 147q-42 0 -55.5 -42.5t-13.5 -123.5q0 -57 8 -89q14 -57 59 -57q32 0 50 37q17 32 17 128zM500 764l4 -3v-162
l-4 -4l-154 -12l-6 4l-4 159l3 5zM268 760l4 -4v-157l-6 -5l-156 -11l-5 5l-4 158l4 4q86 4 163 10z" />
    <glyph glyph-name="divide" unicode="&#xf7;" horiz-adv-x="667" 
d="M414 111q0 -32 -22.5 -56t-56.5 -24q-37 0 -60 23t-23 56q0 34 23.5 58t56.5 24q35 0 58.5 -23.5t23.5 -57.5zM414 469q0 -32 -22.5 -56t-56.5 -24q-37 0 -60 23t-23 56q0 34 23.5 58t56.5 24q35 0 58.5 -23.5t23.5 -57.5zM667 354v-127h-667v127h667z" />
    <glyph glyph-name="oslash" unicode="&#xf8;" horiz-adv-x="604" 
d="M604 499l-69 -63q41 -77 41 -179q0 -70 -18 -121t-44.5 -79t-66 -44t-73 -20.5t-75.5 -4.5q-59 0 -100.5 10.5t-56.5 20.5t-36 28l-61 -57l-8 -1l-39 45v7l66 57q-38 60 -38 162q0 151 76 221q71 66 201 66q47 0 87 -10.5t59 -21t44 -28.5l64 60l10 -1q16 -19 36 -39z
M229 247l136 124q-17 60 -63 60q-21 0 -35.5 -12.5t-21.5 -28t-11 -44.5t-4.5 -48t-0.5 -51zM374 289l-135 -124q10 -29 23.5 -44t40.5 -15q25 0 41 17.5t22 50t7.5 56.5t0.5 59z" />
    <glyph glyph-name="ugrave" unicode="&#xf9;" horiz-adv-x="625" 
d="M372 4l1 46q-26 -20 -38 -26q-61 -37 -125 -37q-76 0 -121 56q-25 31 -30.5 72.5t-4.5 133.5v43q1 132 -4 235l7 6l191 9l8 -9q0 -18 0.5 -53.5t0.5 -53.5q0 -11 -1 -80.5t-1 -82.5q0 -32 1 -47.5t6 -36.5t17 -30t32 -9q21 0 59 20l-6 366l6 7q97 2 194 9l8 -10
q-2 -212 -2 -319q0 -110 4 -206l-7 -7q-101 0 -188 -3zM325 800l6 -5q24 -87 61 -175l-5 -7h-129l-8 4q-46 81 -105 175l4 6q97 -1 176 2z" />
    <glyph glyph-name="uacute" unicode="&#xfa;" horiz-adv-x="625" 
d="M372 4l1 46q-26 -20 -38 -26q-61 -37 -125 -37q-76 0 -121 56q-25 31 -30.5 72.5t-4.5 133.5v43q1 132 -4 235l7 6l191 9l8 -9q0 -18 0.5 -53.5t0.5 -53.5q0 -11 -1 -80.5t-1 -82.5q0 -32 1 -47.5t6 -36.5t17 -30t32 -9q21 0 59 20l-6 366l6 7q97 2 194 9l8 -10
q-2 -212 -2 -319q0 -110 4 -206l-7 -7q-101 0 -188 -3zM481 799l4 -7l-112 -177l-6 -4l-129 -2l-4 7q29 57 60 174l5 5z" />
    <glyph glyph-name="ucircumflex" unicode="&#xfb;" horiz-adv-x="625" 
d="M372 4l1 46q-26 -20 -38 -26q-61 -37 -125 -37q-76 0 -121 56q-25 31 -30.5 72.5t-4.5 133.5v43q1 132 -4 235l7 6l191 9l8 -9q0 -18 0.5 -53.5t0.5 -53.5q0 -11 -1 -80.5t-1 -82.5q0 -32 1 -47.5t6 -36.5t17 -30t32 -9q21 0 59 20l-6 366l6 7q97 2 194 9l8 -10
q-2 -212 -2 -319q0 -110 4 -206l-7 -7q-101 0 -188 -3zM432 798l5 -5q38 -90 81 -175l-3 -4l-162 -6l-6 5l-36 107l-39 -104l-5 -4h-139l-3 4q46 85 87 177l6 5h214z" />
    <glyph glyph-name="udieresis" unicode="&#xfc;" horiz-adv-x="625" 
d="M372 4l1 46q-26 -20 -38 -26q-61 -37 -125 -37q-76 0 -121 56q-25 31 -30.5 72.5t-4.5 133.5v43q1 132 -4 235l7 6l191 9l8 -9q0 -18 0.5 -53.5t0.5 -53.5q0 -11 -1 -80.5t-1 -82.5q0 -32 1 -47.5t6 -36.5t17 -30t32 -9q21 0 59 20l-6 366l6 7q97 2 194 9l8 -10
q-2 -212 -2 -319q0 -110 4 -206l-7 -7q-101 0 -188 -3zM511 764l4 -3v-162l-4 -4l-154 -12l-6 4l-4 159l3 5zM279 760l4 -4v-157l-6 -5l-156 -11l-5 5l-4 158l4 4q86 4 163 10z" />
    <glyph glyph-name="yacute" unicode="&#xfd;" horiz-adv-x="542" 
d="M103 -253l-5 8q51 120 88 220q-56 172 -83 247q-8 23 -25 69.5t-25 69.5q-35 98 -63 165l4 7q108 1 214 9l8 -6q38 -166 75 -297q39 134 79 291l6 6l160 3l6 -7l-120 -340l-51 -152q-51 -161 -80 -284l-8 -6q-89 0 -180 -3zM439 799l4 -7l-112 -177l-6 -4l-129 -2l-4 7
q29 57 60 174l5 5z" />
    <glyph glyph-name="thorn" unicode="&#xfe;" horiz-adv-x="625" 
d="M252 562l-1 -61q29 17 44 25t39.5 14.5t53.5 6.5q102 0 158.5 -75t56.5 -179q0 -144 -94 -223q-82 -69 -248 -72q2 -66 4.5 -150t2.5 -92l-5 -6q-14 1 -41 1q-14 1 -41 1q-40 0 -123 -5l-7 6q2 102 1 328v399q0 174 -9 276l7 6q104 15 201 35l5 -7q0 -8 -0.5 -23.5
t-0.5 -23.5q-3 -75 -3 -181zM261 128q66 1 102.5 36t36.5 118q0 34 -8.5 59.5t-19 37t-25 18.5t-21.5 8t-14 1q-20 0 -53 -14q0 -167 2 -264z" />
    <glyph glyph-name="ydieresis" unicode="&#xff;" horiz-adv-x="542" 
d="M103 -253l-5 8q51 120 88 220q-56 172 -83 247q-8 23 -25 69.5t-25 69.5q-35 98 -63 165l4 7q108 1 214 9l8 -6q38 -166 75 -297q39 134 79 291l6 6l160 3l6 -7l-120 -340l-51 -152q-51 -161 -80 -284l-8 -6q-89 0 -180 -3zM465 764l4 -3v-162l-4 -4l-154 -12l-6 4
l-4 159l3 5zM233 760l4 -4v-157l-6 -5l-156 -11l-5 5l-4 158l4 4q86 4 163 10z" />
    <glyph glyph-name="dotlessi" unicode="&#x131;" horiz-adv-x="313" 
d="M271 7l-7 -7q-117 1 -209 -3l-7 7q6 180 6 271q0 119 -12 237l6 6q107 15 210 35l5 -8q-2 -148 -2 -222q0 -154 10 -316z" />
    <glyph glyph-name="Lslash" unicode="&#x141;" horiz-adv-x="542" 
d="M399 446l-5 -7q-26 -16 -63.5 -39t-55.5 -34q-2 -125 -1 -210q166 1 248 6l5 -6q-8 -105 -10 -150l-6 -6q-277 1 -447 -3l-5 6q1 103 -1 229q-17 -10 -60 -37l-9 5q0 51 -1 93l5 7q20 12 65 40q0 283 -4 361l6 5q37 1 112 1q68 2 104 2l6 -4q-5 -109 -6 -232
q76 48 117 76l9 -5q-3 -45 -3 -98z" />
    <glyph glyph-name="lslash" unicode="&#x142;" horiz-adv-x="313" 
d="M266 7l-7 -7q-112 1 -207 -3l-7 7q5 117 5 317q-1 -1 -19 -13.5t-21 -14.5l-8 6q3 38 3 86l5 8q29 18 40 25q0 233 -11 338l6 6q122 21 207 36l8 -9q-1 -87 -1 -242q6 4 19 12.5t25 16.5l7 -5q-4 -39 -5 -89l-5 -8l-41 -25q-1 -234 7 -442z" />
    <glyph glyph-name="OE" unicode="&#x152;" horiz-adv-x="938" 
d="M852 292h-200v-137q56 -2 99 -2q50 0 148 4l6 -6l-9 -144l-6 -7q-26 0 -76 0.5t-75 0.5q-61 0 -249 -4h-52q-40 0 -61.5 0.5t-59 3.5t-60.5 9t-54.5 18t-53 29.5t-44 44.5t-38.5 62q-35 72 -35 177q0 197 98 287q26 25 51.5 40t89 28.5t156.5 13.5h48h412l6 -6l-7 -139
l-6 -5h-229v-127h213l5 -5l-9 -130zM444 155v406q-29 0 -44.5 -1t-41.5 -8.5t-44 -23.5q-57 -50 -57 -177q0 -109 36.5 -154t107.5 -45q22 0 43 3z" />
    <glyph glyph-name="oe" unicode="&#x153;" horiz-adv-x="917" 
d="M875 161l-5 -128l-6 -9q-85 -36 -185 -36q-45 0 -94 9q-31 6 -49.5 15.5t-50.5 33.5q-23 -16 -38.5 -25.5t-57 -21t-90.5 -11.5q-159 0 -227 100q-44 65 -44 178q0 155 84 224q68 57 190 57q105 0 175 -59q74 59 174 59q83 0 137 -35q29 -19 50 -47t31.5 -53.5t16 -62.5
t7 -59.5t1.5 -57.5l-7 -8l-314 -4q6 -30 14.5 -45t32.5 -28q36 -21 91 -21q40 0 88 10q33 8 69 30zM353 393q-16 32 -50 32q-35 0 -51.5 -35t-16.5 -121q0 -82 14.5 -119t53.5 -37q36 0 52 35.5t16 129.5q0 77 -18 115zM568 330l139 2q-2 45 -16 65q-18 26 -50 26
q-22 0 -39 -10q-32 -20 -34 -83z" />
    <glyph glyph-name="Scaron" unicode="&#x160;" 
d="M61 189l9 3q14 -12 22 -17q58 -42 147 -42q31 0 53 7.5t31 19.5t12 21t3 18q0 18 -13 33t-24.5 21t-33.5 15l-50 20q-28 13 -44 21t-42 27t-40.5 39t-25.5 52.5t-11 71.5q0 101 64 161q68 62 200 62q101 0 191 -39l4 -6l-9 -156l-9 -4q-28 22 -44 31q-51 30 -107 30
q-37 0 -58 -15q-22 -18 -22 -46q0 -38 67 -65l55 -23q69 -28 106 -63q58 -53 58 -144q0 -69 -40 -131q-72 -106 -262 -106q-99 0 -186 33l-8 10q6 92 7 161zM212 756l-5 5q-42 84 -83 152l3 8l157 2l6 -6l32 -72l41 72l5 6h139l5 -6q-52 -83 -84 -155l-7 -6h-209z" />
    <glyph glyph-name="scaron" unicode="&#x161;" horiz-adv-x="500" 
d="M283 360l70 -29q36 -15 57 -32q59 -48 59 -124q0 -84 -64.5 -135.5t-181.5 -51.5q-91 0 -160 26q-5 2 -14.5 5.5t-11.5 4.5l-6 11l7 130l10 5q24 -20 38 -28q52 -33 112 -33q17 0 29 3.5t17.5 8.5t9 11t4 9t0.5 6q0 12 -8.5 21t-17.5 13.5t-26 10.5l-42 17q-68 31 -92 59
q-35 42 -35 104q0 43 19 79t48 57q59 42 169 42q70 0 161 -26l6 -6q-7 -60 -11 -123l-10 -3q-61 43 -124 43q-24 0 -37.5 -10t-15 -16t-1.5 -11q0 -20 42 -38zM150 609l-4 5q-38 89 -81 175l2 4l162 6l6 -5l36 -107l39 104l6 4h139l2 -4q-51 -96 -86 -177l-7 -5h-214z" />
    <glyph glyph-name="Ydieresis" unicode="&#x178;" horiz-adv-x="667" 
d="M227 712l7 -4q27 -63 121 -237q62 135 102 232l5 3l195 3l4 -5q-103 -174 -219 -398v-59q0 -144 4 -241l-8 -6q-115 0 -212 -3l-5 6q6 129 6 248v52q-174 301 -233 393l4 7q115 1 229 9zM541 915l5 -7l-2 -146l-5 -7l-154 -5l-5 6q1 23 1 68q0 44 -1 80l4 6zM294 914
l4 -6l-2 -144l-5 -6l-160 -3l-4 5q2 54 2 72q0 13 -0.5 37t-0.5 36l4 7z" />
    <glyph glyph-name="Zcaron" unicode="&#x17d;" 
d="M564 704l-253 -552l239 7l5 -6l-10 -144l-6 -9h-308q-101 0 -209 -3l-6 7q142 302 181 380q37 74 76 171l-223 -4l-7 6l10 142l6 7q32 0 96.5 -0.5t97.5 -0.5q71 0 307 4zM212 756l-5 5q-42 84 -83 152l3 8l157 2l6 -6l32 -72l41 72l5 6h139l5 -6q-52 -83 -84 -155l-7 -6
h-209z" />
    <glyph glyph-name="zcaron" unicode="&#x17e;" horiz-adv-x="500" 
d="M477 539l5 -9q-92 -172 -194 -399l186 6l7 -5l-13 -128l-6 -4q-27 0 -83 0.5t-84 0.5q-104 0 -278 -4l-4 9q42 76 73 140q7 14 57.5 123t61.5 131h-166l-5 5l11 126l5 5q201 -1 427 3zM150 609l-4 5q-38 89 -81 175l2 4l162 6l6 -5l36 -107l39 104l6 4h139l2 -4
q-51 -96 -86 -177l-7 -5h-214z" />
    <glyph glyph-name="florin" unicode="&#x192;" horiz-adv-x="479" 
d="M-15 -44l9 4q29 -7 43 -7q38 0 47 39q10 40 18 157l14 136q-41 0 -75 -2l-6 6q16 86 22 123l7 6q27 -1 67 -1l6 51q10 91 22 121q39 100 179 100q62 0 122 -15l4 -9q-15 -78 -23 -126l-9 -4q-33 7 -44 7q-31 0 -40 -19.5t-15 -77.5l-3 -28q50 0 84 1l4 -7
q-18 -97 -23 -122l-7 -6q-36 1 -73 1l-14 -135q-8 -80 -12 -119q-11 -95 -22 -124q-39 -100 -179 -100q-62 0 -122 15l-4 9q15 78 23 126z" />
    <glyph glyph-name="circumflex" unicode="&#x2c6;" horiz-adv-x="292" 
d="M257 798l5 -5q38 -90 81 -175l-3 -4l-162 -6l-6 5l-36 107l-39 -104l-5 -4h-139l-3 4q46 85 87 177l6 5h214z" />
    <glyph glyph-name="caron" unicode="&#x2c7;" horiz-adv-x="292" 
d="M35 609l-4 5q-38 89 -81 175l2 4l162 6l6 -5l36 -107l39 104l6 4h139l2 -4q-51 -96 -86 -177l-7 -5h-214z" />
    <glyph glyph-name="breve" unicode="&#x2d8;" horiz-adv-x="292" 
d="M325 788l5 -4q-5 -63 -34 -104q-50 -70 -161 -70q-101 0 -146 61q-25 34 -27 103l6 7q65 1 127 9l6 -4q0 -60 46 -60q41 0 49 50l7 6q71 1 122 6z" />
    <glyph glyph-name="dotaccent" unicode="&#x2d9;" horiz-adv-x="292" 
d="M226 765l5 -4q-1 -79 0 -163l-5 -5q-97 -6 -155 -11l-6 5q0 20 -1.5 78.5t-2.5 81.5l4 5q3 0 161 13z" />
    <glyph glyph-name="ring" unicode="&#x2da;" horiz-adv-x="292" 
d="M279 718q2 -55 -33.5 -89t-99.5 -34q-63 0 -98 33t-35 85q0 55 36 90t97 35q60 0 95.5 -33.5t37.5 -86.5zM183 721q-2 55 -37 55q-37 0 -37 -60q0 -25 10 -42t27 -17t27.5 17.5t9.5 46.5z" />
    <glyph glyph-name="ogonek" unicode="&#x2db;" horiz-adv-x="292" 
d="M208 40l16 -41q-40 -10 -61 -28.5t-21 -39.5q0 -16 12.5 -27.5t34.5 -11.5q26 0 69 19l6 -5q-1 -18 -2 -33t-2 -22.5t-1 -18.5l-5 -6q-52 -25 -105 -25q-57 0 -89 26t-32 69q0 42 38 74.5t142 69.5z" />
    <glyph glyph-name="tilde" unicode="&#x2dc;" horiz-adv-x="292" 
d="M318 796l4 -4l3 -132l-4 -8q-52 -41 -99 -41q-20 0 -60 12l-32 12q-41 15 -67 15q-27 0 -91 -29l-4 3v120l3 8q42 34 95 34q16 0 44 -7l44 -15q46 -16 70 -16q21 0 44 12q18 12 50 36z" />
    <glyph glyph-name="hungarumlaut" unicode="&#x2dd;" horiz-adv-x="292" 
d="M151 798l3 -6q-48 -78 -111 -178l-7 -3q-52 -2 -131 -2l-4 6q34 68 60 175l5 5q130 2 185 3zM388 798l4 -6q-68 -108 -112 -178l-7 -3q-50 -2 -131 -2l-4 6q33 62 61 175l5 5q128 2 184 3z" />
    <glyph glyph-name="endash" unicode="&#x2013;" 
d="M543 363l6 -7l-10 -144l-6 -7q-158 6 -238 6q-35 0 -128 -0.5t-129 -0.5l-4 7l10 139l7 8q140 -5 252 -5q80 0 240 4z" />
    <glyph glyph-name="emdash" unicode="&#x2014;" horiz-adv-x="708" 
d="M668 363l7 -7q-8 -96 -11 -144l-6 -8q-121 7 -258 7q-120 0 -362 -2l-4 8q3 34 10 139l7 7q208 -5 375 -5q145 0 242 5z" />
    <glyph glyph-name="quoteleft" unicode="&#x2018;" horiz-adv-x="271" 
d="M6 512l-3 6q71 131 115 242l6 5q28 -1 66 -1q51 0 76 1l3 -6l-63 -238l-4 -5z" />
    <glyph glyph-name="quoteright" unicode="&#x2019;" horiz-adv-x="271" 
d="M265 765l2 -6q-65 -120 -114 -242l-7 -5q-60 2 -67 2q-25 0 -75 -2l-2 7q38 139 63 237l4 5z" />
    <glyph glyph-name="quotesinglbase" unicode="&#x201a;" horiz-adv-x="271" 
d="M265 176l2 -6q-65 -120 -114 -242l-7 -5q-60 2 -67 2q-25 0 -75 -2l-2 7q38 139 63 237l4 5z" />
    <glyph glyph-name="quotedblleft" unicode="&#x201c;" horiz-adv-x="521" 
d="M256 512l-3 6q74 138 115 242l7 5q26 -1 66 -1q50 0 75 1l3 -6l-63 -238l-5 -5zM6 512l-3 6q65 120 115 242l6 5q26 -1 66 -1q51 0 76 1l3 -6q-54 -199 -63 -238l-4 -5z" />
    <glyph glyph-name="quotedblright" unicode="&#x201d;" horiz-adv-x="521" 
d="M265 765l2 -6q-64 -120 -114 -242l-7 -5q-62 2 -67 2q-25 0 -75 -2l-2 7q20 71 63 237l4 5zM515 765l2 -6q-77 -147 -114 -242l-7 -5q-60 2 -67 2q-25 0 -75 -2l-2 7l63 237l4 5z" />
    <glyph glyph-name="quotedblbase" unicode="&#x201e;" horiz-adv-x="521" 
d="M265 177l2 -6q-59 -112 -114 -243l-7 -5q-46 2 -69 2t-73 -2l-2 7q6 24 17.5 66.5t16.5 60.5q23 82 29 110l4 5zM515 177l2 -6q-69 -130 -114 -243l-7 -5q-58 2 -71 2q-23 0 -71 -2l-2 7l63 237l4 5z" />
    <glyph glyph-name="dagger" unicode="&#x2020;" horiz-adv-x="562" 
d="M537 385l-7 -5h-156q0 -34 -0.5 -101t-0.5 -100q0 -142 6 -358l-6 -8h-184l-7 9q3 53 3 134q0 30 1.5 210.5t1.5 214.5h-167l-6 7l4 125l7 8l163 -3q0 16 0.5 48t0.5 48q0 58 -3 141l6 8l181 2l4 -9q-5 -113 -4 -238h162l6 -7z" />
    <glyph glyph-name="daggerdbl" unicode="&#x2021;" 
d="M549 432l-7 -6h-155q-1 -29 -1.5 -121t0.5 -122q83 0 163 1l5 -8q-3 -95 -5 -126l-7 -6h-156q0 -119 6 -223l-6 -8q-86 1 -182 1l-7 8q6 109 6 224q-125 0 -167 -1l-7 8q1 17 2 55t3 71l7 7q39 0 82 -1t81 -1v87q0 11 -0.5 77.5t-0.5 79.5q-45 1 -167 -1l-7 8
q1 17 2 54.5t3 70.5l7 8q104 -2 163 -2q0 5 0.5 34.5t0.5 35.5q0 51 -4 119l7 8q67 -1 178 2l5 -9q-5 -82 -5 -191q83 0 163 1l5 -8q-3 -87 -5 -126z" />
    <glyph glyph-name="bullet" unicode="&#x2022;" horiz-adv-x="333" 
d="M12 353q0 65 45 110t110 45t110 -45t45 -110t-45 -110t-110 -45t-110 45t-45 110z" />
    <glyph glyph-name="ellipsis" unicode="&#x2026;" horiz-adv-x="1000" 
d="M913 75q0 -34 -23 -57.5t-54 -23.5q-33 0 -57.5 22t-24.5 58q0 35 24.5 57.5t55.5 22.5q37 0 58 -24.5t21 -54.5zM580 75q0 -31 -21 -56t-58 -25q-32 0 -56.5 22t-24.5 58q0 33 23.5 56t58.5 23q31 0 54.5 -22t23.5 -56zM246 75q0 -31 -21.5 -56t-58.5 -25
q-30 0 -54.5 21.5t-24.5 56.5q0 39 25 60.5t54 21.5q34 0 56.5 -22.5t23.5 -56.5z" />
    <glyph glyph-name="perthousand" unicode="&#x2030;" horiz-adv-x="1312" 
d="M366 457q0 -38 -2.5 -65.5t-12.5 -61t-27 -54.5t-49.5 -35.5t-77.5 -14.5q-44 0 -76 14.5t-49.5 36t-27 54.5t-12 60.5t-2.5 63.5q0 37 2 63t11.5 60.5t26.5 56t49.5 37t77.5 15.5t77.5 -14.5t49.5 -35.5t27 -54t12.5 -60.5t2.5 -65.5zM239 457q0 70 -7 105q-8 40 -35 40
q-16 0 -26 -17q-14 -25 -14 -128q0 -73 6 -106q9 -40 34 -40q28 0 35 40q7 35 7 106zM887 221q0 -38 -2.5 -66t-12.5 -61t-27 -54t-49.5 -35.5t-77.5 -14.5q-44 0 -76 14.5t-49.5 35.5t-27 54.5t-12 60.5t-2.5 64t2 63t11.5 60.5t26.5 56t49.5 37t77.5 15.5t77.5 -14.5
t49.5 -35.5t27 -54t12.5 -60.5t2.5 -65.5zM760 221q0 70 -7 105q-8 40 -35 40q-16 0 -26 -17q-14 -25 -14 -128q0 -73 6 -106q9 -40 34 -40q28 0 35 40q7 35 7 106zM1283 221q0 -38 -2.5 -66t-12.5 -61t-27 -54t-49.5 -35.5t-77.5 -14.5q-44 0 -76 14.5t-49.5 35.5t-27 54.5
t-12 60.5t-2.5 64t2 63t11.5 60.5t26.5 56t49.5 37t77.5 15.5t77.5 -14.5t49.5 -35.5t27 -54t12.5 -60.5t2.5 -65.5zM1156 221q0 70 -7 105q-8 40 -35 40q-16 0 -26 -17q-14 -25 -14 -128q0 -73 6 -106q9 -40 34 -40q28 0 35 40q7 35 7 106zM376 10l-7 -7q-87 -3 -101 -3
l-6 9q52 121 107 246q18 39 51.5 118.5t51.5 118.5q53 124 73 178l6 6q64 0 102 1l3 -10q-174 -372 -280 -657z" />
    <glyph glyph-name="guilsinglleft" unicode="&#x2039;" horiz-adv-x="271" 
d="M104 474l7 7q56 -3 142 -2l6 -9q-67 -112 -98 -180q5 -10 95 -184l-4 -12q-83 -1 -135 0l-9 5q-7 13 -33.5 59t-49.5 85l-23 39v11q3 6 47.5 83.5t54.5 97.5z" />
    <glyph glyph-name="guilsinglright" unicode="&#x203a;" horiz-adv-x="271" 
d="M167 99l-7 -7q-57 3 -142 2l-6 9q65 108 98 180q-5 10 -95 184l4 12q72 1 135 0l8 -5q7 -13 34 -58.5t50 -85.5l23 -39v-11q-1 -3 -46 -81.5t-56 -99.5z" />
    <glyph glyph-name="fraction" unicode="&#x2044;" horiz-adv-x="125" 
d="M-29 10l-7 -6l-95 -4l-7 9q10 22 211 484q46 108 84 206l7 7h95l4 -9q-182 -388 -292 -687z" />
    <glyph glyph-name="fraction" unicode="&#x2215;" horiz-adv-x="125" 
d="M-29 10l-7 -6l-95 -4l-7 9q10 22 211 484q46 108 84 206l7 7h95l4 -9q-182 -388 -292 -687z" />
    <glyph glyph-name="Euro" unicode="&#x20ac;" 
d="M393 209l-87 1q21 -42 57 -61t74 -19q92 0 141 40l8 -4l-7 -145l-5 -6q-85 -30 -174 -30q-98 0 -182 58.5t-117 165.5h-33q-40 0 -65 -1l-6 8q18 50 28 85l6 6q19 0 53 -1q-1 11 -1 32q0 17 1 25h-12q-19 -1 -36 -1h-29l-6 8q22 59 28 85l6 6q26 0 65 -1q23 76 76.5 130
t112.5 77.5t117 23.5q126 0 191 -37l4 -7q-23 -62 -45 -136l-7 -4q-1 1 -6.5 5t-9 6.5t-11 6.5t-15.5 6.5t-18.5 5.5t-24 4.5t-28.5 1.5q-41 0 -76.5 -21t-53.5 -64q26 0 61.5 0.5t60 1t37.5 0.5q44 1 60 2l6 -6q-22 -64 -29 -88l-6 -6q-26 1 -53 1l-164 1q-1 -8 -1 -26
q0 -12 2 -34q68 0 134 2q44 1 60 2l6 -6q-18 -52 -28 -88l-6 -6q-26 1 -53 1z" />
    <glyph glyph-name="trademark" unicode="&#x2122;" horiz-adv-x="688" 
d="M674 706v-332h-82l4 177l5 67l-13 -54l-57 -190h-74l-59 192l-14 51l6 -66l6 -177h-82v332h106l76 -240l71 240h107zM186 639v-265h-84v265h-103v67h288v-67h-101z" />
    <glyph glyph-name="minus" unicode="&#x2212;" horiz-adv-x="667" 
d="M667 354v-127h-667v127h667z" />
    <glyph glyph-name="fi" unicode="&#xfb01;" horiz-adv-x="688" 
d="M363 406l-8 -6q-24 1 -73 1q-1 -239 8 -394l-7 -7q-103 1 -199 -2l-7 5q4 67 6 400q-12 0 -76 -2l-6 6q3 68 7 120l8 9q40 -3 67 -2q-1 9 -1 67q0 47 7 79.5t26 62t59 44.5t100 15t112 -9l5 -6q-7 -54 -10 -130l-8 -5q-20 6 -34 6q-18 0 -30 -7t-17.5 -21t-7 -20.5
t-2.5 -19.5q-1 -24 -1 -58q54 1 86 4l5 -7q-1 -21 -3.5 -53.5t-5.5 -69.5zM646 7l-7 -7q-110 1 -209 -3l-7 7q6 162 6 258q0 130 -12 250l6 6q110 15 210 35l5 -8v-48q-2 -108 -2 -163q0 -184 10 -327zM626 786l6 -7q-2 -114 -1 -160l-6 -6q-91 -11 -191 -29l-9 6
q0 83 -3 162l6 8q99 12 198 26z" />
    <glyph glyph-name="fl" unicode="&#xfb02;" horiz-adv-x="688" 
d="M363 406l-8 -6q-24 1 -73 1q-1 -239 8 -394l-7 -7q-103 1 -199 -2l-7 5q4 67 6 400q-12 0 -76 -2l-6 6q3 68 7 120l8 9q40 -3 67 -2q-1 9 -1 67q0 47 7 79.5t26 62t59 44.5t100 15t112 -9l5 -6q-7 -54 -10 -130l-8 -5q-20 6 -34 6q-18 0 -30 -7t-17.5 -21t-7 -20.5
t-2.5 -19.5q-1 -24 -1 -58q54 1 86 4l5 -7q-1 -21 -3.5 -53.5t-5.5 -69.5zM642 7l-7 -7q-113 1 -207 -3l-8 7q6 149 6 349q0 131 -1 197q-1 108 -10 206l6 6q141 24 207 36l8 -9q-2 -144 -2 -201v-270q0 -128 8 -311z" />
    </font>
</defs>
</svg>
