<?xml version="1.0" encoding="utf-8"?>
<!-- Generator: Adobe Illustrator 18.1.1, SVG Export Plug-In . SVG Version: 6.00 Build 0)  -->
<svg version="1.1" id="happy_face" xmlns="http://www.w3.org/2000/svg" xmlns:xlink="http://www.w3.org/1999/xlink" x="0px" y="0px"
	 viewBox="0 0 1065 1080" enable-background="new 0 0 1065 1080" xml:space="preserve">
<g>
	<g>
		<polygon fill="#363935" points="216,769.6 305,858.7 369.7,839.3 828.4,380.5 696.8,248.9 238,707.7 		"/>
		<polygon fill="#363935" points="1055.5,380.5 1065,343.4 736.6,15 696.8,21.8 637.6,81 996.3,439.8 		"/>
		<polygon fill="#363935" points="898.4,450.4 873.1,425.2 414.3,884 392.3,946 171,984.5 92.7,906.3 131.3,685 193.2,663 
			652.1,204.1 626.9,179 583.1,135.1 583.1,135.1 82.2,635.9 82.2,635.9 75.8,642.3 0,1077.3 435,1001.5 441.4,995 942.1,494.3 		
			"/>
	</g>
</g>
</svg>
