<?xml version="1.0" encoding="utf-8"?>
<!-- Generator: Adobe Illustrator 18.1.1, SVG Export Plug-In . SVG Version: 6.00 Build 0)  -->
<svg version="1.1" id="Layer_1" xmlns="http://www.w3.org/2000/svg" xmlns:xlink="http://www.w3.org/1999/xlink" x="0px" y="0px"
	 viewBox="0 0 26 45" enable-background="new 0 0 26 45" xml:space="preserve">
<g>
	<path fill="#404141" d="M2.8,4.1c-1.1,0-2-0.9-2-2c0-1.1,0.9-2,2-2c1.1,0,2,0.9,2,2C4.8,3.2,3.9,4.1,2.8,4.1z"/>
	<circle fill="#404141" cx="2.8" cy="7.2" r="2"/>
	<circle fill="#404141" cx="2.8" cy="12.3" r="2"/>
	<circle fill="#404141" cx="2.8" cy="17.4" r="2"/>
	<path fill="#404141" d="M2.8,24.5c-1.1,0-2-0.9-2-2c0-1.1,0.9-2,2-2c1.1,0,2,0.9,2,2C4.8,23.6,3.9,24.5,2.8,24.5z"/>
	<path fill="#404141" d="M2.8,29.5c-1.1,0-2-0.9-2-1.9c0-1.1,0.9-2,2-2c1.1,0,2,0.9,2,2C4.8,28.7,3.9,29.5,2.8,29.5z"/>
	<circle fill="#404141" cx="2.8" cy="32.7" r="2"/>
	<circle fill="#404141" cx="2.8" cy="37.8" r="2"/>
	<path fill="#404141" d="M2.8,44.8c-1.1,0-2-0.9-2-2c0-1.1,0.9-2,2-2c1.1,0,2,0.9,2,2C4.8,43.9,3.9,44.8,2.8,44.8z"/>
	<circle fill="#404141" cx="7.9" cy="7.2" r="2"/>
	<circle fill="#404141" cx="7.9" cy="12.3" r="2"/>
	<circle fill="#404141" cx="7.9" cy="17.4" r="2"/>
	<path fill="#404141" d="M7.9,24.5c-1.1,0-2-0.9-2-2c0-1.1,0.9-2,2-2c1.1,0,2,0.9,2,2C9.9,23.6,9,24.5,7.9,24.5z"/>
	<path fill="#404141" d="M7.9,29.5c-1.1,0-2-0.9-2-1.9c0-1.1,0.9-2,2-2c1.1,0,2,0.9,2,2C9.9,28.7,9,29.5,7.9,29.5z"/>
	<circle fill="#404141" cx="7.9" cy="32.7" r="2"/>
	<circle fill="#404141" cx="7.9" cy="37.8" r="2"/>
	<path fill="#404141" d="M13,14.3c-1.1,0-2-0.9-2-2c0-1.1,0.9-2,2-2c1.1,0,2,0.9,2,2C15,13.4,14.1,14.3,13,14.3z"/>
	<path fill="#404141" d="M13,19.4c-1.1,0-2-0.9-2-2c0-1.1,0.9-2,2-2c1.1,0,2,0.9,2,2C15,18.5,14.1,19.4,13,19.4z"/>
	<path fill="#404141" d="M13,24.5c-1.1,0-2-0.9-2-2c0-1.1,0.9-2,2-2c1.1,0,2,0.9,2,2C15,23.6,14.1,24.5,13,24.5z"/>
	<path fill="#404141" d="M13,29.5c-1.1,0-2-0.9-2-1.9c0-1.1,0.9-2,2-2c1.1,0,2,0.9,2,2C15,28.7,14.1,29.5,13,29.5z"/>
	<path fill="#404141" d="M13,34.6c-1.1,0-2-0.9-2-2c0-1.1,0.9-2,2-2c1.1,0,2,0.9,2,2C15,33.8,14.1,34.6,13,34.6z"/>
	<path fill="#404141" d="M18.1,19.4c-1.1,0-2-0.9-2-2c0-1.1,0.9-2,2-2c1.1,0,2,0.9,2,2C20,18.5,19.2,19.4,18.1,19.4z"/>
	<path fill="#404141" d="M18.1,24.5c-1.1,0-2-0.9-2-2c0-1.1,0.9-2,2-2c1.1,0,2,0.9,2,2C20,23.6,19.2,24.5,18.1,24.5z"/>
	<path fill="#404141" d="M18.1,29.5c-1.1,0-2-0.9-2-1.9c0-1.1,0.9-2,2-2c1.1,0,2,0.9,2,2C20,28.7,19.2,29.5,18.1,29.5z"/>
	<path fill="#404141" d="M23.2,24.5c-1.1,0-2-0.9-2-2c0-1.1,0.9-2,2-2c1.1,0,2,0.9,2,2C25.1,23.6,24.3,24.5,23.2,24.5z"/>
</g>
</svg>
