<?xml version="1.0" encoding="utf-8"?>
<!-- Generator: Adobe Illustrator 18.1.1, SVG Export Plug-In . SVG Version: 6.00 Build 0)  -->
<svg version="1.1" id="Layer_1" xmlns="http://www.w3.org/2000/svg" xmlns:xlink="http://www.w3.org/1999/xlink" x="0px" y="0px"
	 viewBox="0 0 26 45" enable-background="new 0 0 26 45" xml:space="preserve">
<g>
	<path fill="#404141" d="M23.2,40.9c1.1,0,2,0.9,2,2c0,1.1-0.9,2-2,2c-1.1,0-2-0.9-2-2C21.2,41.8,22.1,40.9,23.2,40.9z"/>
	<circle fill="#404141" cx="23.2" cy="37.8" r="2"/>
	<circle fill="#404141" cx="23.2" cy="32.7" r="2"/>
	<circle fill="#404141" cx="23.2" cy="27.6" r="2"/>
	<path fill="#404141" d="M23.2,20.5c1.1,0,2,0.9,2,2c0,1.1-0.9,2-2,2c-1.1,0-2-0.9-2-2C21.2,21.4,22.1,20.5,23.2,20.5z"/>
	<path fill="#404141" d="M23.2,15.5c1.1,0,2,0.9,2,1.9c0,1.1-0.9,2-2,2c-1.1,0-2-0.9-2-2C21.2,16.3,22.1,15.5,23.2,15.5z"/>
	<circle fill="#404141" cx="23.2" cy="12.3" r="2"/>
	<circle fill="#404141" cx="23.2" cy="7.2" r="2"/>
	<path fill="#404141" d="M23.2,0.2c1.1,0,2,0.9,2,2c0,1.1-0.9,2-2,2c-1.1,0-2-0.9-2-2C21.2,1.1,22.1,0.2,23.2,0.2z"/>
	<circle fill="#404141" cx="18.1" cy="37.8" r="2"/>
	<circle fill="#404141" cx="18.1" cy="32.7" r="2"/>
	<circle fill="#404141" cx="18.1" cy="27.6" r="2"/>
	<path fill="#404141" d="M18.1,20.5c1.1,0,2,0.9,2,2c0,1.1-0.9,2-2,2c-1.1,0-2-0.9-2-2C16.1,21.4,17,20.5,18.1,20.5z"/>
	<path fill="#404141" d="M18.1,15.5c1.1,0,2,0.9,2,1.9c0,1.1-0.9,2-2,2c-1.1,0-2-0.9-2-2C16.1,16.3,17,15.5,18.1,15.5z"/>
	<circle fill="#404141" cx="18.1" cy="12.3" r="2"/>
	<circle fill="#404141" cx="18.1" cy="7.2" r="2"/>
	<path fill="#404141" d="M13,30.7c1.1,0,2,0.9,2,2c0,1.1-0.9,2-2,2c-1.1,0-2-0.9-2-2C11,31.6,11.9,30.7,13,30.7z"/>
	<path fill="#404141" d="M13,25.6c1.1,0,2,0.9,2,2c0,1.1-0.9,2-2,2c-1.1,0-2-0.9-2-2C11,26.5,11.9,25.6,13,25.6z"/>
	<path fill="#404141" d="M13,20.5c1.1,0,2,0.9,2,2c0,1.1-0.9,2-2,2c-1.1,0-2-0.9-2-2C11,21.4,11.9,20.5,13,20.5z"/>
	<path fill="#404141" d="M13,15.5c1.1,0,2,0.9,2,1.9c0,1.1-0.9,2-2,2c-1.1,0-2-0.9-2-2C11,16.3,11.9,15.5,13,15.5z"/>
	<path fill="#404141" d="M13,10.4c1.1,0,2,0.9,2,2c0,1.1-0.9,2-2,2c-1.1,0-2-0.9-2-2C11,11.2,11.9,10.4,13,10.4z"/>
	<path fill="#404141" d="M7.9,25.6c1.1,0,2,0.9,2,2c0,1.1-0.9,2-2,2c-1.1,0-2-0.9-2-2C6,26.5,6.8,25.6,7.9,25.6z"/>
	<path fill="#404141" d="M7.9,20.5c1.1,0,2,0.9,2,2c0,1.1-0.9,2-2,2c-1.1,0-2-0.9-2-2C6,21.4,6.8,20.5,7.9,20.5z"/>
	<path fill="#404141" d="M7.9,15.5c1.1,0,2,0.9,2,1.9c0,1.1-0.9,2-2,2c-1.1,0-2-0.9-2-2C6,16.3,6.8,15.5,7.9,15.5z"/>
	<path fill="#404141" d="M2.8,20.5c1.1,0,2,0.9,2,2c0,1.1-0.9,2-2,2c-1.1,0-2-0.9-2-2C0.9,21.4,1.7,20.5,2.8,20.5z"/>
</g>
</svg>
